<?xml version="1.0" encoding="utf-8"?>
<!-- Generator: Adobe Illustrator 22.1.0, SVG Export Plug-In . SVG Version: 6.00 Build 0)  -->
<svg version="1.1" id="Layer_1" xmlns="http://www.w3.org/2000/svg" xmlns:xlink="http://www.w3.org/1999/xlink" x="0px" y="0px"
	 viewBox="0 0 405.4 390.4" style="enable-background:new 0 0 405.4 390.4;" xml:space="preserve">
<style type="text/css">
	.st0{fill:#2D89E7;}
	.st1{fill:#FFFFFF;}
	.st2{opacity:0.26;}
	.st3{font-family:'AmaticSC-Regular';}
	.st4{font-size:75.6488px;}
</style>
<title>placeholder</title>
<path class="st0" d="M140.7,0.9c4.4-0.7,9-0.7,13.4,0.1c12.9,2,25.4,6.5,37.7,9.9c4.7,1.3,9.5,2.1,14.4,1.2
	c13.9-2.4,27.2-9,41.2-11.4c5.8-1,11.5-1.1,17.1,0.6c8.5,2.8,15.3,8.3,21.3,14.7c8.3,8.9,13.6,18.8,20.1,28.9
	c2.7,4.1,6.7,7.1,11.3,8.7c13.6,5.2,31.1,6.3,43.4,14.6c6.4,4.1,10.2,10.7,11.9,18c3.5,14.3,0.9,30.5,2.1,45.2
	c0.6,4.9,2.3,9.6,4.9,13.9c6.1,10.7,15,20.2,21.1,30.9c2.4,4.3,4.7,9.3,4.8,14.3c0.3,6.7-1.8,13.6-4.5,19.6
	c-6.5,14.1-18.1,23.8-23.9,38.1c-4.1,10.2-3.9,20.6-3.1,31.3c0.4,9.6,1.2,21-2.5,30c-2.7,6.4-8,10-14,13c-13.2,6.4-28.6,9-42.2,14.8
	c-5,1.9-9.4,5.2-12.6,9.4c-6.1,8.3-10,18.2-16.6,26.4c-8.1,10.3-20.4,17.1-33.6,17.4c-10.8,0-20.5-4.4-30.2-8.8
	c-5.8-2.6-12.5-5.9-18.9-6.1c-4.7,0.1-9.5,1.5-13.9,3c-12,4.1-23.2,9.5-36.1,10.4c-9.7,0.8-19.3-2.5-26.5-9.1
	c-12.9-12-18.4-29.7-33.6-40.3c-11.8-8.2-24.5-8.7-37.1-13.9c-11.7-4.8-20-15.4-23.6-27.4c-2.9-10.3-0.7-22.4-0.2-32.9
	c0.2-10.2-2.2-21.3-8.3-29.6c-4.3-6.1-10-10.6-14.4-16.7c-5.5-7.3-8.4-16.6-9.4-25.6c-0.6-5.2,0.4-10.5,3-15.1
	c6.3-11.7,18.7-20,25.6-30.4c3.9-5.7,3.9-11.9,4.4-18.5c0.4-12.5-0.8-25.1,0.6-37.8c0.8-5.5,2.1-11.6,5.7-16.1
	c3.9-4.9,9.7-8.1,15.4-10.6c10.6-4.6,21.8-8.3,32.3-13.7c6.1-3.2,11.8-6.4,16.5-11.5c8.6-9.1,14.9-20.4,23.4-29.6
	C130.8,6.1,135,2.2,140.7,0.9z"/>
<path class="st1" d="M188.8,33.3c90.7-9.1,171.5,57.1,180.6,147.7c4.8,47.5-11.3,94.8-44,129.5c-57,60.6-150.2,69.2-217.4,20.2
	C34.4,277,18.2,173.8,72,100.2C99.6,62.3,142.1,38,188.8,33.3z"/>
<path class="st0" d="M184.8,45.4c6.1-0.7,12.3-1,18.5-0.9c7-0.1,14,0.1,21,0.7c59.8,7.5,109.7,49.3,127.6,106.8
	c3.8,12.4,6.4,25.5,6.4,38.5c0,8.6,0.2,17.4-0.7,26c-7.4,59.2-48.5,108.8-105.3,127.1c-12.8,4.1-26.5,6.9-40,6.9
	c-8.9,0-18.1,0.3-27-0.8c-58.8-7.8-107.9-48.7-126.1-105.2c-4.1-12.8-6.9-26.5-6.9-40c0-8-0.2-16.1,0.5-24
	C60.6,110.5,115,54.8,184.8,45.4L184.8,45.4z"/>
<text transform="matrix(0.8265 -0.5629 0.5629 0.8265 117.2485 282.0019)" class="st2 st3 st4">placeholder</text>
</svg>
