<svg id="desktop" xmlns="http://www.w3.org/2000/svg" viewBox="0 0 22.72 21.27"><defs><style>.cls-1{fill:#fff;}</style></defs><title>add-cart-white</title><path class="cls-1" d="M1003.69,74.78a2.18,2.18,0,0,0,1.11.6h13.4s.92.05,1.09-.64l3-11h-21.56Zm4.33-6.23h2.57V66a.94.94,0,0,1,1.88,0v2.57H1015a.94.94,0,1,1,0,1.88h-2.57V73a.94.94,0,0,1-1.88,0V70.43H1008a.94.94,0,1,1,0-1.88Z" transform="translate(-1000.14 -54.12)"/><path class="cls-1" d="M1019.5,61.4l-4.41-6.16a1,1,0,0,0,0-.25.88.88,0,0,0-1.75,0,.88.88,0,0,0,.88.88.79.79,0,0,0,.22,0l3.81,5.58h-13.61l3.82-5.57a1.06,1.06,0,0,0,.19,0,.88.88,0,1,0-.88-.88.76.76,0,0,0,.06.27l-4.39,6.14h-3.35v1.75h22.72V61.4Z" transform="translate(-1000.14 -54.12)"/></svg>