<svg id="desktop" xmlns="http://www.w3.org/2000/svg" viewBox="0 0 22.72 21.27"><defs><style>.cls-1{fill:#7dbe00;}</style></defs><title>basket-green</title><g id="icon"><path class="cls-1" d="M19.47,7.4,15.06,1.24a.7.7,0,0,0,0-.25.87.87,0,1,0-.87.88,1,1,0,0,0,.23-.05l3.8,5.58H4.66L8.49,1.83a1,1,0,0,0,.18,0A.88.88,0,1,0,7.79,1a.76.76,0,0,0,.06.27L3.46,7.4H.11V9.15H22.83V7.4ZM3.66,20.78a2.18,2.18,0,0,0,1.11.6h13.4s.92.05,1.09-.64l3-11H.69ZM17,19.05H5.94a.58.58,0,0,1,0-1.16H17a.58.58,0,0,1,0,1.16Zm.58-2.91H5.36a.59.59,0,1,1,0-1.17H17.59a.59.59,0,0,1,0,1.17ZM4.77,12.06h13.4a.59.59,0,1,1,0,1.17H4.77a.59.59,0,0,1,0-1.17Z" transform="translate(-0.11 -0.12)"/></g></svg>