<svg id="Layer_1" data-name="Layer 1" xmlns="http://www.w3.org/2000/svg" viewBox="0 0 150 89.34"><defs><style>.cls-1{fill:#313131;}</style></defs><title>beef-darkgray</title><path class="cls-1" d="M144.43,55.88a37.65,37.65,0,0,0-22.62-23.7c-11.2-4.06-23.74-2.85-34.94.53-13.82,4.17-26.45,11.58-38.5,19.36-12.86,8.3-25.55,16.84-38.3,25.3-1.43.94-3.31,1.32-4.67,2.37A38.14,38.14,0,0,0,1,84.25c-1.8,3.22-.7,8.91.26,12.47a17,17,0,0,0,2,4.59,22.42,22.42,0,0,0,5.2,8.75,28.63,28.63,0,0,0,15.69,8.17c13.81,2.59,27.38-2.42,40.93-4.29a65.68,65.68,0,0,1,11-.65,102,102,0,0,1,10.61.95c7.08,1,14.12,2.31,21.26,2.66,6.87.34,13.94-.21,20.33-2.92a35.89,35.89,0,0,0,14.29-11.08,36.36,36.36,0,0,0,4.94-35.28A21.67,21.67,0,0,0,146.26,65c0-.37-.06-.73-.1-1.09C146.33,62.93,145,57.56,144.43,55.88ZM6.25,81.53c1.47-1,3-2,4.45-3L20,72.38,38.82,59.92c12.13-8,24.36-16.18,37.77-22,10.93-4.71,23.07-7.85,35-6.5a40.09,40.09,0,0,1,16.11,5.23,36.49,36.49,0,0,1,11.7,11.46,38.34,38.34,0,0,1,5.77,15.32c0,.15-.07.31-.1.46s-1.1,4.75-1.6,6.75a43.62,43.62,0,0,1-2.9,8.61c-.68,1.39-1.24,2.82-1.87,4.24-.33.71-.66,1.42-1,2.12-.07.15-.15.3-.23.45a1.3,1.3,0,0,1-.1.18c-.21.39-.42.77-.64,1.15-.38.65-.77,1.28-1.19,1.91l-.59.88q-.39.56-.57.78a37.91,37.91,0,0,1-2.93,3.41,26.81,26.81,0,0,1-15.14,8.16c-5.94.87-11.87-.65-17.52-2.34A128.31,128.31,0,0,0,80.72,95.7a86,86,0,0,0-19-.63l-1.38.11c-.75,0-1.51,0-2.27.11a35.11,35.11,0,0,0-6.65,1.21A84.73,84.73,0,0,0,43,98.67c-6.54,2.07-12.79,5.26-19.62,6.3a29.23,29.23,0,0,1-9,.23,14.42,14.42,0,0,1-7.23-2.86A15.19,15.19,0,0,1,2.74,96c0-.49-.31-1-.32-1a15.37,15.37,0,0,1-.58-6,13.77,13.77,0,0,1,.88-3.52A14.53,14.53,0,0,1,6.25,81.53Zm142-8.12a35.21,35.21,0,0,1,1,9.15,32.86,32.86,0,0,1-5.32,17.08c-3.32,5.08-8.13,8.07-13.54,10.82-6,3-12.33,3.35-19,3.29-13.79-.14-27.15-3.75-41-2.7-13.6,1-26.77,6.22-40.53,5.54-6.06-.3-12.36-1.24-17.35-4.79-3.37-2.4-6.37-5.07-8.09-8.86a16,16,0,0,0,2.44,2.42l1,.89a19.64,19.64,0,0,0,3.58,2.4A16.42,16.42,0,0,0,15.66,110c6.73,1.31,13.55-1.4,19.73-3.74a94,94,0,0,1,19.68-5.37,82.76,82.76,0,0,1,19.45-.57,92.73,92.73,0,0,1,19.15,4c6,1.82,12,3.75,18.27,3.72A27.23,27.23,0,0,0,129,101.45a40.63,40.63,0,0,0,8.57-10,37.17,37.17,0,0,0,2.72-3.65,36.76,36.76,0,0,0,5.79-15.37,34.84,34.84,0,0,0,.29-4.57A37.27,37.27,0,0,1,148.22,73.41Z" transform="translate(0 -29.62)"/><path class="cls-1" d="M124.28,69.39a18.56,18.56,0,0,0-1-4.15l0-.31a15.77,15.77,0,0,0-1.16-6.05,6.2,6.2,0,0,0-1.48-2.75,13.24,13.24,0,0,0-3.47-3.45,10.82,10.82,0,0,0-1.22-1.13,10.14,10.14,0,0,0-3.88-2,9.14,9.14,0,0,0-2.17-.25,8.56,8.56,0,0,0-5.82,0,9.62,9.62,0,0,0-1.67.83,7,7,0,0,0-.94.68l-.47.43-.13.1a10.94,10.94,0,0,0-2.67,3.48,10.09,10.09,0,0,0-.38,1,14,14,0,0,0-1.1,2.39,14.8,14.8,0,0,0-.94,5.55,17.26,17.26,0,0,0,.54,3.85,36,36,0,0,0,1.22,3.77,27.82,27.82,0,0,0,3.87,7.1,13.31,13.31,0,0,0,5.6,4.23,9.1,9.1,0,0,0,3,.64,8.79,8.79,0,0,0,3.6-.49l.36-.15a9.55,9.55,0,0,0,4.48-1.44A12.32,12.32,0,0,0,124.28,69.39Z" transform="translate(0 -29.62)"/><path class="cls-1" d="M57.09,71c-.31.11-.45.51-.5.81,0,.14,0,.73.28.62a1,1,0,0,0,.49-.81C57.39,71.47,57.4,70.88,57.09,71Z" transform="translate(0 -29.62)"/><path class="cls-1" d="M23.15,91a.41.41,0,0,0-.37.17l-.51.5a1.59,1.59,0,0,0-.32.6,1.43,1.43,0,0,0-.06.68c0,.13.07.33.23.36a.43.43,0,0,0,.38-.18l.5-.55a1.63,1.63,0,0,0,.31-.58,1.65,1.65,0,0,0,.06-.66C23.34,91.18,23.29,91,23.15,91Z" transform="translate(0 -29.62)"/><path class="cls-1" d="M72.3,83.59c-.23-.19-.48.08-.6.27s-.36.67-.53,1a2,2,0,0,0-.18.76.78.78,0,0,0,.15.53c.33.28.66-.27.77-.51s.32-.72.45-1.1a1.57,1.57,0,0,0,.07-.57A.59.59,0,0,0,72.3,83.59Z" transform="translate(0 -29.62)"/><path class="cls-1" d="M89.49,57l-1-.85c-.33-.27-.7-.71-1.15-.69a1.55,1.55,0,0,0-1.21,1.67c.1.43.61.7,1,1l1.06.83C88.71,59.4,90.12,57.51,89.49,57Z" transform="translate(0 -29.62)"/><path class="cls-1" d="M64,83c-.2-.28-.49,0-.63.2s-.27.49-.4.73l-.14.27,0,.07c-.05.08-.05.09,0,0v0l-.06.1c-.22.36-.47,1.09-.19,1.48s.72-.18.84-.46.39-.85.56-1.29S64.23,83.34,64,83Z" transform="translate(0 -29.62)"/><path class="cls-1" d="M81.58,66.89a.34.34,0,0,0-.28.07l-.18.13-.09.07a1.38,1.38,0,0,0-.28.31,1.57,1.57,0,0,0-.18.42,1,1,0,0,0-.06.34.71.71,0,0,0,.11.57.29.29,0,0,0,.22.09H81a.33.33,0,0,0,.28-.07,1.19,1.19,0,0,0,.28-.31,2.25,2.25,0,0,0,.27-.75,1.56,1.56,0,0,0,0-.37.8.8,0,0,0-.06-.3A.38.38,0,0,0,81.58,66.89Z" transform="translate(0 -29.62)"/><path class="cls-1" d="M57.81,58.36c0-.11-.07-.28-.21-.27l-.34,0a.36.36,0,0,0-.21,0,.68.68,0,0,0-.23.14,1.62,1.62,0,0,0-.44.53.94.94,0,0,0-.15.54c0,.12.06.25.21.26l.31,0a.73.73,0,0,0,.46-.19,1.66,1.66,0,0,0,.44-.54A.91.91,0,0,0,57.81,58.36Z" transform="translate(0 -29.62)"/><path class="cls-1" d="M109.56,93.36c-.4.14-.58.66-.64,1,0,.18,0,.93.35.8a1.26,1.26,0,0,0,.63-1C109.93,94,110,93.22,109.56,93.36Z" transform="translate(0 -29.62)"/><path class="cls-1" d="M120,50.29l-1.59-.41c-.61-.15-1.54,1.54-.88,1.63l1.67.25C119.68,51.84,120.59,50.45,120,50.29Z" transform="translate(0 -29.62)"/><path class="cls-1" d="M133.57,51.39c-.28-.23-.55.23-.65.43l-.39.84a1.56,1.56,0,0,0-.14.63c0,.12,0,.35.12.44.28.23.54-.23.63-.42l.41-.83a1.61,1.61,0,0,0,.14-.64C133.69,51.72,133.68,51.48,133.57,51.39Z" transform="translate(0 -29.62)"/><path class="cls-1" d="M136.5,72.73c-.37.13-.53.61-.59,1,0,.17,0,.86.32.73s.53-.61.59-1C136.84,73.3,136.85,72.6,136.5,72.73Z" transform="translate(0 -29.62)"/><path class="cls-1" d="M30.87,78.44a.25.25,0,0,0-.27-.17c-.34.1-.51.61-.55.91l-.11.73a1,1,0,0,0,0,.55.24.24,0,0,0,.28.17.66.66,0,0,0,.35-.31,1.77,1.77,0,0,0,.23-.63L30.9,79A1.06,1.06,0,0,0,30.87,78.44Z" transform="translate(0 -29.62)"/></svg>