<svg id="Layer_1" data-name="Layer 1" xmlns="http://www.w3.org/2000/svg" viewBox="0 0 66.54 88"><defs><style>.cls-1{fill:#fff;}</style></defs><title>fish-white</title><path class="cls-1" d="M55.42,86.48A54,54,0,0,0,30.84,27.8c-1.77-1.07-3.39,1.7-1.62,2.77a50.66,50.66,0,0,1,23.1,55.06c-.48,2,2.62,2.86,3.1.85Z" transform="translate(-10.73 0.12)"/><path class="cls-1" d="M54.64,84.73C39.91,81.08,34.67,65,33.22,51.64a226.08,226.08,0,0,1,.25-49.95c.23-2-3-2-3.22,0a236.68,236.68,0,0,0-.85,42.67c.78,11.82,2.28,24.3,9.92,33.86a27.08,27.08,0,0,0,14.46,9.6c2,.5,2.87-2.6.86-3.09Z" transform="translate(-10.73 0.12)"/><path class="cls-1" d="M30.77.27q-9,7.46-18.74,14c-1.7,1.15-.1,3.93,1.63,2.77Q23.7,10.27,33,2.54C34.64,1.22,32.35-1,30.77.27Z" transform="translate(-10.73 0.12)"/><path class="cls-1" d="M11.47,17.12A119.92,119.92,0,0,1,29,31.15c1.48,1.44,3.75-.83,2.27-2.27A124.41,124.41,0,0,0,13.09,14.35c-1.73-1.14-3.35,1.64-1.62,2.77Z" transform="translate(-10.73 0.12)"/><path class="cls-1" d="M51.18,69.37a1.45,1.45,0,0,0-2-1.39,1.46,1.46,0,0,0-.24,2.34c.39.32,1-.24.56-.57a.66.66,0,0,1,0-1c.43-.27.91.24.88.66s.76.52.8,0Z" transform="translate(-10.73 0.12)"/><path class="cls-1" d="M26.44,14.16a13.71,13.71,0,0,1-1.91-5.55c-.06-.5-.86-.51-.8,0a14.72,14.72,0,0,0,2,6,.4.4,0,0,0,.69-.41Z" transform="translate(-10.73 0.12)"/><path class="cls-1" d="M23.54,16.27a15.23,15.23,0,0,0-4.12-4.38c-.42-.31-.82.39-.41.69a14.3,14.3,0,0,1,3.84,4.1.4.4,0,0,0,.69-.41Z" transform="translate(-10.73 0.12)"/><path class="cls-1" d="M48.53,62.79a13.37,13.37,0,0,0-6.61,2.41c-.42.29,0,1,.41.69a12.6,12.6,0,0,1,6.2-2.3c.51-.05.51-.85,0-.8Z" transform="translate(-10.73 0.12)"/><path class="cls-1" d="M47,61.28a16.69,16.69,0,0,0-4,1.8.4.4,0,0,0,.41.69,15.47,15.47,0,0,1,3.85-1.72c.49-.14.28-.92-.21-.77Z" transform="translate(-10.73 0.12)"/><path class="cls-1" d="M77,52.38A34.7,34.7,0,0,0,46.5,25.22c-1.54-.15-1.53,2.26,0,2.41A32.23,32.23,0,0,1,74.66,53c.33,1.51,2.65.87,2.33-.64Z" transform="translate(-10.73 0.12)"/><path class="cls-1" d="M75.76,51.57c-10,1.93-17.31-6.74-21.84-14.37A148.4,148.4,0,0,1,41.18,9.75c-.5-1.45-2.82-.83-2.32.64a140.92,140.92,0,0,0,14.38,30.3c5,7.87,13.1,15.15,23.16,13.2,1.52-.29.88-2.61-.64-2.32Z" transform="translate(-10.73 0.12)"/><path class="cls-1" d="M38.93,9.29q-3.23,6.89-7.09,13.43a1.2,1.2,0,0,0,2.08,1.21Q37.79,17.39,41,10.5c.65-1.39-1.42-2.62-2.08-1.21Z" transform="translate(-10.73 0.12)"/><path class="cls-1" d="M32.26,24.7a78.69,78.69,0,0,1,14.19,3.35c1.47.49,2.11-1.84.64-2.33A79.52,79.52,0,0,0,32.9,22.38c-1.52-.22-2.17,2.1-.64,2.32Z" transform="translate(-10.73 0.12)"/><path class="cls-1" d="M69.86,43.82a1,1,0,1,0-1.22,1.3.4.4,0,0,0,.21-.77c-.51-.15.07-.73.24-.32s1,.27.77-.21Z" transform="translate(-10.73 0.12)"/><path class="cls-1" d="M40.37,18.61A8.46,8.46,0,0,1,37.81,16c-.28-.44-1,0-.7.4A9.52,9.52,0,0,0,40,19.31c.43.28.83-.41.4-.7Z" transform="translate(-10.73 0.12)"/><path class="cls-1" d="M39.28,20.63a9.72,9.72,0,0,0-3.56-1.4c-.5-.09-.72.68-.21.77a9.3,9.3,0,0,1,3.36,1.32c.44.28.84-.42.41-.69Z" transform="translate(-10.73 0.12)"/><path class="cls-1" d="M66.28,40.63a8.54,8.54,0,0,0-3.2,3.25c-.25.45.45.86.7.41a7.73,7.73,0,0,1,2.9-3,.4.4,0,0,0-.4-.69Z" transform="translate(-10.73 0.12)"/><path class="cls-1" d="M65,40.19a10.48,10.48,0,0,0-1.86,2.18c-.28.43.41.83.69.4a9.83,9.83,0,0,1,1.74-2c.38-.35-.18-.91-.57-.57Z" transform="translate(-10.73 0.12)"/></svg>