<svg id="Layer_1" data-name="Layer 1" xmlns="http://www.w3.org/2000/svg" viewBox="0 0 87.33 87.33"><defs><style>.cls-1{fill:#fff;}</style></defs><title>fruit-white</title><path class="cls-1" d="M44,87.33A43.67,43.67,0,1,1,87.66,43.66,43.71,43.71,0,0,1,44,87.33ZM44,4A39.67,39.67,0,1,0,83.66,43.66,39.7,39.7,0,0,0,44,4Z" transform="translate(-0.34)"/><path class="cls-1" d="M44,62.05a6.39,6.39,0,0,1-6.35-5.71,5.71,5.71,0,0,1-4.72-1.6A5.64,5.64,0,0,1,31.32,50a6.39,6.39,0,0,1,0-12.7A5.65,5.65,0,0,1,37.65,31a6.39,6.39,0,0,1,12.7,0,5.63,5.63,0,0,1,6.33,6.33,6.39,6.39,0,0,1,0,12.7,5.66,5.66,0,0,1-6.33,6.34A6.39,6.39,0,0,1,44,62.05ZM41.61,48.39v7.27a2.39,2.39,0,0,0,4.78,0V48.39l3.51,3.52a1.72,1.72,0,0,0,2.35,0,1.65,1.65,0,0,0,.48-1.17,1.67,1.67,0,0,0-.48-1.18l-3.52-3.51H56a2.39,2.39,0,0,0,0-4.77H48.73l3.52-3.52a1.67,1.67,0,0,0,0-2.34,1.72,1.72,0,0,0-2.35,0l-3.51,3.51V31.67a2.39,2.39,0,0,0-4.78,0v7.26L38.1,35.42a1.7,1.7,0,0,0-2.34,0,1.6,1.6,0,0,0-.49,1.17,1.63,1.63,0,0,0,.48,1.17l3.52,3.52H32a2.39,2.39,0,0,0,0,4.77h7.27l-3.52,3.51a1.67,1.67,0,0,0-.48,1.18,1.65,1.65,0,0,0,.48,1.17,1.72,1.72,0,0,0,2.35,0Z" transform="translate(-0.34)"/></svg>