<svg id="Layer_1" data-name="Layer 1" xmlns="http://www.w3.org/2000/svg" viewBox="0 0 100.34 149"><defs><style>.cls-1{fill:#313131;}</style></defs><title>fruitarian-darkgray</title><path class="cls-1" d="M126.18,101.76C122,80.05,103.78,67.74,83.8,63,93.72,53.66,102,42,108.18,30.64c.45-.83.63-2.78-.89-1.91A98.08,98.08,0,0,0,74.7,58.84a151.59,151.59,0,0,1,1-23.33C77,26,78,10.1,87.15,4.78,88,4.31,90.37.16,88.27.85,78.91,3.9,75.91,14.68,74,23.28a135.85,135.85,0,0,0-3.29,27.13,33.39,33.39,0,0,0-23-23.93c-1.67-.49-3.25,2.88-3,4.11A69.23,69.23,0,0,0,57.73,58.48,33.7,33.7,0,0,0,32.16,74.67c-11,18.52-4.64,41.46,10.25,55.7C57.48,144.78,82.6,155,103.08,147,121,140,129.66,120,126.18,101.76Zm-22.7-67.6C96.75,44.94,88.61,53.74,79.46,62c-1.31-.24-2.63-.45-3.95-.63A88.75,88.75,0,0,1,103.48,34.16ZM49.83,32.62a31.77,31.77,0,0,1,19,27.23,24.93,24.93,0,0,0-2.77-.8A71,71,0,0,1,49.83,32.62Zm64.84,101c-7.93,9.08-21.6,10.21-32.74,8.38-20.89-3.42-43.37-18.16-49.32-39.4-3.57-12.75-1.09-28.58,11-35.92a28.55,28.55,0,0,1,17.8-4A52.25,52.25,0,0,0,70.25,70l-1.58,1.32c-.73.61-2.36,4.3-.24,3.1C70,73.56,71.49,72.6,73,71.6c.7.1,1.56-.6,2.13-1.46.66-.47,1.31-1,2-1.46,17.59,5.2,35.28,15.45,41.45,33.26C122,112,122,125.24,114.67,133.65Z" transform="translate(-26.6 -0.77)"/><path class="cls-1" d="M56.26,107.63c-6.63-6.67-9.7-15.71-6.57-24.87.84-2.47-2.06-.67-2.52.67C43.87,93,45.93,104.15,54,110.75,55,111.54,57.18,108.56,56.26,107.63Z" transform="translate(-26.6 -0.77)"/></svg>