<svg id="Layer_1" data-name="Layer 1" xmlns="http://www.w3.org/2000/svg" viewBox="0 0 120.12 149"><defs><style>.cls-1{fill:#313131;}</style></defs><title>gluten-free-darkgray</title><path class="cls-1" d="M127.82,1.28C118.28-1.32,109.09,8,104.07,15a46.22,46.22,0,0,0-8.65,25.85c-1,2.9-2.06,5.74-3.21,8.4-9.72-7-17-17.25-18.93-29.23-.79-4.94-1.79-16,8.34-14.78,3.12.39,6.12,2.89,7.67,5.55C94.2,19.19,88.13,28.65,84,35.89c-1.31,2.31.88,2.51,2.12.78C91.62,29,97.87,18.61,94.24,8.81,91.19.59,81.82-2.57,75,3.17c-17,14.34,1.61,41.7,15.14,50.61q-4.89,10.65-10.48,21-1.22,2-2.31,4.07a3.8,3.8,0,0,0-.29.71c-1.52,2.7-3,5.39-4.63,8-2.36,4-4.83,7.9-7.35,11.78a44.89,44.89,0,0,0-10.63,11.42,49.79,49.79,0,0,0-4.07-27.21c-2.55-5.35-7.82-10.84-13.72-6.22-5.16,4-4.36,11.11-3,16.77a46.1,46.1,0,0,0,17,25.39.72.72,0,0,0,.27.12c-.47.64-.93,1.29-1.41,1.93-8.39,11.11-17.69,20.89-32.14,22.86-1.23.17-4.07,4.23-2.09,4.55,11.73,1.88,22-5.62,29.8-13.56a148.1,148.1,0,0,0,14.26-17.09c9.76,1.31,24.41.17,32.66-5.35,5.28-3.53,9.08-10.68,4.93-16.45-4.76-6.62-14.35-5.25-21.34-2.77q3-4.81,5.81-9.72c6.75,4.41,16.67-.54,23.42-4.17C112,76,119.57,68.56,118.29,59.7,116.76,49.15,106.23,49.6,99,54.19,98,54.86,97,55.59,96,56.34c.31-.68.65-1.34,1-2q3.94-8.52,7.45-17.22c9.54-2.87,19.4-6.8,25.82-14.71C135.23,16.18,138.13,4.08,127.82,1.28ZM50.69,113.5a46.44,46.44,0,0,1-9.26-12c-2.2-4.12-6.42-12.76-5.09-17.45,3.48-12.25,12.16,7.81,13,10.92A54.46,54.46,0,0,1,50.69,113.5Zm2.86,2.62a0,0,0,0,1,0,0c0-.09.06-.17.08-.25.13-.6.22-1.22.33-1.83a3.55,3.55,0,0,0,1.9-1.46A31.2,31.2,0,0,1,59,108.4Q56.33,112.3,53.55,116.12ZM91.34,98.39c5.56,4,.93,10.53-4.38,12.83-2.43,1-5.65,1.24-8.22,1.64-5.5.85-11,1-16.56,1.53,3.74-5.37,7.29-10.86,10.72-16.28C79.19,95.27,86,94.54,91.34,98.39Zm21.57-39.58C120.49,70.4,95.09,85.47,84,79.42q4.83-8.64,9.22-17.5C100.15,55.35,108,51.3,112.91,58.81Zm8.74-33.1c-4.82,3.09-10.17,5.1-15.52,7.1,2.17-5.29,6.51-12.9,4.73-18.55-.65-2-3.72,1.19-4.09,1.66a44.38,44.38,0,0,0-5.1,8.53c3.12-8.46,8.83-15.87,17.47-18,4-1,6.79-1,9.77,2.37C134.1,14.64,126.79,22.41,121.65,25.71Z" transform="translate(-14.65 -0.25)"/><path class="cls-1" d="M65.3,45.24c-8.62-.89-13,7.84-13.45,15.19-.69,12,4.86,23.81,12.51,32.68.87,1,3.74-2.46,2.92-3.52-1-1.3-2-2.64-2.85-4a23.42,23.42,0,0,0,14.78-17.7C80.79,58.93,75.52,46.28,65.3,45.24Zm-.08,36.64a5.94,5.94,0,0,0-1.63,2.4,52.19,52.19,0,0,1-4.5-8.77c-1.86-4.79-5.38-14.32-3.16-19.44q3.36-3,6.71-6a13.33,13.33,0,0,1,6.42,3.08A17.63,17.63,0,0,1,74,60.08C77.73,69,73.67,77.39,65.22,81.88Z" transform="translate(-14.65 -0.25)"/></svg>