<svg id="Layer_1" data-name="Layer 1" xmlns="http://www.w3.org/2000/svg" viewBox="0 0 126.18 140"><defs><style>.cls-1{fill:#313131;}</style></defs><title>high-fiber-darkgray</title><path class="cls-1" d="M38.67,94.93A39.67,39.67,0,0,0,16.21,80.7c-2.1-.51-4.34,3.49-4.27,5.17a51.64,51.64,0,0,0,4.47,19.62c1.93,4.25,5.19,11.26,10.34,12.46a8.34,8.34,0,0,0,2.73.18c4.83,3.81,10.49,3.22,13.87-3.21C47,108,43,100.5,38.67,94.93ZM31.75,108c-2.83-2.5-5.67-5.34-7.21-8.2a39.57,39.57,0,0,1-1.19-3.79c0-1.91,2-1.13,4.14,1,1.72,1.74,2.75,4.42,3.68,6.65A9,9,0,0,1,31.75,108Zm6.16,5.54c.36-.78.7-1.56,1.05-2.37.9-2.13-.51-2.16-1.77-1.46a20.47,20.47,0,0,0,.56-4.51c.27.52.53,1,.77,1.58a17.09,17.09,0,0,1,1.64,5.05A11.35,11.35,0,0,1,37.91,113.58Z" transform="translate(-11.94 -4.12)"/><path class="cls-1" d="M88.16,55.56C84.08,47,74.77,51.13,70.63,57.27c-4.59,6.8-8.54,19.59-5.5,27.58S76.71,95,82.88,89.19a.23.23,0,0,0,.07-.07,13,13,0,0,0,5.47-5.93C91.93,75.8,91.61,62.85,88.16,55.56ZM82.35,67.8c.07.22.11.46.17.68a6.32,6.32,0,0,0-1.13-.12c-1.4,0-5.07,4.28-3.19,5,2.08.85,2.87,3.2-.77,0-.64-.55-1.83-3.48-2.27-6.11.67-1.39,1.42-2.74,2.16-4h2.51A9.37,9.37,0,0,1,82.35,67.8ZM75.59,82.27a10.3,10.3,0,0,1-1.33-1.78,6.91,6.91,0,0,0,4.43.57,7.91,7.91,0,0,0,4.78-3.48c-.24,2.8-1.17,5.91-3,7.53A9.31,9.31,0,0,1,75.59,82.27ZM79,56.11a7.66,7.66,0,0,0-5.26,3C75.07,57.2,76.8,55.77,79,56.11Zm-8.28,9.56a25.07,25.07,0,0,0-.56,5.59,27,27,0,0,0-1,3.43A28.67,28.67,0,0,1,70.74,65.67Z" transform="translate(-11.94 -4.12)"/><path class="cls-1" d="M39.85,20.21a8,8,0,0,0-.76-9.46c-3-3.7-7.54-3.47-11.31-1.54-1.28-.33-2.74,1.1-3.69,2.68a19.09,19.09,0,0,0-5.42,15.19c.38,5,4,13,8.94,18.5l.3,1.83c.18,1.08,1,.9,1.78.25,4.94,4.39,10.79,5.84,16-.31C52.75,38.91,47.1,28,39.85,20.21Zm-7.06,3.86a36.15,36.15,0,0,1,7.86,16.46c.79,4.12.23,4.9-2.89.66a28.63,28.63,0,0,1-3.23-6.39A38.21,38.21,0,0,1,32,23.88,5.8,5.8,0,0,0,32.79,24.07Zm-8,3.84a20.89,20.89,0,0,1-1.07-8.44c.38,3,.79,5.9,1.22,8.85Z" transform="translate(-11.94 -4.12)"/><path class="cls-1" d="M92.69,127.5c0-.34-.09-.69-.16-1A9,9,0,0,0,91,123.1c-1.2-5.39-7.09-8.63-12.94-7.08-6.73,1.77-11.35,9.12-11.4,15.86a12,12,0,0,0,14.76,11.89,14.22,14.22,0,0,0,6.92-4.24,12.35,12.35,0,0,0,4.87-8.05A7.58,7.58,0,0,0,92.69,127.5Zm-10.93-.8-.87,1.55a12.09,12.09,0,0,0-1.09,1.95,8,8,0,0,0-.35.75,7.05,7.05,0,0,1-2.18-2.79c-.08-1.22.53-2.18,2.43-2.26a7.19,7.19,0,0,1,2.38.35A3.48,3.48,0,0,0,81.76,126.7Zm2.61,5a5.9,5.9,0,0,1-1.61.27A5.6,5.6,0,0,0,84,130.43c-.07.15.55.45,1.31.87A4.89,4.89,0,0,1,84.37,131.69Z" transform="translate(-11.94 -4.12)"/><path class="cls-1" d="M121.74,23.65a24.14,24.14,0,0,0-.85-5.72c-1.53-5.63-5-14.81-12.34-13.73C99.55,5.53,97,14.63,98.13,23.38c0,3.74.74,7.37,3.11,10.28a18.33,18.33,0,0,0,2.65,3.91c-.06.59.25.78.7.72,4.6,4.34,10.89,3.18,14.58-1.7C122.09,32.74,122.47,28.17,121.74,23.65Zm-13,2.48c-.19-1.43-1.53-5.08-.85-6.46,2.43-4.91,5.85,1.42,6.59,3.12A24.49,24.49,0,0,1,116,28.33c-.73,3.72-4.1,3.39-7,1.64A24.73,24.73,0,0,0,108.75,26.13Zm-.1-14.6a10.22,10.22,0,0,0-2.49,2,13.3,13.3,0,0,0-2.6,4.14l0-.15a51,51,0,0,1,.75-5.6,3.59,3.59,0,0,1,2.08-.91A3.54,3.54,0,0,1,108.65,11.53Z" transform="translate(-11.94 -4.12)"/><path class="cls-1" d="M130.06,93.86c-7.54-4.76-17.25-7.74-24.82-1.44a15.92,15.92,0,0,0-3.38,21.07c4.74,7.32,14.45,10.42,22,5.72a18.45,18.45,0,0,0,2.11-1.53c3.41.78,7.87-1.62,9.92-4.7C140.84,105.61,136.84,98.15,130.06,93.86Zm-11.35,9.45a5.18,5.18,0,0,1,1.63,1.91q1.34,1.48-.63.17C118.31,105,118,104.34,118.71,103.31Zm-7.58-7.66a15,15,0,0,1,3.15.1,18.66,18.66,0,0,0-8,9.51C104.34,100.89,105.5,96.08,111.13,95.65Zm-3.61,11.85a4.69,4.69,0,0,0,1.9-1.52,9,9,0,0,1,2.19-2.06c-.73,3-.56,6.3,1.06,8.26A16.08,16.08,0,0,1,107.52,107.5Zm10,6.45-.15,0a12.38,12.38,0,0,0,1.49-.21,8.67,8.67,0,0,0,3.15-1.49,2.29,2.29,0,0,0-.06,1.18A8.44,8.44,0,0,1,117.56,114Z" transform="translate(-11.94 -4.12)"/></svg>