<svg id="Layer_1" data-name="Layer 1" xmlns="http://www.w3.org/2000/svg" viewBox="0 0 149 119.3"><defs><style>.cls-1{fill:#313131;}</style></defs><title>lactose-free-darkgray</title><path class="cls-1" d="M74.7,15.53c-2.26-1.38-5.37-1-7.9-1-4-.06-7.93-.05-11.9,0-4.95,0-9.09-.35-11,5.06-1.16,3.25-.58,5.3,1,6.51A6.76,6.76,0,0,0,46,29c2.86,4.23,9.25,2,13.22,1.25s8.15-1.48,12.2-2.31c2.29-.47,3.26-.77,4.54-2.73C77.92,22.14,78.15,17.64,74.7,15.53ZM73,21.61a1.75,1.75,0,0,1,.5,1.26l-1.35.27A8.7,8.7,0,0,0,73,21.61Z" transform="translate(-0.12 -14.44)"/><path class="cls-1" d="M147.34,22c-12.76,6.87-24.74,15.59-36.9,23.47L86.12,61.19a119.89,119.89,0,0,0-19.66-37c-.71-.89-3.15,2.08-2.53,3A166.33,166.33,0,0,1,82.06,63.82l-7.31,4.74-7.7,5A187.07,187.07,0,0,0,45,58c3.81-10.5,9.17-20.23,13.68-30.93.89-2.11-1.57-.68-2.12.21a161.08,161.08,0,0,0-14.62,29C30.45,49.83,18.16,45.11,4.81,43.38c-1.59-.21-4.1,4-2.33,4.29,13.57,2,26,7.22,37.53,14.21a90.52,90.52,0,0,0-3.3,14.82,157.2,157.2,0,0,0-1.29,17.46L2,116c-1.25.82-3.12,5.51-.74,4q17-10.83,34.1-21.64a163.29,163.29,0,0,0,3.34,32.95c.28,1.29,1.32.76,2.22-.22,14.94,4.07,31.45,2.81,46.65,1,.59.59,2.76-1.65,2.93-2.25a.14.14,0,0,0,0-.06c.78-1.23,1.25-2.63.89-3.36A87.6,87.6,0,0,0,93.56,106c.87.75,1.72,1.52,2.59,2.27,8.57,7.37,18.81,17.57,30,20.45,1.76.45,4.59-3.75,3.23-5.12-4.45-4.52-10.59-7.43-15.77-11.13s-10.3-7.79-15.25-11.94c-1.75-1.48-3.49-3-5.22-4.48A160.64,160.64,0,0,0,89.88,74.9q-1.06-4.83-2.47-9.57c19.1-11.81,38.6-23.39,56.66-36.56,0,.25-.09.5-.13.75-.52,3.1,3.4-.25,3.8-1.56L149,24C149.36,22.63,149.1,21,147.34,22ZM40.59,75.67a74.86,74.86,0,0,1,2.49-11.88A190.76,190.76,0,0,1,61.35,77.28q-10.73,7-21.45,14A108.78,108.78,0,0,1,40.59,75.67Zm48.66,28.11c.22,7.55-.88,14.91-1.49,22.33-15,1.64-29.9,1-45,1.49a1,1,0,0,0-.43.13c-.42-10.91-1.84-21.6-2.32-32.38L64.4,79.85c1.27,1.09,2.54,2.18,3.79,3.29,7.07,6.23,14,12.67,21,19C89.18,102.66,89.24,103.22,89.25,103.78Zm-.89-11.91c-6-5.28-12-10.59-18.17-15.71l4.89-3.11q4.1-2.61,8.26-5.2c.87,2.83,1.68,5.69,2.36,8.6A134.29,134.29,0,0,1,88.36,91.87Z" transform="translate(-0.12 -14.44)"/></svg>