<svg id="Layer_1" data-name="Layer 1" xmlns="http://www.w3.org/2000/svg" viewBox="0 0 149 110.86"><defs><style>.cls-1{fill:#313131;}</style></defs><title>legumes-darkgray</title><path class="cls-1" d="M84.58,46.61C83.32,36.05,81.3,22.67,69.3,19.55,59.93,17.12,46.83,22,41,29.75c-6.34,8.4-1.58,19.71,4.48,26.77A46.69,46.69,0,0,0,76.93,72.3a1.18,1.18,0,0,0,1,.12l.07,0c.14,0,.28,0,.42,0a1.09,1.09,0,0,0,1.16-.7C87.5,67.5,85.44,53.76,84.58,46.61Zm-7,23.25a44.12,44.12,0,0,1-29-13.63C44.93,52.28,41.82,47.4,40.88,42,39.63,34.72,43.44,29.53,49.5,26c5.21-3,11.24-5.34,17.35-4.41,7.46,1.13,11.12,6.57,13,13.44a87.82,87.82,0,0,1,2.75,19C82.75,59,83.38,67.66,77.62,69.86Z" transform="translate(-0.41 -18.93)"/><path class="cls-1" d="M67,58.71c-1.68,0-1.42,2.49.25,2.49S68.63,58.71,67,58.71Z" transform="translate(-0.41 -18.93)"/><path class="cls-1" d="M76.69,58.71a1.25,1.25,0,1,0,.08,2.49A1.25,1.25,0,1,0,76.69,58.71Z" transform="translate(-0.41 -18.93)"/><path class="cls-1" d="M70.48,62.22c-1.69,0-1.43,2.48.24,2.48S72.14,62.22,70.48,62.22Z" transform="translate(-0.41 -18.93)"/><path class="cls-1" d="M34.21,103.66c7-8,15.69-18.38,10-29.4C39.84,65.64,27.46,59.11,17.81,59.9,7.31,60.75,2,71.83.8,81.05a46.66,46.66,0,0,0,9.14,34,1.19,1.19,0,0,0,.6.85l.08,0,.25.33a1.09,1.09,0,0,0,1.29.4C20.56,119.74,29.44,109.06,34.21,103.66Zm-22,10.27A44.12,44.12,0,0,1,3.13,83.24C3.6,77.83,5.18,72.26,8.6,68c4.58-5.76,11-6.37,17.63-4.17,5.72,1.89,11.46,4.84,14.84,10,4.12,6.32,2.49,12.68-1.42,18.61a87.29,87.29,0,0,1-12.32,14.66C23.75,110.53,17.7,116.76,12.22,113.93Z" transform="translate(-0.41 -18.93)"/><path class="cls-1" d="M104.27,102.4c-3.77-9.94-9-22.45-21.34-22.59-9.68-.1-21.22,7.81-25,16.71-4.13,9.69,3.2,19.52,10.79,24.91A46.68,46.68,0,0,0,103,129.18a1.2,1.2,0,0,0,1-.14l.06,0,.41-.07a1.08,1.08,0,0,0,1-1C112.14,122,106.83,109.13,104.27,102.4Zm-1.15,24.24a44.19,44.19,0,0,1-31.4-6.25c-4.57-2.94-8.76-6.93-11-12-3-6.74-.51-12.69,4.53-17.54C69.6,86.7,74.89,83,81,82.42c7.52-.7,12.39,3.7,15.81,9.93a87.08,87.08,0,0,1,7.23,17.73C105.47,114.85,108.17,123.12,103.12,126.64Z" transform="translate(-0.41 -18.93)"/><path class="cls-1" d="M128,67c9.73-4.3,21.94-10.14,21.41-22.52-.4-9.67-8.92-20.78-18-24.1-9.89-3.61-19.32,4.24-24.3,12.11a46.69,46.69,0,0,0-5.91,34.69,1.21,1.21,0,0,0,.19,1,.18.18,0,0,1,0,.07c0,.13.06.27.09.4a1.11,1.11,0,0,0,1,.91C108.86,75.84,121.39,69.85,128,67Zm-24.27.13a44.14,44.14,0,0,1,4.57-31.68c2.69-4.72,6.46-9.12,11.37-11.6,6.57-3.32,12.64-1.19,17.76,3.58,4.4,4.11,8.38,9.2,9.28,15.31,1.1,7.47-3,12.56-9.07,16.31a87.86,87.86,0,0,1-17.32,8.17C115.61,68.81,107.5,71.94,103.71,67.08Z" transform="translate(-0.41 -18.93)"/></svg>