<svg id="Layer_1" data-name="Layer 1" xmlns="http://www.w3.org/2000/svg" viewBox="0 0 149 126.17"><defs><style>.cls-1{fill:#313131;}</style></defs><title>low-fat-darkgray</title><path class="cls-1" d="M137.82,25.55c1.23-5.94-2.44-11.72-9.44-12.28-8.5-.69-15.32,7.66-19.72,13.76-1.63,2.24-.55,5.31,1.91,2.43,3.15-3.69,6.59-8.43,11.47-9.87,3.85-1.14,14.13,2.27,11.29,8.31-.42.88-1.21,2.69.21,3.09,10.73,3,17.59,19.36,3.72,24.45-1.65.61-4.47,3.67-3,5.48,10.51,12.94,1.15,30.09-15.54,27.46-1.92-.3-4.41,3.44-3.72,5.11,3.4,8.19.64,18.32-9,20.36a18.41,18.41,0,0,1-16.82-5.35c-1.58-1.56-4.14,3.26-4.12,4.36a19.18,19.18,0,0,1-22.58,19.43,23.31,23.31,0,0,1-18.24-16.38c-.54-1.77-3.19,1.41-3.45,1.88-5.37,9.67-19.68,12.21-28.57,5.95S.89,103,8.26,94.64C8.81,94,10,92.5,9.43,91.57,4.72,83.48,4.2,72.36,11.12,65.2c6.19-6.42,15.86-7.56,24-4.92,1.49.48,3.2-2.75,2.83-3.9-3.14-9.77,1.54-20.76,12.23-22.9A20.53,20.53,0,0,1,69,39.91c1.22,1.27,3.31-2.68,3.05-3.68C69.21,25.46,77,14.76,88.45,15.62a19.63,19.63,0,0,1,16.22,11.91c.54,1.25,3.08-1.6,2.63-2.77C103.15,13.83,89.9,8,79.4,14.12A23.27,23.27,0,0,0,68.15,32.77c-15.58-11.05-36.41,4-34.55,22.3C12.49,51.4-4.72,74.77,5.48,94.25-1.83,104.48-2,120.16,9.1,128.07c10.55,7.53,24.38,3.18,32-6,4.69,11.83,18.22,19.12,30.59,14.22a28.83,28.83,0,0,0,17-19.84c14.93,10.42,34.41-5.14,32.15-22.2,17.06-1,28.19-20.79,19.32-35.82C151.89,50.08,153.66,31,137.82,25.55Z" transform="translate(-0.33 -11.63)"/><path class="cls-1" d="M58.83,63.94c-3,4.15-9.07,2.57-12.46.06-1.09-.8-3.22,2.2-2.63,3.17,4.13,6.81,13.74,3,16.88-2.57C61.72,62.64,59.88,62.48,58.83,63.94Z" transform="translate(-0.33 -11.63)"/><path class="cls-1" d="M86.27,52.05c-1.42,0-3.58,3.82-2.09,3.84,4.12,0,8.81,5.37,4.67,8.74-.73.59-2.37,4.14-.23,3a10.05,10.05,0,0,0,5.18-9.2A7.25,7.25,0,0,0,86.27,52.05Z" transform="translate(-0.33 -11.63)"/><path class="cls-1" d="M84.73,90.07a27,27,0,0,1-22.19,3.31c-1.32-.37-3.66,3.31-2.06,3.79a26.41,26.41,0,0,0,24.05-4.45C85.23,92.18,86.45,89,84.73,90.07Z" transform="translate(-0.33 -11.63)"/><path class="cls-1" d="M113.3,53c-.75-.91-3.41,2.21-2.46,3.38,2.32,2.86,2.55,7.58-.51,10-.71.56-1.87,3.8-.2,2.68C115.34,65.59,117.48,58.13,113.3,53Z" transform="translate(-0.33 -11.63)"/><path class="cls-1" d="M38,94.65c-4-1.94-8-3.77-12.1-5.57-1.34-.58-3.5,2.84-2.41,3.31,4.11,1.79,8.23,3.52,12.4,5.16C37.07,98,39,95.13,38,94.65Z" transform="translate(-0.33 -11.63)"/><path class="cls-1" d="M107.17,39.62c-.59-2.38-1.39-4.71-2.14-7-.4-1.27-3.34,1.64-2.86,3,.78,2.25,1.51,4.53,2.46,6.72.32.75,1.37-.1,1.68-.42A2.61,2.61,0,0,0,107.17,39.62Z" transform="translate(-0.33 -11.63)"/><path class="cls-1" d="M101.23,88.05c-.18-1-1.19-.49-1.72,0a3,3,0,0,0-1.13,2.64c.29,1.23.55,2.46.93,3.66.21.69,1.22,0,1.46-.25A2.87,2.87,0,0,0,101.83,92C101.7,90.68,101.45,89.37,101.23,88.05Z" transform="translate(-0.33 -11.63)"/></svg>