<svg id="Layer_1" data-name="Layer 1" xmlns="http://www.w3.org/2000/svg" viewBox="0 0 140.81 149"><defs><style>.cls-1{fill:#313131;}</style></defs><title>low-sodium-darkgray</title><path class="cls-1" d="M144.11,26.54C140.62,9.32,126-5.42,107.78,3.19,92,10.66,86.35,26.46,83.4,42.36c-5.26-16.72-15.76-33.77-33.79-37-20.08-3.67-38.44,11-43.78,29.84C-.59,57.72,15.62,76.7,32.63,89.2c21.5,15.8,46.83,29,47.46,59.22.08,3.65,5.07-1.82,5.46-3a43.06,43.06,0,0,0,2-9.12C103.36,122,117.78,103.76,129,86.05,139.85,68.8,148.3,47.22,144.11,26.54Zm-8.74,25.12c-4.67,31.66-29.73,52.09-48,76.3-4.61-30.8-52.74-44.06-68.7-68.07-6.37-9.59-9.35-22-3.84-32.71,5.8-11.3,19.7-15.6,31.59-13.37C66.89,17.64,75,37.46,82.15,54.49c.73,1.73,3.84-2.08,3.58-3.29l-.33-1.46a3.36,3.36,0,0,0,.65-1.28c2.78-16.2,11.73-48.6,35-36.91C135.24,18.67,137.42,37.75,135.37,51.66Z" transform="translate(-4.39 -0.66)"/></svg>