<svg id="Layer_1" data-name="Layer 1" xmlns="http://www.w3.org/2000/svg" viewBox="0 0 87.99 149"><defs><style>.cls-1{fill:#313131;}</style></defs><title>low-carb-darkgray</title><path class="cls-1" d="M116.42,2.05q-7.87,11.85-15.73,23.7C96.42,32.17,90.81,45.3,81.63,44.2c2.82-6.22,5.57-13.44,2.67-20-2.59-5.88-9.08-9.22-14.85-5.52s-7.93,11-7.07,17.56c.43,3.26,1.2,8.48,3.26,12.12-5-3.59-10.75-9.79-11.79-10.77q-9.54-8.9-19.08-17.77c-1.26-1.16-3.42,2.53-3.31,3.51C33.33,39.3,51,44.68,58,57.57c4.08,7.48,2.35,16.83,1.77,25.13-.36-.31-1.7,1.13-1.75,1.76-1.5,21.45-2.54,42.94-3.68,64.41-.11,2.16,3.16-1,3.39-1.84,5.09-17.84,9.26-35.94,12.61-54.18,4.82,18.08,6.21,36.78,7.66,55.42.21,2.69,3.91-1.59,4.08-2.74a248.75,248.75,0,0,0,2.65-35.86c0-6.46-.36-12.89-.82-19.33-.46-6.24-2.11-12.7-.33-18.81s5.28-11.77,8.25-17.39l8.9-16.81Q109.88,20.17,119,3C120.49.18,117.89-.17,116.42,2.05ZM39.89,31.62c3.11,2.91,6.2,5.82,9.31,8.72A61,61,0,0,1,39.89,31.62Zm57.43,6.13q-4.68,8.76-9.38,17.52c-3,5.51-6.27,11-8.25,16.95-1.86,5.58-1.43,10.23-.6,15.92a159.52,159.52,0,0,1,1.47,19.16c.16,5.61.09,11.22-.17,16.82-1.5-14.33-3.82-28.55-8.3-42.28-.66-2-3.71,2.28-3.83,3q-4,24.17-9.84,47.93.34-9.57.67-19.15a3.39,3.39,0,0,0,1.78-1.85q1.52-14.94,2.71-29.92c.67-8.14,2.61-17.82-.41-25.67a23.36,23.36,0,0,0-3.41-5.95c2.51,2.44,5.39,5,8.94,4.77,3.09-.18,5.22-2.17,6.69-4.73.4-.7.93-2.64-.56-2.34-5.59,1.13-7.07-6.57-8-10.44-1.32-5.32-2.58-16.46,5.87-16.29,4.21.08,7.52,3.76,8.76,7.51,1.94,5.83-.91,12-3.32,17.22-.31.66-.87,1.93.15,2.24,9.47,2.89,15.65-7.72,20-14.21q2.58-3.85,5.17-7.72Z" transform="translate(-31.46 -0.6)"/></svg>