<svg id="Layer_1" data-name="Layer 1" xmlns="http://www.w3.org/2000/svg" viewBox="0 0 148.91 112.6"><defs><style>.cls-1{fill:#313131;}</style></defs><title>mushroom-darkgray</title><path class="cls-1" d="M39.77,62.51C24.32,57,5.88,64.6,1,80.86c-2.38,7.91-.5,17.22,6.27,22.38.61.46,1.73-1.23,1.3-1.78a23.87,23.87,0,0,1-5-19.82C5,75.26,9.63,70.21,15.43,67.44c13.64-6.52,29.7.5,38.26,11.86C58,85.06,61.2,92.2,60.85,99.47c-2.2,4.24-8.86,1.75-12.28.54a78.56,78.56,0,0,0-14.36-4c-9.2-1.38-18.32,1.45-25.8,6.87-.32.23-1.47,2.15-.35,1.9,4-.91,7.73-2.77,11.7-3.87A275.69,275.69,0,0,1,24.09,130a.32.32,0,0,0,.42.31,73.45,73.45,0,0,1,21.65-.83c.68.08,1.4-1.11,1.23-1.69l-3.87-12.92c-1.2-4-2.8-8.1-2.62-12.3,4.77,1.54,10.33,4.65,15.43,3.3a10.42,10.42,0,0,0,4.27-2.4c.63,1.48,3.33-2.3,3.45-2.94C67.07,84.52,54.53,67.73,39.77,62.51Zm1.65,51.79q2,6.6,3.95,13.19a72.61,72.61,0,0,0-11.89-.07q-2.8.22-5.6.66c-.87.13-1.7.58-2.37-.14-.43-.48-.29-3-.37-3.67A197,197,0,0,0,21.2,100.5c.64-.14,1.29-.26,1.94-.34,5.54-.73,11.13.44,16.43,2C38.79,106.31,40.23,110.33,41.42,114.3Z" transform="translate(0 -17.85)"/><path class="cls-1" d="M17.5,77.83c-1.51-.39-3.63-.49-3.77,1.53,0,.2.33-.1.34-.23L15,78.06l.92,0a6.15,6.15,0,0,1,1,.18,10.26,10.26,0,0,1,1.95.61,3,3,0,0,1,1.88,3.83,3.36,3.36,0,0,1-4.84,1.54,4.51,4.51,0,0,1-2.1-2.91c0-.14-.36.18-.32.33a4.27,4.27,0,0,0,4.45,3.48,3.74,3.74,0,0,0,3.36-3.33C21.45,79.42,19.46,78.33,17.5,77.83Z" transform="translate(0 -17.85)"/><path class="cls-1" d="M33.69,74.59c-.13.11-.22.52,0,.31,2.13-1.87,4.87-.84,6.23,1.3a7.87,7.87,0,0,1,1,2.94,13.1,13.1,0,0,1,.13,1.65,3,3,0,0,1-1.85,3.41c-1.68,1.74-1.9,2.46-4,1a5,5,0,0,1-1.67-2,5.28,5.28,0,0,1,4.14-7.34c.15,0,.4-.47.16-.44a6,6,0,0,0-5.18,5.19c-.33,3.16,2.69,7.27,6.15,5.54C45,83.1,39.68,69.3,33.69,74.59Z" transform="translate(0 -17.85)"/><path class="cls-1" d="M52.28,92.59a4.25,4.25,0,0,0-3.59-.29c-.14,0-.39.45-.16.42,1.28-.17,3-.48,3.85.79a1.28,1.28,0,0,1-1,2,1.61,1.61,0,0,1-1.45-1.47c0-.24-.42.15-.4.32.21,2,2.74,2,3.43.31A1.81,1.81,0,0,0,52.28,92.59Z" transform="translate(0 -17.85)"/><path class="cls-1" d="M30.25,69.89a2,2,0,0,0-3.06,1c-.12.33.26.08.33-.08A1.57,1.57,0,0,1,30,70.43a1.67,1.67,0,0,1-.73,2.85,2.16,2.16,0,0,1-2.35-1,2.38,2.38,0,0,1,1-3.31c.13-.08.32-.54.07-.4a3.16,3.16,0,0,0-1.63,3.61,2.36,2.36,0,0,0,3.77,1.11A2.22,2.22,0,0,0,30.25,69.89Z" transform="translate(0 -17.85)"/><path class="cls-1" d="M28.74,86.42A2.27,2.27,0,0,0,26,87c-.16.18-.15.51.11.26a2,2,0,0,1,3.24.61c.21.49.28,1.24-.41,1.47a.86.86,0,0,1-.76-.14c-.59-.47-.23-1.36,0-1.91.13-.29-.24-.14-.32,0-.31.68-.81,2,.1,2.45.75.4,1.59-.28,1.83-1A2,2,0,0,0,28.74,86.42Z" transform="translate(0 -17.85)"/><path class="cls-1" d="M147,64.34a136.16,136.16,0,0,0-4.34-14c-3-8-7.31-15.62-13.59-21.49a41.9,41.9,0,0,0-23-10.6c-10-1.36-20.13.68-29.27,4.78-7.37,3.3-17.19,11.61-25.42,6.88L49.7,28.72l0,0h0l-.81-.57c-1-.66-2.3,1.36-2.53,2C40.16,48.2,59.08,60,72.74,66.51l1.18.55c4.32,18.16-.86,38-14.8,50.72-.38.35-2.31,2.62-1.18,3.13l20.89,9.44c1.29.59,2.56-1.6,2.8-2.59a234.92,234.92,0,0,1,8.93-29.25,65.21,65.21,0,0,1,6.23-12.89,33.44,33.44,0,0,1,8.26-8.51l.12,0c.11.3.23.59.35.89.31.76,1,.24,1.67-.52a132.6,132.6,0,0,0,17.68,1.83,129,129,0,0,0,14-.3c3.46-.26,7.31-.08,9.24-3.5S147.93,67.72,147,64.34ZM88.59,96.55a197.85,197.85,0,0,0-9.19,29.36l-17.56-7.85C74.6,104.82,80.55,86.42,76.92,68.42a131.53,131.53,0,0,0,24.57,8C95.51,81.68,91.49,89.44,88.59,96.55Zm56.28-21.9a100.51,100.51,0,0,1-12.86.73,130.56,130.56,0,0,1-23.91-2.1.2.2,0,0,1,0-.07c-.08-.77-.73-.81-1.32-.5-.15.07-.29.16-.43.24a129,129,0,0,1-23.29-6.88c-2.53-1-5.07-2.1-7.58-3.27a.31.31,0,0,0-.39-.18A81.41,81.41,0,0,1,59,52.92C53,48.16,47.51,40.58,48.3,32.64l.94.56c.38.23.88,0,1.34-.36,4.9,2.57,11.08.69,15.91-1.76,3.8-1.92,7.43-4.1,11.41-5.66a57.63,57.63,0,0,1,12.57-3.36c16.83-2.49,33.3,4.34,42.61,18.68,4.59,7.06,7.47,15,9.75,23.08.6,2.14,1.17,4.28,1.72,6.44.26,1,.53,2,.77,3a8.1,8.1,0,0,0,.32,1.27A6.8,6.8,0,0,1,144.87,74.65Z" transform="translate(0 -17.85)"/><path class="cls-1" d="M92.63,30.19a4.25,4.25,0,0,0-5.08,3.47c0,.48.49,0,.59-.16,2-4,7.15-1.72,6.36,2.36C94,38.25,91.92,39.52,90,38c-1.72-1.33-1.55-3.65-.73-5.44.22-.49-.25-.38-.41-.05-1.09,2.23-1.42,5.51,1.25,6.78,2.23,1.06,4.13-.82,4.88-2.79C95.88,34.16,95.43,31,92.63,30.19Z" transform="translate(0 -17.85)"/><path class="cls-1" d="M128.15,62a2.92,2.92,0,0,0-4-1.53c.19-.24.33-.59,0-.54a4.2,4.2,0,0,0-3.2,4.66,3.6,3.6,0,0,0,5.09,2.48A4.1,4.1,0,0,0,128.15,62Zm-2.94,4.55c-3.32.19-4.71-4.29-1.66-5.7a3.36,3.36,0,0,0-.69.67c-.28.38,0,.59.3.22a2.45,2.45,0,0,1,3.09-.58,3,3,0,0,1,1.23,1.3A2.82,2.82,0,0,1,125.21,66.55Z" transform="translate(0 -17.85)"/><path class="cls-1" d="M100,45.42a4.13,4.13,0,0,0-3.54.71c-.17.12-.45.81-.1.67a.27.27,0,0,0,0,.2l.77,1.15c.14.22.38.78.61.91a3,3,0,0,0,1.73,0,2.44,2.44,0,0,0,1.84-1.71A1.64,1.64,0,0,0,100,45.42Zm-1.49,3c-.7-.2-1.19-1.25-1.6-1.84,1.15-.5,2.88-.83,3.63.36S99.35,48.61,98.51,48.38Z" transform="translate(0 -17.85)"/><path class="cls-1" d="M120.72,35.58c-.11.05-.52.67-.24.65a4.47,4.47,0,0,1,1.21.06c-.55,1.09-1,2.4-.23,3.46a1.53,1.53,0,0,0,2.6-.19A2.75,2.75,0,0,0,120.72,35.58ZM123,39.63a1.32,1.32,0,0,1-1-.56,2.42,2.42,0,0,1,0-2.68,2.36,2.36,0,0,1,1.73,1.81C123.93,38.76,123.84,39.6,123,39.63Z" transform="translate(0 -17.85)"/><path class="cls-1" d="M69.42,45.69a2.44,2.44,0,0,0-2,2.44,2.22,2.22,0,0,1-.18-.67c0-.33-.56.21-.55.44a2.43,2.43,0,0,0,2.64,2.4A2.75,2.75,0,0,0,71.57,48,2,2,0,0,0,69.42,45.69ZM70.67,49c-1,1.3-2.59.48-3.19-.72.14.08.5-.37.51-.54C68.13,45.22,72.09,47.07,70.67,49Z" transform="translate(0 -17.85)"/><path class="cls-1" d="M104.06,58.43a3.25,3.25,0,0,0-3.15.16c-.15.08-.5.77-.18.65,1.13-.42,2.6-.7,3.41.47.47.7.23,1.75-.75,1.71a1.43,1.43,0,0,1-1.3-1.16c-.07-.36-.62.21-.57.45.38,2,2.88,1.66,3.42-.06A2,2,0,0,0,104.06,58.43Z" transform="translate(0 -17.85)"/></svg>