<svg id="Layer_1" data-name="Layer 1" xmlns="http://www.w3.org/2000/svg" viewBox="0 0 149 132.83"><defs><style>.cls-1{fill:#313131;}</style></defs><title>organic-darkgray</title><path class="cls-1" d="M147.74,13q-1,2.88-2,5.67l-3.71.85a30.2,30.2,0,0,0,4.57-11c.31-1.5-1.7.28-1.89,1a27.6,27.6,0,0,1-5.23,10.57l-37.52,8.59c-13.31,3-28.05,4.78-40.7,10.07A26.06,26.06,0,0,0,45.62,60.19,46,46,0,0,0,15.56,37.83c-2.6-4.24-6.26-7-11.47-5.53-1.7.46-4.31,3.51-3.44,5.41,1.3,2.85,3.5,3.45,5.8,5.51,2.73,2.45,4.58,5.7,6.27,8.91,3.27,6.19,4.39,13,6.87,19.47,4.48,11.74,14.62,20.09,27.31,21,1.21.09,3.37-3.17,1.88-3.46-.31-.06-.6-.15-.9-.21a2.22,2.22,0,0,0,.61-1.66,73.08,73.08,0,0,0-17-27.81c-.68-.71-2.73,1.8-1.93,2.65a78.43,78.43,0,0,1,16.3,26.32c-15-4.17-21.47-16.17-24.2-31.29a78.7,78.7,0,0,0-3.86-14.93C35.56,48.16,48.22,64.52,49,84.53c.06,1.49,2.46-.92,2.45-1.94a47.39,47.39,0,0,0-.67-7.69,21.57,21.57,0,0,0,2.72,2.45c.19.15.45.08.71-.09a60.23,60.23,0,0,0-3.49,28.23c-.33,13.85,3.45,26.93,16.4,35.1,1.11.7,3.35-2.39,2.31-3.17-21-15.73-16.52-42.49-10.24-64.59h.13c-.24.59-.25,1.12.18,1.31,15.14,6.94,31.57-.73,44.61-8.78,1.5-.93,3-1.89,4.48-2.86a69,69,0,0,0,13.15-7.27c13.23-9.47,26.38-26.19,27.72-43C149.58,10.78,147.93,12.37,147.74,13ZM50.23,50.28C55.67,39.85,71.82,38.56,82,36.09q27.48-6.63,55-13.33C127.86,31.63,113.2,34.85,101.05,38c-12.57,3.3-24,8-33.16,17.47A62.88,62.88,0,0,0,55,75.2C48.56,68.79,45.82,58.74,50.23,50.28Zm21.45,21c3.93-.52,7.87-1.09,11.79-1.77A49.37,49.37,0,0,1,71.68,71.27Zm69.4-42.06a2.29,2.29,0,0,0-.9.55C127.84,40.68,113.65,55,97.74,63.61c-11.37,3.21-23.41,4.8-34.84,7-.35-.07-.7-.11-1.06-.18a1.77,1.77,0,0,0-1.32.65l-.88.18L60.3,69c.16-.54.15-.86,0-1.05a55.59,55.59,0,0,1,29-24.26c16.09-5.77,39.09-8,50.71-21.71l4.77-1.16C143.68,23.73,142.44,26.52,141.08,29.21Z" transform="translate(-0.47 -7.86)"/></svg>