<svg id="Layer_1" data-name="Layer 1" xmlns="http://www.w3.org/2000/svg" viewBox="0 0 149 120.48"><defs><style>.cls-1{fill:#313131;}</style></defs><title>pasta-darkgray</title><path class="cls-1" d="M146.89,80.55a6.51,6.51,0,0,1-1.39-1.9c-.47-1.26.31-2.51,1.55-4.28.37-.53.74-1.05,1-1.56,1.95-3.34,1.83-6.42-.39-9.41-.35-.47-.78-.93-1.19-1.38-.84-.89-1.7-1.82-1.78-2.66a4.6,4.6,0,0,1,1-2.51,8.47,8.47,0,0,0,1.4-3.25,5.25,5.25,0,0,0-1.46-4.42,7.85,7.85,0,0,0-1.35-1.12l-.28-.2c-1-.74-1.19-1.48-.83-3.58.55-3.18.81-6.57-2.38-9.84-6.3-6.44-17.73-5.33-25.6-2.43-9.5,3.51-17,10.47-23.65,17.47-.71.75-1.44,1.59-2.19,2.47-3.1,3.6-6.6,7.69-10.94,7-5.4-.88-8.5-6.22-11-11.16-1.79-3.55-3.55-7.12-5.31-10.69l-.66-1.34a2.39,2.39,0,0,0-.43-1.45c-.3-.44-.61-.88-.93-1.31l-.3-.62a2.5,2.5,0,0,0-1-1,45.76,45.76,0,0,0-19.05-14c-4.26-1.66-17.2-6.69-21.07,2.17a16.05,16.05,0,0,0-.9,3.11,11.45,11.45,0,0,1-.92,3c-.66,1.2-1.8,1.69-3.24,2.3a19.76,19.76,0,0,0-2.09,1C7.9,31,8,34.32,8.1,37.24q0,.82,0,1.71c0,2.48-.9,3.81-2.24,5.83l-.73,1.11a9,9,0,0,0-1.38,5.63,20.79,20.79,0,0,0,.42,2.82,13.3,13.3,0,0,1,.38,3.35A7.3,7.3,0,0,1,3,61.27a13.74,13.74,0,0,0-1.74,3.15,7,7,0,0,0-.09,4.38A21.35,21.35,0,0,0,1.92,71c.7,1.77,1.13,2.84.13,4.56-2.5,4.29-1.84,6.64.57,10.29,1.8,2.73,1.09,4.55-.22,7.89a6.59,6.59,0,0,0-.15,5.37,7.89,7.89,0,0,0,2.8,3l.43.33c2,1.49,2.34,2.64,1.66,5.35-1.61,6.39.72,9.51,3,11,9.18,6.08,34.44-3.8,40.42-8.32,3.35-2.54,5.68-5.85,7.94-9,.55-.78,1.1-1.56,1.67-2.34,2.49-3.39,7.43-8.76,12.58-6.62,3.5,1.45,5,5.77,6.38,9.59l.49,1.37a59.62,59.62,0,0,0,6.2,12.46c5.66,8.53,13.63,14.71,22.43,17.39a38.93,38.93,0,0,0,10.5,1.65c4.62,0,9.45-1.21,11.77-5.58a9.16,9.16,0,0,0,.88-4.08c0-.53.06-1.07.14-1.62.19-1.22.9-1.61,2.5-2.38.41-.2.83-.4,1.25-.63,3.08-1.69,4.36-3.91,3.82-6.6a5.17,5.17,0,0,0-.47-1.21,2.74,2.74,0,0,1-.21-.46c-.15-1.7.7-2.5,2.34-3.87a21.29,21.29,0,0,0,4.07-4.17,8.2,8.2,0,0,0,1.59-5,8.07,8.07,0,0,0-.53-2.33c-.11-.34-.23-.68-.32-1.05-.3-1.38.08-2.22,1.16-3.79,1.71-2.5,3.84-5.61,1.83-9.36A11.13,11.13,0,0,0,146.89,80.55Zm-6.25,16,.08.43c.08.46.19.88.29,1.29.33,1.27.45,1.87,0,2.78a12.78,12.78,0,0,1-2.93,3.16c-.37.33-.77.64-1.17.95-2,1.59-4.54,3.57-3.63,7.24.12.49.28,1,.43,1.38.48,1.41.55,1.59-.36,2.23a10,10,0,0,1-1.57.82c-.51.24-1,.47-1.48.74a8.3,8.3,0,0,0-3.18,2.85,6.84,6.84,0,0,0-.69,4,5,5,0,0,1-.2,2.3c-1.65,3.74-8.73,3.22-11.7,2.81a32.6,32.6,0,0,1-14-5.49c-7-4.77-12.56-12.4-16.18-22.06l-.34-.94c-2.13-5.75-5-13.63-13-14-.24,0-.48,0-.72,0C62.6,87.08,58,93.64,54.2,98.94c-.5.71-1,1.41-1.47,2.07-5,6.86-13.41,11.25-26.32,13.82l-1.22.25c-4.17.87-10.46,2.18-13-.94-1.18-1.42-.85-2.92-.22-5.25.5-1.82,1.06-3.89.36-6a7.9,7.9,0,0,0-2.76-3.6,11.11,11.11,0,0,0-1-.67,6.37,6.37,0,0,1-.9-.65c-.86-.8-.72-1.48-.09-3.38l.23-.72c1-3.34,1.72-6.42-.8-10.34-.24-.38-.5-.72-.75-1-.82-1.1-1.19-1.59-.81-3a4.34,4.34,0,0,1,.65-1.16,9.91,9.91,0,0,0,.63-1,7.5,7.5,0,0,0,.86-5.93,17.73,17.73,0,0,0-.85-2.33c-.73-1.74-1.13-2.69,0-4.5.21-.32.43-.64.65-.95a11.63,11.63,0,0,0,1.79-3.31,13.06,13.06,0,0,0,0-6.28l-.21-1.21a9.08,9.08,0,0,1-.23-2.63,4.51,4.51,0,0,1,1.23-2.32c.27-.34.54-.69.8-1.07a12.14,12.14,0,0,0,2.33-6.4,23.33,23.33,0,0,0,0-2.51c-.11-2.61-.09-4.14,1.64-5.14.58-.33,1.13-.62,1.65-.89,2.48-1.29,4.62-2.41,5.8-6.23.18-.59.33-1.18.47-1.77.54-2.24.93-3.54,2.62-4.2,1.91-.75,4.41-.2,6.62.29l.32.06A40.67,40.67,0,0,1,55.91,35.49L57.66,39c1.6,3.24,3.2,6.49,4.86,9.82,1.79,3.59,3.63,7.3,6.59,10.25a14.26,14.26,0,0,0,10.12,4.58h0A14.22,14.22,0,0,0,89.38,59c1.44-1.47,2.86-3,4.28-4.47,5.17-5.47,10.51-11.13,17.09-15a33.86,33.86,0,0,1,13.41-4.72c1.94-.22,11.75-1,14.26,4.62.53,1.17.15,2.38-.29,3.77-.53,1.69-1.19,3.78.06,5.91a5.92,5.92,0,0,0,2.22,2,5.23,5.23,0,0,1,1.08.81c.88,1,.65,1.49-.29,3A9.05,9.05,0,0,0,140,57.41c-.89,3.35,1,5.57,2.6,7.53l.6.74c1.9,2.36,1.07,3.63-.43,6a17.31,17.31,0,0,0-2,3.74c-1.15,3.32.32,5.79,1.91,7.76,1.82,2.26,1.9,3.27.44,5.4-.17.26-.35.51-.53.76a11.53,11.53,0,0,0-2.1,4A7.25,7.25,0,0,0,140.64,96.6Z" transform="translate(-0.46 -14.36)"/><path class="cls-1" d="M110,69.08h0c-3.92-2.21-8.48-2.38-13.95-.5-1.21.42-2.38.86-3.52,1.28-5,1.85-9.27,3.44-14.89,2.82-3.07-.34-6.58-.86-9.41-2.63a25.84,25.84,0,0,1-4.12-3.5,35.7,35.7,0,0,0-3.16-2.84,26.18,26.18,0,0,0-14-5.24A1.63,1.63,0,0,0,45.07,60a1.73,1.73,0,0,0,1.62,1.91c7.08.6,11.83,4.2,15.91,8a21.63,21.63,0,0,0,5.95,4,58.26,58.26,0,0,0-6.92,1.38c-1.93.51-3.87,1.15-5.74,1.76C51.6,78.49,47.17,80,42.57,79.8a1.66,1.66,0,0,0-1.3.5,1.76,1.76,0,0,0-.48,1.14,1.79,1.79,0,0,0,.4,1.19,1.72,1.72,0,0,0,1.28.6c4.9.16,9.45-1.31,13.85-2.74,1.26-.4,2.53-.81,3.81-1.19,5.55-1.62,12.07-3.11,18.35-1.78,4.46.94,8,3.85,11.53,6.67,4.11,3.32,8.36,6.76,14.09,7.12h.13a1.62,1.62,0,0,0,1.66-1.57,1.71,1.71,0,0,0-1.65-1.86c-4.63-.29-8.21-3.31-11.67-6.23-.87-.73-1.73-1.46-2.6-2.14A30.44,30.44,0,0,0,84.48,76a25,25,0,0,0,5.45-1.34c1-.38,2.11-.82,3.19-1.26,5-2,10.13-4.16,15-1.41a1.8,1.8,0,0,0,2.46-.71A1.58,1.58,0,0,0,110,69.08Z" transform="translate(-0.46 -14.36)"/></svg>