<svg id="Layer_1" data-name="Layer 1" xmlns="http://www.w3.org/2000/svg" viewBox="0 0 149 70.25"><defs><style>.cls-1{fill:#313131;}</style></defs><title>pescatarian-darkgray</title><path class="cls-1" d="M13.4,63c-1,0-2.35,2.55-1.39,2.55S14.36,63,13.4,63Z" transform="translate(-0.52 -36.88)"/><path class="cls-1" d="M149,61.88c-1.16.16-2.32.35-3.48.56-.6-6.87-1.66-14.08-4-20.39.71-1.59,1.18-3.24.53-4.76-.45-1.06-1.91.21-2.3.57-4.48,4.17-6.25,11.87-8.83,17.3C128.77,59.6,126.51,64,124,68.22A106.61,106.61,0,0,0,113,59C99.93,49.46,84.26,43.15,68,42.12,40.08,40.34,10.91,55.65.66,82.53c-.51,1.34.55,1.09,1.28.48C26.83,99.53,62.45,115,92.25,102.73c12.25-5,22.28-14.33,30-24.91,1.4,1.46,2.77,3,4.09,4.47,4.38,5.07,7.89,12.24,13.35,16.16a1.17,1.17,0,0,0,1.38,0c-.17,1.75-.34,3.5-.53,5.24-.21,2,2.11-.41,2.33-1.26A103.91,103.91,0,0,0,146.15,76h0c.81,0,2.54-2.34,1.38-2.53-.48-.09-1-.14-1.45-.2,0-1.15-.07-2.31-.14-3.48-.09-1.53-.19-3.11-.31-4.72.78-.17,1.55-.35,2.31-.55S150.37,61.69,149,61.88ZM89.22,97.77c-14,3.94-28.85,1.4-42.68-1.93C31.79,92.28,17.25,87.36,3.86,80.16a.63.63,0,0,0-.27-.06C16.78,54.48,45.76,44.3,73.43,49.8a89.79,89.79,0,0,1,38.95,18.81q3.7,3,7.13,6.38C112,85.41,101.81,94.21,89.22,97.77Zm47.65-22.21c1.81.12,3.63.27,5.45.36,0,4.82-.2,9.64-.54,14.46-2.56-5.66-7.26-10.8-11.21-15.28-1.2-1.37-2.45-2.71-3.72-4a153.34,153.34,0,0,0,8-14.63c1.5-3.12,2.92-6.28,4.32-9.45.84,5.43,1.8,10.79,2.44,16.24-2.08.46-4.16.94-6.24,1.39-.88.19-2.28,2.82-1,2.57,2.49-.46,5-.89,7.48-1.37.19,1.94.33,3.9.39,5.88,0,.4,0,.8,0,1.2l-3.87-.16C137.33,72.7,135.75,75.49,136.87,75.56Z" transform="translate(-0.52 -36.88)"/><path class="cls-1" d="M38.72,68.25a2.9,2.9,0,0,0-1.51-1.57c-1.18-.45-2,.59-2.72,1.4-.33.37-.91,1.13-.7,1.68s.71.29,1.08,0c.16-.11.29-.24.44-.36a2.6,2.6,0,0,1,1.22,1.41,2.8,2.8,0,0,1,.18,1s0,.09,0,.17a4.41,4.41,0,0,1-.85.13,2.69,2.69,0,0,1-1.2-.52c-.66-.49-1.42-1.47-1.1-2.34.18-.49.17-1.07-.47-1s-1.22,1-1.42,1.52a3.71,3.71,0,0,0,1.57,4.66c1.77,1,3.65.15,4.78-1.38A5,5,0,0,0,38.72,68.25Z" transform="translate(-0.52 -36.88)"/><path class="cls-1" d="M50.84,68.37c-.22-.86-2.17,1.13-2,2.06a56.09,56.09,0,0,1,.43,22.9c-.27,1.58,1.78-.29,2-1.07A49.77,49.77,0,0,0,50.84,68.37Z" transform="translate(-0.52 -36.88)"/><path class="cls-1" d="M55.28,69.47c-.41-.89-2.25,1.16-1.89,2a30.68,30.68,0,0,1,.76,22.65c-.63,1.82,1.45.41,1.82-.49A29.66,29.66,0,0,0,55.28,69.47Z" transform="translate(-0.52 -36.88)"/><path class="cls-1" d="M62,72.07c-.28-.94-2.36,1.21-2.08,2.19A41.44,41.44,0,0,1,59.92,96c-.38,1.56,1.76-.1,2-.81A39,39,0,0,0,62,72.07Z" transform="translate(-0.52 -36.88)"/></svg>