<svg id="Layer_1" data-name="Layer 1" xmlns="http://www.w3.org/2000/svg" viewBox="0 0 149 115.5"><defs><style>.cls-1{fill:#313131;}</style></defs><title>pork-darkgray</title><path class="cls-1" d="M135.15,44.81a3.52,3.52,0,0,0-2.56.39c-2.91,1.64-2.82,6.17-5.5,8.17-3.28,2.45-8.45-.39-11.89,1.84-2.37,1.53-3.18,5.08-5.87,5.92-1.89.58-3.94-.46-5.88-.09-2.56.47-4,3.1-5.62,5.17-3.57,4.6-9.7,1.47-13.52,5.7-1.08,1.19-1.5,2.75-2.39,4-2,3-4.13,3.37-7.31,3.54a10.26,10.26,0,0,0-6.26,2.35c-3.46,2.76-5.15,7.24-8.91,9.69s-8.25,3.22-12,5.8c-7.4,5.11-12.82,12.77-16.85,20.69a1.66,1.66,0,0,0,.37,1.92,45.19,45.19,0,0,0,14.88,11,1.63,1.63,0,0,0,2,1,5.67,5.67,0,0,0,4.33-4.23,1.37,1.37,0,0,0-.46-1.49c-.36-5,3.44-7.47,8.1-7.4,1.87,0,3.77.4,5.59-.29a7.2,7.2,0,0,0,3.63-3.38c.55-.94.7-2.13,1.3-3,1.52-2.27,3.48-2.18,5.57-2.7,5-1.22,6.71-2.41,9.93-6.34,2.74-3.34,4.6-2.53,8.2-3.23a14.9,14.9,0,0,0,10.14-7.61c.48-.93.65-2.09,1.15-3,1.54-2.72,3.17-2.34,5.74-2.35,3.74,0,7-.85,9-4.37.33-.57.45-1.25.77-1.81-.08-1.42.62-2.19,2.12-2.33a2.41,2.41,0,0,1,2.18-.79c2.2-.58,4.15-.65,6.19-1.9,5.18-3.16,9.47-11.32,16.5-9.21,1.41.41,2.35-1.35,1.67-2.45C147.65,61,141.11,46.1,135.15,44.81Zm10,18.19c-3.27.2-6.21,2-8.83,4.3-4.08,3.53-6.44,6.77-12.3,7.08-1.54.08-2.92-.11-4.19,1-2.82,2.38-1.34,6.78-5.57,8.23-2.84,1-4.9-1.19-7.56-.56-1.95.46-2.9,2-3.77,3.63-2,3.87-2.69,7.43-7.25,9.37-3,1.26-6,.08-8.81,1.1-2.3.83-2.69,2.62-3.87,4.6-2.73,4.54-6.26,3.77-10.53,4.61A6.14,6.14,0,0,0,68.37,109c-.76,1.09-.92,2.45-1.62,3.54a7,7,0,0,1-5.7,3.2c-2.55.2-4.51-.47-7,.69a10,10,0,0,0-5.51,10.39,1.48,1.48,0,0,0,.29.76,2.29,2.29,0,0,1-.74.83,43,43,0,0,1-9.29-5.54,1.48,1.48,0,0,0,.53-.48,37.46,37.46,0,0,1,12-11.22c4.9-2.81,10.35-2.9,15.22-5.32,3.94-2,3.06-4.93,5-8.19,2.7-4.5,10-3.41,14.26-5.36s6.59-6.18,10.26-8.82c4.47-3.23,9.48-5.83,14.21-8.67l30.79-18.5Zm-6-9.77.23.38L108.56,72.17c-5,3-10.3,5.72-15,9.18s-7,7.93-13,9.19c-3.34.71-7.18.87-9.9,3.18a9.71,9.71,0,0,0-2.54,3.94c-1.41,3.11-3.11,5.55-6.63,6.36A40.15,40.15,0,0,0,37,120.31a1.73,1.73,0,0,0-.3.76c-.92-.82-1.81-1.68-2.67-2.59,4.25-8.11,10.15-16,18.37-20.41,3.35-1.79,7.18-2.45,10.19-4.88,2.48-2,4-4.85,6.12-7.18,3.69-4,6.1-2.39,10.43-3.4a7.49,7.49,0,0,0,4.63-3.39c1.11-1.61,1.62-3.76,3-5.19,1.65-1.76,3.72-1.91,5.9-2.17s4.78-.17,6.83-1.31c2.26-1.27,1.8-2.93,3.13-4.69,2.23-2.93,4.29-.51,7.05-.53a4.72,4.72,0,0,0,4.11-2.08c.6-.85.6-1.82,1.11-2.66,2-3.4,3.33-3.12,6.57-3,4.44.13,8-.12,10.3-4.37.53-1,.86-3.38,1.72-4.05C136.21,47,138.05,51.34,139.2,53.23Z" transform="translate(-0.8 -16.53)"/><path class="cls-1" d="M105.62,16.55a4.27,4.27,0,0,0-3.89,1.91c-2.72,3.44-2,8-7.71,8.16-2.43.09-5-.54-7.38.22s-2.8,2.19-4.18,4C80.67,33.25,80,34.33,77.1,33.5a10.82,10.82,0,0,0-2.43-.61c-2.34-.14-3.39.83-4.49,2.75-1.4,2.46-1.55,4.23-4.77,5C61,41.59,57,40.55,54.14,45,53,46.86,52,49,50.21,50.23c-3.55,2.41-8.15,1.43-11.79,4s-5,7.08-8.64,9.48-8.24,3.22-12,5.79C10.41,74.61,5,82.26,1,90.19a1.67,1.67,0,0,0,.38,1.92,45.22,45.22,0,0,0,14.87,11,1.65,1.65,0,0,0,2,1,5.68,5.68,0,0,0,4.33-4.24,1.38,1.38,0,0,0-.47-1.49c-.35-5,3.44-7.47,8.1-7.4,1.88,0,3.78.41,5.6-.28a7.26,7.26,0,0,0,3.62-3.38c.55-.94.71-2.14,1.31-3,1.51-2.26,3.47-2.18,5.57-2.69,5-1.23,6.71-2.41,9.93-6.34,2.74-3.34,4.6-2.53,8.2-3.24a14.94,14.94,0,0,0,10.13-7.6c.48-.93.65-2.09,1.16-3,1.53-2.72,3.17-2.34,5.73-2.35,3.74,0,7-.86,9-4.38.33-.56.44-1.24.76-1.81-.08-1.41.63-2.19,2.13-2.32a2.38,2.38,0,0,1,2.18-.79c2.19-.59,4.14-.65,6.18-1.9,5.18-3.17,9.47-11.33,16.51-9.22,1.4.42,2.34-1.34,1.67-2.44-2.93-4.81-5.82-9.65-8.79-14.44C109.81,19.72,108.46,16.81,105.62,16.55Zm9.88,18.62c-3.27.19-6.21,2-8.82,4.29-4.08,3.53-6.45,6.77-12.3,7.08-1.54.08-2.93-.11-4.2,1-2.82,2.39-1.33,6.79-5.57,8.23-2.83,1-4.9-1.19-7.55-.55-2,.46-2.91,2-3.78,3.62-2,3.88-2.69,7.43-7.25,9.37-3,1.27-6,.08-8.8,1.11-2.31.83-2.69,2.62-3.88,4.6-2.73,4.53-6.26,3.77-10.53,4.61a6.15,6.15,0,0,0-4.11,2.72c-.76,1.09-.91,2.44-1.61,3.53a7,7,0,0,1-5.71,3.2c-2.55.21-4.5-.46-6.95.7A10,10,0,0,0,18.92,99a1.66,1.66,0,0,0,.29.76,2.36,2.36,0,0,1-.74.83,43.18,43.18,0,0,1-9.28-5.54,1.47,1.47,0,0,0,.52-.48,37.17,37.17,0,0,1,12-11.22c4.89-2.82,10.35-2.9,15.22-5.32,3.93-2,3-4.94,5-8.2,2.69-4.5,10-3.4,14.25-5.35s6.59-6.18,10.26-8.83c4.48-3.23,9.49-5.83,14.21-8.67q15.41-9.24,30.79-18.5Q113.48,31.84,115.5,35.17Zm-6-9.78.24.39L78.9,44.33c-5,3-10.29,5.73-15,9.19s-7,7.92-12.95,9.18c-3.35.72-7.18.88-9.91,3.19a9.66,9.66,0,0,0-2.53,3.93c-1.41,3.11-3.12,5.56-6.63,6.37A40.18,40.18,0,0,0,7.31,92.48a1.66,1.66,0,0,0-.29.76c-.92-.82-1.82-1.68-2.68-2.6,4.26-8.1,10.16-16,18.37-20.41,3.36-1.79,7.19-2.45,10.19-4.88,2.49-2,4-4.84,6.13-7.17,3.69-4,6.1-2.4,10.42-3.4a7.48,7.48,0,0,0,4.63-3.4c1.12-1.6,1.63-3.75,3-5.19C58.7,44.44,60.78,44.29,63,44s4.79-.18,6.83-1.32c2.26-1.26,1.8-2.93,3.14-4.68,2.23-2.94,4.29-.52,7-.53a4.71,4.71,0,0,0,4.11-2.09c.6-.84.59-1.81,1.1-2.66,2-3.39,3.33-3.11,6.57-3,4.44.14,8-.12,10.31-4.37.52-1,.86-3.38,1.71-4.05C106.56,19.14,108.4,23.51,109.54,25.39Z" transform="translate(-0.8 -16.53)"/></svg>