<svg id="Layer_1" data-name="Layer 1" xmlns="http://www.w3.org/2000/svg" viewBox="0 0 149 82.26"><defs><style>.cls-1{fill:#313131;}</style></defs><title>poultry-darkgray</title><path class="cls-1" d="M140.87,81.38c4.7-1.55,10.18-4.58,8.59-10.06a4.64,4.64,0,0,0-3.86-3.54,7.09,7.09,0,0,0,1.47-2.52,4.91,4.91,0,0,0-3.65-6.59c-7.43-1.73-15.75,6.27-19.74,11.78-6.21.37-12.42,1.19-18.6,1.8-1.8.18-4.07.59-6.51,1a.76.76,0,0,0,0-1A113.5,113.5,0,0,0,87,58.48l.13-.06A123.11,123.11,0,0,1,108.33,49c2.5-.81,2-2.72-.57-2a78.77,78.77,0,0,0-22.53,9.81c-.8-.73-1.61-1.44-2.44-2.12,6.5-3,12.91-6.43,19.17-9.89,1.05-.58,1-1.05.47-1.33a1.14,1.14,0,0,0,.51-.67c.29-1.74.49-4.11,1.6-5.53.89-1.15,3.3-2.35,4.47-1.15a2.78,2.78,0,0,1,.3,3.22c-1,1.89,3.17.93,3.83.29,0,0,.32,5.12.31,5.49a14.6,14.6,0,0,0,0,2.29c.09.68.79,2.13.65,2.8-.87,4.11-5.27.65-6.7-.08-.88-.45-4.84.8-3.64,1.86,2.74,2.44,6.34,3.78,10,2.72,2.73-.8,5.2-2.73,4.93-5.79-.2-2.24-.59-4.14-.59-6.44,0-1.47-.11-3.15-1.26-4.24a4,4,0,0,0-2.8-1c.16-3.1-3.25-5.16-6.6-4.66-5.56.83-8.06,5.6-8.19,10.81a.68.68,0,0,0,0,.29c-6.24,3-12.53,6.08-18.55,9.5-8.09-6-17.54-9.12-29.16-6.55C32.26,50.86,19.07,67,7.84,82.16,3,88.66-2.25,97.78,2.77,105.71c4.64,7.32,15.28,8,23,8.61a128.1,128.1,0,0,0,58.15-8.89c1.17-.47,1.48-1,1.3-1.33,8.43-2.49,18.88-7.74,15.24-17.33,7.53-1.14,15.06-2.31,22.58-3.46,4,5.75,10.06,14.68,17.38,12.41C148.43,93.22,145.12,85.75,140.87,81.38Zm-4.45,9.93c-4-2.71-7.06-8.06-10.68-11.38-.86-.79-4.23.1-4,1.33-16.28,2.23-32.61,4.36-48.82,7.08-2,.34-3.71,2.73-.6,2.35,7.86-1,15.7-2.07,23.54-3.23a.22.22,0,0,0,0,.08c1.3,10.1-6.4,13.62-15,15.44-1.2.25-2.26,1.25-2.3,1.89a125.47,125.47,0,0,1-43.85,7c-7.93-.2-20.38,0-26.06-6.57C2.31,98,7.76,88.47,12.46,82.14c10.12-13.65,22.44-30,40.24-33.33,18.82-3.5,31.39,11.49,41.46,25-5.53.56-11.08.28-13.66-3.5-.8-1.18-5.14.28-4.19,1.8,3.74,6,11.27,4.4,17.21,3.82,10.87-1.05,22-1.58,32.73-3.37,1.17-.2,3.34-2,1.77-2.26a28.88,28.88,0,0,1,7.49-6.87q3.19-3.23,6.57.11a5.7,5.7,0,0,1-1.87,5,16,16,0,0,0-3.61,1.84c-2.59,1.82,1,2.43,2.58,1.66l.6-.3q6-1.1,4.62,3.63A11.18,11.18,0,0,1,136.92,80c-.45.1-3,1.27-1.95,2.15,2.05,1.72,4.62,3.65,5.38,6.38C141.21,91.59,139,93,136.42,91.31Z" transform="translate(-0.74 -32.46)"/><path class="cls-1" d="M34.74,77.81c-.41.28-.82.56-1.22.85A3.44,3.44,0,0,0,32.13,81c0,.71.5,1.06,1.16.64l1.22-.77a3.74,3.74,0,0,0,1.81-2.67C36.35,77.07,35.4,77.34,34.74,77.81Z" transform="translate(-0.74 -32.46)"/><path class="cls-1" d="M57.73,60.87c-1.24,0-2.95,3.2-1.74,3.2S58.93,60.87,57.73,60.87Z" transform="translate(-0.74 -32.46)"/><path class="cls-1" d="M43.48,58.23l-.39-.83c-.59-1.23-3.28,1.63-2.66,2.8l.42.81C41.5,62.25,44,59.36,43.48,58.23Z" transform="translate(-0.74 -32.46)"/><path class="cls-1" d="M48,70.54l-.81,0c-.87,0-1.66.93-2,1.64C45,72.5,44.4,74,45.3,74l.82,0a2.71,2.71,0,0,0,2-1.62C48.31,72,48.89,70.56,48,70.54Z" transform="translate(-0.74 -32.46)"/></svg>