<svg id="Layer_1" data-name="Layer 1" xmlns="http://www.w3.org/2000/svg" viewBox="0 0 112.58 149"><defs><style>.cls-1{fill:#313131;}</style></defs><title>seafood-darkgray</title><path class="cls-1" d="M83.61,119.48c.58.48,1.42-.35.83-.83a1.23,1.23,0,0,1,0-1.89c.79-.55,1.75.38,1.68,1.18s1.11.76,1.18,0a2.28,2.28,0,1,0-3.69,1.54Z" transform="translate(-18.93 -0.05)"/><path class="cls-1" d="M72.28,111.93A21.6,21.6,0,0,1,82.88,108c.75-.07.75-1.25,0-1.18a22.69,22.69,0,0,0-11.2,4.09C71.07,111.35,71.66,112.37,72.28,111.93Z" transform="translate(-18.93 -0.05)"/><path class="cls-1" d="M74.1,108.33a26.94,26.94,0,0,1,6.58-2.93.59.59,0,0,0-.31-1.14,28.36,28.36,0,0,0-6.87,3C72.86,107.7,73.45,108.73,74.1,108.33Z" transform="translate(-18.93 -0.05)"/><path class="cls-1" d="M130.85,88.35a58.64,58.64,0,0,0-49.74-45,245.24,245.24,0,0,1-11-26.73,1.92,1.92,0,0,0-.28-.51c-.57-1.18-2.35-1.71-3-.22q-5.48,11.7-12.05,22.82l-.22.21Q54.85,21,56.83,3.29C57.88,1.36,55-1.08,52.93.63Q37.69,13.23,21.28,24.27A2.44,2.44,0,0,0,20,28.72,202.79,202.79,0,0,1,49.79,52.56q.15,10.74.82,21.46C51.9,94.29,54.19,116,67.24,132.43,73.53,140.38,82,146.54,91.92,149a2.43,2.43,0,0,0,2.65-3.53A91.4,91.4,0,0,0,54.44,48.68c0-2.45,0-4.91,0-7.36a1.5,1.5,0,0,0,.81.34A133.89,133.89,0,0,1,79,47.22a224,224,0,0,0,11.65,21c8.53,13.54,22.25,26.53,39.6,23.13C131.82,91,131.79,89.22,130.85,88.35Zm-54-45.52a134.26,134.26,0,0,0-18-4.18q1.33-2.31,2.63-4.63a15.89,15.89,0,0,1,5,2.08c.65.41,1.24-.61.6-1a16.43,16.43,0,0,0-5-2.14c.75-1.38,1.5-2.75,2.23-4.13a16.08,16.08,0,0,0,4.07,3.86c.64.41,1.23-.61.6-1a14.43,14.43,0,0,1-4.06-4C66,25.55,67,23.45,68.06,21.34,70.67,28.6,73.6,35.79,76.87,42.83ZM49.73,46a208.35,208.35,0,0,0-24-19.11q3.8-2.58,7.51-5.24a24.33,24.33,0,0,1,6,6.58c.4.64,1.42.05,1-.6a25.71,25.71,0,0,0-6-6.69C36.5,19.32,38.76,17.68,41,16a24.58,24.58,0,0,0,3.22,8.64.59.59,0,0,0,1-.59,23.7,23.7,0,0,1-3.16-8.88q4.86-3.66,9.6-7.49C50.37,20.42,49.75,33.21,49.73,46Zm40.43,97.53C73.61,138,63.7,121.64,59.51,105.31,56.89,95.08,56,84.52,55.33,74q-.61-9.81-.8-19.64A86.6,86.6,0,0,1,90.16,143.54ZM91.59,63Q87,55.2,83,47.13a55.11,55.11,0,0,1,44.22,41.1C111,90.06,99.05,75.63,91.59,63Z" transform="translate(-18.93 -0.05)"/><path class="cls-1" d="M116.26,73.82a1.73,1.73,0,0,0,.86,2.77.59.59,0,0,0,.31-1.13c-.29-.08-.57-.54-.33-.82a.56.56,0,0,1,.85.16c.27.7,1.41.39,1.14-.31A1.74,1.74,0,0,0,116.26,73.82Z" transform="translate(-18.93 -0.05)"/><path class="cls-1" d="M113.13,69.11a14.5,14.5,0,0,0-5.4,5.51c-.37.66.65,1.26,1,.6a13.21,13.21,0,0,1,5-5.09A.59.59,0,0,0,113.13,69.11Z" transform="translate(-18.93 -0.05)"/><path class="cls-1" d="M108.81,72.64a16.83,16.83,0,0,1,3-3.45c.57-.51-.27-1.34-.83-.83A17.59,17.59,0,0,0,107.79,72C107.37,72.68,108.4,73.27,108.81,72.64Z" transform="translate(-18.93 -0.05)"/></svg>