<svg id="Layer_1" data-name="Layer 1" xmlns="http://www.w3.org/2000/svg" viewBox="0 0 149.18 22"><defs><style>.cls-1{fill:#cbcbcb;}</style></defs><title>star-ratings-gray</title><path class="cls-1" d="M15.29,7.12,11.66-.12,8,7.12-.1,8.28l5.88,5.64-1.39,8,7.27-3.76,7.27,3.76-1.39-8,5.88-5.64Zm31.42,0L43.07-.12,39.44,7.12,31.31,8.28l5.88,5.64-1.38,8,7.26-3.76,7.27,3.76-1.39-8,5.88-5.64Zm31.41,0L74.49-.12,70.85,7.12,62.73,8.28l5.88,5.64-1.39,8,7.27-3.76,7.27,3.76-1.39-8,5.88-5.64Zm31.42,0L105.9-.12l-3.63,7.24L94.14,8.28,100,13.92l-1.39,8,7.27-3.76,7.27,3.76-1.39-8,5.88-5.64Zm39.54,1.16L141,7.12,137.32-.12l-3.64,7.24-8.12,1.16,5.88,5.64-1.39,8,7.27-3.76,7.26,3.76-1.38-8Z" transform="translate(0.1 0.12)"/></svg>