<svg id="Layer_1" data-name="Layer 1" xmlns="http://www.w3.org/2000/svg" viewBox="0 0 149 111.89"><defs><style>.cls-1{fill:#313131;}</style></defs><title>vegan-darkgray</title><path class="cls-1" d="M48.85,73.92a13.68,13.68,0,0,0-5.35-1,11.7,11.7,0,0,0,2.43-7.33c0-4.2-1.8-8.88-3-12.83a59.55,59.55,0,0,0-7.6-16.61c-2.5-3.61-9.59-14.4-14.84-9.8a5.39,5.39,0,0,0-1.74,4.54c.23,3.92,2.59,8.64,4.56,12.84-7.62,10.46-7,25.53,5.19,32.77,1,.58,2.94-2.09,2-2.79-8.9-6.81-12.8-18.52-6.28-28,.32.72.62,1.42.88,2.09.53,1.37,3.06-1.64,2.86-2.63l-.84-4c-.11-.53-.42-.65-.77-.57l-2.52-7c-.37-1-1.65-4.23-1.44-4.28.42-.12,2.51,2,2.91,2.4,6,5.35,10.11,12.47,12.75,20A113.11,113.11,0,0,1,41.4,63.35c1.25,5.33,0,8.05-5.45,10.25-3.47,1.41-5.84,3.47-7.13,7-.38,1-.11,1.35.36,1.3-.47,1.33.76,1.86,2,.28,9.45-12.31,23.75-2.09,25,10.25,1.08,10.57-9.9,7.36-15.07,3.9-4.16-2.79-6.69-7-10.35-10.25-1-.92-3.25,2.27-2.7,3.25a28.51,28.51,0,0,0,1.55,2.45c-1.24,2.43-2.46,4.89-3.67,7.34-1.4,2.86-2.32,7-5.49,7.43-4.8.64-9.62-13.54-11.3-17.5C7.87,86,6.56,83,5.3,79.89c-.6-1.44-2.49-5.14-2.08-6.36l5.26-4.32,3.1,1.16C16.33,73,19.05,78,24,80.41c1,.51,2.93-2.22,2-2.74-6.36-3.53-12-15.31-20.68-11.2C-2.56,70.19,1,79.13,3.54,85.12c2.34,5.61,4.55,11.32,7.34,16.73,1.56,3,4.38,10,8.71,9.58,1.89-.18,3.29-2,4.26-3.45,2.87-4.25,5.08-9.37,7.24-14.24,4.62,5.7,11.56,10.4,18.76,9.78,5.17-.44,10.66-4.22,10.43-10C60,86.55,55.69,76.6,48.85,73.92Z" transform="translate(-0.51 -18.34)"/><path class="cls-1" d="M139.57,20.41a1,1,0,0,0-.48-.08c.12-.31.25-.62.36-.93.81-2.16-1.74-.5-2.2.59a220,220,0,0,1-26.53,47.08C99.82,81.61,86.91,93.88,73.2,105.71c-1.06.91-2.15,4.38.09,2.83l-5.18,3.69c-.52.37-2.19,3.66-.57,3,.5-.2,1-.43,1.49-.64-1.74,12.3,12.39,18.24,22.58,14.53,13.36-4.88,23.81-19.21,32-30.19C133.15,86.12,142,71.46,147,56.17,150.48,45.32,152.17,26.45,139.57,20.41Zm-2.51,5.06c.22.29.44.58.64.88a2.28,2.28,0,0,0-.4.7,147.33,147.33,0,0,1-27,49.62c-10.76,13-23.45,22.21-36.83,31.74C101.53,88.23,123.86,57.51,137.06,25.47Zm5.61,31.84C138.8,69.42,132,81.07,124.9,91.52c-7,10.28-15.15,21.4-25.21,28.92-5.73,4.3-13.08,7-20,4-4.69-2.07-7.89-5.91-8-11C87.13,106,101,92.1,111.53,79.26a153.47,153.47,0,0,0,27.56-50.8C144.69,37.38,146.23,46.12,142.67,57.31Z" transform="translate(-0.51 -18.34)"/><path class="cls-1" d="M134.08,64.69c-1.25,0-3,3.24-1.77,3.24S135.3,64.69,134.08,64.69Z" transform="translate(-0.51 -18.34)"/><path class="cls-1" d="M115.41,93.84a3.41,3.41,0,0,0-1,.19,3,3,0,0,0-1.53,1.43c-.19.34-.61,1.3-.11,1.57a1.82,1.82,0,0,0,.72.25c.85.09,1.65-1,2-1.61C115.69,95.38,116.29,93.76,115.41,93.84Z" transform="translate(-0.51 -18.34)"/><path class="cls-1" d="M129.36,69.43c-1.2,0-2.87,3.12-1.69,3.12S130.54,69.43,129.36,69.43Z" transform="translate(-0.51 -18.34)"/><path class="cls-1" d="M90.66,108.83a16.49,16.49,0,0,0-1-1.89c-.43-.71-1.36,0-1.73.43s-1.36,1.72-.89,2.33a12.54,12.54,0,0,0,1.46,1.79c.45.42,1.32-.47,1.55-.75C90.39,110.28,90.92,109.47,90.66,108.83Z" transform="translate(-0.51 -18.34)"/><path class="cls-1" d="M102.79,111.07c-1.17.13-2.32.29-3.47.48-.86.14-1.6,1.25-1.87,2s-.25,1.48.63,1.33c1.19-.21,2.36-.44,3.55-.7a3,3,0,0,0,1.74-1.86C103.59,111.71,103.59,111,102.79,111.07Z" transform="translate(-0.51 -18.34)"/><path class="cls-1" d="M94.9,43.87c-6.65-7.6-24.66-12.12-28.72-.84a24.3,24.3,0,0,1-2.78-2.68,20.25,20.25,0,0,1-2-2.78c-.55-.93-.86-2.11-1.78-2.72-1.1-.74-2.49,1.8-2.46,2.61.07,2.18,1.94,4.28,3.35,5.86a18.52,18.52,0,0,0,4,3.37c-7.49,6.26-10.71,16.9-6,26.16,6.59,12.91,23,14.52,33.51,5.41C101.9,69.7,103.64,53.85,94.9,43.87ZM85,79.13c-19.43,6.6-35.8-20-18.76-31.47l.12.06c.63.31,1.58-.49,2.08-1.36.34-.18.67-.36,1-.53.91-.42,2.17-3.32.48-2.57-.52.23-1,.5-1.5.76,2.64-6.63,13.2-3.48,17.49-1.12a21.79,21.79,0,0,1,8.6,8.64C100.12,61.77,96.6,75.2,85,79.13Z" transform="translate(-0.51 -18.34)"/></svg>