<svg id="Layer_1" data-name="Layer 1" xmlns="http://www.w3.org/2000/svg" viewBox="0 0 149 102.21"><defs><style>.cls-1{fill:#313131;}</style></defs><title>vegetables-darkgray</title><path class="cls-1" d="M147.78,68h-1a5.8,5.8,0,0,0,.94-5.86,5.12,5.12,0,0,0-5.56-3.09,11.62,11.62,0,0,0-.63-4c0,.05-.43-.49-.63-.62.23-.36.8-2,.76-1.85a6.25,6.25,0,0,0,0-2.82,6.17,6.17,0,0,0-3.31-4.25A5.36,5.36,0,0,0,137,39.56c-2.48-2.32-5.32-1.31-8.26-1.42l-.49,0a24.37,24.37,0,0,0-3-8c-1-1.67-3.14-5.27-5.29-5.65-1.82-.32-4,1.69-5.24,2.74a18.38,18.38,0,0,0-4.19,5.32c-1.18-1.8-2.51-3.52-3.86-5.21a1.27,1.27,0,0,0-1.62-.4C100.52,29,95.55,31.68,94.65,37v0c-.2,0-.4,0-.61,0,.78-6.53-6.53-10.59-11.88-7-2.71-6.61-12.49-5.46-13.75,1.11a5.15,5.15,0,0,0-5.07,0c-2.43,1.33-3.37,3.73-3.63,6.28-.83-2.24-2.08-4.83-4.18-4.68a6.24,6.24,0,0,0-2.37.77A35.45,35.45,0,0,0,43,22.48a1.23,1.23,0,0,0-1.61.43A67.27,67.27,0,0,0,36,32.53a1.52,1.52,0,0,0-.06.2,7.84,7.84,0,0,0-11-4.45,9.79,9.79,0,0,0-7.39-3.82c-4.89-.12-6.64,3.26-10,5.91-3.13,2.49-6.19,4-6.73,8.45a9.47,9.47,0,0,0,3.51,8.42,7.55,7.55,0,0,0,5.16,13A6.15,6.15,0,0,0,10,65.85,7,7,0,0,0,14.76,69l-.11.11a3.73,3.73,0,0,0-.33,2.66,68.28,68.28,0,0,0,14,33c7.14,9.05,17.42,14.15,28.39,17a98.39,98.39,0,0,0,27.41,2.78,86.93,86.93,0,0,0,20.39-2.68c23.19-6.3,40.58-26.56,44.86-49.91.1-.53.24-1.06.33-1.6C150,68.74,149.25,68,147.78,68Zm-2-4a4.14,4.14,0,0,1-2.38,4H138a9.49,9.49,0,0,0,3.9-6.52C143.55,60.66,145.55,62,145.74,64ZM129.68,40.59a21.28,21.28,0,0,1,2.18-.34c2.57,0,5.73,2.2,3.83,5.28a1.14,1.14,0,0,0,.78,1.63A3.86,3.86,0,0,1,139.3,51c0,1.23-.78,2-.87,3.05a2.54,2.54,0,0,0,.27,1.48c.08.24.44.29.56.48a4.32,4.32,0,0,1,.51,3.91l-.09.4a4.26,4.26,0,0,0-.35.38,1.09,1.09,0,0,0-.08,1.32c-.51,1.72-1.3,3.46-2.76,4.27a1,1,0,0,0-.15,1.71l-15.35,0c.81-2.36,1.72-4.68,2.71-7l7.69-.92c1.48-.17,1.52-2.43,0-2.25l-6.62.79a91.06,91.06,0,0,1,6.05-10.92c.81-1.25-1.36-2.16-2.14-1a93.12,93.12,0,0,0-6.28,11.45,35.21,35.21,0,0,1-3.21-8.07c-.36-1.4-2.64-.78-2.27.65a37.1,37.1,0,0,0,4,9.66,1.07,1.07,0,0,0,.3.33c-1,2.36-1.93,4.76-2.74,7.21h-3.84l-2.8-.27a1.54,1.54,0,0,0-.19-.28c-2.66-3-7.24-10.71-.44-12.05a1.13,1.13,0,0,0,.64-1.68c-2.27-3.68,0-7.63,4.29-7.61a1.21,1.21,0,0,0,1.11-.87,7.62,7.62,0,0,1,1.38-2.78,1.29,1.29,0,0,0,.68-.75c2-1.81,5-2,8-1.33A6.74,6.74,0,0,0,129.68,40.59Zm-15-10.12c.85-1,3.42-3.95,5-3.6,1.21.27,3,3.49,3.6,4.52a21.33,21.33,0,0,1,2.42,6.45,9.31,9.31,0,0,0-5.22.52,9.82,9.82,0,0,0-1.43.78,15.18,15.18,0,0,1,.39-4.69c.35-1.44-2-1.85-2.32-.45a17.14,17.14,0,0,0-.19,7,9.77,9.77,0,0,0-1.71,3,4.18,4.18,0,0,0-.51.07A20.48,20.48,0,0,0,112,34.9,16.78,16.78,0,0,1,114.7,30.47ZM96.93,37.62c.75-4.38,4.65-6.61,8.39-8.35a54.88,54.88,0,0,1,4.15,5.85,1.15,1.15,0,0,0,.57,1,18.11,18.11,0,0,1,2.38,8.62v.07a6.88,6.88,0,0,0-3.16,8.93,6.71,6.71,0,0,0-3.92,5.94c-.16,3.16,1.59,5.82,3.56,8.16a15.82,15.82,0,0,1-3.23.24h-.57a148.32,148.32,0,0,1,.13-26.32c.14-1.46-2.19-1.81-2.33-.38a149.76,149.76,0,0,0-.17,26.7h-2a22.46,22.46,0,0,0-4.55-20.73h0c4.79-1.83,4.18-7.69.71-9.65A.14.14,0,0,0,96.93,37.62ZM93,56.53a6.07,6.07,0,0,0-4.76,2.39,22.66,22.66,0,0,0-.63-2.32l4.61-4.33c1.1-1-.76-2.43-1.81-1.44L86.75,54.3a24.38,24.38,0,0,0-6.65-8.86c-1.11-.94-2.78.67-1.62,1.65a22,22,0,0,1,7.9,18.72c-12.51,1.48-11.14-18-11.15-26.89,7,1.12,13.84,3.87,18.64,9.28a20.35,20.35,0,0,1,4.41,19.87H96.09C99.72,65.49,99.27,56.51,93,56.53Zm-.92,2.39c4.82-1.36,5,7.19,1.74,7.49a1,1,0,0,0-.63-.36C89.75,65.34,87.92,60.1,92.11,58.92Zm-.5,9.15H86.37l.22,0a1.2,1.2,0,0,0,1-.69,1.25,1.25,0,0,0,1.16-1.11c0-.12,0-.23,0-.35a7,7,0,0,0,2.74,2ZM55.39,35.15c1.7.26,3.46,6.77,3.88,8.22a16.68,16.68,0,0,1,0,10.2c-.45,1.39,1.89,1.72,2.33.36A18.61,18.61,0,0,0,61.6,43a1,1,0,0,0,.56-1,14.71,14.71,0,0,1,.06-5.65c.75-2.59,4.74-5.27,6.25-1.9.48,1.07,2.53.88,2.3-.47-1.2-6.84,8.41-8.84,9.57-1.86a1.2,1.2,0,0,0,2.07.65c4.38-4.6,10.76-.11,8.94,5.58-.28.87.81,1.55,1.55,1.27,4.38-1.63,6.39,4.67,1.72,5.87l-.11,0c-5.37-5.31-12.77-8.05-20.2-9a1.2,1.2,0,0,0-1.47,1.13c.24,8.5-1.39,28.92,10.5,30.43H77.85a1.15,1.15,0,0,0-.42-.15c-2.82-.44-4.33-7.35-4.92-9.72a34.47,34.47,0,0,1-.86-10.85c.09-1.46-2.28-1.4-2.37,0A36.5,36.5,0,0,0,71,61.4c.65,1.94,1.45,4.75,2.87,6.67H67.08a7.56,7.56,0,0,0,1.29-9.49c-2.69-4.41-9-5.46-11.82-.68a9.42,9.42,0,0,0-1,2.69,1,1,0,0,0-1,.11,16.07,16.07,0,0,1-6.37,2.6h0a89.05,89.05,0,0,1,6.75-17.4c.68-1.34-1.5-2.19-2.16-.91-1.16,2.26-2.21,4.57-3.18,6.9a11.77,11.77,0,0,1-1.28-4.09c-.17-1.45-2.53-1.22-2.36.23a14,14,0,0,0,2.4,6.32,1.07,1.07,0,0,0,.2.22q-1.55,4.13-2.7,8.38a.87.87,0,0,0,.4,1.06,1,1,0,0,0,.94,1.68,18.48,18.48,0,0,0,8.12-2.75,7,7,0,0,0,2,5.14H44.68a21,21,0,0,0-2.17-17.5,1.32,1.32,0,0,0,1.43-1.21,13.37,13.37,0,0,1,4.51-9.17C49.44,39.24,53.94,34.93,55.39,35.15Zm2.44,25.74A7.4,7.4,0,0,1,58.59,59c2.15-3.55,6.5-1.94,8.06,1.26a5.16,5.16,0,0,1-3,7.16,4,4,0,0,1-1.38.21,1,1,0,0,0-1-.49,4.48,4.48,0,0,1-1.07-.1,4.54,4.54,0,0,1-2-5A1,1,0,0,0,57.83,60.89Zm-21-8.83L36,57.79l-2-2.37a1,1,0,0,0-.53-.65L28,48.14c-.92-1.12-2.62.45-1.66,1.61l4.09,4.91H26.09a1.13,1.13,0,1,0,0,2.25h6.19l9.26,11.15h-4.2a1.11,1.11,0,0,0-.83-.23c-7.55.66-10.75-4.83-13.1-11L17.37,41c7,.34,16.26,3,21,8A18.63,18.63,0,0,1,42.83,66l-5.21-6.27a1.21,1.21,0,0,0,.55-.83c.36-2.28.71-4.56,1.07-6.84C39.47,50.67,37.1,50.63,36.87,52.06Zm5.84-26.94a32.82,32.82,0,0,1,8.48,9.65,42.36,42.36,0,0,0-4.56,4,17.18,17.18,0,0,0-3.54,4.8l-.39-.15c.71-4.12-.56-9.37-4.46-10.21A69.22,69.22,0,0,1,42.71,25.12ZM12.8,65.24c-1.6-1.69-2.21-4.15.16-5.82a1.14,1.14,0,0,0-1.06-2,5.31,5.31,0,0,1-5.06-9.32A1.1,1.1,0,0,0,7,46.33C3.8,44.25,2.08,40.41,3.82,36.8c1.27-2.63,3.66-2.95,5.63-4.62,1.63-1.37,2.23-3.39,4.21-4.5,3.67-2.06,7.7-.56,9.93,2.71a1.24,1.24,0,0,0,1.65.29,5.58,5.58,0,0,1,8.77,4,1.19,1.19,0,0,0,1.58,1l3.55.66a5.05,5.05,0,0,1,1.55,4.19,12.11,12.11,0,0,1-.5,3.43,1.12,1.12,0,0,0,.63,1.23l1.45.57a14.74,14.74,0,0,0-.65,3.57,19.53,19.53,0,0,0-1.36-1.65c-5.66-6.11-16.66-8.93-24.73-8.9a1.15,1.15,0,0,0-1,1.54q2.25,5.94,4.51,11.86c1.42,3.73,2.56,7.84,4.53,11.33A12.77,12.77,0,0,0,28,68.05H20.89a1.28,1.28,0,0,0-1.56-1.36C16.86,67.24,14.59,67.14,12.8,65.24Zm75.61,54.31c-.45,0-2.8-.49-3-.25-16.44.41-36.58,0-49.37-11C25.12,98.93,19.92,84.91,17.2,71.19H146.4C141.86,100.62,118.3,120.5,88.41,119.55Z" transform="translate(-0.75 -22.32)"/></svg>