<svg id="Layer_1" data-name="Layer 1" xmlns="http://www.w3.org/2000/svg" viewBox="0 0 139.05 149"><defs><style>.cls-1{fill:#313131;}</style></defs><title>vegetarian-darkgray</title><path class="cls-1" d="M29.34,84.75c-1-.37-2.84,2.67-1.91,3,17.62,6.75,27.41,23,26.49,41.68-.08,1.56,2.55-.86,2.65-1.77C58.56,108.43,47.33,91.37,29.34,84.75Z" transform="translate(-5.99 -0.3)"/><path class="cls-1" d="M144.74,93.91c-.73-15.56-1.36-31.12-2.19-46.68-.51-9.37-1.81-19.74-8.14-26.55l.46-.31c.77-.59,2.15-4,.22-2.91a23.78,23.78,0,0,1-2.67,1.34,20.63,20.63,0,0,0-2.1-1.54c3-7,.26-16.11-8.63-16.9-10.3-.92-14.11,8.38-15,17-.36.65-.5,1.34-.14,1.71,0,.38,0,.76-.06,1.13-17.3,15.22-28.83,41-23.91,64.11q-2.82,2.52-5.55,5.1c-2.71,2.57-5.54,5.62-6.72,9.15C58,78.25,31.83,66.66,9.31,63.58c-1.41-.2-4.43,3.56-2.89,4.58,17.38,11.54,3.72,35.67,7.06,52,3.13,15.28,18.8,22,32.27,25.9,1,.29,2.91-2.63,1.93-3-7.22-3.1-14.81-6-21-10.93-8.63-6.94-10.84-16.31-9.73-27C18.09,94,21.67,79.86,15.7,70A91.77,91.77,0,0,1,56.93,91.32c7.16,6.56,13.34,14.83,15,24.61,2.23,13.3-5.57,25.87-19.86,25.6-1.33,0-3.68,3.61-2.07,3.8,9.19,1.11,17.61-4.37,22.24-12.11,5.61-9.36,5-21.15.3-30.73a3.1,3.1,0,0,0,.49-1.22c.19-7.92,10.82-14.46,16.19-19.21,3.88-3.43,7.79-6.83,11.57-10.38.61,5.45,4.43,9.52,8.26,14,7.44,8.76,9.84,19.93,5.77,30.91a34.87,34.87,0,0,1-4.83,8.87c-1.19-.06-2.34-.12-3.44-.14s-3.39,3-1.85,3.4c.66.2,1.33.38,2,.55-12,12.13-32,15.87-48.4,16.67-1.26.06-3,3.37-1.81,3.32,19.12-.64,39.55-5,52.67-19.46,9.71,1.89,20.76.93,28.28-5.79C146.21,116.18,145.24,104.66,144.74,93.91ZM120.39,4.77a9.16,9.16,0,0,1,7.19,11.1c-1.19.05-2.87,2.6-1.9,3.17l.44.28c-.16.25-.32.5-.51.75a2.43,2.43,0,0,0-.38.67,22,22,0,0,1-15.93-4.56C110,9.78,112.36,3,120.39,4.77Zm20.84,107c-2.37,15.2-16.64,14.6-28.68,13.89.38-.54.76-1.09,1.13-1.65,5.19-7.91,7.74-17.5,6.15-26.92a29.88,29.88,0,0,0-6.16-13.82c-4.25-5.35-10.87-10.26-9.81-18,.32-2.29-2.55.43-2.8,1.53a17.12,17.12,0,0,0-.33,2.26c-5.28,4.2-10.56,8.57-15.68,13.07C83.76,59,89.94,37.76,108,22.05a3.88,3.88,0,0,0,.83-1.24,22,22,0,0,0,21.73,2.09c5.91,6.14,7.62,15,8.19,23.71.7,10.81,1,21.66,1.53,32.48C140.77,89.58,142.85,101.32,141.23,111.75Z" transform="translate(-5.99 -0.3)"/><path class="cls-1" d="M98.72,82.55c-.59-1.28-3.26,1.67-2.72,2.87,3.48,7.79,4.28,16.48,1,24.53-3.11,7.7-9.23,12.24-16.33,16-.78.41-2.82,4-1,3.46C99,123.57,106.74,99.8,98.72,82.55Z" transform="translate(-5.99 -0.3)"/></svg>