<?xml version="1.0" encoding="utf-8"?>
<!-- Generator: Adobe Illustrator 22.0.1, SVG Export Plug-In . SVG Version: 6.00 Build 0)  -->
<svg version="1.1" id="Layer_1" xmlns="http://www.w3.org/2000/svg" xmlns:xlink="http://www.w3.org/1999/xlink" x="0px" y="0px"
	 viewBox="0 0 400 400" style="enable-background:new 0 0 400 400;" xml:space="preserve">
<style type="text/css">
	.st0{fill:#525252;}
	.st1{fill:#7DBE00;}
</style>
<g>
	<g>
		<path class="st0" d="M317.1,290.7l-0.6,0.7c-25.1,26.2-60.3,41.2-96.5,41.2c-29.4,0-57.4-9.4-80.9-27.3
			C105.2,280.9,85,241.6,85,200c0-24.7,7.1-48.8,20.4-69.7c24.1-40.1,68-64.9,114.6-64.9c20.6,0,41.2,4.8,59.6,14l0.8,0.4l1.9-3.6
			l-0.9-0.5c-20.5-11.1-43.6-16.9-67-16.9c-77.8,0-141.1,63.3-141.1,141.1c0,77.8,63.3,141.1,141.1,141.1c40,0,78.3-17.1,105.1-46.9
			l0.6-0.7L317.1,290.7z"/>
		<path class="st0" d="M214.5,88.2c-31.8,0-62.2,13.6-83.4,37.3l-0.6,0.7l3.7,3.3l0.6-0.7c20-21.4,48.1-33.6,77.3-33.6
			c58.3,0,105.8,47.5,105.8,105.8c0,58.3-47.5,105.8-105.8,105.8l-2,0l-0.2,4.9l1,0c1.2,0,2.4,0.1,3.5,0.1
			c61.6,0,111.8-50.2,111.8-111.8C326.3,138.4,276.1,88.2,214.5,88.2z"/>
	</g>
	<g>
		<path class="st1" d="M195.7,156c2.4-3.9,5.6-7,9.6-9.4c3.9-2.3,8.1-3.4,12.4-3.4c3.9,0,35.5,0,35.5,0l5.8-21.9
			c0,0-2.8-0.4-6.8-0.5c-5-0.1-28.8-0.1-34.5-0.1c-1.5,0-3,0.1-4.5,0.2c-5.6,0.5-11,1.9-16.3,4.4c-6.7,3.1-12.2,7.3-16.7,12.6
			c-1.4,1.6-2.7,3.5-3.8,5.4c-5.1,8.5-7.7,19.7-7.7,33.8v102.3h22.6v-72.6c0,0,43,0,47.2,0c4.1,0,6.6-0.5,6.6-0.5V185h-53.8v-9.1
			C191.6,167.4,193,160.8,195.7,156z"/>
	</g>
</g>
</svg>
