<svg id="desktop" xmlns="http://www.w3.org/2000/svg" viewBox="0 0 219.68 78.48"><defs><style>.cls-1{fill:#fff;}</style></defs><title>chocobits-white</title><path class="cls-1" d="M614.56,3591.94a4.31,4.31,0,0,0-3.2,1.37A5,5,0,0,0,610,3597a5.16,5.16,0,0,0,1.33,3.71,4.4,4.4,0,0,0,6.42,0,5.15,5.15,0,0,0,1.32-3.71,5,5,0,0,0-1.33-3.66A4.27,4.27,0,0,0,614.56,3591.94Z" transform="translate(-529.17 -3555.55)"/><path class="cls-1" d="M648.3,3591.94a4.33,4.33,0,0,0-3.21,1.37,5,5,0,0,0-1.34,3.66,5.15,5.15,0,0,0,1.32,3.71,4.4,4.4,0,0,0,6.42,0,5.16,5.16,0,0,0,1.33-3.71,5,5,0,0,0-1.34-3.66A4.25,4.25,0,0,0,648.3,3591.94Z" transform="translate(-529.17 -3555.55)"/><path class="cls-1" d="M671,3590.92a2.76,2.76,0,0,0,1-2.37,2.65,2.65,0,0,0-1-2.34,4.62,4.62,0,0,0-2.74-.78h-3.82v6.3h4.15A4.1,4.1,0,0,0,671,3590.92Z" transform="translate(-529.17 -3555.55)"/><path class="cls-1" d="M668.68,3594.74h-4.34v7h4.15a5.68,5.68,0,0,0,3.46-.92,3.19,3.19,0,0,0,1.15-2.75C673.1,3596.62,672.65,3594.74,668.68,3594.74Z" transform="translate(-529.17 -3555.55)"/><path class="cls-1" d="M639,3555.55c-60.67,0-109.84,17.57-109.84,39.24S578.34,3634,639,3634s109.84-17.57,109.84-39.24S699.67,3555.55,639,3555.55Zm-52.51,44.39a5.31,5.31,0,0,1-.5.83,9.69,9.69,0,0,1-1.2,1.36,9.55,9.55,0,0,1-1.88,1.49,11.22,11.22,0,0,1-2.7,1.11,13.15,13.15,0,0,1-3.56.47,10.33,10.33,0,0,1-7.77-3.26,11.79,11.79,0,0,1-3.1-8.48,11.35,11.35,0,0,1,3.14-8.37,10.43,10.43,0,0,1,7.58-3.12,8.48,8.48,0,0,1,6.33,2.31l0-1.26a.76.76,0,0,1,.17-.59.86.86,0,0,1,.7-.28h1.7a.84.84,0,0,1,.9.86v6.63a.84.84,0,0,1-.9.9h-1.91a.84.84,0,0,1-.87-.9v-.27c0-.77-.57-1.61-1.71-2.51a6.92,6.92,0,0,0-4.42-1.4,6.51,6.51,0,0,0-4.74,2.09,8,8,0,0,0-2.12,6,8.16,8.16,0,0,0,2.13,6,6.86,6.86,0,0,0,5,2.12,7.87,7.87,0,0,0,4.93-1.39,8.36,8.36,0,0,0,2.07-2.2.93.93,0,0,1,.62-.52.86.86,0,0,1,.7.2l1.27.85a.87.87,0,0,1,.34.68A1.64,1.64,0,0,1,586.5,3599.94Zm19.44,4.18a.84.84,0,0,1-.9.87h-2.89a1.63,1.63,0,0,1-1.8-1.78v-8a3.6,3.6,0,0,0-.73-2.41,2.65,2.65,0,0,0-2.12-.8,3.5,3.5,0,0,0-1.65.31,6,6,0,0,0-.91.62,3.12,3.12,0,0,0-.48.49,5,5,0,0,0-.51.81V3602h1.12a.83.83,0,0,1,.89.87v1.3a.83.83,0,0,1-.89.87h-5.81a.84.84,0,0,1-.9-.87v-1.3a.84.84,0,0,1,.9-.87h1.17v-16.76h-1.17a.84.84,0,0,1-.9-.87V3583a.84.84,0,0,1,.9-.86h3.83a.81.81,0,0,1,.86.86v7.21a6.05,6.05,0,0,1,4.19-1.41,5.51,5.51,0,0,1,4.16,1.58,6,6,0,0,1,1.54,4.21V3602H605a.84.84,0,0,1,.9.87Zm14.39-1.19a8.55,8.55,0,0,1-11.59,0,8.09,8.09,0,0,1-2.28-6,7.89,7.89,0,0,1,2.31-5.94,8.05,8.05,0,0,1,5.78-2.21,7.76,7.76,0,0,1,8.06,8.15A8.11,8.11,0,0,1,620.33,3602.93Zm18.31-1.06a4.89,4.89,0,0,1-.64.78,12.49,12.49,0,0,1-1.28,1.08,7.25,7.25,0,0,1-2.16,1.05,9,9,0,0,1-2.78.42,7.84,7.84,0,0,1-5.69-2.24,8.06,8.06,0,0,1-2.29-6,7.69,7.69,0,0,1,7.89-8.15,6.08,6.08,0,0,1,4.19,1.44v-.35a.85.85,0,0,1,.9-.91h1.15a.84.84,0,0,1,.87.9v5.17a.82.82,0,0,1-.87.86h-1.39a.82.82,0,0,1-.87-.86v-.52a2.46,2.46,0,0,0-1.06-1.71,4.19,4.19,0,0,0-2.77-.89,4.32,4.32,0,0,0-3.08,1.35,4.84,4.84,0,0,0-1.4,3.7,4.93,4.93,0,0,0,1.38,3.72,4.18,4.18,0,0,0,3,1.36,5.56,5.56,0,0,0,3-.73,4.64,4.64,0,0,0,1.61-1.4.82.82,0,0,1,.59-.44.79.79,0,0,1,.69.24l.88.85a.88.88,0,0,1,.35.66A1.23,1.23,0,0,1,638.64,3601.87Zm42-17.2a2.21,2.21,0,0,1,3.77,1.57,2.06,2.06,0,0,1-.66,1.54,2.22,2.22,0,0,1-3.1,0,2.09,2.09,0,0,1-.65-1.54A2.18,2.18,0,0,1,680.62,3584.67Zm-26.56,18.26a8.55,8.55,0,0,1-11.59,0,8.09,8.09,0,0,1-2.28-6,7.86,7.86,0,0,1,2.32-5.94,8,8,0,0,1,5.77-2.21,7.76,7.76,0,0,1,8.06,8.15A8.11,8.11,0,0,1,654.06,3602.93Zm20.65.24c-1.35,1.21-3.37,1.82-6,1.82h-9.83a.83.83,0,0,1-.89-.87v-1.55a.83.83,0,0,1,.89-.86h1.81v-16.28h-1.81a.83.83,0,0,1-.89-.87V3583a.83.83,0,0,1,.89-.86h9.8a7.06,7.06,0,0,1,5.07,1.75,6.09,6.09,0,0,1,1.84,4.59,5.37,5.37,0,0,1-2.09,4.46,5.29,5.29,0,0,1,3.28,5.3A6.27,6.27,0,0,1,674.71,3603.17Zm11.29.95a.84.84,0,0,1-.9.87h-5.81a.83.83,0,0,1-.89-.87v-1.3a.83.83,0,0,1,.89-.87h1.18v-9.89h-1.18a.83.83,0,0,1-.89-.86v-1.31a.83.83,0,0,1,.89-.87h3.83a.82.82,0,0,1,.87.87V3602h1.11a.84.84,0,0,1,.9.87Zm12-.25a5.42,5.42,0,0,1-3.72,1.33,4.93,4.93,0,0,1-3.67-1.47,5.81,5.81,0,0,1-1.43-4.2v-7.47H688a.85.85,0,0,1-.92-.89v-1.25a.85.85,0,0,1,.92-.9h1.21v-2.57a.87.87,0,0,1,.92-.93h1.71a.86.86,0,0,1,.89.93V3589h3.36a.85.85,0,0,1,.93.9v1.25a.85.85,0,0,1-.93.89h-3.36v7.41a2.92,2.92,0,0,0,.56,2,1.81,1.81,0,0,0,1.45.61,1.88,1.88,0,0,0,1.37-.43.9.9,0,0,1,.68-.27.85.85,0,0,1,.61.34l.72.93a.86.86,0,0,1,.24.59A1,1,0,0,1,698.05,3603.87Zm12.8,0a6.7,6.7,0,0,1-4.55,1.36,6.55,6.55,0,0,1-3.52-.84,9,9,0,0,1-.76-.53c0,.15,0,.24,0,.26a.86.86,0,0,1-.93.9h-1a.85.85,0,0,1-.9-.9v-4.56a.86.86,0,0,1,.9-.9h1.18a.86.86,0,0,1,.93.9v.52a3.16,3.16,0,0,0,1.08,1.37,4.1,4.1,0,0,0,2.59.8c2.6,0,2.9-1.06,2.9-1.87,0-.22-.07-.56-.67-.88a9.72,9.72,0,0,0-2.19-.79c-.9-.23-1.82-.49-2.72-.77a6.1,6.1,0,0,1-2.49-1.51,3.81,3.81,0,0,1-1.08-2.77,4.37,4.37,0,0,1,1.61-3.54,6.1,6.1,0,0,1,4-1.28,6.31,6.31,0,0,1,3.82,1.06.84.84,0,0,1,.89-.82h1a.85.85,0,0,1,.89.9v4.23a.85.85,0,0,1-.89.89h-1.19a.86.86,0,0,1-.93-.89v-.43a1.75,1.75,0,0,0-.78-1.24,3.16,3.16,0,0,0-2.15-.69,3.44,3.44,0,0,0-2.08.54,1.47,1.47,0,0,0-.65,1.25,1.26,1.26,0,0,0,.71,1.15,7.76,7.76,0,0,0,2.19.83c.9.21,1.83.45,2.76.72a6.18,6.18,0,0,1,2.54,1.43,3.79,3.79,0,0,1,1.11,2.88A4.2,4.2,0,0,1,710.85,3603.84Z" transform="translate(-529.17 -3555.55)"/></svg>