<svg id="desktop" xmlns="http://www.w3.org/2000/svg" viewBox="0 0 158.99 30.87"><defs><style>.cls-1{fill:#fff;}</style></defs><title>cowfarms-white</title><path class="cls-1" d="M997,3596a11.15,11.15,0,0,1-4.77-4.36,12.76,12.76,0,0,1-1.65-6.56,20.85,20.85,0,0,1,1.95-9.21,15.31,15.31,0,0,1,5.31-6.23,13.28,13.28,0,0,1,7.45-2.2,7.86,7.86,0,0,1,5.78,2,7.91,7.91,0,0,1,1.22,8.62,2.58,2.58,0,0,1-3.72.85,1.62,1.62,0,0,1-.57-1.34,9.4,9.4,0,0,1,.14-1.17,9.12,9.12,0,0,0,.21-1.69q0-3.21-3.42-3.21a7.52,7.52,0,0,0-4.44,1.52,10.62,10.62,0,0,0-3.42,4.46,17.18,17.18,0,0,0-1.31,7,8.77,8.77,0,0,0,2.36,6.55q2.37,2.31,7,2.31a19.17,19.17,0,0,0,4.64-.59,35,35,0,0,0,5.2-1.78,2.5,2.5,0,0,1,.88-.21,1,1,0,0,1,.85.42,2,2,0,0,1,.28,1.1,3.34,3.34,0,0,1-2.33,3.17,24.11,24.11,0,0,1-5.2,1.61,27.67,27.67,0,0,1-5.13.51A16.3,16.3,0,0,1,997,3596Z" transform="translate(-990.6 -3567.48)"/><path class="cls-1" d="M1032.57,3587a2.41,2.41,0,0,1,.25,1.17q0,1.7-1,2a16.21,16.21,0,0,1-4.66.84,8.87,8.87,0,0,1-2.64,4.75,6.5,6.5,0,0,1-4.48,1.78,6.27,6.27,0,0,1-3.62-1,6.51,6.51,0,0,1-2.28-2.72,8.81,8.81,0,0,1-.77-3.67,10.82,10.82,0,0,1,1-4.78,8,8,0,0,1,2.82-3.28,7.1,7.1,0,0,1,4-1.18,5.5,5.5,0,0,1,4.32,1.85,7.92,7.92,0,0,1,1.92,4.57,21.17,21.17,0,0,0,3.95-.71,2.59,2.59,0,0,1,.5-.07A.77.77,0,0,1,1032.57,3587Zm-10.31,5.89a5.11,5.11,0,0,0,1.11-2.64,4.93,4.93,0,0,1-1.68-1.94,5.73,5.73,0,0,1-.58-2.54,5.41,5.41,0,0,1,.11-1.13H1021a2.78,2.78,0,0,0-2.35,1.36,6.7,6.7,0,0,0-.93,3.82,4.9,4.9,0,0,0,.76,3,2.18,2.18,0,0,0,1.78,1A2.55,2.55,0,0,0,1022.26,3592.91Z" transform="translate(-990.6 -3567.48)"/><path class="cls-1" d="M1056.81,3586.63a1,1,0,0,1,.81.36,1.45,1.45,0,0,1,.28,1,3,3,0,0,1-.42,1.71,2.42,2.42,0,0,1-1.27.9,11.19,11.19,0,0,1-3.46.53,10,10,0,0,1-2.93-.42q-1,1.65-2.25,3.42a12.42,12.42,0,0,1-2.42,2.75,3.77,3.77,0,0,1-2.28.74,2.38,2.38,0,0,1-2.13-1.09,7.85,7.85,0,0,1-.9-3.6l-.18-2.58a33.79,33.79,0,0,1-2,4.52A6.51,6.51,0,0,1,1036,3597a3.47,3.47,0,0,1-2,.6,2.69,2.69,0,0,1-2.28-1.13,7.16,7.16,0,0,1-1-3.56q-.42-4.93-.42-8.64V3583a2,2,0,0,1,.63-1.62,2.91,2.91,0,0,1,1.8-.46,1.89,1.89,0,0,1,1.36.41,1.74,1.74,0,0,1,.44,1.35c0,2.71.17,6.22.5,10.55q2.4-5,4.41-10.51a2.84,2.84,0,0,1,.93-1.43,2.3,2.3,0,0,1,1.32-.37,1.81,1.81,0,0,1,1.33.39,2,2,0,0,1,.37,1.37c0,2.71.16,6.22.49,10.55q2.12-3.14,3.18-5a5.13,5.13,0,0,1-.53-2.43,5.32,5.32,0,0,1,.53-2.33,5,5,0,0,1,1.44-1.84,3.33,3.33,0,0,1,2.08-.7,2.09,2.09,0,0,1,1.66.72,3.05,3.05,0,0,1,.64,2.1,9.83,9.83,0,0,1-.85,3.64,26.5,26.5,0,0,0,3.56-.53l1-.18A1.27,1.27,0,0,1,1056.81,3586.63Z" transform="translate(-990.6 -3567.48)"/><path class="cls-1" d="M1085.79,3568.75a1.87,1.87,0,0,1,.37,1.2c0,1.62-.87,2.37-2.61,2.26l-1.24-.11c-1.38-.12-2.77-.21-4.14-.28s-2.82-.11-4.32-.11h-1.59c-.28,3.48-.58,6.66-.88,9.53l6.06-.11a2.43,2.43,0,0,1,1.75.46,1.73,1.73,0,0,1,.44,1.23,2.52,2.52,0,0,1-.7,1.89,2.75,2.75,0,0,1-2,.69h-6l-.21,1.52q-.74,5.82-3.16,8.29a8.89,8.89,0,0,1-6.65,2.47,9.37,9.37,0,0,1-4.4-1,7.45,7.45,0,0,1-3-2.52,2.58,2.58,0,0,1-.39-1.44,2.73,2.73,0,0,1,.41-1.49,1.17,1.17,0,0,1,1-.63,1.4,1.4,0,0,1,.82.28,5.37,5.37,0,0,1,1,1.1,5.11,5.11,0,0,0,4.2,2.22,4.21,4.21,0,0,0,3.37-1.64,9.79,9.79,0,0,0,1.75-5.17l.21-1.94h-1.69a2.18,2.18,0,0,1-1.4-.46,1.57,1.57,0,0,1-.58-1.3,2.31,2.31,0,0,1,.57-1.68,2.17,2.17,0,0,1,1.65-.58c.66,0,1.31,0,1.94,0,.29-2.58.59-5.72.92-9.42a14.41,14.41,0,0,0-5.36,1.24,2.82,2.82,0,0,0-1.55,2.61,4.15,4.15,0,0,0,.7,2.29,1.16,1.16,0,0,1,.21.64,1.35,1.35,0,0,1-.7,1.11,2.83,2.83,0,0,1-1.59.47,2.4,2.4,0,0,1-1.62-.56,3.34,3.34,0,0,1-.81-1.45,7.2,7.2,0,0,1-.39-2.43c0-2.92,1.5-5,4.5-6.35s7.37-2,13.14-2a78.54,78.54,0,0,1,10.58.64A2,2,0,0,1,1085.79,3568.75Z" transform="translate(-990.6 -3567.48)"/><path class="cls-1" d="M1079.56,3596a6.33,6.33,0,0,1-1.3-4.16,11.45,11.45,0,0,1,1.3-5.34,11,11,0,0,1,3.48-4.06,7.85,7.85,0,0,1,4.6-1.54,1.37,1.37,0,0,1,1,.3,2.53,2.53,0,0,1,.44,1.08,8.68,8.68,0,0,1,1.55-.14c1.16,0,1.73.41,1.73,1.23a25.22,25.22,0,0,1-.53,3.53,34.39,34.39,0,0,0-.81,5.65,1.25,1.25,0,0,0,.27.84.85.85,0,0,0,.69.32,2.73,2.73,0,0,0,1.62-.86,32,32,0,0,0,2.57-2.81,1.23,1.23,0,0,1,1-.49.82.82,0,0,1,.72.42,2.24,2.24,0,0,1,.26,1.16,3.24,3.24,0,0,1-.67,2.19,17.53,17.53,0,0,1-3.07,3,5.2,5.2,0,0,1-3.14,1.24,3.29,3.29,0,0,1-2.13-.79,4.78,4.78,0,0,1-1.46-2.17q-1.85,3-4.63,3A4.29,4.29,0,0,1,1079.56,3596Zm6.25-2.89a5.91,5.91,0,0,0,1-2.43l1.3-6.49a4.23,4.23,0,0,0-2.73,1.11,7.3,7.3,0,0,0-2,2.84,9.42,9.42,0,0,0-.74,3.74,2.49,2.49,0,0,0,.44,1.62,1.5,1.5,0,0,0,1.21.53A2,2,0,0,0,1085.81,3593.09Z" transform="translate(-990.6 -3567.48)"/><path class="cls-1" d="M1095.91,3596.16a13.71,13.71,0,0,1-.54-4.52,28.74,28.74,0,0,1,1.3-8.71,2.67,2.67,0,0,1,1-1.5,3.65,3.65,0,0,1,2-.48,2,2,0,0,1,1,.18.72.72,0,0,1,.28.67,13.71,13.71,0,0,1-.53,2.54c-.23.94-.42,1.76-.56,2.47s-.26,1.58-.36,2.61a20.4,20.4,0,0,1,2.61-4.94,10.25,10.25,0,0,1,2.84-2.71,5.22,5.22,0,0,1,2.56-.82,2,2,0,0,1,2.29,2.3,17.67,17.67,0,0,1-.31,2.22,12.61,12.61,0,0,0-.28,1.76c0,.83.29,1.24.88,1.24a4.27,4.27,0,0,0,2.54-1.55,1.32,1.32,0,0,1,1-.46.81.81,0,0,1,.72.4,1.92,1.92,0,0,1,.27,1.08,2.87,2.87,0,0,1-.71,2,9.6,9.6,0,0,1-2.31,1.74,5.79,5.79,0,0,1-2.8.73,3.86,3.86,0,0,1-2.84-1,3.41,3.41,0,0,1-1-2.57,5.36,5.36,0,0,1,.1-1.06c.05-.47.07-.79.07-.95q0-.57-.39-.57c-.35,0-.81.4-1.39,1.18a16.09,16.09,0,0,0-1.71,3.13,25.17,25.17,0,0,0-1.37,4.09,5.42,5.42,0,0,1-.91,2.24,2,2,0,0,1-1.6.58A1.94,1.94,0,0,1,1095.91,3596.16Z" transform="translate(-990.6 -3567.48)"/><path class="cls-1" d="M1112,3596.16a13.71,13.71,0,0,1-.54-4.52,28.74,28.74,0,0,1,1.3-8.71,2.67,2.67,0,0,1,1-1.5,3.65,3.65,0,0,1,2-.48,2,2,0,0,1,1,.18.72.72,0,0,1,.28.67,13.71,13.71,0,0,1-.53,2.54c-.23.94-.42,1.76-.56,2.45s-.26,1.56-.36,2.6a19.27,19.27,0,0,1,2.28-4.66,10.63,10.63,0,0,1,2.72-2.84,4.77,4.77,0,0,1,2.62-.94,2.26,2.26,0,0,1,1.75.57,2.52,2.52,0,0,1,.51,1.73,22.13,22.13,0,0,1-.67,4.09c-.19.85-.32,1.48-.39,1.9a17.48,17.48,0,0,1,3.92-6.31,6.18,6.18,0,0,1,4-2,2,2,0,0,1,2.29,2.3,28.85,28.85,0,0,1-.77,5,24.18,24.18,0,0,0-.67,4.06q0,1.41,1,1.41a2.8,2.8,0,0,0,1.68-.86,30.11,30.11,0,0,0,2.59-2.81,1.23,1.23,0,0,1,1-.49.83.83,0,0,1,.73.42,2.24,2.24,0,0,1,.26,1.16,3.24,3.24,0,0,1-.67,2.19,15.59,15.59,0,0,1-3.26,3.07,6.86,6.86,0,0,1-4,1.2,3.45,3.45,0,0,1-2.72-1,4.43,4.43,0,0,1-.92-3,22,22,0,0,1,.5-3.52,19.15,19.15,0,0,0,.46-3.07q0-.57-.39-.57c-.31,0-.74.4-1.31,1.18a17.3,17.3,0,0,0-1.69,3.13,26.2,26.2,0,0,0-1.38,4.09,5.18,5.18,0,0,1-.9,2.26,2.12,2.12,0,0,1-1.64.56,1.87,1.87,0,0,1-1.74-1.11,5.73,5.73,0,0,1-.58-2.7,29.55,29.55,0,0,1,.35-3.88c.19-1.5.28-2.49.28-3s-.13-.57-.39-.57-.8.43-1.34,1.27a18.67,18.67,0,0,0-1.57,3.25,30.78,30.78,0,0,0-1.21,3.88,5.58,5.58,0,0,1-.9,2.24,2,2,0,0,1-1.61.58A1.94,1.94,0,0,1,1112,3596.16Z" transform="translate(-990.6 -3567.48)"/><path class="cls-1" d="M1141.35,3597.5a2.49,2.49,0,0,1-1-1.91,2.13,2.13,0,0,1,.67-1.58,2.66,2.66,0,0,1,2-.67,9.16,9.16,0,0,1,1.08.08c.41.06.72.11.94.13a4.62,4.62,0,0,0-.41-1.73,8.81,8.81,0,0,0-.94-1.57q-.56-.77-1-1.32a23.11,23.11,0,0,1-2.17,3.45,26.35,26.35,0,0,1-2.35,2.62,1.89,1.89,0,0,1-1.34.63,1.14,1.14,0,0,1-.92-.41,1.49,1.49,0,0,1-.35-1,2.07,2.07,0,0,1,.49-1.31l.46-.56a45.5,45.5,0,0,0,2.93-3.95,24.37,24.37,0,0,0,1.29-2.44q.64-1.41,1.71-3.84a2.71,2.71,0,0,1,2.79-1.55,3.68,3.68,0,0,1,1.37.17.6.6,0,0,1,.39.57,2.82,2.82,0,0,1-.14.67,4.45,4.45,0,0,1-.39.91,5.09,5.09,0,0,0-.63,2.16,2.3,2.3,0,0,0,.37,1.16,13.77,13.77,0,0,0,1.14,1.59,20.93,20.93,0,0,1,1.71,2.52,4.56,4.56,0,0,1,.59,2.28,6,6,0,0,1-.69,2.8,5.63,5.63,0,0,1-1.92,2.13,5,5,0,0,1-2.83.82A4.16,4.16,0,0,1,1141.35,3597.5Z" transform="translate(-990.6 -3567.48)"/></svg>