<svg id="desktop" xmlns="http://www.w3.org/2000/svg" xmlns:xlink="http://www.w3.org/1999/xlink" viewBox="0 0 214.06 83.09"><defs><style>.cls-1{fill:url(#radial-gradient);}.cls-2{fill:#443535;}</style><radialGradient id="radial-gradient" cx="211.5" cy="3635" r="126.5" gradientUnits="userSpaceOnUse"><stop offset="0" stop-color="#09d400"/><stop offset="1" stop-color="#0041bf"/></radialGradient></defs><title>tammys-farms-logo</title><path class="cls-1" d="M115.55,3577.68q-2.44,1.76-4.83,3.62V3578a146,146,0,0,1,13.16-11c.1,1.63.19,3.25.29,4.87q-2.55,1.59-5,3.27l.84,18.56-3.89.65Q115.81,3586,115.55,3577.68Z" transform="translate(-101.58 -3534.83)"/><path class="cls-1" d="M135.05,3569.54c1.18,1.29,1.91,3.83,2.16,7.5q.48,7,1,14.06l-3.58.47-.19-2.91c-.57,2.31-1.83,3.54-3.78,3.8A4.23,4.23,0,0,1,128,3592a4.49,4.49,0,0,1-1.81-1.92,7.25,7.25,0,0,1-.76-3,8.46,8.46,0,0,1,1.07-4.87,7.52,7.52,0,0,1,4-3.23l3-1.07a5.12,5.12,0,0,0-1-3.1,1.82,1.82,0,0,0-2.27-.2,6.26,6.26,0,0,0-1.95,1.45,9,9,0,0,0-1.56,2.17c-.53-1.21-1-2.39-1.55-3.52a15.5,15.5,0,0,1,2.32-3.18,11.88,11.88,0,0,1,2.89-2.3C132.29,3568.18,133.86,3568.26,135.05,3569.54ZM133,3586.83a5.53,5.53,0,0,0,.9-2.59c-.05-.79-.1-1.58-.16-2.38l-2.57.76a2.84,2.84,0,0,0-2.13,3.22,2.55,2.55,0,0,0,.69,1.77,1.7,1.7,0,0,0,1.6.37A2.72,2.72,0,0,0,133,3586.83Z" transform="translate(-101.58 -3534.83)"/><path class="cls-1" d="M161,3560c1.13,2,1.83,5.46,2.1,10.16l1,18.25c-1.29.1-2.59.21-3.88.33q-.5-8.19-1-16.37a15.34,15.34,0,0,0-1-5.33c-.51-1.09-1.18-1.52-2-1.29s-1.6,1.13-2,2.59a17.34,17.34,0,0,0-.42,6q.47,7.44.94,14.88c-1.29.12-2.57.26-3.86.39l-1-15.1c-.3-4.51-1.29-6.5-3-5.93a3.53,3.53,0,0,0-2,2.52,15.27,15.27,0,0,0-.42,5.55q.47,6.78.92,13.56l-3.84.45-1.77-25.8q1.78-.81,3.6-1.59l.21,3.11a11.23,11.23,0,0,1,1.61-3.35,5.41,5.41,0,0,1,2.28-1.88,2.71,2.71,0,0,1,2.62.22,6,6,0,0,1,2.06,2.91,13.51,13.51,0,0,1,1.85-4.28,5.43,5.43,0,0,1,2.68-2.23Q159.31,3556.93,161,3560Z" transform="translate(-101.58 -3534.83)"/><path class="cls-1" d="M188,3554.49c1.11,2.51,1.73,6.45,1.88,11.75q.28,10.31.56,20.6l-3.92.16-.6-18.78A20.92,20.92,0,0,0,185,3562c-.5-1.33-1.17-1.93-2-1.81s-1.66,1-2.16,2.63a22.22,22.22,0,0,0-.55,7q.33,8.74.67,17.49l-3.91.22-.78-18.1c-.23-5.4-1.22-8-3-7.62-.92.18-1.62,1.07-2.09,2.64a21.08,21.08,0,0,0-.49,6.7q.41,8.37.82,16.73l-3.9.28q-.85-16.31-1.72-32.6c1.26-.35,2.53-.67,3.8-1,.07,1.28.13,2.56.19,3.84a11,11,0,0,1,1.73-3.66A4.2,4.2,0,0,1,174,3553a2.86,2.86,0,0,1,2.72.87,9.07,9.07,0,0,1,2.08,3.86,13.69,13.69,0,0,1,2-4.59,4.48,4.48,0,0,1,2.82-2C185.41,3550.87,186.85,3552,188,3554.49Z" transform="translate(-101.58 -3534.83)"/><path class="cls-1" d="M206.89,3549.49q-3.09,19.73-5.86,39.32c-.56,4.25-1.27,7.23-2.15,9s-1.94,2.59-3.21,2.59a3.24,3.24,0,0,1-2.07-.88,6.68,6.68,0,0,1-1.73-2.41c.41-2.49.82-5,1.24-7.49a5.48,5.48,0,0,0,1.08,1.67,1.68,1.68,0,0,0,1.18.58c.53,0,1-.36,1.28-1.07a14.07,14.07,0,0,0,.83-3.51l.05-.35c-2.18-12.23-4.45-24.33-6.8-36.21,1.4-.17,2.81-.32,4.22-.45q2.25,12.16,4.37,24.55,1.74-12.52,3.61-25.14C204.25,3549.58,205.57,3549.53,206.89,3549.49Z" transform="translate(-101.58 -3534.83)"/><path class="cls-1" d="M212.36,3536.65a13.12,13.12,0,0,1,.71,4.79c0,.92,0,1.83-.13,2.75s-.28,2.3-.56,4.13c-.51,3.3-1,6.61-1.52,9.91l-2.59,0c.36-3.62.72-7.26,1.09-10.89a5.24,5.24,0,0,1-1-2.25,15.62,15.62,0,0,1-.39-3.63,13.21,13.21,0,0,1,.71-4.8q.74-1.84,1.86-1.86C211.26,3534.82,211.87,3535.44,212.36,3536.65Z" transform="translate(-101.58 -3534.83)"/><path class="cls-1" d="M216.5,3585.89a8.73,8.73,0,0,1-2.57-2.87l1.35-7.7a8.84,8.84,0,0,0,2.21,2.6,4.19,4.19,0,0,0,2.53,1c1.68,0,2.54-1.06,2.57-3.29a3.17,3.17,0,0,0-.66-2.28,5.51,5.51,0,0,0-2.12-1.22,11.8,11.8,0,0,1-2.79-1.64,7.29,7.29,0,0,1-1.9-3.19,20,20,0,0,1-.79-6.48,22.16,22.16,0,0,1,.79-6.22,9.38,9.38,0,0,1,2.28-4.18,4.57,4.57,0,0,1,3.53-1.37,6.1,6.1,0,0,1,3,1,7.72,7.72,0,0,1,2.42,2.53c-.5,2.48-1,5-1.49,7.47-1.2-1.89-2.54-2.88-4-2.94a2.12,2.12,0,0,0-2,.89,4.15,4.15,0,0,0-.67,2.45,3.4,3.4,0,0,0,.68,2.43,7.42,7.42,0,0,0,2.22,1.37,13.24,13.24,0,0,1,2.77,1.73,7,7,0,0,1,1.83,3.19,19.69,19.69,0,0,1,.69,6.3,22.62,22.62,0,0,1-.87,6,9.51,9.51,0,0,1-2.28,4.07,4.67,4.67,0,0,1-3.46,1.41A5.73,5.73,0,0,1,216.5,3585.89Z" transform="translate(-101.58 -3534.83)"/><path class="cls-1" d="M241.39,3549.74q-.22,6.06-.43,12.13c2.78.37,5.56.8,8.32,1.28l-.36,8.24q-4.12-.57-8.26-1-.28,8.37-.59,16.72l-4.06-.18q.69-23.25,1.4-46.51,7,1.2,13.87,3c-.12,2.74-.25,5.47-.37,8.2C247.75,3550.94,244.58,3550.29,241.39,3549.74Z" transform="translate(-101.58 -3534.83)"/><path class="cls-1" d="M263.23,3560c1,2.65,1.34,6.25,1.07,10.88l-1.05,17.77-3.64-.31c.08-1.32.15-2.65.23-4-.9,2.89-2.35,4.29-4.34,4.15a3.53,3.53,0,0,1-2.62-1.48,9,9,0,0,1-1.57-3.75A20.84,20.84,0,0,1,251,3578a14.75,14.75,0,0,1,1.77-7.17,4,4,0,0,1,4.55-1.88c1.05.2,2.09.4,3.13.62a12.19,12.19,0,0,0-.52-4.86,3.19,3.19,0,0,0-2.27-2.19,3,3,0,0,0-2.19.35,5.36,5.36,0,0,0-1.9,1.89c-.37-2.34-.73-4.7-1.1-7.08a6.55,6.55,0,0,1,2.84-2.35,5,5,0,0,1,3.28-.19C260.68,3555.71,262.23,3557.39,263.23,3560Zm-4.58,21.31a7.33,7.33,0,0,0,1.28-3.1l.18-3.27-2.69-.44c-1.61-.26-2.48.91-2.61,3.49a6.13,6.13,0,0,0,.44,3,1.91,1.91,0,0,0,1.56,1.25A2,2,0,0,0,258.65,3581.33Z" transform="translate(-101.58 -3534.83)"/><path class="cls-1" d="M274.16,3561.34a3.23,3.23,0,0,1,2.77,0l-.51,7.51a7.55,7.55,0,0,0-.85-.38,2.19,2.19,0,0,0-2.72,1.21,13.57,13.57,0,0,0-1.34,5.86q-.45,6.91-.89,13.83l-3.87-.38q.94-15.14,1.87-30.29c1.25.42,2.48.86,3.71,1.31l-.24,3.87A4.85,4.85,0,0,1,274.16,3561.34Z" transform="translate(-101.58 -3534.83)"/><path class="cls-1" d="M299.17,3574.63a16.25,16.25,0,0,1,1,7.23l-.63,11.17-3.78-.57.69-11.1a10,10,0,0,0-.39-4,3.27,3.27,0,0,0-1.69-2,1.58,1.58,0,0,0-2.15.59,8.63,8.63,0,0,0-1.06,4.22l-.78,11.58c-1.27-.18-2.54-.35-3.82-.51q.45-6.45.89-12.89c.26-3.83-.42-6.08-2.05-6.73a1.69,1.69,0,0,0-2.2.92,11.28,11.28,0,0,0-1.13,4.87l-.9,13.16-3.84-.45q.92-13.7,1.85-27.4c1.22.51,2.42,1,3.62,1.56l-.21,3a3.88,3.88,0,0,1,1.95-1.75,3,3,0,0,1,2.35.22,6.19,6.19,0,0,1,2.37,2.21,11.68,11.68,0,0,1,1.56,3.72,3.86,3.86,0,0,1,2.16-1.83,3.4,3.4,0,0,1,2.63.45A8.62,8.62,0,0,1,299.17,3574.63Z" transform="translate(-101.58 -3534.83)"/><path class="cls-1" d="M304.13,3593.48a7.66,7.66,0,0,1-2.38-1.85c.48-1.21,1-2.38,1.43-3.51a8.52,8.52,0,0,0,2,1.81,8,8,0,0,0,2.35,1.09c1.56.41,2.34.17,2.36-.74a1.42,1.42,0,0,0-.6-1.14,13.28,13.28,0,0,0-1.92-1.18,18.92,18.92,0,0,1-2.51-1.63,6.11,6.11,0,0,1-1.66-2.18,7.29,7.29,0,0,1-.57-3.52,4.89,4.89,0,0,1,.83-2.74,2.18,2.18,0,0,1,2-.86,6.22,6.22,0,0,1,3,1.29,17.25,17.25,0,0,1,2.47,2.09,18.26,18.26,0,0,1,2,2.33c-.38.66-.76,1.38-1.16,2.13a12.67,12.67,0,0,0-3.44-3.08,2.67,2.67,0,0,0-1.7-.51.76.76,0,0,0-.61.82,1.82,1.82,0,0,0,.57,1.4,14.48,14.48,0,0,0,1.94,1.5c1,.68,1.81,1.29,2.44,1.81a7.79,7.79,0,0,1,1.65,1.93,4.87,4.87,0,0,1,.7,2.58,3,3,0,0,1-.7,2,4,4,0,0,1-2.1,1.14,8.74,8.74,0,0,1-3.29,0A10.15,10.15,0,0,1,304.13,3593.48Z" transform="translate(-101.58 -3534.83)"/><rect class="cls-2" y="68.78" width="214.06" height="14.31"/></svg>