<svg id="desktop" xmlns="http://www.w3.org/2000/svg" viewBox="0 0 214.06 83.12"><defs><style>.cls-1{fill:#fff;}</style></defs><title>tammys-farms-logo-white</title><path class="cls-1" d="M14,42.85q-2.45,1.76-4.83,3.62v-3.3a147.13,147.13,0,0,1,13.16-11c.1,1.63.19,3.25.29,4.87q-2.55,1.59-5,3.27l.84,18.56-3.89.65Q14.23,51.17,14,42.85Z" transform="translate(0 0.03)"/><path class="cls-1" d="M33.47,34.71c1.18,1.29,1.91,3.83,2.16,7.5q.48,7,1,14.06l-3.58.47-.19-2.91c-.57,2.31-1.83,3.54-3.78,3.8a4.24,4.24,0,0,1-2.66-.46,4.48,4.48,0,0,1-1.81-1.92,7.12,7.12,0,0,1-.76-3,8.46,8.46,0,0,1,1.07-4.87,7.52,7.52,0,0,1,4-3.23l3-1.07a5.17,5.17,0,0,0-1-3.1,1.83,1.83,0,0,0-2.27-.2,6.17,6.17,0,0,0-1.95,1.45,8.8,8.8,0,0,0-1.56,2.17c-.53-1.21-1-2.39-1.55-3.52a15.71,15.71,0,0,1,2.32-3.18,11.91,11.91,0,0,1,2.89-2.3C30.71,33.35,32.28,33.43,33.47,34.71ZM31.42,52a5.55,5.55,0,0,0,.9-2.59c0-.79-.1-1.58-.16-2.38l-2.57.76A2.84,2.84,0,0,0,27.46,51a2.53,2.53,0,0,0,.69,1.77,1.7,1.7,0,0,0,1.6.37A2.74,2.74,0,0,0,31.42,52Z" transform="translate(0 0.03)"/><path class="cls-1" d="M59.42,25.17c1.13,2,1.83,5.46,2.1,10.16l1,18.25c-1.29.1-2.59.21-3.88.33q-.49-8.19-1-16.37a15.18,15.18,0,0,0-1-5.33c-.51-1.09-1.18-1.52-2-1.29a3.42,3.42,0,0,0-2,2.59,17.31,17.31,0,0,0-.42,6q.47,7.44.94,14.88c-1.29.12-2.57.26-3.86.39l-1-15.1c-.3-4.51-1.29-6.5-3-5.93a3.54,3.54,0,0,0-2,2.52,15.27,15.27,0,0,0-.42,5.55q.46,6.78.92,13.56L40,55.83,38.19,30q1.79-.81,3.6-1.59L42,31.55a11.27,11.27,0,0,1,1.61-3.35,5.35,5.35,0,0,1,2.28-1.88,2.72,2.72,0,0,1,2.62.22,6,6,0,0,1,2.06,2.91,13.47,13.47,0,0,1,1.85-4.28,5.43,5.43,0,0,1,2.68-2.23Q57.73,22.1,59.42,25.17Z" transform="translate(0 0.03)"/><path class="cls-1" d="M86.42,19.66c1.11,2.51,1.73,6.45,1.88,11.75q.28,10.31.56,20.6l-3.92.16-.6-18.78a20.83,20.83,0,0,0-.92-6.22c-.5-1.33-1.17-1.93-2-1.81s-1.66,1-2.16,2.63a22.27,22.27,0,0,0-.55,7q.33,8.74.67,17.49l-3.91.22-.78-18.1c-.23-5.4-1.22-8-3-7.62-.92.18-1.62,1.07-2.09,2.64a21,21,0,0,0-.49,6.7q.4,8.37.82,16.73l-3.9.28q-.86-16.3-1.72-32.6c1.26-.35,2.53-.67,3.8-1,.07,1.28.13,2.56.19,3.84A11,11,0,0,1,70,19.91a4.2,4.2,0,0,1,2.39-1.74,2.86,2.86,0,0,1,2.72.87,9.09,9.09,0,0,1,2.08,3.86,13.74,13.74,0,0,1,2-4.59,4.45,4.45,0,0,1,2.82-2C83.83,16,85.27,17.17,86.42,19.66Z" transform="translate(0 0.03)"/><path class="cls-1" d="M105.31,14.66Q102.22,34.39,99.45,54c-.56,4.25-1.27,7.23-2.15,9s-1.94,2.59-3.21,2.59A3.26,3.26,0,0,1,92,64.69a6.69,6.69,0,0,1-1.73-2.41c.41-2.49.82-5,1.24-7.49a5.57,5.57,0,0,0,1.08,1.67,1.64,1.64,0,0,0,1.18.58A1.43,1.43,0,0,0,95.07,56a13.7,13.7,0,0,0,.83-3.51l0-.35c-2.18-12.23-4.45-24.33-6.8-36.21,1.4-.17,2.81-.32,4.22-.45Q95.62,27.62,97.74,40q1.74-12.53,3.61-25.14C102.67,14.75,104,14.7,105.31,14.66Z" transform="translate(0 0.03)"/><path class="cls-1" d="M110.78,1.82a13.21,13.21,0,0,1,.71,4.79,19.48,19.48,0,0,1-.13,2.75c-.13.92-.28,2.3-.56,4.13-.51,3.3-1,6.61-1.52,9.91h-2.59c.36-3.62.72-7.26,1.09-10.89a5.2,5.2,0,0,1-1-2.25,15.83,15.83,0,0,1-.39-3.63,13.26,13.26,0,0,1,.71-4.8Q107.84,0,109,0C109.68,0,110.29.61,110.78,1.82Z" transform="translate(0 0.03)"/><path class="cls-1" d="M114.92,51.06a8.63,8.63,0,0,1-2.57-2.87l1.35-7.7a8.77,8.77,0,0,0,2.21,2.6,4.15,4.15,0,0,0,2.53,1c1.68,0,2.54-1.06,2.57-3.29a3.17,3.17,0,0,0-.66-2.28,5.5,5.5,0,0,0-2.12-1.22,12,12,0,0,1-2.79-1.64,7.28,7.28,0,0,1-1.9-3.19,20,20,0,0,1-.79-6.48,22.17,22.17,0,0,1,.79-6.22,9.33,9.33,0,0,1,2.28-4.18,4.53,4.53,0,0,1,3.53-1.37,6.06,6.06,0,0,1,3,1,7.7,7.7,0,0,1,2.42,2.53c-.5,2.48-1,5-1.49,7.47-1.2-1.89-2.54-2.88-4-2.94a2.12,2.12,0,0,0-2,.89,4.17,4.17,0,0,0-.67,2.45,3.41,3.41,0,0,0,.68,2.43,7.36,7.36,0,0,0,2.22,1.37,13.26,13.26,0,0,1,2.77,1.73,7,7,0,0,1,1.83,3.19,19.71,19.71,0,0,1,.69,6.3,22.55,22.55,0,0,1-.87,6,9.52,9.52,0,0,1-2.28,4.07,4.68,4.68,0,0,1-3.46,1.41A5.74,5.74,0,0,1,114.92,51.06Z" transform="translate(0 0.03)"/><path class="cls-1" d="M139.81,14.91Q139.58,21,139.38,27c2.78.37,5.56.8,8.32,1.28l-.36,8.24q-4.12-.57-8.26-1-.29,8.37-.59,16.72l-4.06-.18q.69-23.25,1.4-46.51,7,1.2,13.87,3c-.12,2.74-.25,5.47-.37,8.2C146.17,16.11,143,15.46,139.81,14.91Z" transform="translate(0 0.03)"/><path class="cls-1" d="M161.65,25.17c1,2.65,1.34,6.25,1.07,10.88l-1.05,17.77L158,53.51c.08-1.32.15-2.65.23-4-.9,2.89-2.35,4.29-4.34,4.15a3.54,3.54,0,0,1-2.62-1.48,9,9,0,0,1-1.57-3.75,20.61,20.61,0,0,1-.31-5.26A14.71,14.71,0,0,1,151.19,36a4,4,0,0,1,4.55-1.88c1,.2,2.09.4,3.13.62a12.12,12.12,0,0,0-.52-4.86,3.19,3.19,0,0,0-2.27-2.19,3,3,0,0,0-2.19.35,5.37,5.37,0,0,0-1.9,1.89c-.37-2.34-.73-4.7-1.1-7.08a6.58,6.58,0,0,1,2.84-2.35,5,5,0,0,1,3.28-.19C159.1,20.88,160.65,22.56,161.65,25.17Zm-4.58,21.31a7.31,7.31,0,0,0,1.28-3.1l.18-3.27-2.69-.44c-1.61-.26-2.48.91-2.61,3.49a6,6,0,0,0,.44,3,1.91,1.91,0,0,0,1.56,1.25,2,2,0,0,0,1.84-.91Z" transform="translate(0 0.03)"/><path class="cls-1" d="M172.58,26.51a3.2,3.2,0,0,1,2.77,0L174.84,34a9.19,9.19,0,0,0-.85-.38,2.19,2.19,0,0,0-2.72,1.21,13.52,13.52,0,0,0-1.34,5.86q-.45,6.91-.89,13.83l-3.87-.38Q166.12,39,167,23.87c1.25.42,2.48.86,3.71,1.31l-.24,3.87A4.85,4.85,0,0,1,172.58,26.51Z" transform="translate(0 0.03)"/><path class="cls-1" d="M197.59,39.8a16.2,16.2,0,0,1,1,7.23L198,58.2l-3.78-.57.69-11.1a10,10,0,0,0-.39-4,3.26,3.26,0,0,0-1.69-2,1.57,1.57,0,0,0-2.15.59,8.64,8.64,0,0,0-1.06,4.22l-.78,11.58c-1.27-.18-2.54-.35-3.82-.51q.45-6.45.89-12.89c.26-3.83-.42-6.08-2.05-6.73a1.69,1.69,0,0,0-2.2.92,11.26,11.26,0,0,0-1.13,4.87l-.9,13.16-3.84-.45q.92-13.69,1.85-27.4c1.22.51,2.42,1,3.62,1.56l-.21,3a3.91,3.91,0,0,1,2-1.75,3,3,0,0,1,2.35.22,6.21,6.21,0,0,1,2.37,2.21,11.72,11.72,0,0,1,1.56,3.72A3.83,3.83,0,0,1,191.4,35a3.43,3.43,0,0,1,2.63.45A8.61,8.61,0,0,1,197.59,39.8Z" transform="translate(0 0.03)"/><path class="cls-1" d="M202.55,58.65a7.54,7.54,0,0,1-2.38-1.85c.48-1.21,1-2.38,1.43-3.51a8.4,8.4,0,0,0,2,1.81A7.87,7.87,0,0,0,206,56.19c1.56.41,2.34.17,2.36-.74a1.44,1.44,0,0,0-.6-1.14,13.55,13.55,0,0,0-1.92-1.18,18.92,18.92,0,0,1-2.51-1.63,6.12,6.12,0,0,1-1.66-2.18,7.33,7.33,0,0,1-.57-3.52,4.93,4.93,0,0,1,.83-2.74,2.19,2.19,0,0,1,2-.86,6.26,6.26,0,0,1,3,1.29,17.62,17.62,0,0,1,2.47,2.09,18.49,18.49,0,0,1,2,2.33c-.38.66-.76,1.38-1.16,2.13A12.65,12.65,0,0,0,206.75,47a2.65,2.65,0,0,0-1.7-.51.76.76,0,0,0-.61.82,1.83,1.83,0,0,0,.57,1.4,14.14,14.14,0,0,0,1.94,1.5c1,.68,1.81,1.29,2.44,1.81A7.82,7.82,0,0,1,211,53.91a4.88,4.88,0,0,1,.7,2.58,3,3,0,0,1-.7,2,4,4,0,0,1-2.1,1.14,8.67,8.67,0,0,1-3.29,0A10.2,10.2,0,0,1,202.55,58.65Z" transform="translate(0 0.03)"/><rect class="cls-1" y="68.81" width="214.06" height="14.31"/></svg>