<?xml version="1.0" encoding="utf-8"?>
<!-- Generator: Adobe Illustrator 22.0.1, SVG Export Plug-In . SVG Version: 6.00 Build 0)  -->
<svg version="1.1" id="Layer_1" xmlns="http://www.w3.org/2000/svg" xmlns:xlink="http://www.w3.org/1999/xlink" x="0px" y="0px"
	 viewBox="0 0 736.4 363.2" style="enable-background:new 0 0 736.4 363.2;" xml:space="preserve">
<style type="text/css">
	.st0{fill:#525252;}
	.st1{fill:#7DBE00;}
</style>
<title>Artboard 1</title>
<path class="st0" d="M313.7,298.2l-0.8,0.9c-32.5,33.8-77.3,52.9-124.1,53c-37.6,0.1-74.2-12.3-104-35.2
	c-15.4-11-28.7-24.6-39.6-40.1c-27.1-40.1-36-89.8-24.8-136.8c4.4-17,11.5-33.2,21-48c31-51.5,87.5-83.5,147.4-83.5
	c26.6,0,52.8,6.2,76.7,18l1.1,0.5l2.5-4.6l-1.1-0.6C241.4,7.5,211.8,0,181.7,0C81.6,0,0.1,81.4,0.1,181.6s81.4,181.6,181.6,181.6
	c51.6,0,100.8-22,135.2-60.4l0.8-0.9L313.7,298.2z"/>
<path class="st0" d="M181.7,37.7c-41,0-80,17.5-107.3,48l-0.8,0.9l4.7,4.2l0.8-0.9c25.8-27.5,61.8-43.2,99.5-43.3
	c75,0,136.1,61.1,136.1,136.1S253.7,319,178.6,319h-2.5l-0.2,6.4h1.2c1.5,0,3,0.1,4.6,0.1c79.3,0,143.8-64.5,143.8-143.8
	S261,37.7,181.7,37.7z"/>
<path class="st0" d="M390.7,190.4c0,2.6-0.1,5.2-0.4,7.7c-0.3,1.7-0.8,3.4-1.6,5c-1.3,2.7-3.3,4.9-5.9,6.3c-2.6,1.6-5.6,2.4-8.7,2.4
	c-2.9,0-5.8-0.7-8.3-2.2c-2.5-1.4-4.5-3.5-5.8-6c-0.9-1.7-1.6-3.6-1.9-5.6c-0.4-2.5-0.6-5.1-0.5-7.7v-50.8H346v50.8
	c-0.1,3.7,0.2,7.4,0.9,11.1c0.6,2.9,1.6,5.6,3.1,8.1c2.3,4.3,5.8,7.8,10,10.2c4.3,2.4,9.2,3.7,14.1,3.6c5,0,10-1.2,14.4-3.7
	c4.3-2.4,7.9-5.9,10.2-10.3c0.7-1.2,1.3-2.5,1.8-3.8c0.5-1.3,0.9-2.6,1.2-4c0.3-1.6,0.5-3.2,0.6-4.8c0.1-1.8,0.2-3.9,0.2-6.4v-50.9
	h-11.7V190.4z"/>
<path class="st0" d="M454.3,183.6c-0.2-1.2-0.5-2.4-1-3.5c-0.5-1.1-1-2.2-1.7-3.4c-1.9-3.4-4.7-6.1-8.2-7.9
	c-7.6-3.7-16.5-3.7-24,0.2c-3.5,1.9-6.3,4.7-8.1,8.2c-1.1,2.2-1.9,4.6-2.5,7c-0.5,2.9-0.8,5.9-0.7,8.9v28.3H419v-28.9
	c0-1.6,0.1-3.2,0.4-4.9c0.2-1.4,0.5-2.7,1-4c0.9-2.1,2.5-3.9,4.5-5c2.1-1.2,4.4-1.9,6.9-1.9c2.4,0,4.8,0.7,6.9,2
	c2,1.2,3.5,3,4.4,5.1c0.9,2.8,1.4,5.7,1.2,8.6v28.9h10.8v-28.3c0-2-0.1-3.8-0.2-5.3C454.8,186.4,454.6,185,454.3,183.6z"/>
<path class="st0" d="M467.9,149c-1.9,0-3.7,0.7-5,2c-1.4,1.3-2.1,3.1-2.1,5c-0.1,3.8,2.9,7,6.7,7.1c0.1,0,0.3,0,0.4,0
	c3.8,0.1,6.9-3,7-6.8c0-0.1,0-0.1,0-0.2c0.1-1.9-0.7-3.7-2-5.1C471.7,149.6,469.8,148.9,467.9,149z"/>
<rect x="462.4" y="167.8" class="st0" width="10.8" height="53.6"/>
<polygon class="st0" points="520.1,167.8 505.1,206.6 490.4,167.8 478.1,167.8 499,221.4 510.9,221.4 532.2,167.8 "/>
<path class="st0" d="M588.4,189.5c-0.4-2.5-1.1-4.9-2.2-7.2c-1.1-2.4-2.5-4.7-4.3-6.7c-1.8-2-3.8-3.7-6.1-5.1
	c-4.6-2.9-10-4.5-15.5-4.5c-3.8,0-7.5,0.8-10.9,2.3c-3.4,1.5-6.4,3.6-9,6.2c-2.6,2.6-4.7,5.7-6.1,9.1c-1.5,3.5-2.3,7.3-2.3,11.1
	c0,3.9,0.7,7.7,2.3,11.2c1.5,3.4,3.6,6.5,6.2,9.1c2.6,2.6,5.8,4.7,9.2,6.1c3.6,1.5,7.5,2.2,11.4,2.2c7.8,0.1,15.3-3.3,20.3-9.2
	l-7.7-7.6c-1.7,1.9-3.7,3.5-6,4.7c-2.1,0.9-4.4,1.3-6.7,1.3c-4.1,0-8-1.3-11.3-3.7c-1.6-1.1-2.9-2.5-4-4.1c-1.1-1.6-1.9-3.3-2.3-5.2
	H589C589.1,196.2,588.9,192.8,588.4,189.5z M543.6,189.3c2.2-7.5,9.1-12.6,16.9-12.5c1.9,0,3.8,0.3,5.6,0.9c1.7,0.6,3.4,1.5,4.8,2.6
	c3,2.2,5.1,5.4,6.1,9L543.6,189.3z"/>
<path class="st0" d="M617.4,166c-3.5,0-6.9,0.7-10,2.2c-3.1,1.4-5.8,3.4-8,6c-3.7,4.3-5.5,10.5-5.5,18.8v28.4h10.8V193
	c0-4.3,0.7-7.7,2.1-10.1c1.1-1.9,2.7-3.4,4.6-4.5c1.8-1.1,3.9-1.7,6.1-1.7c0.6,0,1.1,0,1.7,0.1c0.6,0.1,1.2,0.3,1.8,0.5v-11.2
	l-2.1-0.2C618.4,166,617.9,166,617.4,166z"/>
<path class="st0" d="M657.1,192c-0.7-0.5-1.3-0.9-1.9-1.4c-0.7-0.4-1.3-0.8-2.1-1c-0.8-0.3-1.7-0.6-2.8-0.9s-2.5-0.7-4.1-1.1
	c-3.5-0.9-5.9-1.8-7-2.7c-1.2-1-1.9-2.5-1.8-4c0-1.4,0.5-2.7,1.5-3.7c1-1,2.3-1.6,3.7-1.5c2.7,0,4.5,1.5,5.5,4.5l10.7,2.8
	c0-1.4,0-2.8-0.2-4.2c-0.1-1.1-0.4-2.2-0.8-3.2c-1.1-2.9-3.1-5.3-5.8-6.8c-2.9-1.8-6.2-2.7-9.6-2.6c-4.8,0-8.7,1.5-11.7,4.4
	c-3,3-4.7,7.1-4.5,11.3c0,4.7,1.6,8.3,4.9,10.9c1.3,1.1,2.7,2,4.2,2.6c2.3,0.9,4.6,1.6,6.9,2.1c3.8,0.9,6.3,1.9,7.6,3.1
	c1.4,1.3,2.1,3.1,2,5c0.1,2.1-0.8,4.1-2.4,5.4c-1.8,1.5-4,2.2-6.3,2.1c-6.1,0-9.4-3.2-9.8-9.6l-10.8-2.9c-0.2,0.8-0.3,1.5-0.4,2.2
	c-0.1,0.5-0.1,1.1-0.1,1.6c0,2.6,0.5,5.1,1.7,7.5c1.1,2.3,2.6,4.3,4.5,6c2,1.8,4.3,3.1,6.7,4c2.7,1,5.5,1.5,8.3,1.5
	c2.6,0,5.3-0.5,7.7-1.4c2.3-0.9,4.4-2.2,6.3-3.9c1.8-1.7,3.2-3.7,4.2-5.9c1-2.3,1.6-4.8,1.5-7.3c0-2.5-0.5-4.9-1.5-7.2
	C660.5,195.4,659,193.5,657.1,192z"/>
<path class="st0" d="M702.4,211.2c-2.1,0.9-4.4,1.3-6.7,1.3c-4.1,0-8-1.3-11.3-3.7c-1.6-1.1-2.9-2.5-4-4.1c-1.1-1.6-1.9-3.3-2.3-5.2
	h45.5c0-3.3-0.2-6.6-0.7-9.9c-0.4-2.5-1.1-4.9-2.1-7.2c-1.1-2.4-2.5-4.7-4.3-6.7c-5.5-6.1-13.3-9.6-21.6-9.6
	c-3.8,0-7.5,0.8-10.9,2.3c-3.4,1.5-6.4,3.6-9,6.2c-2.6,2.6-4.7,5.7-6.1,9.1c-1.5,3.5-2.3,7.3-2.2,11.1c0,3.9,0.7,7.7,2.3,11.2
	c1.5,3.4,3.6,6.5,6.2,9.1c5.5,5.4,12.9,8.4,20.6,8.3c7.8,0.1,15.3-3.3,20.3-9.2l-7.7-7.6C706.7,208.4,704.7,210,702.4,211.2z
	 M684.5,180.2c3.1-2.3,6.8-3.5,10.6-3.4c1.9,0,3.8,0.3,5.6,0.9c1.7,0.6,3.4,1.5,4.8,2.6c3,2.2,5.1,5.4,6.1,9h-33.5
	C679.3,185.6,681.5,182.5,684.5,180.2L684.5,180.2z"/>
<path class="st1" d="M113.9,214.9c2.6,2.6,5.7,4.7,9.1,6.1c10.7,4.6,23.2,2.2,31.4-6c2.6-2.6,4.7-5.7,6.1-9.1
	c1.5-3.5,2.3-7.3,2.3-11.1c0-3.9-0.7-7.7-2.2-11.3c-1.4-3.4-3.5-6.5-6.1-9.1c-2.6-2.6-5.7-4.7-9.1-6.1c-7.2-3-15.2-3-22.4,0
	c-3.4,1.4-6.5,3.5-9.1,6.1c-2.6,2.6-4.7,5.6-6.1,9c-1.5,3.5-2.3,7.2-2.3,11c0,3.9,0.7,7.7,2.2,11.3
	C109.3,209.1,111.3,212.2,113.9,214.9z M118.2,187.7c0.9-2.1,2.2-4,3.8-5.6c1.6-1.6,3.5-3,5.6-3.9c4.3-1.9,9.2-1.9,13.5,0
	c2.1,0.9,3.9,2.2,5.5,3.8c1.6,1.6,2.9,3.6,3.8,5.7c0.9,2.2,1.4,4.6,1.4,7c0,2.4-0.4,4.7-1.4,6.9c-0.9,2.1-2.1,4-3.7,5.6
	c-1.6,1.6-3.5,2.9-5.6,3.8c-2.2,0.9-4.5,1.4-6.9,1.4c-2.3,0-4.7-0.5-6.8-1.4c-2.1-0.9-3.9-2.2-5.5-3.8c-1.6-1.6-2.9-3.5-3.7-5.6
	c-0.9-2.2-1.4-4.6-1.4-7C116.8,192.2,117.3,189.9,118.2,187.7z"/>
<path class="st1" d="M185.2,221c10.7,4.6,23.2,2.2,31.5-6c2.6-2.6,4.7-5.7,6.1-9.1c1.5-3.5,2.3-7.3,2.3-11.1c0-3.9-0.7-7.7-2.2-11.3
	c-1.4-3.4-3.5-6.5-6.1-9.1c-2.6-2.6-5.7-4.7-9.1-6.1c-7.2-3-15.2-3-22.4,0c-3.4,1.4-6.5,3.5-9.1,6.1c-2.6,2.6-4.7,5.6-6.1,9
	c-1.5,3.5-2.3,7.2-2.3,11c0,3.9,0.7,7.7,2.2,11.3c1.4,3.4,3.5,6.5,6.1,9.1C178.7,217.5,181.8,219.5,185.2,221z M180.4,187.7
	c0.9-2.1,2.2-4,3.8-5.6c1.6-1.6,3.5-2.9,5.6-3.9c2.1-0.9,4.4-1.4,6.8-1.4c2.3,0,4.7,0.5,6.8,1.4c2.1,0.9,3.9,2.2,5.5,3.8
	c1.6,1.6,2.9,3.6,3.7,5.7c0.9,2.2,1.4,4.6,1.4,7c0,2.4-0.4,4.7-1.4,6.9c-0.9,2.1-2.1,4-3.7,5.6c-1.6,1.6-3.5,2.9-5.6,3.8
	c-2.2,0.9-4.5,1.4-6.9,1.4c-2.3,0-4.7-0.5-6.8-1.4c-2.1-0.9-3.9-2.2-5.5-3.8c-1.6-1.6-2.9-3.5-3.7-5.6c-0.9-2.2-1.4-4.6-1.3-7
	C179,192.2,179.5,189.9,180.4,187.7z"/>
<path class="st1" d="M247.4,221c3.6,1.5,7.4,2.2,11.3,2.2c4.3,0,8.6-1,12.5-2.9c3.9-1.9,7.3-4.6,9.9-8c2-2.7,3.6-5.8,4.6-9
	c1-3.8,1.5-7.8,1.4-11.7v-52h-10.8v34c-7.7-7.7-19.3-9.9-29.2-5.5c-6.7,3-12.1,8.4-14.9,15.2c-1.5,3.5-2.2,7.2-2.2,11
	c-0.1,7.7,2.9,15,8.3,20.5C240.9,217.6,244,219.6,247.4,221z M242.5,187.5c1.8-4.2,5.1-7.6,9.3-9.3c2.1-0.9,4.4-1.4,6.7-1.4
	c2.4,0,4.7,0.5,6.9,1.4c2.1,0.9,4,2.2,5.6,3.8c1.6,1.6,2.9,3.5,3.7,5.6c0.9,2.2,1.4,4.6,1.3,7c0.1,7.1-4,13.5-10.5,16.4
	c-2.1,1-4.5,1.4-6.8,1.4c-2.4,0-4.8-0.5-7-1.4c-2.1-0.9-4-2.2-5.6-3.8c-1.6-1.6-2.9-3.6-3.7-5.7c-0.9-2.3-1.4-4.8-1.4-7.2
	C241.1,192,241.6,189.6,242.5,187.5L242.5,187.5z"/>
<path class="st1" d="M86.6,139.6c-0.8,0-1.5,0-2.3,0.1c-2.9,0.3-5.7,1-8.4,2.3c-3.3,1.5-6.2,3.7-8.6,6.5c-0.7,0.9-1.4,1.8-2,2.8
	c-2.6,4.4-4,10.2-4,17.4v52.7H73V184h24.3c1.1,0,2.3-0.1,3.4-0.2v-11H73V168c0.1-4.4,0.8-7.8,2.2-10.2c1.2-2,2.9-3.7,5-4.8
	c1.9-1.1,4.1-1.7,6.4-1.8c2,0,18.3,0,18.3,0l3-11.3c-1.2-0.1-2.3-0.2-3.5-0.2C101.8,139.6,89.6,139.6,86.6,139.6z"/>
<path class="st0" d="M728.5,172.4v-3.7h-1.4v-0.8h3.8v0.8h-1.4v3.8L728.5,172.4z M731.2,172.4v-4.6h1.2l1.2,3.1l1.3-3.1h1.2v4.6
	h-0.9v-3.1l-1.3,3h-0.6l-1.2-3v3.1L731.2,172.4z"/>
</svg>
