<svg id="Layer_1" data-name="Layer 1" xmlns="http://www.w3.org/2000/svg" viewBox="0 0 76.4 88"><defs><style>.cls-1{fill:#979797;}</style></defs><title>strawberry-gray</title><path class="cls-1" d="M25.19,88a19.27,19.27,0,0,1-11.46-3.21c-8.58-6.22-8-24.12-7.85-30.87,0-.46,0-.86,0-1.19.15-7.5,3.31-15.87,8.9-23.59,10-13.84,29.73-16.73,43.92-6.44s17.57,29.91,7.55,43.74h0c-5.75,7.93-15.63,13.73-21,16.49C41.62,84.81,33.21,88,25.19,88ZM39.83,20A27.23,27.23,0,0,0,17.64,31.18C12.45,38.33,9.53,46,9.39,52.8q0,.51,0,1.23c-.17,5.64-.68,22.81,6.41,28,7.43,5.39,22,.88,27.93-2.14C47.8,77.73,58,72,63.47,64.4h0c8.91-12.28,5.87-29.73-6.77-38.89A28.7,28.7,0,0,0,39.83,20Z" transform="translate(-5.8)"/><path class="cls-1" d="M12.22,67.23H12c-1.12-.18-1.69-1.67-1.39-3.63s1.3-3.19,2.44-3,1.7,1.67,1.39,3.63h0C14.15,66,13.26,67.23,12.22,67.23Zm.51-4.63a4,4,0,0,0-.4,1.26,4.18,4.18,0,0,0,0,1.33,3.71,3.71,0,0,0,.4-1.26h0A3.66,3.66,0,0,0,12.73,62.6Z" transform="translate(-5.8)"/><path class="cls-1" d="M19.69,71.64a1.65,1.65,0,0,1-1-.31,2.48,2.48,0,0,1-.89-2.07,3.4,3.4,0,0,1,1.92-3.17h0a1.67,1.67,0,0,1,1.56.22,2.41,2.41,0,0,1,.89,2.06,3.38,3.38,0,0,1-1.92,3.17A1.69,1.69,0,0,1,19.69,71.64Zm.62-3.91a1.82,1.82,0,0,0-.75,1.55.88.88,0,0,0,.17.64,1.92,1.92,0,0,0,.72-1.56A1,1,0,0,0,20.31,67.73Z" transform="translate(-5.8)"/><path class="cls-1" d="M26.78,76.33a1.84,1.84,0,0,1-.66-.12A1.69,1.69,0,0,1,25.07,75a3.38,3.38,0,0,1,1.58-3.35h0a2.45,2.45,0,0,1,2.21-.4,1.66,1.66,0,0,1,1,1.18,3.38,3.38,0,0,1-1.57,3.35A2.78,2.78,0,0,1,26.78,76.33Zm.84-3.22a1.85,1.85,0,0,0-.87,1.48.92.92,0,0,0,.6-.22,1.82,1.82,0,0,0,.87-1.48.94.94,0,0,0-.6.22Z" transform="translate(-5.8)"/><path class="cls-1" d="M33.61,81.39a1.46,1.46,0,0,1-1.11-.45c-.78-.84-.3-2.36,1.16-3.7a5.46,5.46,0,0,1,1.8-1.15,1.59,1.59,0,0,1,2.11,2.29,5.47,5.47,0,0,1-1.29,1.7A4.22,4.22,0,0,1,33.61,81.39Zm2.32-3.62a4.17,4.17,0,0,0-1.1.74,4,4,0,0,0-.83,1,3.87,3.87,0,0,0,1.1-.74h0A3.59,3.59,0,0,0,35.93,77.77Z" transform="translate(-5.8)"/><path class="cls-1" d="M16.09,51.1a1.6,1.6,0,0,1-.54-.09c-.41-.15-1.11-.62-1.18-2.06a7.9,7.9,0,0,1,1.9-5.14A2,2,0,0,1,18.51,43c1.5.55,1.41,2.88.7,4.8a7.07,7.07,0,0,1-1.42,2.4A2.36,2.36,0,0,1,16.09,51.1Zm1.8-6.4a4.32,4.32,0,0,0-1.4,2.11,4.24,4.24,0,0,0-.31,2.51,4.28,4.28,0,0,0,1.4-2.1A4.36,4.36,0,0,0,17.89,44.7Z" transform="translate(-5.8)"/><path class="cls-1" d="M24.36,56a1.62,1.62,0,0,1-1.22-.53,3.22,3.22,0,0,1-.46-2.93c.37-1.56,1.51-3.32,2.93-3.54a1.64,1.64,0,0,1,1.5.51,3.22,3.22,0,0,1,.46,2.93c-.37,1.55-1.52,3.32-2.93,3.54Zm1.49-5.28a3.19,3.19,0,0,0-1.48,2.21,1.82,1.82,0,0,0,.05,1.36A3.41,3.41,0,0,0,25.87,52,2,2,0,0,0,25.85,50.67Z" transform="translate(-5.8)"/><path class="cls-1" d="M32.37,61a1.8,1.8,0,0,1-.94-.26,2.11,2.11,0,0,1-.91-1.94A4.86,4.86,0,0,1,32.85,55h0a2,2,0,0,1,3.06,1.87,4.89,4.89,0,0,1-2.33,3.82A2.57,2.57,0,0,1,32.37,61Zm1.68-4.62a.85.85,0,0,0-.37.12h0a3.18,3.18,0,0,0-1.43,2.34c0,.29.07.41.09.42s.16,0,.41-.12a3.17,3.17,0,0,0,1.43-2.33c0-.29-.07-.41-.09-.42Z" transform="translate(-5.8)"/><path class="cls-1" d="M40.09,66.48a1.88,1.88,0,0,1-.53-.07,1.64,1.64,0,0,1-1.14-1.1C38,64,39,62.12,40.24,61.09h0a3.2,3.2,0,0,1,2.81-.92,1.62,1.62,0,0,1,1.14,1.1c.45,1.36-.6,3.19-1.82,4.22A3.65,3.65,0,0,1,40.09,66.48Zm1.27-4.06a3.11,3.11,0,0,0-1.29,2.34,2.07,2.07,0,0,0,1.18-.6,3.11,3.11,0,0,0,1.29-2.34,2.07,2.07,0,0,0-1.18.6Z" transform="translate(-5.8)"/><path class="cls-1" d="M47.65,72.27a1.62,1.62,0,0,1-1.14-.42,2.05,2.05,0,0,1-.31-2.36,7.21,7.21,0,0,1,1.49-2.35,7.12,7.12,0,0,1,2.22-1.68,1.85,1.85,0,0,1,2.68,2.47,7.79,7.79,0,0,1-3.71,4A3,3,0,0,1,47.65,72.27Zm3.41-5.37A4.35,4.35,0,0,0,49,68.32a4.25,4.25,0,0,0-1.24,2.21,4.4,4.4,0,0,0,2.1-1.42A4.2,4.2,0,0,0,51.06,66.9Z" transform="translate(-5.8)"/><path class="cls-1" d="M22.69,34.84a1.53,1.53,0,0,1-.72-.17c-.39-.2-1-.75-.92-2.18a7.79,7.79,0,0,1,2.5-4.84,2,2,0,0,1,2.31-.51c1.41.73,1.05,3,.11,4.82h0a7,7,0,0,1-1.69,2.2A2.47,2.47,0,0,1,22.69,34.84ZM25,28.74a4.28,4.28,0,0,0-1.63,1.9,4.18,4.18,0,0,0-.6,2.43,4.28,4.28,0,0,0,1.63-1.9h0A4.35,4.35,0,0,0,25,28.74Z" transform="translate(-5.8)"/><path class="cls-1" d="M30.25,39.51h-.08A1.49,1.49,0,0,1,29,38.8a3.5,3.5,0,0,1,.09-3.11c.64-1.55,2-3,3.28-3h0a1.49,1.49,0,0,1,1.2.71,3.51,3.51,0,0,1-.1,3.11C32.82,38,31.54,39.51,30.25,39.51Zm1.86-5a3.86,3.86,0,0,0-1.44,1.89,2.88,2.88,0,0,0-.27,1.37,3.86,3.86,0,0,0,1.43-1.89A2.93,2.93,0,0,0,32.11,34.46Z" transform="translate(-5.8)"/><path class="cls-1" d="M37.72,44.31a1.46,1.46,0,0,1-1-.39,2.33,2.33,0,0,1-.44-2.34,4.79,4.79,0,0,1,2.58-3.23h0a1.59,1.59,0,0,1,1.65.28A2.3,2.3,0,0,1,40.92,41a4.79,4.79,0,0,1-2.58,3.23A2,2,0,0,1,37.72,44.31ZM39.3,40A3.4,3.4,0,0,0,38,42a1.77,1.77,0,0,0-.07.49,3.4,3.4,0,0,0,1.36-2A1.46,1.46,0,0,0,39.3,40Z" transform="translate(-5.8)"/><path class="cls-1" d="M45,49.32a1.48,1.48,0,0,1-.72-.18,1.67,1.67,0,0,1-.83-1.59,4.81,4.81,0,0,1,2-3.46h0a2,2,0,0,1,2.1-.32,1.7,1.7,0,0,1,.82,1.6,4.79,4.79,0,0,1-2,3.46A2.42,2.42,0,0,1,45,49.32Zm1.44-3.81a3.18,3.18,0,0,0-1.24,2l.19-.11a3.25,3.25,0,0,0,1.24-2l-.19.11Zm.18-.31Z" transform="translate(-5.8)"/><path class="cls-1" d="M52.17,54.6a1.32,1.32,0,0,1-.34,0,1.46,1.46,0,0,1-1.06-.9c-.44-1.15.37-2.8,1.41-3.84a3,3,0,0,1,2.53-1.1,1.46,1.46,0,0,1,1.06.91c.45,1.15-.37,2.8-1.41,3.84A3.31,3.31,0,0,1,52.17,54.6Zm2-4.1a2.84,2.84,0,0,0-.74.54,3.64,3.64,0,0,0-1,1.75,2.7,2.7,0,0,0,.73-.55A3.61,3.61,0,0,0,54.15,50.5Z" transform="translate(-5.8)"/><path class="cls-1" d="M59.22,60.11a1.5,1.5,0,0,1-.94-.31c-1-.77-.7-2.53.67-4.28s3-2.43,4-1.66A1.86,1.86,0,0,1,63.41,56a6.17,6.17,0,0,1-1.14,2.15h0A4.39,4.39,0,0,1,59.22,60.11Zm2.56-4.77a4.15,4.15,0,0,0-1.46,1.26,4,4,0,0,0-.87,1.71,4.18,4.18,0,0,0,1.46-1.25h0A4.23,4.23,0,0,0,61.78,55.34Z" transform="translate(-5.8)"/><path class="cls-1" d="M50.73,29.78C40.3,23.1,44.3,7,33.49.17l-1,2.38c6.31,1.39,12.76,3.25,17.6,7.77S57,22.05,53.33,28c-.88,1.43,1.37,2.74,2.25,1.31,3.54-5.72,2.78-12.72-1.17-18C49.38,4.5,41.1,1.79,33.18,0a1.31,1.31,0,0,0-1,2.38C42.67,9,38.7,25.17,49.41,32c1.42.91,2.72-1.34,1.32-2.25Z" transform="translate(-5.8)"/><path class="cls-1" d="M53.83,25.7a12.62,12.62,0,0,1,3.24-11.15c3.12-3.19,7.52-3.75,11.68-4.58,5-1,10.12-2.79,12.36-7.81l-2.38-.31c1,7.51,2.18,16.26-2.56,22.84C70.68,32.31,60.44,31.22,52.34,30c-1.64-.25-2.35,2.26-.69,2.52,8.8,1.37,19.35,2.38,25.78-5.18,6.18-7.27,5-17.4,3.81-26.14A1.31,1.31,0,0,0,78.86.84C75.14,9.17,63.74,6.45,57.22,11a15.22,15.22,0,0,0-5.9,15.38c.3,1.64,2.81,1,2.51-.7Z" transform="translate(-5.8)"/></svg>
