<svg xmlns="http://www.w3.org/2000/svg" viewBox="0 0 107.91 205.67"><defs><style>.cls-1{fill:#979797;}</style></defs><title>baby-gray</title><g id="Logo_FIXED" data-name="Logo — FIXED"><path class="cls-1" d="M173.24,72.54a2.62,2.62,0,0,0-1.36-.36h-6.83a42,42,0,0,0-28.63-31.53,2,2,0,0,0-.07-.53c-1.8-7.62-2.9-19.47-13.37-19.64-9.22-.15-11,11.73-10.56,19.28-15.63,3.71-29.29,15.69-30.2,32.42H74a2.89,2.89,0,0,0-4.47,2,106.56,106.56,0,0,0-.33,16A2.2,2.2,0,0,0,70.34,92,2.61,2.61,0,0,0,73,94.73h7.5V223.64c0,2.39,2.92,2.9,4.36,1.64a2.54,2.54,0,0,0,1.7.64q41.09.59,82.17-.31a2.3,2.3,0,0,0,1.83-.82,2.58,2.58,0,0,0,3-2.49c-.5-57.69-4.49-104.64-5.35-127.57h4.33c1.43,1.12,4.35.35,4.35-2V74.44C176.9,72.4,174.76,71.83,173.24,72.54ZM124.81,25.86c4.81,2.19,5.39,8.47,6.22,13.47a45.39,45.39,0,0,0-10-.76c-1.16,0-2.32.14-3.47.27C117.42,33.23,118.46,23,124.81,25.86Zm-3.48,17.58c18.15-.64,34.5,10.94,38.51,28.74H87.33C88.21,55,105.22,44,121.33,43.44Zm47.09,177.3q-41,.88-82,.3a2.72,2.72,0,0,0-.78.11V95.31h77.28l.23,0C166.09,157.77,167.85,158.19,168.42,220.74Zm3.36-130.88h-7.26a2.33,2.33,0,0,0-1.6.57h-71a2.64,2.64,0,0,0-1.67-.56h-16a107.48,107.48,0,0,1,.09-12.82h97.41Z" transform="translate(-68.99 -20.48)"/><path class="cls-1" d="M122.31,117.34V126H98.68c-3.29,0-3.22,4.88.07,4.88h23.56v12.24H98.68c-3.29,0-3.22,4.87.07,4.87h23.56v12.24H98.68c-3.29,0-3.22,4.88.07,4.88h23.56V177.3H98.68c-3.29,0-3.22,4.87.07,4.87h23.56v12.24H98.68c-3.29,0-3.22,4.88.07,4.88h23.56v4.15c0,2.48,4,2.51,4,0v-86.1C126.35,114.87,122.31,114.85,122.31,117.34Z" transform="translate(-68.99 -20.48)"/></g></svg>