<svg xmlns="http://www.w3.org/2000/svg" viewBox="0 0 58.85 232.84"><defs><style>.cls-1{fill:#979797;}</style></defs><title>bakery-gray</title><g id="Logo_FIXED" data-name="Logo — FIXED"><path class="cls-1" d="M203.69,146.51c4.3-.4,8.05-2.5,12-4.2,3.61-1.55,6.66-3.61,8.64-7.06a32.8,32.8,0,0,0,3.6-11.33,58.22,58.22,0,0,1,1.11-7.6,5.5,5.5,0,0,0,.11-3.69A2.26,2.26,0,0,0,227,111c-7.1.81-14.69,3.83-19.51,9.25.85-1.38,1.64-2.79,2.47-4.13,2.25-3.67,3.53-7.33,2.91-11.67A32.77,32.77,0,0,0,209,93.06a28.16,28.16,0,0,1-2.84-5.71,5.17,5.17,0,0,0-1.86-3.14,2.32,2.32,0,0,0-3.18,0c-5.46,4.75-9.84,11.79-10.62,19-1,9.15,2.28,16.4,7.23,23.78v1.54a29,29,0,0,0-5.12-8.23c-4.82-5.49-12.47-8.54-19.61-9.36a2.25,2.25,0,0,0-2.17,1.65,5.5,5.5,0,0,0,.11,3.69,46.5,46.5,0,0,1,1.08,7.31,32,32,0,0,0,3.63,11.62c1.91,3.37,4.89,5.4,8.37,6.95,4,1.77,7.91,3.91,12.27,4.31a2.17,2.17,0,0,0,1.44.92v19.41a29.14,29.14,0,0,0-5.12-8.24c-4.82-5.48-12.47-8.53-19.61-9.35a2.25,2.25,0,0,0-2.17,1.65,5.47,5.47,0,0,0,.11,3.68,46.85,46.85,0,0,1,1.08,7.31,32,32,0,0,0,3.63,11.63c1.91,3.37,4.89,5.4,8.37,6.95,4,1.76,7.91,3.91,12.27,4.31a2.21,2.21,0,0,0,1.44.92v19.41a29.14,29.14,0,0,0-5.12-8.24c-4.82-5.48-12.47-8.54-19.61-9.36a2.27,2.27,0,0,0-2.17,1.66,5.47,5.47,0,0,0,.11,3.68,46.85,46.85,0,0,1,1.08,7.31,32,32,0,0,0,3.63,11.63c1.91,3.37,4.89,5.4,8.37,6.94,4,1.77,7.91,3.92,12.27,4.32a2.21,2.21,0,0,0,1.44.92v19.41a29,29,0,0,0-5.12-8.24c-4.82-5.48-12.47-8.54-19.61-9.36a2.26,2.26,0,0,0-2.17,1.66,5.47,5.47,0,0,0,.11,3.68,46.85,46.85,0,0,1,1.08,7.31,31.91,31.91,0,0,0,3.63,11.62c1.91,3.38,4.89,5.41,8.37,6.95,4,1.77,7.91,3.92,12.27,4.32a2.21,2.21,0,0,0,1.44.92v52c0,2.89,4.5,2.9,4.5,0v-52a2.19,2.19,0,0,0,1.44-.92c4.3-.4,8.05-2.51,12-4.2,3.61-1.55,6.66-3.61,8.64-7.07a32.68,32.68,0,0,0,3.6-11.32,58.62,58.62,0,0,1,1.11-7.61,5.47,5.47,0,0,0,.11-3.68,2.28,2.28,0,0,0-2.17-1.66c-7.14.82-14.79,3.88-19.61,9.36a29,29,0,0,0-5.12,8.24V224a2.19,2.19,0,0,0,1.44-.92c4.3-.4,8.05-2.51,12-4.2,3.61-1.55,6.66-3.61,8.64-7.06a32.8,32.8,0,0,0,3.6-11.33,58.62,58.62,0,0,1,1.11-7.61,5.47,5.47,0,0,0,.11-3.68,2.28,2.28,0,0,0-2.17-1.66c-7.14.82-14.79,3.88-19.61,9.36a29,29,0,0,0-5.12,8.24V185.7a2.15,2.15,0,0,0,1.44-.92c4.3-.4,8.05-2.51,12-4.2,3.61-1.55,6.66-3.61,8.64-7.06a32.8,32.8,0,0,0,3.6-11.33,58.62,58.62,0,0,1,1.11-7.61,5.47,5.47,0,0,0,.11-3.68,2.26,2.26,0,0,0-2.17-1.65c-7.14.81-14.79,3.87-19.61,9.35a29.14,29.14,0,0,0-5.12,8.24V147.43A2.15,2.15,0,0,0,203.69,146.51Zm-16.22-7.73c-4.31-1.82-7.18-3.62-8.94-8.1a29,29,0,0,1-2.15-9.6,19.11,19.11,0,0,0-.2-3.86,8.61,8.61,0,0,0-.51-1.3c5.17,1.11,10.4,3.72,13.78,7.6,4.76,5.46,6.13,11.64,6.44,18.44C192.94,141.51,190.21,139.93,187.47,138.78Zm0,38.26c-4.31-1.81-7.18-3.61-8.94-8.09a29,29,0,0,1-2.15-9.61,19.19,19.19,0,0,0-.2-3.86,9,9,0,0,0-.51-1.29c5.17,1.11,10.4,3.72,13.78,7.6,4.76,5.46,6.13,11.64,6.44,18.44C192.94,179.78,190.21,178.19,187.47,177Zm0,38.27c-4.31-1.81-7.18-3.61-8.94-8.09a29,29,0,0,1-2.15-9.61,19.19,19.19,0,0,0-.2-3.86,9,9,0,0,0-.51-1.29c5.17,1.11,10.4,3.72,13.78,7.6,4.76,5.46,6.13,11.64,6.44,18.44C192.94,218.05,190.21,216.46,187.47,215.31Zm0,38.27c-4.31-1.81-7.18-3.61-8.94-8.09a29,29,0,0,1-2.15-9.61,19.19,19.19,0,0,0-.2-3.86,8.54,8.54,0,0,0-.51-1.29c5.17,1.11,10.4,3.72,13.78,7.59,4.76,5.47,6.13,11.65,6.44,18.45C192.94,256.32,190.21,254.73,187.47,253.58Zm23.08-15.26c3.35-3.83,8.49-6.42,13.6-7.55a2.35,2.35,0,0,0-.17.44,17.33,17.33,0,0,0-.37,3.85,30.91,30.91,0,0,1-2.14,10.43c-1.52,3.85-3.77,5.77-7.53,7.48-3,1.37-6.5,3.3-9.82,3.79C204.42,250,205.79,243.79,210.55,238.32Zm0-38.26c3.35-3.84,8.49-6.43,13.6-7.56a2.35,2.35,0,0,0-.17.44,17.33,17.33,0,0,0-.37,3.85,30.91,30.91,0,0,1-2.14,10.43c-1.52,3.86-3.77,5.77-7.53,7.48-3,1.37-6.5,3.3-9.82,3.79C204.42,211.7,205.79,205.52,210.55,200.06Zm0-38.27c3.35-3.84,8.49-6.43,13.6-7.56a2.35,2.35,0,0,0-.17.44,17.38,17.38,0,0,0-.37,3.85A30.91,30.91,0,0,1,221.47,169c-1.52,3.86-3.77,5.77-7.53,7.48-3,1.37-6.5,3.3-9.82,3.8C204.42,173.43,205.79,167.25,210.55,161.79Zm-8.3-33.22v-1.26a1.74,1.74,0,0,0,.17-.93,15.09,15.09,0,0,0,1.74-1.65A31.18,31.18,0,0,0,202.25,128.57Zm8.3-5c3.35-3.84,8.49-6.43,13.6-7.56a2.65,2.65,0,0,0-.17.44,17.38,17.38,0,0,0-.37,3.85,30.91,30.91,0,0,1-2.14,10.43c-1.52,3.86-3.77,5.78-7.53,7.49-3,1.36-6.5,3.29-9.82,3.79C204.42,135.16,205.79,129,210.55,123.52Zm-10.43-1.09c-3.37-5.4-5.69-10.87-5.23-17.66.39-5.73,3.37-11.21,7.36-15.4a28.6,28.6,0,0,0,1.46,3.83,31.7,31.7,0,0,1,4.15,9.36c1.06,4.28.47,7.4-1.81,11.27C204.37,116.69,202.56,120.08,200.12,122.43Z" transform="translate(-170.58 -83.58)"/></g></svg>