<svg xmlns="http://www.w3.org/2000/svg" viewBox="0 0 135.37 237.66"><defs><style>.cls-1{fill:#979797;}</style></defs><title>beverages-gray</title><g id="Logo_FIXED" data-name="Logo — FIXED"><path class="cls-1" d="M269.82,287.53a1.8,1.8,0,0,0-1-1.61V223c.18-.22.35-.44.51-.68a1.78,1.78,0,0,0-.51-2.59V139.21a1.83,1.83,0,0,0-.45-1.27,2.39,2.39,0,0,0,.06-.72c-.73-7.76.09-19.5-7.35-24.49-2-1.35-4.39-1.13-6.28-2.22l-2.05-.21A5.61,5.61,0,0,1,253,104c.85-2.65,1.6-4.9,1.54-7.28a7.06,7.06,0,0,0-.78-3.67c-.08-.2-.13-.4-.23-.6a2.18,2.18,0,0,0-.81-1c-2.92-3.47-8.69-5.28-12.54-6.21-21.35-5.16-47.42-5.56-68.83-.5C166,86,156.56,88.93,155,95.39a13.89,13.89,0,0,0-3.41,7.76,19.88,19.88,0,0,0,.25,4.81c.53,4.27-1.19,3.5-5.24,5.57-10.17,5.17-12.55,15.17-12,25.84a2.2,2.2,0,0,0,.12.61c2,28.74,2.08,57.62,2.67,86.42q.46,22.56.92,45.13c.24,10.86.72,21.3,10.56,27.85a49.67,49.67,0,0,0,6.95,3.83,2.12,2.12,0,0,0-.11.45,8.89,8.89,0,0,0,.17,3.74c-.23,6,6.46,8.38,12.1,9,12.83,1.39,25.88,2.12,38.77,2.37,13.59.27,27.46-.19,40.82-2.89,7.19-1.45,14.58-4.53,13.68-13.14a2.3,2.3,0,0,0-.06-.28C266.2,298.94,270.18,294.28,269.82,287.53ZM162,93.25a23.28,23.28,0,0,1,5.8-3A46.74,46.74,0,0,1,177.71,88a176.72,176.72,0,0,1,20.81-1.83c13.38-.41,27.82,0,40.88,3.38A24.63,24.63,0,0,1,247.71,93q.24,8-5.09,7.94a17.57,17.57,0,0,1-5,.62c-.3-7.93-7.74-11.08-14.56-12.66-6-1.41-18.54-3.58-22,3.8-2.21,4.73.93,8.21,5.13,9.54q-20.46,0-40.88-1.76a2.34,2.34,0,0,0-.93.1C162,99.92,161.18,97.5,162,93.25Zm51.74-.47q1,4.36-2.1,5.62Q207.73,101,211,92a6.6,6.6,0,0,1,2.71-.2A2.28,2.28,0,0,0,213.73,92.78Zm4.5-.45,1.31.21c4.94.85,13.3,2.58,13.53,9l-.57,0q-9.47.5-18.95.61C216.91,101,219.31,97.87,218.23,92.33ZM238,307.91a79.55,79.55,0,0,1-19.69,2.39c-3.46-.18-6.89-.39-10.25-.53l-3.66-.13-2.45-.23c-11.33-1.19-22.69-3-33.59-6.39-12.42-3.85-24-8.37-25.29-23-2.05-23.3-1.11-47.22-1.59-70.61s-.68-46.55-2.32-69.77a2.31,2.31,0,0,0-.18-2.32c-.14-5.24.32-10.56,3.52-15,3.45-4.74,9.16-4.66,13-8.31a4.37,4.37,0,0,0,1.68-3.41c.14-1.91-1-3.92-1-5.93a11.29,11.29,0,0,1,.43-3.08c2.08,2,5.5,3,8.38,3.38a2.32,2.32,0,0,0,1.25-.15,493.65,493.65,0,0,0,72.56.68,41,41,0,0,0,8.76-1.26c-1.08,3.25-1.8,6.36.1,8.47-9.81,5-23.63,4.34-34.36,4.57a273.76,273.76,0,0,1-35.53-1.66c-2.83-.31-3.72,3.92-.81,4.24a279.23,279.23,0,0,0,39.64,1.62c11.2-.36,24-.11,34.15-5.52a1.82,1.82,0,0,0,1-1.1c4,1,7.34-.33,10.08,6.38a23.58,23.58,0,0,1,1.39,6.15,2.07,2.07,0,0,0-1.1.72,51.81,51.81,0,0,1-8.53,8.28c-2.31,1.76.25,5.29,2.5,3.57a57.92,57.92,0,0,0,7.54-6.88c.08,1.55.15,3,.28,4.43a2.07,2.07,0,0,0,.55,1.25,2.29,2.29,0,0,0-.15.81V143a2.42,2.42,0,0,0-.47.26,72.3,72.3,0,0,0-10.21,8.68c-2,2.09,1.47,4.8,3.4,2.82a65.26,65.26,0,0,1,7.28-6.43v12.77l-.36.27-14,13.14c-2.11,2,1.5,4.58,3.5,2.7L264.29,167v15.19a2,2,0,0,0-1.21.49l-11.83,9.85c-2.22,1.85.36,5.37,2.53,3.56l10.51-8.75v12.75a2.44,2.44,0,0,0-.63.34,64.08,64.08,0,0,0-10.94,10.52c-1.84,2.25,1.68,4.92,3.44,2.77a59.44,59.44,0,0,1,8.13-8.2v15.94c-1,.85-2.25,1.54-3.2,2.26q-1.86,1.41-3.62,2.95a59.58,59.58,0,0,0-7,7.44c-1.8,2.26,1.56,5.12,3.29,3a58.81,58.81,0,0,1,7.81-8.12c.85-.73,1.8-1.38,2.75-2.05V237a2.3,2.3,0,0,0-.9.6,76.42,76.42,0,0,1-13.29,11.52c-2.41,1.65.17,5.17,2.5,3.58a82.36,82.36,0,0,0,11.69-9.7V254a2.37,2.37,0,0,0-1,.54L252.2,264.58c-2.15,2,1.26,4.8,3.3,2.94l8.79-8v9.61a2.18,2.18,0,0,0-2,.7,35,35,0,0,1-9.57,7.26,2.11,2.11,0,0,0-.54,3,2.37,2.37,0,0,0,3.15.49,38.1,38.1,0,0,0,9-6.58v4.9a2.06,2.06,0,0,0-1.64.69,34.54,34.54,0,0,1-7.93,6.36c-2.52,1.49,0,5.05,2.43,3.63a39.59,39.59,0,0,0,7.14-5.39V290a1.79,1.79,0,0,0,.62,1.43C262.14,300.92,246,305.8,238,307.91Z" transform="translate(-134.47 -81.17)"/><path class="cls-1" d="M158.61,189.3c-1.45-19-6.56-40.17-2.64-59,.58-2.76-3.9-3.35-4.46-.65-3.65,17.54.6,36.78,2.13,54.39,1.77,20.46,2.42,40.95-2.17,61.11-.62,2.75,3.86,3.34,4.47.65C160.17,227.17,160.06,208.22,158.61,189.3Z" transform="translate(-134.47 -81.17)"/></g></svg>