<svg xmlns="http://www.w3.org/2000/svg" viewBox="0 0 196.3 197.67"><defs><style>.cls-1{fill:#979797;}</style></defs><title>beverages-gray</title><g id="Logo_FIXED" data-name="Logo — FIXED"><path class="cls-1" d="M296.51,110.3a474.85,474.85,0,0,0-193,1.58c-2.83.61-1.69,4.87,1.08,4.42l22.17,176.13a2.35,2.35,0,0,0,1.29,1.86,2.27,2.27,0,0,0,2.18,2.28Q199,300.22,267.84,298a2.29,2.29,0,0,0,1.27-.42,2.11,2.11,0,0,0,2.53-1.57c16.05-59.3,9.51-121.89,24.72-181.33C298.42,114.14,299,110.79,296.51,110.3ZM267.59,293.43q-68.17,2.2-136.34-1.37L109.1,116a2.87,2.87,0,0,0-.16-.61,469.22,469.22,0,0,1,182.88-1.37C276.92,172.87,283.12,234.74,267.59,293.43Z" transform="translate(-101.85 -101.16)"/><path class="cls-1" d="M182.56,175.63a2.08,2.08,0,0,0-2.11-.52,105.68,105.68,0,0,1-20.81,3.76c-3.72.26-10.4-1.22-13.57.68-3,1.77-4.28,7-5.5,9.91-2.21,5.28-4.09,10.66-5.78,16.13a2.09,2.09,0,0,0,1.68,2.74,2.69,2.69,0,0,0,.19.61l9.42,21.66c1.4,3.22,2.47,7.87,6,9.37,3.92,1.64,12.37-.69,16.6-1.08s10.43.29,14.21-1.84c4.05-2.27,5.84-9.57,7.77-13.55,3-6.12,7.21-12.5,9.2-19,1.19-3.89.34-4.45-1.94-8.07-4.23-6.74-9-13.2-13.49-19.77A2.37,2.37,0,0,0,182.56,175.63ZM143.7,193.77c.24-.6,3-8.72,4.17-9.57,1.63-1.16,5.84-.51,7.69-.57a109.06,109.06,0,0,0,23.71-3.49,81.77,81.77,0,0,1-12.37,22,1.89,1.89,0,0,0-2.55-.81c-1.79-.41-3.43.44-5.41,1a77.8,77.8,0,0,1-19.32,3.12C140.86,201.54,142.18,197.62,143.7,193.77ZM166,234.58c-3.7.35-9.26,2.07-12.33.09-3.3-2.14-5-9.52-6.55-13.14l-5-11.54a67.58,67.58,0,0,0,7.78-.74,66.78,66.78,0,0,0,7.79-1.71c2.66-.76,3.93-2.06,6.17-.39,3.48,2.58,6,8.89,8.26,12.52q4.17,6.56,8.33,13.13C176.65,234.77,169.59,234.24,166,234.58Zm27.23-37.06c2.09,3.06,2.78,3.87,1.46,7.41-1.71,4.62-4.41,9.11-6.57,13.56-1.22,2.52-2.7,7.4-4.54,10.78q-4.57-7.2-9.13-14.4c-1.36-2.15-2.94-5.78-4.85-8.76a88,88,0,0,0,13.57-23.32q2.93,4.28,5.84,8.56Z" transform="translate(-101.85 -101.16)"/><path class="cls-1" d="M197,247.53c1.6,4.61,7.41,8.82,11,11.89a101.91,101.91,0,0,0,15.29,10.8,2.14,2.14,0,0,0,3-.82,1.91,1.91,0,0,0,1.71-1.16c4.6-9.36,21.71-1.72,27.4-8.93,2.54-3.22,2.49-12.45,3.17-16.5q1.73-10.23,3.44-20.48a2.48,2.48,0,0,0-3.48-2.62c0-1.39-.85-2.7-2.07-4.12-6.22-7.19-15.9-13-23.27-19.06a2.35,2.35,0,0,0-2.76-.35,262.18,262.18,0,0,0-21.07,15.69,2.11,2.11,0,0,0-.65,1.49,2,2,0,0,0-1.36,1.08,105.38,105.38,0,0,0-7.78,18.19C198.24,236.73,195.48,243.19,197,247.53Zm60.08-24.71c.11-.12.18-.23.28-.35q-1.62,9.57-3.22,19.13c-.57,3.41-1.14,6.83-1.72,10.24-.73,4.34-.14,4.48-4.27,5.54-5.37,1.37-13,.89-18.46,3.34l1.62-7.63c1-4.48,1.28-10.38,3.11-14.6C238.19,229.73,251.09,229.37,257.06,222.82ZM231.41,201l18.28,15c5.14,4.21,3.15,4.28-1.73,7.07-3.85,2.2-7.73,4.36-11.55,6.6a22.77,22.77,0,0,0-2.35,1.57,2.32,2.32,0,0,0-.64-.54,63.38,63.38,0,0,1-19.36-16.79Q222.46,207,231.41,201ZM211,217.28a68.18,68.18,0,0,0,20.16,17.32l0,0a22.12,22.12,0,0,0-1.77,5.58c-1.83,8.39-3.58,16.8-5.37,25.2-7.28-4.26-17.14-10.23-21.17-17.39C198.43,240.17,206.92,224.79,211,217.28Z" transform="translate(-101.85 -101.16)"/><path class="cls-1" d="M126.52,156.41a7.14,7.14,0,0,1-1-.14,2.23,2.23,0,0,0-2.46,1.07,1.94,1.94,0,0,0-1.21,2A688.88,688.88,0,0,0,138,283.83a2.06,2.06,0,0,0,2.86,1.48,2.29,2.29,0,0,0,2.2,2.36,1105.88,1105.88,0,0,0,115.59.28,2.26,2.26,0,0,0,1.17-.38,1.92,1.92,0,0,0,1.71-1.61,867.68,867.68,0,0,0,17.9-131.16,1.93,1.93,0,0,0-1.09-2,2.19,2.19,0,0,0-2.55-2.63,2.33,2.33,0,0,0-.38,0,2.12,2.12,0,0,0-2.19,2,2.43,2.43,0,0,0-2.88.78c-9.6,12.65-28-8.21-38.19-10.14-12.07-2.27-20.87,7.38-30.37,13C178.07,169.77,148.4,135.82,126.52,156.41Zm83-.18c5.55-3.9,11.82-9.34,19-9.15,8.63.22,14.73,7,21.9,10.84,7.91,4.22,18,5.12,23.91-2.62a2.25,2.25,0,0,0,.35-.69l.26,0,0,.15a856.23,856.23,0,0,1-17.47,128.64,1106.61,1106.61,0,0,1-114.33-.33,2.32,2.32,0,0,0-.6.05,2.48,2.48,0,0,0-.06-.54,683.57,683.57,0,0,1-16-121.7h.41a2,2,0,0,0,1.28,0,12.13,12.13,0,0,0,8.57-5,2.31,2.31,0,0,0,.3-.55c11.36-3.71,25.21,3,36.08,6.3C186.82,165.85,197.74,164.46,209.48,156.23Z" transform="translate(-101.85 -101.16)"/></g></svg>