<svg xmlns="http://www.w3.org/2000/svg" viewBox="0 0 219.17 215.59"><defs><style>.cls-1{fill:#979797;}</style></defs><title>breakfast-gray</title><g id="Logo_FIXED" data-name="Logo — FIXED"><path class="cls-1" d="M175.5,232.54c5.52-.36,6.64-6.15,7-10.5.69-7.36,2-14.75,3-22.09.53-4,4.69-45.42,6.08-45.52,12.1-.87,21.83-10.88,21.28-23.28-.25-5.66-2.62-11.31-7.15-14.86-5.86-4.6-14.32-5.23-21.35-6.67l-53.77-11c-7.39-1.5-14.86-3.12-22.45-2.77-4.93.23-10.21,1-12.79,5.78-3.38,6.18-5.24,15-2.93,21.75a24.72,24.72,0,0,0,5.15,8.54c1.6,1.78,6.23,4.12,5.45,6.58-3.85,12.25-4,25.19-5.87,37.8-1,6.73-3.13,13.21-4.39,19.89-1,5.17-2.67,14.36.76,19,1,1.38,2.84,1.89,4.55,2.09,6.58.8,13.08,3,19.54,4.49q15.39,3.6,30.92,6.48,7.08,1.32,14.21,2.48C166.83,231.42,171.38,232.81,175.5,232.54Zm-80-19.34c-.63-.17-.82-8-.77-8.85.42-8,3.59-16,5.1-23.81,2.74-14.21,2.24-29,6.73-42.8a2.56,2.56,0,0,0,.19-1.33,2.51,2.51,0,0,0-1-1.3c-3.8-3.21-12.27-9.67-11.1-15.79-.58-4.4.69-9.31,2.36-13.39,2.12-5.2,5-6.65,10.27-7.05,7.87-.59,15.69,1.18,23.35,2.75l24.35,5,23.33,4.77c7,1.43,14.86,2.16,21.49,4.93,7.32,3,10.84,11.31,9.67,19C208,144.69,200,151,190.68,151.56a1.34,1.34,0,0,0-.77.27,1.38,1.38,0,0,0-1.26,1.23c-3.16,23.71-5,48.09-10.07,71.49-.52,2.39-1.47,4.58-4.1,5a12.51,12.51,0,0,1-4.59-.31C145,224.43,120,219.92,95.46,213.2Z" transform="translate(-91.42 -95.81)"/><path class="cls-1" d="M119.86,160a42.88,42.88,0,0,0,17.28-9.39c1.47-1.29-1-3.16-2.39-1.93a39.8,39.8,0,0,1-16,8.54C116.81,157.7,118,160.46,119.86,160Z" transform="translate(-91.42 -95.81)"/><path class="cls-1" d="M170.72,142c-18.48,9.59-33,25.06-51.15,35.11-1.75,1-.35,3.61,1.35,2.67,18.19-10,32.68-25.52,51.15-35.1A1.5,1.5,0,0,0,170.72,142Z" transform="translate(-91.42 -95.81)"/><path class="cls-1" d="M165.73,169.54c-8.41,6-18.56,8.6-27.26,14.07-1.69,1.06.14,3.49,1.75,2.48,8.7-5.47,18.84-8.1,27.26-14.08A1.51,1.51,0,0,0,165.73,169.54Z" transform="translate(-91.42 -95.81)"/><path class="cls-1" d="M310.05,209.52c-3-2.83-14.2-16.85-20.94-16.52a3.93,3.93,0,0,0-2.63,1.14c-2.63,2.59-1.25,7.41-3.54,10.31-2.82,3.56-9.16,2-12.2,5.36-2.1,2.32-1.95,6.35-4.6,8-1.84,1.16-4.33.63-6.31,1.57-2.6,1.25-3.4,4.47-4.53,7.14-2.51,5.94-10,4.34-12.84,9.95-.82,1.59-.82,3.37-1.41,5-1.33,3.75-3.45,4.78-6.81,5.87a11.42,11.42,0,0,0-6,4.3c-2.9,3.94-3.44,9.22-6.76,12.91s-7.9,5.8-11.15,9.61c-6.46,7.58-10.07,17.32-12.13,26.95a1.83,1.83,0,0,0,1,1.94,50,50,0,0,0,19,7.54,1.84,1.84,0,0,0,2.46.54,6.29,6.29,0,0,0,3.42-5.77,1.53,1.53,0,0,0-.92-1.46c-1.8-5.23,1.55-9,6.55-10.22,2-.51,4.16-.65,5.9-1.91a8,8,0,0,0,2.92-4.64c.32-1.17.14-2.49.53-3.62,1-2.85,3.1-3.32,5.19-4.47,5-2.73,6.49-4.49,8.82-9.61,2-4.35,4.2-4,7.84-5.8a16.15,16.15,0,0,0,5.93-5,16.35,16.35,0,0,0,2.75-6c.25-1.14.1-2.42.38-3.53.87-3.35,2.73-3.41,5.47-4.15,4-1.09,7.25-2.91,8.42-7.26.19-.7.13-1.46.31-2.15-.49-1.5,0-2.53,1.61-3.1a2.67,2.67,0,0,1,2.1-1.47c2.18-1.25,4.25-1.87,6.08-3.79,4.63-4.86,6.9-14.82,15-14.57C310.58,212.66,311.08,210.51,310.05,209.52ZM205.52,302.66c-1.22-.62-2.42-1.28-3.6-2,2.24-9.88,6.29-20,13.83-27.07,3.08-2.88,7-4.67,9.51-8.13,2.08-2.86,2.89-6.33,4.5-9.42,2.8-5.38,5.84-4.31,10.18-6.61a8.32,8.32,0,0,0,4-5c.74-2,.67-4.48,1.7-6.39,1.26-2.35,3.44-3.1,5.69-4s5.07-1.55,6.93-3.36c2.06-2,1.09-3.64,2-5.9,1.55-3.78,4.44-1.78,7.39-2.58a5.23,5.23,0,0,0,3.8-3.4c.4-1.08.12-2.11.42-3.16,1.21-4.21,2.68-4.28,6.18-5.11,4.78-1.12,8.55-2.41,9.77-7.61.28-1.19-.05-3.86.68-4.82,2.36-3.12,5.57,1,7.34,2.72l.36.34-27.74,28.65c-4.47,4.62-9.38,9.06-13.39,14.1s-5.27,10.49-11.23,13.52c-3.38,1.72-7.43,3-9.69,6.23-1.12,1.61-1.27,3.05-1.59,4.93-.62,3.73-1.75,6.83-5.27,8.7-10.19,5.4-17.71,13.55-21.68,24.44A1.79,1.79,0,0,0,205.52,302.66Zm91.27-86c-3.35,4.95-5,9.09-11.13,11.09-1.63.52-3.17.72-4.22,2.22-2.34,3.36.51,7.64-3.61,10.4-2.76,1.84-5.58.12-8.24,1.55-2,1.06-2.55,2.93-3,5-1.05,4.72-.75,8.71-5.08,12.09-2.83,2.2-6.35,1.78-9.1,3.69-2.23,1.55-2.13,3.57-2.84,6-1.62,5.63-5.62,5.82-9.94,7.93a6.83,6.83,0,0,0-3.63,4.09c-.5,1.38-.28,2.87-.71,4.24a7.74,7.74,0,0,1-5.2,5c-2.67.95-5,.79-7.24,2.73a11.13,11.13,0,0,0-2.94,12.69,1.87,1.87,0,0,0,.53.73,2.6,2.6,0,0,1-.55,1.1A47.61,47.61,0,0,1,208.37,304a1.67,1.67,0,0,0,.42-.66,41.42,41.42,0,0,1,9.62-15.42c4.43-4.41,10.24-6.05,14.76-10,3.65-3.22,1.87-6.16,3-10.2,1.6-5.58,9.72-6.49,13.73-9.79s5.29-8.49,8.46-12.37c3.86-4.73,8.48-8.94,12.73-13.32l27.66-28.58,6.24,6C301.56,210.75,298.94,213.55,296.79,216.71Z" transform="translate(-91.42 -95.81)"/><path class="cls-1" d="M199.37,262.21c1-2.85,3.09-3.32,5.19-4.47,5-2.73,6.49-4.49,8.82-9.61,2-4.35,4.19-4,7.84-5.79a16.5,16.5,0,0,0,8.68-11c.25-1.14.1-2.42.38-3.53.87-3.35,2.73-3.41,5.47-4.15,4-1.09,7.24-2.91,8.42-7.26.19-.7.13-1.46.3-2.15-.49-1.49.05-2.53,1.62-3.1a2.67,2.67,0,0,1,2.1-1.47c2.18-1.25,4.25-1.87,6.07-3.79,4.64-4.86,6.91-14.82,15-14.57,1.61.05,2.12-2.1,1.09-3.09-4.51-4.31-9-8.66-13.52-12.93-2-1.89-4.29-4.61-7.41-4.08a4.71,4.71,0,0,0-3.61,3.15c-1.93,4.46.08,9.1-5.92,10.93-2.57.79-5.5.85-7.84,2.34s-2.36,3.14-3.31,5.5c-1.24,3.06-1.61,4.4-5,4.34a12.3,12.3,0,0,0-2.78.05c-2.53.52-3.38,1.85-4,4.21-.8,3-.45,5-3.69,6.67-4.49,2.34-9,2.35-10.8,7.93-.73,2.32-1.12,4.87-2.72,6.71-3.11,3.58-8.3,3.85-11.47,7.63s-3.27,9-6.53,12.6-7.9,5.8-11.15,9.61c-6.46,7.59-10.08,17.32-12.13,26.95a1.83,1.83,0,0,0,1,1.94,50,50,0,0,0,19,7.54,1.82,1.82,0,0,0,2.45.54,6.3,6.3,0,0,0,3.43-5.77,1.53,1.53,0,0,0-.92-1.46c-1.81-5.23,1.54-9,6.55-10.22,2-.51,4.16-.65,5.9-1.91a8,8,0,0,0,2.92-4.64C199.16,264.66,199,263.34,199.37,262.21Zm-33.51,19.13c-1.22-.62-2.42-1.28-3.61-2,2.25-9.88,6.3-20.05,13.83-27.07,3.09-2.88,7-4.67,9.52-8.13,2.08-2.86,2.89-6.32,4.5-9.42,2.8-5.38,5.84-4.3,10.18-6.61a8.33,8.33,0,0,0,4-4.95c.74-2,.67-4.49,1.7-6.4,1.26-2.35,3.44-3.1,5.69-4s5.07-1.55,6.93-3.35c2.06-2,1.09-3.65,2-5.91,1.55-3.78,4.44-1.78,7.39-2.58a5.23,5.23,0,0,0,3.8-3.4c.4-1.08.12-2.11.42-3.16,1.21-4.21,2.68-4.28,6.17-5.11,4.79-1.12,8.56-2.41,9.78-7.61.28-1.19,0-3.86.68-4.82,2.36-3.12,5.57,1,7.34,2.72l.36.34-27.74,28.66c-4.47,4.61-9.38,9.06-13.39,14.09s-5.27,10.49-11.24,13.52c-3.37,1.72-7.43,3-9.68,6.23-1.12,1.61-1.27,3-1.59,4.93-.62,3.73-1.75,6.83-5.28,8.7-10.18,5.4-17.7,13.55-21.67,24.45A1.74,1.74,0,0,0,165.86,281.34Zm30.47-21.9c-.5,1.38-.28,2.87-.72,4.24a7.74,7.74,0,0,1-5.19,5.05c-2.67.94-4.95.78-7.24,2.72a11.13,11.13,0,0,0-2.94,12.69,1.77,1.77,0,0,0,.53.73,2.56,2.56,0,0,1-.56,1.1,47.87,47.87,0,0,1-11.51-3.28,1.52,1.52,0,0,0,.43-.66,41.29,41.29,0,0,1,9.62-15.42c4.43-4.41,10.24-6.05,14.76-10,3.65-3.22,1.87-6.15,3-10.2,1.6-5.58,9.72-6.49,13.73-9.79s5.29-8.49,8.46-12.37c3.86-4.73,8.48-8.94,12.73-13.32l27.66-28.58,6.24,6c-3.45,1.14-6.07,3.94-8.22,7.11-3.36,4.94-5,9.08-11.13,11.08-1.63.52-3.17.72-4.22,2.22-2.34,3.36.51,7.64-3.61,10.4-2.76,1.84-5.58.12-8.24,1.55-2,1.06-2.55,2.93-3,5-1,4.72-.75,8.71-5.08,12.09-2.83,2.2-6.35,1.78-9.1,3.69-2.24,1.55-2.13,3.57-2.84,6-1.62,5.63-5.62,5.82-9.94,7.94A6.79,6.79,0,0,0,196.33,259.44Z" transform="translate(-91.42 -95.81)"/></g></svg>