<svg xmlns="http://www.w3.org/2000/svg" viewBox="0 0 213.71 213.71"><defs><style>.cls-1{fill:#979797;}</style></defs><title>breakfast-gray</title><g id="Logo_FIXED" data-name="Logo — FIXED"><path class="cls-1" d="M200,93.14A106.86,106.86,0,1,0,306.86,200,107,107,0,0,0,200,93.14Zm0,209.72A102.86,102.86,0,1,1,302.86,200,103,103,0,0,1,200,302.86Z" transform="translate(-93.14 -93.14)"/><path class="cls-1" d="M289.52,225.72c-1.39-2.27-6.09-12.95-10.38-13.88a2.55,2.55,0,0,0-1.84.28c-2.09,1.18-2,4.44-3.95,5.88-2.36,1.76-6.08-.28-8.55,1.32-1.71,1.11-2.29,3.66-4.23,4.26-1.35.42-2.83-.33-4.22-.07-1.85.35-2.89,2.23-4,3.72-2.57,3.31-7,1.06-9.73,4.1a25.76,25.76,0,0,0-1.71,2.91c-1.47,2.13-3,2.42-5.26,2.54a7.42,7.42,0,0,0-4.5,1.69c-2.49,2-3.7,5.21-6.41,7s-5.93,2.32-8.61,4.17c-5.32,3.68-9.22,9.18-12.11,14.88a1.19,1.19,0,0,0,.26,1.38,32.69,32.69,0,0,0,10.7,7.92,1.2,1.2,0,0,0,1.45.75,4.09,4.09,0,0,0,3.11-3.05,1,1,0,0,0-.33-1.07c-.26-3.58,2.47-5.37,5.82-5.32a10.51,10.51,0,0,0,4-.21,5.19,5.19,0,0,0,2.61-2.43c.39-.67.5-1.53.93-2.17,1.09-1.63,2.5-1.57,4-1.94,3.59-.88,4.82-1.74,7.14-4.56,2-2.4,3.31-1.82,5.89-2.33a10.68,10.68,0,0,0,7.29-5.46c.35-.68.47-1.51.83-2.15,1.11-2,2.28-1.69,4.13-1.7,2.69,0,5-.61,6.5-3.14.24-.41.32-.9.55-1.3-.06-1,.45-1.58,1.53-1.67a1.7,1.7,0,0,1,1.57-.57c1.58-.42,3-.47,4.44-1.37,3.73-2.28,6.82-8.14,11.88-6.63C289.32,227.77,290,226.51,289.52,225.72Zm-81.19,41c-.66-.59-1.31-1.21-1.93-1.86,3.07-5.83,7.31-11.53,13.21-14.68,2.42-1.29,5.17-1.76,7.33-3.51,1.79-1.45,2.88-3.48,4.41-5.16,2.65-2.91,4.38-1.72,7.49-2.44a5.37,5.37,0,0,0,3.33-2.45c.81-1.15,1.17-2.7,2.14-3.73,1.19-1.26,2.68-1.37,4.24-1.55s3.44-.13,4.91-1c1.63-.91,1.3-2.11,2.26-3.37,1.6-2.11,3.08-.37,5.07-.38a3.4,3.4,0,0,0,2.95-1.5c.43-.61.43-1.3.8-1.91,1.46-2.44,2.39-2.24,4.72-2.17,3.2.09,5.78-.09,7.41-3.14.38-.71.62-2.44,1.24-2.92,2-1.56,3.32,1.58,4.15,2.93.05.1.11.19.16.28L260,231.51c-3.58,2.15-7.4,4.12-10.76,6.61s-5.06,5.7-9.31,6.61c-2.41.51-5.16.62-7.12,2.29a6.93,6.93,0,0,0-1.83,2.83c-1,2.23-2.24,4-4.76,4.57a28.84,28.84,0,0,0-17.7,11.72A1.17,1.17,0,0,0,208.33,266.68ZM280,228c-2.93,2.54-4.63,4.87-8.84,5.09-1.11.06-2.1-.07-3,.7-2,1.71-1,4.87-4,5.91-2,.7-3.52-.85-5.44-.4a4.28,4.28,0,0,0-2.71,2.61c-1.45,2.79-1.93,5.34-5.21,6.74-2.15.91-4.29.06-6.34.79-1.65.6-1.93,1.89-2.78,3.31-2,3.26-4.5,2.71-7.57,3.32a4.43,4.43,0,0,0-3,1.95c-.55.79-.66,1.76-1.16,2.55a5,5,0,0,1-4.1,2.29c-1.84.15-3.24-.33-5,.5a7.22,7.22,0,0,0-4,7.48,1.14,1.14,0,0,0,.21.54,1.62,1.62,0,0,1-.53.6,30.82,30.82,0,0,1-6.68-4,1.14,1.14,0,0,0,.38-.35,26.89,26.89,0,0,1,8.61-8.07c3.53-2,7.45-2.08,11-3.82,2.83-1.41,2.2-3.55,3.6-5.9,1.94-3.23,7.19-2.44,10.25-3.85s4.74-4.44,7.38-6.34c3.22-2.32,6.82-4.19,10.22-6.24l22.14-13.3,2.92,4.79A11.09,11.09,0,0,0,280,228Z" transform="translate(-93.14 -93.14)"/><path class="cls-1" d="M207.69,244.88a5.23,5.23,0,0,0,2.61-2.43c.4-.68.51-1.54.94-2.18,1.09-1.63,2.5-1.57,4-1.94,3.59-.88,4.83-1.73,7.14-4.56,2-2.4,3.31-1.82,5.9-2.32a10.73,10.73,0,0,0,7.29-5.47c.35-.67.46-1.5.83-2.15,1.1-2,2.28-1.68,4.13-1.69,2.68,0,5-.61,6.5-3.15.23-.4.32-.89.55-1.3-.06-1,.45-1.57,1.52-1.67a1.77,1.77,0,0,1,1.57-.57c1.58-.42,3-.47,4.45-1.36,3.72-2.28,6.81-8.15,11.87-6.63,1,.3,1.68-1,1.2-1.76-2.11-3.46-4.18-6.94-6.32-10.38-.95-1.52-1.92-3.61-4-3.8a3.1,3.1,0,0,0-2.8,1.37c-2,2.48-1.47,5.73-5.54,5.87-1.75.07-3.6-.38-5.31.16s-2,1.57-3,2.9c-1.29,1.71-1.75,2.49-3.86,1.89a8.16,8.16,0,0,0-1.75-.44c-1.68-.1-2.44.6-3.22,2-1,1.77-1.12,3-3.44,3.56-3.2.72-6.06,0-8.1,3.17-.85,1.34-1.52,2.87-2.83,3.76-2.55,1.73-5.86,1-8.48,2.87s-3.55,5.09-6.2,6.81-5.93,2.32-8.61,4.17c-5.32,3.68-9.22,9.19-12.12,14.88a1.19,1.19,0,0,0,.27,1.38,32.31,32.31,0,0,0,10.7,7.92,1.17,1.17,0,0,0,1.45.75,4.09,4.09,0,0,0,3.11-3,1,1,0,0,0-.33-1.08c-.26-3.58,2.47-5.37,5.82-5.32A10.65,10.65,0,0,0,207.69,244.88ZM187,246.67c-.67-.59-1.31-1.21-1.93-1.87,3.06-5.83,7.3-11.53,13.21-14.68,2.41-1.28,5.17-1.76,7.33-3.51,1.79-1.44,2.87-3.48,4.4-5.15,2.66-2.91,4.39-1.73,7.5-2.45a5.4,5.4,0,0,0,3.33-2.44c.8-1.15,1.17-2.7,2.14-3.73,1.18-1.27,2.67-1.37,4.24-1.56s3.44-.13,4.91-.95c1.62-.9,1.29-2.1,2.25-3.37,1.61-2.1,3.09-.37,5.07-.38a3.38,3.38,0,0,0,3-1.49c.43-.61.43-1.31.79-1.92,1.46-2.44,2.4-2.24,4.73-2.17,3.19.1,5.77-.08,7.41-3.14.37-.7.61-2.43,1.23-2.92,2-1.56,3.32,1.58,4.15,2.94l.17.28L238.7,211.5c-3.58,2.15-7.41,4.12-10.76,6.6s-5.07,5.7-9.32,6.61c-2.4.51-5.16.63-7.12,2.29a6.91,6.91,0,0,0-1.82,2.83c-1,2.24-2.24,4-4.77,4.58a28.85,28.85,0,0,0-17.69,11.71A1.14,1.14,0,0,0,187,246.67Zm12.52-3.31a7.2,7.2,0,0,0-4,7.47,1.17,1.17,0,0,0,.2.55,1.67,1.67,0,0,1-.53.59,30.75,30.75,0,0,1-6.67-4,1.06,1.06,0,0,0,.37-.34,26.82,26.82,0,0,1,8.62-8.07c3.52-2,7.44-2.09,10.94-3.83,2.83-1.41,2.2-3.55,3.61-5.89,1.93-3.24,7.18-2.45,10.25-3.85s4.74-4.44,7.38-6.35c3.21-2.32,6.82-4.19,10.22-6.23l22.14-13.31,2.91,4.79a11,11,0,0,0-6.34,3.09c-2.93,2.54-4.64,4.87-8.84,5.09-1.11.06-2.11-.08-3,.69-2,1.71-1,4.88-4,5.92-2,.69-3.52-.86-5.43-.4-1.41.33-2.09,1.41-2.72,2.6-1.45,2.79-1.93,5.35-5.21,6.74-2.14.91-4.28.06-6.33.8-1.66.59-1.93,1.88-2.79,3.3-2,3.27-4.5,2.72-7.57,3.32a4.39,4.39,0,0,0-2.95,2c-.55.78-.66,1.76-1.16,2.54a5,5,0,0,1-4.11,2.3C202.7,243,201.29,242.52,199.53,243.36Z" transform="translate(-93.14 -93.14)"/><path class="cls-1" d="M206.68,203c12-3.42,34.8-9.42,38.35-23.67,5.13-20.64-30.74-39.35-44.65-46.76-5.77-3.09-11.79-6.23-18.47-6.49-6.07-.23-11.91,1.82-17.28,4.45-6.5,3.18-12.75,7-19.15,10.35-5.74,3-10.95,6.38-14,12.11a1.38,1.38,0,0,0-1.26.7c-3.34,5.36-6.28,11.58-6.66,18-.37,6.1,2.62,11.33,5.29,16.58,5.1,10,3.82,21.45,3.77,32.34,0,7,.56,14.17,3.75,20.38,3.38,6.6,8.55,10,14.22,11,10.59,1.85,22.91-4.76,28.59-14.93,3.1-5.56,4.66-11.78,7.24-17.57C190.48,210.44,197.35,205.66,206.68,203ZM160,248.86c-14.43,3.31-23.14-8-24.1-21.15-.82-11.38,2.3-23-1.35-34.15-1.7-5.16-4.92-9.62-6.73-14.72-2.73-7.69.37-15.72,4.39-22.42a1.59,1.59,0,0,0,1.51-1c3-7,10-10.11,16.37-13.43,4.49-2.33,8.81-5,13.28-7.33a45.75,45.75,0,0,1,13.11-5.08c7.17-1.3,13.59,1.09,19.87,4.34,10.75,5.55,21.81,11.51,30.82,19.69,8.72,7.93,19.71,21.92,10.45,33.41-8.14,10.1-22.53,10-33.92,13.64-9.54,3.08-16.16,8.63-20.22,17.87C178.21,230.53,174.84,245.47,160,248.86Z" transform="translate(-93.14 -93.14)"/><path class="cls-1" d="M175,159.37c-8.37-3.86-19.7-2.94-24.5,5a18.08,18.08,0,0,0,3.35,24.26c4.18,3.55,9.91,7.76,15.69,7.53,5.58-.21,10.23-4.21,12.74-9s4.19-11.73,3.19-17.08S179.71,161.53,175,159.37Z" transform="translate(-93.14 -93.14)"/></g></svg>