<svg xmlns="http://www.w3.org/2000/svg" viewBox="0 0 215.37 173.93"><defs><style>.cls-1{fill:#979797;}</style></defs><title>breads-gray</title><g id="Logo_FIXED" data-name="Logo — FIXED"><path class="cls-1" d="M307.62,142.13A31.31,31.31,0,0,0,278,113.07h0a30.74,30.74,0,0,0-9.89,1.17c-14.55,4.18-27.87,6.21-40.71,6.21h-54.7c-12.83,0-26.15-2-40.71-6.21a30.77,30.77,0,0,0-9.89-1.17,31.31,31.31,0,0,0-29.67,29.06,30.79,30.79,0,0,0,8.36,23.23A31.18,31.18,0,0,0,119,174.83V269.4A17.59,17.59,0,0,0,136.53,287h127A17.58,17.58,0,0,0,281,269.4V174.83a31.18,31.18,0,0,0,18.22-9.47A30.79,30.79,0,0,0,307.62,142.13Zm-14.79,17.19a22,22,0,0,1-16.2,7h-4.41V269.4a8.75,8.75,0,0,1-8.74,8.74h-127a8.75,8.75,0,0,1-8.75-8.74V166.33h-4.41a22.24,22.24,0,0,1-22.19-23.66,22.41,22.41,0,0,1,21.23-20.79l1,0a22.26,22.26,0,0,1,6.14.86c15.36,4.41,29.47,6.55,43.14,6.55h54.7c13.67,0,27.79-2.14,43.14-6.55a22.23,22.23,0,0,1,22.34,36.6Z" transform="translate(-92.31 -113.04)"/><path class="cls-1" d="M277.39,127.11a16.84,16.84,0,0,0-5.45.64c-15.84,4.54-30.42,6.75-44.59,6.75h-54.7c-14.16,0-28.75-2.21-44.59-6.75a16.93,16.93,0,0,0-5.43-.64A17.14,17.14,0,0,0,106.4,143a17,17,0,0,0,17,18.1H133V272.91H267V161.1h9.64a17,17,0,0,0,17-18.1A17.12,17.12,0,0,0,277.39,127.11Zm5.2,22.58a8.07,8.07,0,0,1-6,2.58H258.17V264.09H141.83V152.27H123.37a8.07,8.07,0,0,1-6-2.58A8.18,8.18,0,0,1,123,135.92h.35a8.07,8.07,0,0,1,2.26.32c16.64,4.77,32,7.09,47,7.09h54.7c15,0,30.38-2.32,47-7.09a8.07,8.07,0,0,1,2.26-.32H277a8.18,8.18,0,0,1,5.59,13.77Z" transform="translate(-92.31 -113.04)"/><path class="cls-1" d="M172.18,170.37l-.38-.22c-6.6-3.48-12.36,6.21-6.14,10.34l.37.24c5.06,3,12.25.27,12.25.27S177.25,173.38,172.18,170.37Z" transform="translate(-92.31 -113.04)"/><path class="cls-1" d="M224.08,224l-.39.2c-5.2,2.79-6.56,10.36-6.56,10.36s7.06,3,12.25.26c.13-.07.26-.14.38-.22C236.15,230.73,230.82,220.79,224.08,224Z" transform="translate(-92.31 -113.04)"/><path class="cls-1" d="M223.46,165.71c-.24.11-.47.22-.7.35-9.2,4.93-11.62,18.34-11.62,18.34s12.51,5.41,21.71.47c.23-.13.46-.25.68-.39C244.85,177.65,235.41,160.05,223.46,165.71Z" transform="translate(-92.31 -113.04)"/></g></svg>