<svg xmlns="http://www.w3.org/2000/svg" viewBox="0 0 236.06 192.79"><defs><style>.cls-1{fill:#979797;}</style></defs><title>butcher-gray</title><g id="Logo_FIXED" data-name="Logo — FIXED"><path class="cls-1" d="M141,125.33A10.65,10.65,0,0,0,133.3,137a8.81,8.81,0,0,0,11.44,7.37l.09,0c2.37-.5,4.81-1.24,6.32-3.27,1.68-2.24,1.73-5.21,1.5-7.9C152.16,127.38,146.63,123.89,141,125.33Zm2.46,15.14a2.45,2.45,0,0,0-.5.17c-6.8,1.53-7.59-9.81-.89-11.4,3.82-.9,6.46,1.56,6.58,5.23C148.81,138.41,147.1,139.73,143.48,140.47Z" transform="translate(-81.97 -103.61)"/><path class="cls-1" d="M317.92,281.2c-.83-7.19-5.49-13.63-10-19a100.83,100.83,0,0,0-18-16.11c-16.51-12-34.25-22.54-51.4-33.63l-.14-.07a2.29,2.29,0,0,0-1.59-1.84c-33.94-32-55.38-75.12-91.22-105.35a2.36,2.36,0,0,0-.49-.31,2.13,2.13,0,0,0-3.07-1C120.49,116.55,94.25,130,82.24,153.06a2.27,2.27,0,0,0,1,3.11c1.47,4.07,4.64,7.78,6.86,11.34,3.53,5.68,6.66,11.55,10.41,17.1a249.74,249.74,0,0,0,24.07,30.19,288.54,288.54,0,0,0,29,27.17c9.22,7.53,18.74,15.94,29.75,20.57a1.83,1.83,0,0,0,1.66,0,1.61,1.61,0,0,0,1.83-.18,288.35,288.35,0,0,0,40.33-36,74.37,74.37,0,0,1,17.37,19.87,80.64,80.64,0,0,0,14.35,17.93,92.71,92.71,0,0,0,18.35,13.1c3.21,1.76,6.52,3.33,9.88,4.76,4.67,2,8,3.39,10.39,8.1,2.63,5.13,7.59,7.88,13.27,5.5C316.29,293.21,318.57,286.81,317.92,281.2ZM185.13,258.56a2.17,2.17,0,0,0-.59-.36c-11.09-4.66-21.17-13.88-30.35-21.55a286.37,286.37,0,0,1-26.4-25,243.9,243.9,0,0,1-23.37-29.28C101,177.26,97.87,172,94.81,166.7c-2.36-4.11-6.49-8.56-7.65-13.24a66.12,66.12,0,0,1,9.15-12.31c1,4.43,4.08,8,6.57,11.67,3.51,5.22,6.51,10.78,10,16a275.66,275.66,0,0,0,24.1,31.1,274,274,0,0,0,59,49.45,2.28,2.28,0,0,0,.55.26Q190.94,254.24,185.13,258.56Zm15.39-12.29a2,2,0,0,0-1-.24,2,2,0,0,0-.66.11,2.27,2.27,0,0,0-.67-.63,269.43,269.43,0,0,1-56.86-47.43,266.44,266.44,0,0,1-23.57-30c-3.43-5.07-6.5-10.33-9.73-15.52-2.61-4.21-6.68-8.19-7.53-13.22a1.82,1.82,0,0,0-1-1.44c12.57-12.12,29.17-21,43.67-29.44C178.56,138.55,200,181.16,233.49,213A286.1,286.1,0,0,1,200.52,246.27Z" transform="translate(-81.97 -103.61)"/></g></svg>