<svg xmlns="http://www.w3.org/2000/svg" viewBox="0 0 189.86 247.64"><defs><style>.cls-1{fill:#979797;}</style></defs><title>candy-gray</title><g id="Logo_FIXED" data-name="Logo — FIXED"><path class="cls-1" d="M290.79,242.94c-1.84-1-3.12-11-3.69-13.23q-1.91-7.41-3.68-14.86-3.33-14.08-6.18-28.28A2.74,2.74,0,0,0,277,186a2.08,2.08,0,0,0,.09-.63V80.08a2.28,2.28,0,0,0-.13-.76,2.41,2.41,0,0,0-2.48-2.14H122c-1.42-1-4.09-.4-4.09,1.84v87.06a2.24,2.24,0,0,0,.17.89,2.14,2.14,0,0,0-.44.63,241.62,241.62,0,0,0-15.38,42.53,2.21,2.21,0,0,0,.11,1.5,2.26,2.26,0,0,0,1.86,2.72l169,30.9a2.24,2.24,0,0,0-1,1.93v72.45H122.28V222.06c0-3-5-2.66-5,.38v98.64a1.94,1.94,0,0,0,.8,1.66,2.33,2.33,0,0,0,2.32,1.6H272.53a2.24,2.24,0,0,0,1.65-.63,2.51,2.51,0,0,0,2.94-2.4V246.92a2.33,2.33,0,0,0-.21-1L288.17,248a2.17,2.17,0,0,0,2-.54C291.94,246.89,292.94,244.15,290.79,242.94ZM122.83,166V81.89H272.16V185.34a2.22,2.22,0,0,0,.37,1.24L262,185.25a2.41,2.41,0,0,0,1-2V154.34a1.89,1.89,0,0,0-.78-1.63,2.31,2.31,0,0,0-2.17-1.28H227.88a2.18,2.18,0,0,0-2.29,1.92,2.36,2.36,0,0,0-.53,1.51v24.8a2.2,2.2,0,0,0,.2.93l-9.75-1.24c0-.12,0-.25,0-.38v-26a2.42,2.42,0,0,0-3.42-2.09,2.48,2.48,0,0,0-1.1-.24H182.52a2.44,2.44,0,0,0-.69.1,2.58,2.58,0,0,0-3.06,2.44v21.55l-10.41-1.32a2.74,2.74,0,0,0,.07-.6V154.59a2.5,2.5,0,0,0-.1-.69,2.53,2.53,0,0,0-2.58-2.46H133.51a2,2,0,0,0-2.17,2.17,2.5,2.5,0,0,0-.1.69v14c0,.11,0,.21,0,.32l-9-1.14A2.21,2.21,0,0,0,122.83,166Zm135.51,18.77-29.28-3.71a2.36,2.36,0,0,0,.94-1.91v-23h28.13v27.68A2.06,2.06,0,0,0,258.34,184.78Zm-47.75-29.46v23.41l-26.9-3.41a1.66,1.66,0,0,0,0-.22V155.32Zm-47.12.81v16.62l-27.55-3.49a2.28,2.28,0,0,0,.28-1.11v-12Zm-56.12,54A233.85,233.85,0,0,1,121,172a1.9,1.9,0,0,0,.51.15l151.72,19.23c2.28,11.07,4.74,22.08,7.46,33,1.37,5.5,2.76,11,4.28,16.46.17.63.32,1.22.46,1.78Zm24.3-69.38a2.47,2.47,0,0,0,2.27,1.33h31.82a2,2,0,0,0,2.17-2.16,2.12,2.12,0,0,0,.94-1.82v-43a2.16,2.16,0,0,0-.95-1.84,2.35,2.35,0,0,0-2.44-2.19H133.22A2.15,2.15,0,0,0,131,93.36a2.64,2.64,0,0,0-.12.71v45A2,2,0,0,0,131.65,140.75Zm4.13-44.95h28.11v41.59H135.78V95.8Zm43.81,45a2.47,2.47,0,0,0,2.27,1.33h31.82a2,2,0,0,0,2.17-2.16,2.12,2.12,0,0,0,.94-1.82v-43a2.16,2.16,0,0,0-.95-1.84,2.35,2.35,0,0,0-2.44-2.19H181.16a2.15,2.15,0,0,0-2.27,2.27,2.64,2.64,0,0,0-.12.71v45A2,2,0,0,0,179.59,140.75Zm4.13-44.95h28.11v41.59H183.72V95.8Zm42.16,45a2.47,2.47,0,0,0,2.27,1.33H260a2,2,0,0,0,2.17-2.16,2.12,2.12,0,0,0,.93-1.82v-43a2.15,2.15,0,0,0-.94-1.84,2.37,2.37,0,0,0-2.45-2.19H227.45a2.15,2.15,0,0,0-2.27,2.27,2.64,2.64,0,0,0-.12.71v45A2,2,0,0,0,225.88,140.75ZM230,95.8h28.11v41.59H230V97.45s0,0,0,0Z" transform="translate(-102.15 -76.7)"/></g></svg>