<svg xmlns="http://www.w3.org/2000/svg" viewBox="0 0 247.21 168.38"><defs><style>.cls-1{fill:#979797;}</style></defs><title>candy-gray</title><g id="Logo_FIXED" data-name="Logo — FIXED"><path class="cls-1" d="M211.84,154.59a79.2,79.2,0,0,0-17.75-8.51q3.65-9.37,7.27-18.76a1,1,0,0,0-1.22-1.35c-8.33,2.81-13,11.19-21,14.39,0-2.94-.07-5.87-.14-8.81a1,1,0,0,0,0-.39v0a1,1,0,0,0-1.52-.79q-29.86-1.23-59.75-.8a.92.92,0,0,0-.94.79.94.94,0,0,0-.59.84q-.2,3.79-.28,7.59-19.24-4.68-38.26-10.18a1,1,0,0,0-.8,1.76,99.62,99.62,0,0,1,8.9,6.53q2.07,1.71,4,3.51c1.13,1,3.14,2.41,3.85,3.73,1.28,2.4-.69,3.12-2.5,4.15q-2.37,1.33-4.64,2.82a93,93,0,0,0-8,5.86c-.87.71.12,1.76,1,1.62a63.84,63.84,0,0,1,17-.44A103.73,103.73,0,0,0,89,168.4c-.78,1.23-3.36,4.21-3.35,5.65,0,2.95,12-.83,14.05-1.25,5.78-1.17,11.56-2.3,17.3-3.62.06.66.1,1.33.17,2a.94.94,0,0,0,.35.66,1.05,1.05,0,0,0,1,.89q29.17.53,58.3-1.73h0a1.07,1.07,0,0,0,1.91-.55c0-.47,0-1,0-1.43a.94.94,0,0,0,.32.14L195.21,173l8.38,2c1.32.31,3.24,1.22,4.62.57,2.09-1,1.08-3.3.13-4.72-2.82-4.17-6.54-8-9.89-11.83a93.25,93.25,0,0,0,9.64-.57c1.82-.25,3.32-.82,4.19-2.52A1,1,0,0,0,211.84,154.59Zm-95.07,12.65c-8.55,2-19.81,3.95-28.36,5.92,1.11-.25,4-6.36,4.78-7.5,1.74-2.5,3.67-4.86,5.56-7.26.37-.47.75-1.12.43-1.62a1.45,1.45,0,0,0-1.21-.49c-5-.37-10.09-.5-15.14-.37q5.83-3.69,11.68-7.37c1.24-.79,2.65-1.94,2.37-3.38a3.72,3.72,0,0,0-1.1-1.7,105.35,105.35,0,0,0-12.66-11.22l31,8.13a2.6,2.6,0,0,1,1.49.78,2.53,2.53,0,0,1,.3,1.63q-.12,3.15-.25,6.29c-2.58,0-5.56-.34-8.1.11-1.61.29-3.34,1.88-.49,1.89s5.85,0,8.77,0c1.12,0-.3,4.23-1.37,4.74-2,.95-5,.68-7.18,1.51-1.21.46-.69,2.33.52,1.87a21.06,21.06,0,0,1,8.32-1.39c.15,3.15.37,6.3.63,9.45Zm60,1.82h-.11q-28.71,2.24-57.52,1.74c-.42-4.32-.72-8.64-.93-13a1,1,0,0,0-.09-1.79q-.51-12.28.12-24.59,29.39-.42,58.77.78Q177.4,150.66,176.75,169.06ZM207,156.6q-2,.15-4,.18c-1.22,0-2.44,0-3.67-.07a4.55,4.55,0,0,0-3.12.58c-2.36,1.92,6.92,10.29,8.35,11.91,1.17,1.32,2.4,2.8,2.46,4.56q-14.1-3.3-28.2-6.64a28.83,28.83,0,0,1,0-4.26c.32-2.26,0-1.67,2-2.27,2.58-.79,6.05-.47,8.75-.68a1,1,0,1,0-.18-1.93l-10.45.81c0-1.44.06-2.89.08-4.34a30,30,0,0,0,9.23-5.54c.36-.31.74-.72.68-1.18a1,1,0,0,0-1.3-.71,3.27,3.27,0,0,0-1.37.91,21.77,21.77,0,0,1-7.18,4.36l0-8.83a1.8,1.8,0,0,1,.14-.83,1.78,1.78,0,0,1,.92-.63c7.06-2.91,11.6-10.06,18.5-13.33,0,3.1-3.09,7.93-4.23,10.86-.84,2.18-2.08,4.09-2.61,6.42a1.57,1.57,0,0,0,.07,1.21,1.69,1.69,0,0,0,.9.53,76.79,76.79,0,0,1,17,8A4.24,4.24,0,0,1,207,156.6Z" transform="translate(-76.4 -115.81)"/><path class="cls-1" d="M144.76,137c-8.22.41-19.63,5.27-17.66,15.49,3.7,19.25,41.45,15.7,39.45-4.22C165.42,137,153.72,136.58,144.76,137Zm12.74,24.23c-2.43,1.24-4.63,1.25-7.06,1.21l-2,0c-2.59,0-5,.33-7.58-.18-4.82-1-9.42-3.64-11.3-8.39-4.48-11.31,10.92-15,18.81-15.12,3.64-.08,7.41.08,10.66,1.72C167.8,144.86,165.22,157.32,157.5,161.25Z" transform="translate(-76.4 -115.81)"/><path class="cls-1" d="M312.8,130.13c-13.26-13.63-35.67-17.24-53.5-12.06-17.57,5.12-26.21,22.15-26.25,39.65,0,9.21,2.62,18.7,8.73,25.75,4.46,5.15,10.31,8.28,16.55,10.53a1.31,1.31,0,0,0,.74,1,27.86,27.86,0,0,0,10,3.07l-23.8,84.4c-.48,1.74,2.36,2.46,2.84.72l23.95-84.94a30.89,30.89,0,0,0,7.34-.88A49.34,49.34,0,0,0,296,191.73c8.34-4.41,17-10.12,22.39-18C327.62,160.11,323.83,141.48,312.8,130.13Zm5.41,38.1c-3.8,8.2-11.5,13.82-19,18.42a65.63,65.63,0,0,0,11.33-12.72c10.81-16,3.91-36.2-11.27-46.49A36.08,36.08,0,0,0,253.67,131c-11.7,11.15-18.49,33.43-4,45.19,13.07,10.6,39.42,12.58,50.33-2.49,11.21-15.49.81-38.61-17.27-42.27s-35.17,14.42-27.7,32.27c3.2,7.63,10.68,13.8,19.25,13.42,7.87-.34,15.65-5.95,17.11-13.93,1.53-8.36-4.45-17.61-13-19-9.66-1.57-14.84,7.9-13,16.46,1.45,6.68,13.76,9.36,18.09,4,4.94-6.16-3.14-13.15-9.18-9.15a1.43,1.43,0,0,0,1.56,2.4c4.2-2.79,9.12,4.24,3.18,6.33a10.34,10.34,0,0,1-5.46-.15c-5.51-1.56-6.41-6.31-5-11,3.35-11.53,16.95-4.88,19.48,3.47,2.33,7.71-2.86,15.06-10.27,17.22-8.5,2.47-16.7-3-20-10.8-6-13.94,5.27-29.46,20.14-29.22C293.9,134,304.56,150,300.79,165c-4,15.91-24.35,19.26-38,15-6-1.87-12.57-5.44-15.88-11-3.5-5.89-3-13.84-1.06-20.16,3.53-11.57,13.27-21.39,25.08-24.36,11.29-2.84,23.32,1.3,31.6,9.2a33.79,33.79,0,0,1,9.76,16.76c2.24,9.76-1,18.49-7.31,26-6.64,7.95-16.09,15.79-26.35,18.26a30.9,30.9,0,0,1-7.26.05,1.39,1.39,0,0,0-.54,0c-8.66-2.18-17.8-4.56-24.56-10.72-5.58-5.1-8.75-12.29-9.84-19.68-2.29-15.49,3.31-34.56,18.36-41.59s35.16-5.18,48.92,3.63C317.11,135,325.25,153,318.21,168.23Z" transform="translate(-76.4 -115.81)"/><path class="cls-1" d="M173.5,213.91c.9-.59,1.13-2.35,1.14-3.32a5.42,5.42,0,0,0-3.88-5.36,5.11,5.11,0,0,0-5.93,2.33,4.81,4.81,0,0,0,1.46,6,1.18,1.18,0,0,0,1.31,0,1.1,1.1,0,0,0,1.07.65l2.61-.09C171.94,214.14,172.93,214.3,173.5,213.91Zm-5-1.79a.45.45,0,0,1-.74-.16,2.62,2.62,0,0,1,1.38-4.8c2.65-.07,3.72,2.66,3,4.83Z" transform="translate(-76.4 -115.81)"/><path class="cls-1" d="M177.9,230.2c-.68,4.67,4.43,6,8.06,5.83,4.41-.16,3.51-4.5,2.28-7.48-1.15-2.77-3.91-5.61-7.14-4.06a5.06,5.06,0,0,0-2.7,5A1,1,0,0,0,177.9,230.2Zm3.44.49a2.77,2.77,0,0,1,.45-4.1c1.85-1.33,3.55.94,4.22,2.44.48,1.06,1.9,4.27.31,4.85a8,8,0,0,1-3.63-.22,3.91,3.91,0,0,1-2.19-1.39C181.3,232.18,182,231.4,181.34,230.69Z" transform="translate(-76.4 -115.81)"/><path class="cls-1" d="M157.14,231.21a3,3,0,0,0-3.28.59,1.06,1.06,0,0,0-1.71.55c-.56,2.86-.88,6.5,2,8.25,2.19,1.34,5.24.71,5.85-2C160.49,236.31,159.28,232.37,157.14,231.21Zm-.18,7.91c-1.13.38-2.28-.67-2.66-1.64a5.63,5.63,0,0,1-.28-2.65c.93.43,2.28-.46,1.52-1.41-.21-.26.34-.38.48-.36s.54.53.67.73a7.36,7.36,0,0,1,.7,1.63C157.75,236.46,158.43,238.62,157,239.12Z" transform="translate(-76.4 -115.81)"/><path class="cls-1" d="M176.14,255.49a3.93,3.93,0,0,0-4.26,4.74,5.18,5.18,0,0,0,6.25,3.5c2.36-.59,4.56-3,3.83-5.55A4.23,4.23,0,0,0,176.14,255.49Zm1.7,6.1a3,3,0,0,1-3.37-1c-.84-1.14-.3-3.28,1.43-3a1.09,1.09,0,0,0,.85-.18,1.18,1.18,0,0,0,.54-.12c1.09-.53,2.38.57,2.54,1.65S178.88,261.24,177.84,261.59Z" transform="translate(-76.4 -115.81)"/><path class="cls-1" d="M206,214.27c-1.46-.75-3.79-.27-4.37,1.28-1.44,1.74-2.4,4.06-.73,6,1.9,2.24,4.41,1,5.76-1.11C207.83,218.61,208.32,215.49,206,214.27Zm-1.43,5.27c-.6.82-1.64,1.68-2.22.34a2.29,2.29,0,0,1,.43-2.2.83.83,0,0,0,.94-1,1,1,0,0,1,0-.17l.17-.17a1.15,1.15,0,0,0,.19-.26,1.16,1.16,0,0,1,1.23.39C205.84,217.43,205.07,218.8,204.53,219.54Z" transform="translate(-76.4 -115.81)"/><path class="cls-1" d="M196,240.86a2.15,2.15,0,0,0-.63.53,7.54,7.54,0,0,0-2.94,3.73,2.63,2.63,0,0,0,1.62,3.37c3.47,1.59,5.85-1.77,6.72-4.68a1.13,1.13,0,0,0-.27-1.05C199.61,241.81,197.4,240.08,196,240.86Zm-.7,5.81c-1-.2-.9-.91-.42-1.66.6.9,2.31.49,2-.77a1.56,1.56,0,0,1,.18-1.26,4.34,4.34,0,0,1,1.37.78C197.94,245.2,197,247,195.31,246.67Z" transform="translate(-76.4 -115.81)"/><path class="cls-1" d="M187.52,271.85c-2.12.92-3.52,3.44-2.42,5.57a3.4,3.4,0,0,0,3.17,4.36c3.32.1,5.54-3.15,5.08-6.24C192.94,272.76,190.27,270.65,187.52,271.85Zm3,6.53a3,3,0,0,1-1.85,1.21c-.85.14-2.42-1-1.28-1.81a1.16,1.16,0,0,0-.5-2.06c.11-1.59,2.68-2.93,3.82-1.12A3.58,3.58,0,0,1,190.56,278.38Z" transform="translate(-76.4 -115.81)"/></g></svg>