<svg xmlns="http://www.w3.org/2000/svg" viewBox="0 0 179.87 181.21"><defs><style>.cls-1{fill:#979797;}</style></defs><title>citris-gray</title><g id="Logo_FIXED" data-name="Logo — FIXED"><path class="cls-1" d="M265.85,134.47c-16-16.17-38.56-25.08-63.49-25.08-51.76,0-92.29,39.06-92.29,88.92,0,50.55,41.38,91.95,92.26,92.3H203c50.64,0,86.35-38.4,86.92-93.6C290.18,172.62,281.63,150.41,265.85,134.47ZM203,282.6h-.62c-46.49-.31-84.31-38.12-84.31-84.29,0-45.37,37-80.91,84.29-80.91,22.78,0,43.31,8.06,57.8,22.7,14.27,14.41,22,34.59,21.77,56.83C281.41,247.46,249,282.61,203,282.6Z" transform="translate(-110.07 -109.39)"/><path class="cls-1" d="M259.27,141c-14.25-14.4-34.47-22.33-56.91-22.33s-43.34,8.07-58.82,22.73a77.58,77.58,0,0,0-24.22,56.93,82.21,82.21,0,0,0,24.32,58.59,83.46,83.46,0,0,0,58.75,24.45H203c22.24,0,41.44-8.05,55.54-23.27s21.87-36.52,22.12-61.17C280.9,175,273.3,155.16,259.27,141Zm-6.6,111.66C240.13,266.19,223,273.35,203,273.35h-.59a75.49,75.49,0,0,1-53.14-22.11,74.24,74.24,0,0,1-22-52.92,69.64,69.64,0,0,1,21.72-51.12C163,134,182,126.65,202.36,126.65s38.48,7.09,51.22,20c12.51,12.64,19.29,30.48,19.09,50.22C272.44,219.46,265.52,238.76,252.67,252.64Z" transform="translate(-110.07 -109.39)"/><path class="cls-1" d="M208.9,193.55a12,12,0,0,0-3.5.56,12.1,12.1,0,0,0,.56-3.5c0-5.41-2.05-10.9-6-10.9s-6,5.49-6,10.9a12.1,12.1,0,0,0,.56,3.5,12,12,0,0,0-3.5-.56c-5.41,0-10.89,2-10.89,6s5.48,6,10.89,6a12.39,12.39,0,0,0,3.5-.56,12,12,0,0,0-.56,3.49c0,5.42,2.05,10.9,6,10.9s6-5.48,6-10.9a12,12,0,0,0-.56-3.49,12.39,12.39,0,0,0,3.5.56c5.41,0,10.89-2.05,10.89-6S214.31,193.55,208.9,193.55Zm-9-9.84c.56.19,2,2.59,2,6.9a10.69,10.69,0,0,1-2,5.67,10.69,10.69,0,0,1-2-5.67C198,186.3,199.5,183.9,200,183.71ZM184.2,199.55c.19-.55,2.6-2,6.9-2a10.58,10.58,0,0,1,5.67,2,10.66,10.66,0,0,1-5.67,2C186.8,201.46,184.39,200,184.2,199.55Zm15.85,15.75c-.55-.18-2-2.59-2-6.9a10.69,10.69,0,0,1,2-5.67,10.69,10.69,0,0,1,2,5.67C202,212.71,200.51,215.12,200.05,215.3Zm8.85-13.84a10.66,10.66,0,0,1-5.67-2,10.61,10.61,0,0,1,5.67-2c4.31,0,6.71,1.45,6.9,1.91C215.61,200,213.21,201.46,208.9,201.46Z" transform="translate(-110.07 -109.39)"/><path class="cls-1" d="M246.91,171.63c1.68-1.79,2.39-3.85,1.6-4.6s-2.81.1-4.49,1.9a7.17,7.17,0,0,0-1.59,4.6A7.17,7.17,0,0,0,246.91,171.63Z" transform="translate(-110.07 -109.39)"/><path class="cls-1" d="M247.2,221.15a7.21,7.21,0,0,0-4.77-.94,7.18,7.18,0,0,0,2.49,4.18c2,1.41,4.15,1.84,4.78.94S249.21,222.57,247.2,221.15Z" transform="translate(-110.07 -109.39)"/><path class="cls-1" d="M201.28,148.81c0-2.46-.88-4.45-2-4.45s-2,2-2,4.45a7.23,7.23,0,0,0,2,4.45A7.23,7.23,0,0,0,201.28,148.81Z" transform="translate(-110.07 -109.39)"/><path class="cls-1" d="M201.62,245.36A7.17,7.17,0,0,0,200,250c.2,2.45,1.24,4.37,2.33,4.28s1.81-2.15,1.61-4.6A7.18,7.18,0,0,0,201.62,245.36Z" transform="translate(-110.07 -109.39)"/><path class="cls-1" d="M154.92,221.2c-1.95,1.5-3,3.41-2.33,4.28s2.79.36,4.74-1.13a7.19,7.19,0,0,0,2.32-4.28A7.2,7.2,0,0,0,154.92,221.2Z" transform="translate(-110.07 -109.39)"/><path class="cls-1" d="M158.94,170.07c-2.11-1.25-4.27-1.5-4.83-.56s.7,2.71,2.81,4a7.21,7.21,0,0,0,4.84.56A7.2,7.2,0,0,0,158.94,170.07Z" transform="translate(-110.07 -109.39)"/></g></svg>