<svg xmlns="http://www.w3.org/2000/svg" viewBox="0 0 171.01 241"><defs><style>.cls-1{fill:#979797;}</style></defs><title>coffee-tea-gray</title><g id="Logo_FIXED" data-name="Logo — FIXED"><path class="cls-1" d="M275.17,200.85c-9.34-7-21.35-6.36-30.48.11q2.94-16.67,5.87-33.32a2.25,2.25,0,0,0-2.39-2.59c-14.83-21.59-44.7-26.12-69.18-25.57s-49,9.55-63.28,30.24a2.08,2.08,0,0,0-1.17,2.33c8.74,44,20.16,87.53,30.33,131.17a2.18,2.18,0,0,0,.22.56,2.13,2.13,0,0,0,.82,2.32,74.71,74.71,0,0,0,40,14.27c13,.72,28.43-1.49,38.43-10.58a1.66,1.66,0,0,0,1.48-1.47q2.1-12,4.22-24c29,8.39,47.93-24.67,53.88-48.28C287,223.55,286.31,209.22,275.17,200.85Zm-32.3,20.4c5.83-5.76,15.5-4.3,18.33,3.8,1.65,4.72.92,10.08-.39,14.77-2.79,10-12.27,31.84-26.15,25.78a2.16,2.16,0,0,0-1.33-.14q3.84-21.84,7.69-43.67A1.88,1.88,0,0,0,242.87,221.25ZM179,143.62c22.18-.51,49.77,3,64.23,21.65l-.31.17a114.24,114.24,0,0,1-15.29,9,1.68,1.68,0,0,0-.66-1.7A73,73,0,0,0,132.15,174a1.76,1.76,0,0,0-.67,1.4,114.55,114.55,0,0,1-10.72-5.66C134.41,151.8,156.86,144.12,179,143.62Zm45.44,32.29A112,112,0,0,1,135,177s0,0,.05,0a68.72,68.72,0,0,1,89-1.3A2.94,2.94,0,0,0,224.43,175.91Zm-2.49,130.43c-9.61,9.15-25.54,10.89-38.22,9.75a71.22,71.22,0,0,1-34.86-13,2.11,2.11,0,0,0,0-1c-10-42.79-21.12-85.49-29.79-128.57A116.19,116.19,0,0,0,245,169a2.43,2.43,0,0,0,.51-.5c.07.12.15.22.22.34a2.22,2.22,0,0,0,.36.43Zm55.32-62.92c-7,19.19-22.65,43.9-46.54,36.84l1.95-11.05c18.44,7.93,31.1-18.9,33.2-33.25,1-7.1,0-15.31-6.26-19.77-5.48-3.89-12.51-3.28-17.69.46l1.83-10.39a2,2,0,0,0,1.48-.53c10.17-8.89,26-7.34,33.08,4.68C284.22,220.49,281,233.18,277.26,243.42Z" transform="translate(-114.5 -79.5)"/><path class="cls-1" d="M161.21,107.72c1.88.14,5.21-.65,6.79,0l1.46-.07q1.66,4.57-1.87,6.29c-1.61,1.94-3.47,3-3.57,5.8-.13,3.61,2.93,5.7,6.25,4.88,2.42-.6,1.39-4.34-1-3.74-2.84.7,4.69-7,5-7.41a7.58,7.58,0,0,0,1.62-3.42,5.21,5.21,0,0,0-1.55-4.75c-2.34-2.17-5.73-1.39-8.6-1.35s-10.18,1.09-10.29-3.26c-.08-2.85,4.54-6.6,6.56-8.1s.05-4.84-2-3.35c-3.62,2.68-8.76,7.4-8.69,12.42C151.42,107.09,157,107.4,161.21,107.72Z" transform="translate(-114.5 -79.5)"/><path class="cls-1" d="M192,101.7c1.35.17,5.76.3,6.08,1.1.21.55-6.39,6.3-7.06,7-1.71,1.68-5.25,4.07-5.34,6.83-.09,2.44,1.78,2.72,3.13,4.16,2.1,2.25,1.3,3.59-.14,6.32s-3.78,5-5.55,7.41c-1.5,2,1.87,3.94,3.35,2,2.67-3.56,11-10.87,8.26-16.09-1-1.87-4.44-2.2-4.5-4.36,0-.63,4.8-4.74,5.29-5.23,1.63-1.6,3.94-3.39,5.3-5.22,2.14-2.88,1.93-5.28-1.65-6.67-4.54-1.77-9.7.56-12.48-4.2-1.95-3.33-.84-4.43,2-7.15a17.44,17.44,0,0,1,7.81-4.21c2.4-.66,1.38-4.4-1-3.74C189.19,81.31,183,85.82,181,92.39,178.94,99.42,186.82,101,192,101.7Z" transform="translate(-114.5 -79.5)"/><path class="cls-1" d="M211,125c1.49,2,4.85,0,3.35-2l-2.11-2.81a14.54,14.54,0,0,0,4-5.86,20.34,20.34,0,0,1,4.65-6.26c.57-.58,1.38-.92,1.83-1.63a5.39,5.39,0,0,0,.27-4.91,9,9,0,0,0-2.28-3c-.21-.22-6.77-5.14-4.09-5.46,2.45-.3,2.48-4.18,0-3.88-4.45.54-5.76,5.14-3.09,8.58.83,1.07,2.83,1.8,3.5,2.86,3.09,4.94-.06,4.72-2.25,6.86a9.7,9.7,0,0,0-2.18,3c-2.07,4.28-1,5.41-4.32,8.07a1.92,1.92,0,0,0-.31,2.35C209,122.26,210,123.63,211,125Z" transform="translate(-114.5 -79.5)"/></g></svg>