<svg xmlns="http://www.w3.org/2000/svg" viewBox="0 0 176.73 249.05"><defs><style>.cls-1{fill:#979797;}</style></defs><title>coffee-tea-gray</title><g id="Logo_FIXED" data-name="Logo — FIXED"><path class="cls-1" d="M287.89,200.69c-9.65-7.26-22.07-6.57-31.5.11l6.06-34.42A2.32,2.32,0,0,0,260,163.7c-15.33-22.31-46.2-27-71.49-26.43s-50.64,9.87-65.41,31.25a2.15,2.15,0,0,0-1.2,2.41c9,45.43,20.83,90.45,31.35,135.56a2.26,2.26,0,0,0,.22.57,2.19,2.19,0,0,0,.85,2.4,77.1,77.1,0,0,0,41.29,14.75c13.48.74,29.38-1.54,39.71-10.93a1.72,1.72,0,0,0,1.53-1.53Q239,299.39,241.2,287c30,8.67,49.54-25.52,55.69-49.92C300.15,224.15,299.4,209.35,287.89,200.69ZM188.5,141.55c22.91-.52,51.43,3.16,66.37,22.37a2.11,2.11,0,0,0-.32.18,118.46,118.46,0,0,1-15.8,9.28,1.73,1.73,0,0,0-.68-1.75,75.4,75.4,0,0,0-98,1.34,1.86,1.86,0,0,0-.69,1.45,117.51,117.51,0,0,1-11.08-5.85C142.42,150,165.63,142.07,188.5,141.55Zm47,33.37a115.68,115.68,0,0,1-92.4,1.11l.06,0a71,71,0,0,1,91.93-1.35A2.07,2.07,0,0,0,235.46,174.92Zm-2.58,134.79c-9.93,9.46-26.39,11.25-39.5,10.07a73.55,73.55,0,0,1-36-13.38,2.18,2.18,0,0,0,0-1C147.05,261.14,135.53,217,126.57,172.5a120.1,120.1,0,0,0,130.14-4.71,2.11,2.11,0,0,0,.52-.51l.24.34a2,2,0,0,0,.36.45Q245.37,238.89,232.88,309.71Zm21.63-87.93c6-6,16-4.44,18.94,3.92,1.71,4.88,1,10.42-.4,15.27-2.89,10.3-12.68,32.9-27,26.64a2.22,2.22,0,0,0-1.37-.15l7.95-45.12A2,2,0,0,0,254.51,221.78Zm35.54,22.9c-7.19,19.84-23.41,45.37-48.1,38.08l2-11.42c19.07,8.2,32.15-19.53,34.32-34.36,1.08-7.33,0-15.82-6.47-20.43-5.66-4-12.93-3.39-18.28.48l1.89-10.74a2.15,2.15,0,0,0,1.53-.55c10.51-9.19,26.91-7.59,34.19,4.83C297.24,221,293.88,234.1,290.05,244.68ZM170.11,104.45c2,.15,5.39-.67,7,0l1.52-.08c1.14,3.15.5,5.32-1.93,6.49-1.67,2-3.59,3.09-3.7,6-.13,3.72,3,5.88,6.46,5,2.5-.62,1.44-4.49-1.07-3.87-2.94.73,4.85-7.2,5.19-7.66a7.81,7.81,0,0,0,1.68-3.54,5.38,5.38,0,0,0-1.6-4.9c-2.42-2.25-5.92-1.44-8.88-1.39s-10.53,1.12-10.65-3.37c-.07-3,4.7-6.83,6.79-8.38s.05-5-2-3.46c-3.74,2.78-9,7.65-9,12.84C160,103.8,165.71,104.12,170.11,104.45ZM202,98.23c1.38.17,5.95.31,6.27,1.14.22.57-6.6,6.51-7.3,7.2-1.76,1.74-5.42,4.2-5.51,7.06-.09,2.52,1.84,2.81,3.23,4.29,2.17,2.33,1.35,3.71-.14,6.54s-3.91,5.22-5.74,7.66c-1.54,2.06,1.94,4.07,3.47,2,2.75-3.68,11.38-11.23,8.53-16.63-1-1.93-4.59-2.27-4.65-4.51,0-.64,5-4.9,5.47-5.4,1.68-1.66,4.06-3.5,5.48-5.4,2.21-3,2-5.45-1.71-6.89-4.7-1.83-10,.58-12.9-4.33-2-3.45-.86-4.58,2.07-7.4a18.23,18.23,0,0,1,8.07-4.35c2.48-.68,1.43-4.55-1.07-3.86-6.53,1.79-12.94,6.45-15,13.24C188.45,95.87,196.58,97.53,202,98.23Zm19.63,24.07c1.53,2,5,0,3.46-2l-2.18-2.9a15.13,15.13,0,0,0,4.09-6.05,21,21,0,0,1,4.8-6.47c.59-.61,1.43-.95,1.89-1.7a5.49,5.49,0,0,0,.28-5.06,9.27,9.27,0,0,0-2.35-3.15c-.22-.23-7-5.32-4.23-5.65,2.53-.31,2.56-4.32,0-4-4.6.55-5.95,5.31-3.19,8.87.86,1.11,2.92,1.86,3.61,2.95,3.2,5.11-.06,4.88-2.32,7.09a10.17,10.17,0,0,0-2.25,3.11c-2.14,4.42-1,5.6-4.47,8.34a2,2,0,0,0-.31,2.43Z" transform="translate(-121.84 -75.29)"/></g></svg>