<svg xmlns="http://www.w3.org/2000/svg" viewBox="0 0 242.64 248.64"><defs><style>.cls-1{fill:#979797;}</style></defs><title>dairy-gray</title><g id="Logo_FIXED" data-name="Logo — FIXED"><path class="cls-1" d="M193.74,131.09a2.54,2.54,0,0,0,0-.39,1.88,1.88,0,0,0-1.48-1.63l-19.19-16.21V93.34a1.89,1.89,0,0,0-1.49-1.84L100.67,76a1.89,1.89,0,0,0-2.29,1.85V96.68L79,127.29h0a2,2,0,0,0-.3,1V254.51a1.89,1.89,0,0,0,1.46,1.84l67,15.54a2,2,0,0,0,.42,0,1.89,1.89,0,0,0,.63-.1l44.32-15.54a1.88,1.88,0,0,0,1.26-1.78V131.21S193.74,131.13,193.74,131.09ZM161,130.26,182.09,132l-29.46,9.23Zm2.71-3.56,7.79-10.25,14.28,12.07ZM102.15,80.15l67.14,14.71v16.5L102.15,95.73Zm-1,19.22,66.78,15.54-21.13,27.76L83.57,127.09ZM82.45,130.7l63.21,15.58V267.67L82.45,253Zm67,136.69V146.19L190,133.48v119.7Z" transform="translate(-78.68 -75.92)"/><path class="cls-1" d="M220.57,279.93c-5.21,1.18-9.07,5.17-8.21,10.75.93,6.06,5.9,9.54,11.8,9.34a3.06,3.06,0,0,0,.45-.06,2.67,2.67,0,0,0,.56,0c5.66-.87,7.81-8.34,6.38-13.08C230,281.82,225.73,278.76,220.57,279.93Zm3.74,15.85h-.15c-3.34.11-6.32-1.18-7.36-4.63s.78-5.93,4.09-6.92a4.73,4.73,0,0,1,6.13,2.6C228.44,289.54,227.88,295,224.31,295.78Z" transform="translate(-78.68 -75.92)"/><path class="cls-1" d="M320,279c-1.26-8-2.56-16-2.73-24.18a2.33,2.33,0,0,0,0-1.28,2.28,2.28,0,0,0,.07-.71c-.73-11.84-14-19.77-23.59-24.28-13.58-6.37-30.5-10.38-45.46-8.63a2.34,2.34,0,0,0-.9.3,2,2,0,0,0-1.5.61c-10.41,10.1-21.29,19.37-32.51,28.53-1.15.95-.55,2.61.43,3.33a9.3,9.3,0,0,1,2.67,2.63c1.72,3.22-1.56,3.44-4,3.61s-4.81-.37-6.86.89c-2.62,1.6-5,4.07-7.39,6-4.14,3.32-8.29,6.61-12.57,9.74a.63.63,0,0,0-.12.11,1.91,1.91,0,0,0-.93,1.72c0,14.58.44,29.13.44,43.73a5.25,5.25,0,0,0,2.57,3.46c21.42-.17,42.05-6.11,63-9.78q10-1.75,20-3.6l3.93-.73c.34-1,.08-1.85.4-3.05a4.73,4.73,0,0,1,.79-1.44,12.42,12.42,0,0,1,3.15-2.85c2.14-1.27,5-1.4,7.43-1.13a5.61,5.61,0,0,1,3.15,1.35,24,24,0,0,1,2.84,3.36,2.27,2.27,0,0,0,.31.31l2.74-.54c7.43-1.47,14.85-3,22.26-4.55a2.15,2.15,0,0,0,.78-.34,2.1,2.1,0,0,0,3-1.89A132.38,132.38,0,0,0,320,279ZM202.94,267.39c1.5-1.21,3.77-2.5,5-4a18.3,18.3,0,0,0,2.92-.12c3.86-.13,9.89-.44,10.63-5.35.4-2.7-1.36-5.14-3.37-7,10.45-8.58,20.62-17.29,30.36-26.73,13.66-1.53,28.75,1.87,41.31,7.29,8.35,3.6,22.27,10.76,23.19,21.07-12,3-24.12,5.32-36.26,7.61-1.78-5-7.41-6-12.26-5.31-5.59.84-10,4.21-10.68,9.69l-.4.07c-19.81,4-39.6,7.95-59.68,10.12C196.83,272.29,199.89,269.85,202.94,267.39Zm70.36-4.32v0a6,6,0,0,1-.32,2c-1,2.75-3.92,4.38-6.82,4.46-1.69.05-5.74-.08-7-1.83a2,2,0,0,1-.38-1.09,2,2,0,0,0-.79-1.58,6.81,6.81,0,0,1,.34-1.48c.95-2.61,3.49-4,6.53-4.57,2.66-.47,6.09-.53,7.55,1.89a4.65,4.65,0,0,1,.55,1.4A2.05,2.05,0,0,0,273.3,263.07Zm43.14,34.74c-7.36,1.58-14.73,3.08-22.11,4.55-1-1.63-1.66-3-4-3.84a17.79,17.79,0,0,0-10.32-.32,15,15,0,0,0-7,4.34,8.3,8.3,0,0,0-2,2.52,4.57,4.57,0,0,0-.23,1.82q-9.76,1.8-19.57,3.5c-20.63,3.56-41,9.43-62,9.89,0-13.63-.39-27.23-.43-40.85,21.59-2,42.84-6.13,64.07-10.43l2-.4c1.46,4.18,7.08,5.34,11.25,5.24,5.45-.14,10.76-3.94,11.33-9.55,11.91-2.24,23.81-4.55,35.59-7.43a177.65,177.65,0,0,0,2.29,19.91,143.76,143.76,0,0,1,1.69,21A2.65,2.65,0,0,0,316.44,297.81Z" transform="translate(-78.68 -75.92)"/><path class="cls-1" d="M258.41,242.57a2,2,0,0,0-1.76-2c-1.83-3.78-9.74-5.11-13-4.51-5.83,1.08-8,8.91-5.9,13.82s8,5.32,12.49,4.2c2.19-.54,4.91-1.35,6.58-2.95C259.16,248.87,258.41,245.5,258.41,242.57Zm-4.5,4.82c-.58,1.42-2,1.71-3.42,2.17-2.26.72-5.33,1.42-7.51.08-3.14-1.93-1.85-8.49,1.54-9.32,1.15-.29,8,.4,8.38,2.37a1.7,1.7,0,0,0,1.32,1.48A7.58,7.58,0,0,1,253.91,247.39Z" transform="translate(-78.68 -75.92)"/></g></svg>