<svg xmlns="http://www.w3.org/2000/svg" viewBox="0 0 232.07 166.8"><defs><style>.cls-1{fill:#979797;}</style></defs><title>deli-meats-cheeses-gray</title><g id="Logo_FIXED" data-name="Logo — FIXED"><path class="cls-1" d="M304.72,240.8a46,46,0,0,0,.09-7.6,1.89,1.89,0,0,0,.28-1c.14-16.95-9.77-33.32-25.55-40.07s-34.46-2.58-46.64,9.22a1.89,1.89,0,0,0-.51.84c-2.09-1.44-4.23-2.83-6.4-4.2-6.23-3.92-12.43-7.5-19.85-8.48-1.78-.23-3.59-.4-5.41-.49a1.77,1.77,0,0,0,0-.23l-1.09-22.94a13.75,13.75,0,0,0,4.3-.78,10.89,10.89,0,0,0,1.33-.61c.11,0,.23,0,.34-.08a7.81,7.81,0,0,0,3.76-2.36,1.58,1.58,0,0,0,1.38-.6c9-11,2.24-29.16-12.62-27.39l-.74-15.55c-.11-2.5-4-2.51-3.9,0l.76,16.19a14.84,14.84,0,0,0-2.1.47c-7.23,2.28-10.31,9.49-9.39,16.32a10.72,10.72,0,0,0,1,5.39,12,12,0,0,0,3.66,4.87,12.64,12.64,0,0,0,3,1.93,20.31,20.31,0,0,0,5.33,1.86l1.1,23.28a.68.68,0,0,1,0,.14,80.93,80.93,0,0,0-34.7,7.9,1.88,1.88,0,0,0-.44.3c-10-4.91-22-6.1-33.21-4.54-18.2,2.52-32.15,15.17-35,33.42a2.46,2.46,0,0,0-.21.43,17.3,17.3,0,0,0-.22,10.74c-3.59-.13-8.91.86-9.11,4.65-.12,2.28,2.35,3.44,3.94,4.57L94.37,251a1.81,1.81,0,0,0,.78,1.16c-6.27,17.4,13.44,29,28.31,29.5,12,.44,24.25-2.1,36.21-3q19.77-1.54,39.61-1.43T238.87,279c12.3,1.09,24.55,3.64,36.87,4.3,8.69.47,17.91-1,23.83-7.92,4.55-5.33,6.16-12.32,3-18.59,5.79-.82,12-1.69,13.29-8.37C317.22,241.47,310,240.24,304.72,240.8ZM198.87,139.58c.43,0,.84.06,1.25.1a18.84,18.84,0,0,1,6.88,10c.17.64.33,1.37.47,2.14,0,.07,0,.13,0,.2-.4-1.56-2.32-2.79-3-4.07-4-4-3-7.23-7.22-7.73v-.36C197.79,139.73,198.34,139.64,198.87,139.58ZM97,227.65a2,2,0,0,0,.24-.73c4.92-36.8,62.45-42.46,78.39-10.92,1.14,2.25,4.51.27,3.38-2a37,37,0,0,0-13.23-14.6,75.29,75.29,0,0,1,39.81-6c12.68,1.72,27.31,12.18,35.65,21.49,1.68,1.87,4.44-.9,2.76-2.77a60,60,0,0,0-8.64-7.79,2.92,2.92,0,0,0,.29-.23c11.05-10.72,28-14.5,42.35-8.36,12.6,5.4,21,17.53,22.81,30.85a2,2,0,0,0-.51,1.75,44.15,44.15,0,0,1,.5,12.36q-101.85-4-203.79-4A13.79,13.79,0,0,1,97,227.65ZM291,244.25l-.08.1A105.58,105.58,0,0,0,280,265q-22.22-11.28-44.45-22.54Q263.25,243.24,291,244.25Zm-66.88-2A113.45,113.45,0,0,0,214,262.38L165.8,241.72a1.88,1.88,0,0,0-.54-.14l.33-.46Q194.84,241.51,224.07,242.22Zm-63.23-1.17A91.93,91.93,0,0,0,150,262l-39.3-21.27Q135.75,240.76,160.84,241.05Zm-63.26,7.42q-4-2.85-8-5.69L88.46,242a.62.62,0,0,0,.17-.1,5,5,0,0,1,1.05-.47,7.94,7.94,0,0,1,4.21-.29,2,2,0,0,0,1.74-.5l8.43,0a1.71,1.71,0,0,0,1,1.41l11.87,6.43H97.62Zm185,30.89c-8.62.85-17.4-1.24-25.91-2.33a474.94,474.94,0,0,0-60-3.79,518.91,518.91,0,0,0-58.3,3.56c-9.36,1.06-20.15,2.34-28.88-2.14-8.08-4.15-13.82-13.33-10.33-22.26H117a2,2,0,0,0,1.65-2.94l30.06,16.27a1.89,1.89,0,0,0,2.45-.51,2,2,0,0,0,2.2-1.31,87.81,87.81,0,0,1,9.77-19.31,1.76,1.76,0,0,0,.69.5l50.09,21.48a2.15,2.15,0,0,0,2.82-1.19,2.06,2.06,0,0,0,.5-.76,108.72,108.72,0,0,1,10.89-21.52l.07,0,49.87,25.29a2,2,0,0,0,2.66-.83,2.12,2.12,0,0,0,2.86-1.12q1.74-4.49,3.91-8.74c2.35-.24,4.7-.39,7.05-.49a1.68,1.68,0,0,0,2.06.72,19,19,0,0,1,2-.52,1.94,1.94,0,0,0,.21.58C305.13,269.14,292.4,278.39,282.58,279.36Zm27-28.24c-2.51,1.83-6,2-9.28,2.27a1.85,1.85,0,0,0-.91-.21c-3.24,0-6.47.21-9.69.49,1.41-2.51,2.94-4.95,4.57-7.35a1.63,1.63,0,0,0,0-1.95l8.57.32c.11,0,.2,0,.31,0a2.07,2.07,0,0,0,1.15.12c1.77-.33,4.57-.9,6.27.09C313.37,246.51,311.55,249.66,309.56,251.12Z" transform="translate(-83.96 -116.6)"/></g></svg>