<svg xmlns="http://www.w3.org/2000/svg" viewBox="0 0 193.98 132.14"><defs><style>.cls-1{fill:#979797;}</style></defs><title>desserts-gray</title><g id="Logo_FIXED" data-name="Logo — FIXED"><path class="cls-1" d="M287.39,159.34a15.21,15.21,0,0,0-3.34-14.9c-5.4-5.92-12.8-4.91-19.69-2.73-7.35-12.08-30.38-8.23-39.94-1a2.21,2.21,0,0,0-.9,2.19l-.88.09a2.38,2.38,0,0,0-1.18.48,2.07,2.07,0,0,0-1.58,0q-57,23-113.2,47.95a2.32,2.32,0,0,0-1.07.91,2.21,2.21,0,0,0-1.56,2.12v58.7a2.21,2.21,0,0,0,0,.25,2.1,2.1,0,0,0-.47,1.07,56.57,56.57,0,0,0-.61,9.1,2.33,2.33,0,0,0,3.42,1.9c30.41,2.12,60.59-2.28,90.95-3.07s61.07,3.17,91.28-2.5a2.25,2.25,0,0,0,1.89-1.93,2.19,2.19,0,0,0,1.58-2q1.41-33.91.54-67.83a2,2,0,0,0-.75-1.55,20,20,0,0,0,5-11.83C297.42,167.85,293.78,161.22,287.39,159.34Zm-66-11.76a2.63,2.63,0,0,0,.6-.35,2.48,2.48,0,0,0,1,.07c25.88-3.16,49.1,13.84,53.53,39.55h-.2Q194,191.48,111.71,194,166.16,169.89,221.37,147.58ZM108.59,198.41q83.81-2.52,167.53-7.23v53.74l-167.53,4.9Zm179,57.32c-29,5.32-58.4,1.81-87.69,2.33-30.82.54-61.46,5.27-92.32,3.18a57.56,57.56,0,0,1,.59-6.67,3,3,0,0,0,0-.42l168.33-4.92a7.63,7.63,0,0,0,4.14-2.36V193.32a21.75,21.75,0,0,0,7.49-3.35Q288.94,222.85,287.6,255.73ZM291,179.59a16.29,16.29,0,0,1-10.37,9.24v-.28a1.79,1.79,0,0,0,.42-1.55,52.29,52.29,0,0,0-51.32-44.41c9.13-4.6,27.3-7.37,31.27,2.41a2.32,2.32,0,0,0,2.83,1.45c5.32-1.84,11.38-4,16.07.42a10.83,10.83,0,0,1,2.39,13.06,2.19,2.19,0,0,0,2,3.21C292.83,163.52,293.55,174,291,179.59Z" transform="translate(-103.01 -133.93)"/><path class="cls-1" d="M252.34,202.22a64.39,64.39,0,0,0-17.23,32.66c-.49,2.44,3.4,3.29,3.88.9a60.79,60.79,0,0,1,16.25-31C257,203,254.05,200.46,252.34,202.22Z" transform="translate(-103.01 -133.93)"/><path class="cls-1" d="M259.63,212.25l-9.93,16c-1.34,2.16,2.15,4,3.43,1.95l9.93-16C264.4,212,260.91,210.18,259.63,212.25Z" transform="translate(-103.01 -133.93)"/></g></svg>