<svg xmlns="http://www.w3.org/2000/svg" viewBox="0 0 140.49 187.68"><defs><style>.cls-1{fill:#979797;}</style></defs><title>dough-gray</title><g id="Logo_FIXED" data-name="Logo — FIXED"><path class="cls-1" d="M200,106.16c-61.74,0-70.25,45.1-70.25,93.84,0,58.76,26.26,93.84,70.25,93.84s70.25-35.08,70.25-93.84C270.25,151.26,261.74,106.16,200,106.16Zm0,179.68c-39,0-62.25-32.09-62.25-85.84,0-51.52,10.59-85.84,62.25-85.84s62.25,34.32,62.25,85.84C262.25,253.75,239,285.84,200,285.84Z" transform="translate(-129.75 -106.16)"/><path class="cls-1" d="M183.22,180.77a187.86,187.86,0,0,0-22.7-7.6,3.21,3.21,0,0,0-1.85,6.14c4.58,1.55,9.21,3.27,13.85,5.16C199.83,195.58,222.7,210.52,238,226a3.21,3.21,0,0,0,4.75-4.31C229.74,206.08,208.83,191.19,183.22,180.77Z" transform="translate(-129.75 -106.16)"/><path class="cls-1" d="M177.45,152.25q4.26,1.44,8.55,3.18c16.86,6.86,31,16.08,40.41,25.6a2,2,0,0,0,2.93-2.66c-8-9.6-20.93-18.79-36.73-25.22a115.78,115.78,0,0,0-14-4.69A2,2,0,0,0,177.45,152.25Z" transform="translate(-129.75 -106.16)"/><path class="cls-1" d="M184.87,214.61a114.07,114.07,0,0,0-14-4.69,2,2,0,0,0-1.15,3.78c2.83,1,5.69,2,8.55,3.19,16.85,6.85,31,16.07,40.41,25.6a2,2,0,0,0,2.93-2.66C213.58,230.22,200.67,221,184.87,214.61Z" transform="translate(-129.75 -106.16)"/></g></svg>