<svg xmlns="http://www.w3.org/2000/svg" viewBox="0 0 168.26 185.56"><defs><style>.cls-1{fill:#979797;}</style></defs><title>ethnic-gray</title><g id="Logo_FIXED" data-name="Logo — FIXED"><path class="cls-1" d="M282.38,253.69a2.59,2.59,0,0,0,.49-2.56c-2.37-7.47-5.44-16.19-13.08-19.79-4.78-2.25-10.52-2.25-14.75.64a16.33,16.33,0,0,0-19.83-2.77l-33.8-40.41,42.29,14.6c3.1,1.07,4.39-3.75,1.43-4.77l-49.9-17.23L134,108.22a3.34,3.34,0,0,0-3.29-.92c-1.83.32-4.08,1.65-4.69,3.32a2.16,2.16,0,0,0,.38,2.22l52.68,63L119,155.07c-3.09-1.07-4.38,3.75-1.42,4.77l67.75,23.39,29.86,35.71a27.45,27.45,0,0,0-9.91-1.74c-16.78.17-29.66,15.08-29.85,31.27a2.5,2.5,0,0,0,.19,1l-.12,0c-2-.41-4.28.94-3.4,3.22,8.59,22.18,29.27,38.4,53.27,40,24.55,1.6,48-13.29,58.51-35.18A2.78,2.78,0,0,0,282.38,253.69Zm-12-15.17c3,3,4.64,6.9,6,10.87H263.29a44.7,44.7,0,0,0-4.88-13C262.07,233.9,267.23,235.4,270.36,238.52Zm-20.23-3.46a15.22,15.22,0,0,1,1.53,1.47,2.93,2.93,0,0,0,1.7,2.24,32.6,32.6,0,0,1,4.13,10.62H235.15a2.66,2.66,0,0,0,.32-1.32,30.69,30.69,0,0,0-1.22-8,3,3,0,0,0,.33-1.12C235.2,231.32,245.69,231.33,250.13,235.06Zm-69,13.05c.15-13.19,10.83-25.48,24.51-25.51s24,12.87,24.2,25.84a2.55,2.55,0,0,0,.19.95H180.75A2.76,2.76,0,0,0,181.08,248.11Zm97.82,6.67c-9.3,19.38-29,32.87-50.87,32.58-21.09-.28-40.14-13.8-48.95-32.57h80.67a3,3,0,0,0,1.79,0h15.65a2.77,2.77,0,0,0,1.34-.33,2.49,2.49,0,0,0,.43.22Z" transform="translate(-115.87 -107.22)"/><path class="cls-1" d="M227.83,151c1.87.61,4,.24,5.8.83,3.24-.12,4.9,2,5,6.31a36.56,36.56,0,0,1-4.15.55c-4.46.89-10.19,3.86-8.48,9.46.7,2.28,2.22,3.22,4.34,4,3.16,1.14,5.67.58,7.21,4.35a6.78,6.78,0,0,1-1.68,7.65c-1.79,1.72,1.25,4,2.95,2.35a10.46,10.46,0,0,0,1.58-12.9c-1.54-2.63-3.21-3.06-5.64-4.42a7.14,7.14,0,0,0-2.1-.38q-1.11-6.48,2.92-6.51c1.33-.52,3-.16,4.38-.71,4.69-1.85,5.46-6.86,1.89-10.42-2.77-2.75-6-2-9.46-3.11l-1.95-.23q-6.33-6.17-.49-8.17c2.11-2.17,6.24-3.71,8.86-5.27,2.15-1.27-.16-4.21-2.22-3-4.79,2.86-18.72,7.53-14.18,15.52A9.47,9.47,0,0,0,227.83,151Z" transform="translate(-115.87 -107.22)"/><path class="cls-1" d="M256.44,147.64c1.37.38,3.29.66,4.42,1.54,4.69,3.61,1.25,7.57-1.58,10.12s-6,2.89-9.1,4.48c-2.28,1.15-4.38,3.12-3.75,5.94.73,3.28,4.24,3.51,6.58,5,6.85,4.34-1.06,9.49-1.57,14.77-.32,3.24.93,5.52,4,6.46,2.34.71,3.32-2.84.95-3.56-4.29-1.32,3.68-10.25,4.17-12.53a6.38,6.38,0,0,0-2.47-6.63c-3.1-2.49-9.44-2.4-3.89-7,3-2.46,7-3,9.82-6.25,4.67-5.35,3.82-11.83-2.82-14.76a42.42,42.42,0,0,0-5.5-1.55,15.79,15.79,0,0,1-3.88-1.34q-3.87-7.19,2.14-8.52c3.56-1.4,6.73-2,9.47-4.85,1.72-1.79-1.14-4.25-2.79-2.53-4,4.13-20.58,5.9-14.67,15.69C248.19,145.8,252.71,146.59,256.44,147.64Z" transform="translate(-115.87 -107.22)"/></g></svg>