<svg xmlns="http://www.w3.org/2000/svg" viewBox="0 0 167.55 222.02"><defs><style>.cls-1{fill:#979797;}</style></defs><title>fish-seafood-gray</title><g id="Logo_FIXED" data-name="Logo — FIXED"><path class="cls-1" d="M193.66,182.48a135.88,135.88,0,0,0-25.81-20.84c0-3.87,0-7.73,0-11.59a567,567,0,0,1,3.59-57.37c1.23-2.18-2.05-5-4.41-3Q144,108.72,119.13,125.43c-2.43-.4-4.2,3.38-1.68,5a304,304,0,0,1,45,36l.09.07q.23,16.08,1.24,32.16c1.91,30.37,5.24,62.83,24.74,87.58,9.3,11.8,21.94,21,36.67,24.61,2.71.65,4.16-2.59,2.84-4.29A136.07,136.07,0,0,0,193.66,182.48Zm-57.27-62.54a36.8,36.8,0,0,1,9.72,10.44c.45.73,1.61.05,1.15-.68a38.54,38.54,0,0,0-9.75-10.57q5.58-4,11.05-8.13a37.15,37.15,0,0,0,5,14,.67.67,0,0,0,1.15-.68,35.64,35.64,0,0,1-4.91-14.21q8-6,15.79-12.35a578.07,578.07,0,0,0-3.07,61.42,311.12,311.12,0,0,0-38.38-30.66Q130.31,124.29,136.39,119.94Zm39.36,127.52c-4.09-15.47-5.48-31.49-6.51-47.41q-1-16-1.29-32c33.64,22.33,55.58,59.67,58,100.21A131.38,131.38,0,0,1,223,304.74C197.69,296.76,182.27,272.12,175.75,247.46Z" transform="translate(-116.22 -88.99)"/><path class="cls-1" d="M213.14,262a3.38,3.38,0,0,0-.49,5.37c.67.54,1.62-.4.95-.94a2.06,2.06,0,0,1,.05-3.18c1.31-.9,3,.59,2.84,2-.08.86,1.26.85,1.34,0C218.05,262.83,215.28,260.78,213.14,262Z" transform="translate(-116.22 -88.99)"/><path class="cls-1" d="M211.41,248.7a33.81,33.81,0,0,0-16.7,6.11c-.7.49,0,1.65.67,1.15a32.62,32.62,0,0,1,16-5.92C212.26,250,212.27,248.62,211.41,248.7Z" transform="translate(-116.22 -88.99)"/><path class="cls-1" d="M198.12,250.55a41,41,0,0,1,9.93-4.43.67.67,0,0,0-.36-1.29,43,43,0,0,0-10.25,4.56C196.71,249.84,197.38,251,198.12,250.55Z" transform="translate(-116.22 -88.99)"/><path class="cls-1" d="M282.85,221a87.36,87.36,0,0,0-74.56-67.33,369,369,0,0,1-16.67-40.55,2.44,2.44,0,0,0-.26-.51c-.55-1.46-2.72-2.19-3.55-.43q-8.2,17.58-18.1,34.27c-1.35.91-1.55,3.26.42,3.53a199.81,199.81,0,0,1,36.1,8.5q3.95,8,8.25,15.9c9.27,17,19.76,35.19,37.26,44.84,9.36,5.16,20,7.47,30.59,5.34C284.23,224.21,284.1,221.93,282.85,221Zm-79-67.52a197.89,197.89,0,0,0-29.54-6.9c1.52-2.59,3-5.18,4.46-7.8a24,24,0,0,1,8.19,3.3c.73.46,1.4-.7.67-1.16a24.78,24.78,0,0,0-8.2-3.35q1.94-3.53,3.81-7.06a23.58,23.58,0,0,0,6.52,6.42c.72.47,1.39-.68.67-1.16a22.18,22.18,0,0,1-6.51-6.61c1.85-3.55,3.63-7.13,5.37-10.74A372.42,372.42,0,0,0,203.81,153.51Zm20.59,30.26q-7.5-12.6-14-25.78a83.35,83.35,0,0,1,68.39,63.15C254.18,224.45,235.77,202.89,224.4,183.77Z" transform="translate(-116.22 -88.99)"/><path class="cls-1" d="M261.68,199.07a2.39,2.39,0,0,0,1.19,3.81.67.67,0,0,0,.36-1.29,1,1,0,1,1,1-1.26c.3.8,1.59.46,1.29-.35A2.39,2.39,0,0,0,261.68,199.07Z" transform="translate(-116.22 -88.99)"/><path class="cls-1" d="M256.93,192a21.7,21.7,0,0,0-8,8.19c-.42.75.74,1.43,1.16.68a20.11,20.11,0,0,1,7.55-7.71A.67.67,0,0,0,256.93,192Z" transform="translate(-116.22 -88.99)"/><path class="cls-1" d="M250.15,197a25.67,25.67,0,0,1,4.49-5.21c.64-.58-.31-1.52-.95-.95a27,27,0,0,0-4.69,5.49C248.53,197.08,249.69,197.75,250.15,197Z" transform="translate(-116.22 -88.99)"/></g></svg>