<svg xmlns="http://www.w3.org/2000/svg" viewBox="0 0 246.01 140.78"><defs><style>.cls-1{fill:#979797;}</style></defs><title>frozen-foods-gray</title><g id="Logo_FIXED" data-name="Logo — FIXED"><path class="cls-1" d="M321.71,136.09a1.55,1.55,0,0,0-.81-1.39,1.92,1.92,0,0,0-1.82-1.15h-7.15a1.83,1.83,0,0,0-1.35-.55l-232-1.59a1.87,1.87,0,0,0-1.21,3.31,1.86,1.86,0,0,0-.61,1.41V270.54a1.52,1.52,0,0,0,1.47,1.59,2.12,2.12,0,0,0,.52.06H320.26a1.74,1.74,0,0,0,1.79-2.07,1.93,1.93,0,0,0,.15-.69Q323.34,202.76,321.71,136.09Zm-3.38,132.4H80.59V135.73a1.57,1.57,0,0,0-.11-.6l228,1.56a2,2,0,0,0,1.41.55h8Q319.42,202.87,318.33,268.49ZM162.64,220.16a1.71,1.71,0,0,0,.51.09h70.13a1.51,1.51,0,0,0,.44-.06,2.5,2.5,0,0,0,2.16-2.77V145.71a2,2,0,0,0-1.12-2.08,1.89,1.89,0,0,0-1.73-2.72,1.71,1.71,0,0,0-1.57.86H162.84a1.7,1.7,0,0,0-1.73,2.14,3.5,3.5,0,0,0-.12.9v72.9A2.23,2.23,0,0,0,162.64,220.16Zm2.25-74.69H232.1a3.47,3.47,0,0,0-.1.82v68.88H164.89Zm146.66,108-.29-.15v-20.8h0s0,0,0,0V145.87a1.76,1.76,0,0,0-1-1.61,1.81,1.81,0,0,0-1.86-2.06H245.24a2,2,0,0,0-.85.18c-.8-1.51-3.69-1.31-3.69.76V220.2a1.73,1.73,0,0,0,.94,1.58,1.53,1.53,0,0,0,.57,2.51q34.12,15.22,67.35,32.33C311.71,257.73,313.79,254.59,311.55,253.44Zm-4.18-2.11q-31.11-15.89-63-30.15a1.71,1.71,0,0,0,.23-.88V145.8a2.15,2.15,0,0,0,.65.11h62.12V251.33Zm-2.92,9.06H303a1.7,1.7,0,0,0-.94-.8c-23.65-9.32-44.21-24.67-67.32-35.11a2,2,0,0,0-2.7,1.28H162.46a1.7,1.7,0,0,0-1.77,1.37,2.09,2.09,0,0,0-.81.24A588.68,588.68,0,0,1,86.64,260a1.74,1.74,0,0,0-1.21,1.52,1.89,1.89,0,0,0,1.81,2.58H304.56C307.06,264.09,306.94,260.39,304.45,260.39Zm-165.71,0a.53.53,0,0,0,0-.12,10,10,0,0,1,9.46-13.5c-2.75,5.16.24,11.66,6,13.62Zm19.77,0c1-1,1-2.94-.81-3.06q-3,.41-4.24-2.86-6.21-4.11,2-9.15c2.11-1,6.38-1.12,8.81-1.52,4.17-.7,8.32-1.54,12.47-2.37,9.48-1.91,19-3.92,28.66-4.56,16.46-1.1,43.94,2.44,47.88,22.45a1.85,1.85,0,0,0,.61,1.07Zm98.32,0a1.48,1.48,0,0,0,.34-1.35c-5.33-27.09-42.82-27.79-63.86-24.48-8.19,1.28-16.27,3.14-24.41,4.67-5.47,1-13.29.74-17.89,4.26-.27.21-.49.43-.73.64a1.88,1.88,0,0,0-1.71-1.08,13.75,13.75,0,0,0-13.84,17.34H96.14a596.76,596.76,0,0,0,66-30,1.59,1.59,0,0,0,.83-.93h72.35a1.93,1.93,0,0,0,.87-.2c19.9,9.45,38.08,22.2,58.22,31.13Zm-161-48.94a1.87,1.87,0,0,0,1.83-3.27c-2.14-1.23-4.18-4.3-2-6.48,1.8-1.77,4.22.59,2.61,2.1-1.18,1.11-.36,2.52.84,2.93a8.06,8.06,0,0,0,4.1,7.71,1.9,1.9,0,0,0,1.75,3.24c4.31-1,8.53-4.37,9.21-8.94a7.35,7.35,0,0,0-6.71-8.33,8.15,8.15,0,0,0-5,1,5.74,5.74,0,0,0-7.4-3.74,6.88,6.88,0,0,0-4.25,6.62C91,207.44,93.19,210,95.81,211.45Zm11.62-7.31a3.64,3.64,0,0,1,2.66,5,7.14,7.14,0,0,1-2.81,3.47,1.66,1.66,0,0,0-1.24-1C101.46,210.45,102.29,203,107.43,204.14Zm6.27,10.52c1,3.71,4.08,5.7,7.54,6.43a6.41,6.41,0,0,0-2,3.7,8,8,0,0,0,5,8.51,2.15,2.15,0,0,0,2.75-1.33h.15a6.79,6.79,0,0,0,5.89-6.9,5.88,5.88,0,0,0-2.27-4.57,7.09,7.09,0,0,0,1.84-6.63c-1.2-5.06-7.13-8.41-12.09-8.31A7.09,7.09,0,0,0,113.7,214.66ZM127,228.28a1.89,1.89,0,0,0-1.65,1.33c-2.66-1.69-3.35-6.29.57-6.89a2.67,2.67,0,0,1,3.28,2.17C129.34,226.27,128.48,228.09,127,228.28Zm-7.41-18.88c2.43-.75,5.59.75,7.37,2.33a5.5,5.5,0,0,1,2,3.77,4,4,0,0,1-1.31,2.86,1.55,1.55,0,0,0-1.62-.73c-2.51.28-5.62.19-7.47-1.83S116.71,210.29,119.58,209.4ZM99.64,230a5.84,5.84,0,0,0,3.9-1.69,8.14,8.14,0,0,0,1.47,2.43,2.11,2.11,0,0,0,3.56-1A6.32,6.32,0,0,0,115.7,227c1.87-3,.43-6.59-2.64-8.09a7,7,0,0,0-8.49,1.69A6.42,6.42,0,0,0,99.12,217a7.73,7.73,0,0,0-7.77,6.44A1.78,1.78,0,0,0,93,225.5,6.59,6.59,0,0,0,99.64,230Zm10.87-8.12c1.21.28,2.5,1.33,2.1,2.7-.32,1.14-2,2.31-3.06,1.55a2,2,0,0,0-2.46.17C106.59,224,107.55,221.22,110.51,221.91Zm-9,1.61c.15,1.34-.45,2.68-1.91,2.81a2.72,2.72,0,0,1-2.94-2,1.8,1.8,0,0,0-1.13-1.4C96.82,220.24,101.07,219.77,101.51,223.52ZM87.8,256.62q33.23-17.1,67.36-32.33a1.53,1.53,0,0,0,.57-2.51,1.72,1.72,0,0,0,.93-1.58V143.14c0-2.07-2.89-2.27-3.69-.76a2,2,0,0,0-.85-.18H88.92a1.8,1.8,0,0,0-1.86,2.06,1.76,1.76,0,0,0-1,1.61v86.61h0v20.8l-.28.15C83.58,254.59,85.65,257.73,87.8,256.62Zm56.26-35.34a4.63,4.63,0,0,1-5.8,1.84c-3.57-2.29-1.67-8.14,2.1-8a1.7,1.7,0,0,0,1.69.48l.1,0C144.22,216.77,145.4,219.17,144.06,221.28Zm-12.64-29.06a2.21,2.21,0,0,0-.46.35,2.52,2.52,0,0,0-.56-.09,6.29,6.29,0,0,0-6,5,1.71,1.71,0,0,0-.45,0,6.38,6.38,0,0,0-.45-3.87,5.07,5.07,0,0,0-.6-1,5.27,5.27,0,0,0,2.41-1.39,5.35,5.35,0,0,0,1.49-4.25,6.9,6.9,0,0,0,7.64.64,8.29,8.29,0,0,0,3.43-3.36c.11.2.22.41.35.61a5.63,5.63,0,0,0-2.33,3.83,1.75,1.75,0,0,0,.62,1.6,6.34,6.34,0,0,0,.82,2A5.81,5.81,0,0,0,131.42,192.22Zm4.23,7.32A4.9,4.9,0,0,1,131,202a2.88,2.88,0,0,1-2.95-3c.08-1.46,1-2.87,2.52-2.85a1.63,1.63,0,0,0,1.46-.7,1.94,1.94,0,0,0,1.49-.18,1.88,1.88,0,0,1,2.29.82A3.54,3.54,0,0,1,135.65,199.54Zm-11.22-29.88a4.88,4.88,0,0,0,.32,1,7.56,7.56,0,0,0-3.66,2,1.65,1.65,0,0,0-.2-.62c-1.38-2.51.27-6.26,3.55-5.33,0,0,.11,0,.16,0A5.79,5.79,0,0,0,124.43,169.66Zm-1.22,6.28a4,4,0,0,1,2.6-1.78,3.58,3.58,0,0,1,3.72,1.83l-.3.3a1.78,1.78,0,0,0-1,.17,6.11,6.11,0,0,0-2.26,1.83,1.85,1.85,0,0,0-2.8,0c-.23.27-.39-1.05-.39-1.09A3.07,3.07,0,0,1,123.21,175.94Zm9.38-17.31c-3.05,1.05-4.18-2.28-3.4-4.67a2,2,0,0,0,2.14.18c1.16-.6,2.62.42,3,1.52C134.91,157,133.82,158.2,132.59,158.63Zm2.67,2.86a6.57,6.57,0,0,0,2-1.85,3.65,3.65,0,0,0,.24.31,7.09,7.09,0,0,0-2.44,3.78A5.7,5.7,0,0,0,134,162.5c-.13-.11-.28-.21-.42-.31A7.24,7.24,0,0,0,135.26,161.49ZM130,166.58a2.05,2.05,0,0,0,1.27-1.42,2.52,2.52,0,0,1,.87,1.52,2.79,2.79,0,0,1-2,3.09,1.33,1.33,0,0,1-1.86-1.39A2.17,2.17,0,0,0,130,166.58Zm2.19,12s0,0,.07-.07a2.39,2.39,0,0,0,.89-.4,1.44,1.44,0,0,1,.74.16,3,3,0,0,1,1.09,2.77,4.33,4.33,0,0,1-3.22,3.75,2.43,2.43,0,0,1-3-1.69c-.34-1-.29-2.7.83-3.23a2.32,2.32,0,0,0,.53-.35A2,2,0,0,0,132.18,178.63Zm8.48,25.28c4.41.31,4.66,6,1.3,7.8a9,9,0,0,0-1.62-.21,1.91,1.91,0,0,0-.66-.29C135.55,210.19,136.08,203.59,140.66,203.91ZM90,232.31v-86.4h62.12a2.22,2.22,0,0,0,.66-.11v74.5a1.71,1.71,0,0,0,.23.88c-2.07.92-4.13,1.87-6.19,2.8a9.67,9.67,0,0,0,.65-.89,7.37,7.37,0,0,0-1.81-9.54A8.3,8.3,0,0,0,148.2,207a7.57,7.57,0,0,0-7.52-6.79,6.77,6.77,0,0,0-1.11,0,7.4,7.4,0,0,0,.52-3,5.9,5.9,0,0,0-.86-2.89,5.56,5.56,0,0,0,8-2.92,6.15,6.15,0,0,0,0-4.6,7,7,0,0,0,3.09-3.59,6.58,6.58,0,0,0-3.52-8.18,6.44,6.44,0,0,0-8.69,2.6c0-.1-.09-.2-.15-.3a5.51,5.51,0,0,0-4.87-2.86A7.81,7.81,0,0,0,132,173a6.41,6.41,0,0,0,3.93-5.14,1.27,1.27,0,0,0,.06.18c.63,1.33,1.94,3.06,3.48,3.37,3.39.69,6.81-3.15,7.05-6.23,0,0,0,0,0-.06a1.83,1.83,0,0,0,1.16-.66c2.41-2.93,3.5-7.1,1.77-10.65a8,8,0,0,0-8.43-4.21,5.87,5.87,0,0,0-4.26,2.88,6.28,6.28,0,0,0-7.19-1.57,2.21,2.21,0,0,0-3.27.19,7.58,7.58,0,0,0,.22,9.06,6.34,6.34,0,0,0,2.27,1.74,4.8,4.8,0,0,0-2.09,1.9,1.37,1.37,0,0,0-.71-.49,8.84,8.84,0,0,0-2.79-.32,2,2,0,0,0,.16-.33c1.48-3.64-.42-8.38-4.33-9.51a5.43,5.43,0,0,0-5.73,1.85,4.86,4.86,0,0,0-2-3.71c-2.26-1.73-5.27-1.08-7.36.59s-4.09,4.8-3.89,7.66a5.19,5.19,0,0,0,.26,1.28,8.39,8.39,0,0,0-4.61,2c-1.63,1.46-2.79,3.8-2,6a4.32,4.32,0,0,0,4.22,2.85,5.66,5.66,0,0,0-3.16,2.52,6.73,6.73,0,0,0,.44,7.5,1.52,1.52,0,0,0,.66,1.29,7.27,7.27,0,0,0,3.64,1.13,9.2,9.2,0,0,0-4.1,9.61,2.11,2.11,0,0,0,3.29,1.16,7.35,7.35,0,0,0,7.39,3c4.1-.88,6.6-5.61,5.37-9.54A8.11,8.11,0,0,0,103.6,183a7.4,7.4,0,0,0,1.58-1.34c.13-.15.24-.31.36-.47a7.82,7.82,0,0,0,2.47,2.49,1.61,1.61,0,0,0,2.2-.31,7.31,7.31,0,0,0,1.33.28,12.35,12.35,0,0,0,6.58-1.23,1.67,1.67,0,0,0,0,.77,2,2,0,0,0,2.39,1.3c1.88-.23,3.32,3.33,1.82,4.47s-4.12-.65-4-2.45c.18-2.39-3.72-2.41-3.9,0a5.5,5.5,0,0,0,1.5,4.14,6.48,6.48,0,0,0-1.57.64c-3.61,2.11-3.6,6.82-.88,9.66,3,3.15,7.64,2.71,11.08.61,1.14,3,4.51,4.53,7.73,4.16a8.17,8.17,0,0,0,.84-.14,7.23,7.23,0,0,0-.2,1,8,8,0,0,0,2.48,6.51,7.08,7.08,0,0,0-2.09,2.59,8.43,8.43,0,0,0,2.35,10.25,1.89,1.89,0,0,0,.65.51,1.84,1.84,0,0,0,.52.23,8,8,0,0,0,2.88.62q-14.59,6.72-29,13.79a7.65,7.65,0,0,0-.53-5.07c-1.89-4-6.77-5.22-10.78-4.19s-8,4.89-7,9.33c.84,3.65,5.29,5.78,8.52,3.74a1.88,1.88,0,0,0-2-3.17c-2.15,1.36-3.13-1.87-2.37-3.43a6.31,6.31,0,0,1,5.58-3.13,4.72,4.72,0,0,1,4.61,2.56,3.69,3.69,0,0,1-1.24,4.65,1.68,1.68,0,0,0-.89,1.7q-7.32,3.63-14.61,7.35Zm51.49-44.84a1.93,1.93,0,0,0,.7.26,8.38,8.38,0,0,0,1.22.11,1.85,1.85,0,0,1,.34,2c-.36,1.11-1.44,2.11-2.53,1.24a2.39,2.39,0,0,1-.53-3.29A2.32,2.32,0,0,1,141.48,187.47Zm3.37-9.23a3.14,3.14,0,0,1-.2,5.85,5.18,5.18,0,0,0-1.35-.41,6,6,0,0,0-1.41-.06,2.28,2.28,0,0,0-.27-.39C139.72,181,141.9,177,144.85,178.24Zm-5-15.44a2.3,2.3,0,0,1,2.24.57c1.54,1.47,0,3.57-1.68,4.17a3.79,3.79,0,0,1-.94-4,1.59,1.59,0,0,0,.08-.51A1.53,1.53,0,0,1,139.86,162.8Zm-.18-7.5c.12-1.64,1.69-2.31,3.17-2.11,4.11.54,4.14,5.18,2.43,8.07a6.08,6.08,0,0,0-1.72-1.43,2,2,0,0,0-2-1.6C140.26,158.22,139.6,156.37,139.68,155.3ZM101.81,187a4.49,4.49,0,0,1,5.56,1.6,4,4,0,0,1-1.64,5.5c-2.34,1-4.41-1.37-4.39-3.54A1.49,1.49,0,0,0,99.81,189,4.53,4.53,0,0,1,101.81,187Zm-2.47-6.59a1.7,1.7,0,0,0-.52-.56c-2.33-1.7-.6-6.29,2.38-4.47a2.61,2.61,0,0,1,1,3.81A3.41,3.41,0,0,1,99.34,180.44ZM102.22,169c-1.72-.09-1.94-2-1.22-3.22a1.55,1.55,0,0,0,.2-1.4,2.77,2.77,0,0,1,2.81,2.08A1.88,1.88,0,0,1,102.22,169Zm10.14-11.13a4.29,4.29,0,0,0,.11,1,5.68,5.68,0,0,0-.54,2,4.5,4.5,0,0,1-3.11,1.57,1.86,1.86,0,0,0-1.78,1.43c-.07-.11-.14-.23-.22-.34,1.3-1,0-3.57-2.1-3.12-1,.23-.68-2-.57-2.37a7.7,7.7,0,0,1,1.74-2.85c.58-.59,1.59-1.48,2.51-1.25.44.11,1.46,1,1.08,1.49C108.08,157.39,110.93,159.62,112.36,157.9Zm-4.52,8a1.85,1.85,0,0,0,1,.21,8.69,8.69,0,0,0,4.28-1.42,5.21,5.21,0,0,0,.8.75,5.68,5.68,0,0,0,3.33,1.16,7.1,7.1,0,0,0-.82,2.92,10.05,10.05,0,0,0-8.4.92,7.81,7.81,0,0,0-3,3.37,7.07,7.07,0,0,0-1.35-1.26l0,0A5.66,5.66,0,0,0,107.84,165.91Zm1.58,9.76a1.82,1.82,0,0,0,.7-2,5.57,5.57,0,0,1,7.15.8c2.39,2.74-.1,4.83-2.9,5.38-1.54.31-3.62.36-4.78-.88C108.85,178.12,108.39,176.45,109.42,175.67Zm7.28-12.9a1.65,1.65,0,0,1-.83-.94,8.8,8.8,0,0,0,.78-1.74,1.78,1.78,0,0,0,.08-.67,2,2,0,0,0-.23-2.4,1.8,1.8,0,0,1,2.16,0,3.69,3.69,0,0,1,1.16,4.09A2.46,2.46,0,0,1,116.7,162.77Zm1.78,36.54a1.08,1.08,0,0,0-.18.11,3.58,3.58,0,0,1-1.25-.49c-1.39-.9-2.46-3.27-.8-4.46C119.55,192.12,121.87,197.74,118.48,199.31Zm164.45-25a2,2,0,0,0-2.6-1.59l-12,5a2,2,0,0,0-.76.55c-1.18-1-3.55-.45-3.27,1.43L266,191.64c.27,1.79.15,4.81,1.75,6.17,1.85,1.58,4.74.52,6.76.15l10.94-2c1.11-.2,2.23-1.22,1.69-2.48A52.45,52.45,0,0,1,282.93,174.34Zm-4.76,19.21c-1.25.23-6.24,1.85-7.39,1.24s-1.15-5.5-1.35-6.84c-.32-2.2-.64-4.39-1-6.59a1.83,1.83,0,0,0,1.18-.11l9.55-4a55.26,55.26,0,0,0,3.51,15.46Zm-72.52-30.92a134.67,134.67,0,0,0-24.87,26.05c-1.46,2,1.6,4.27,3,2.33a131.21,131.21,0,0,1,24.15-25.39C209.88,164.05,207.55,161.11,205.65,162.63ZM203,176.33a48,48,0,0,0-8.12,8.13c-1.53,2,1.49,4.28,3,2.39a43.65,43.65,0,0,1,7.38-7.5C207.15,177.8,204.88,174.82,203,176.33Z" transform="translate(-76.66 -131.41)"/></g></svg>