<svg xmlns="http://www.w3.org/2000/svg" viewBox="0 0 178.59 205.72"><defs><style>.cls-1{fill:#979797;}</style></defs><title>fruit-gray</title><g id="Logo_FIXED" data-name="Logo — FIXED"><path class="cls-1" d="M127.34,240.76c-1.36-.22-2.87,2.19-3.37,5.37s.2,5.93,1.56,6.14,2.87-2.19,3.37-5.37S128.7,241,127.34,240.76Z" transform="translate(-110.7 -97.14)"/><ellipse class="cls-1" cx="143.92" cy="258.02" rx="4.68" ry="2.92" transform="translate(-253.78 231.02) rotate(-74.58)"/><path class="cls-1" d="M160.59,266.38c-2,1.38-3.31,3.91-2.86,5.65s2.48,2,4.51.63,3.31-3.91,2.85-5.64S162.62,265,160.59,266.38Z" transform="translate(-110.7 -97.14)"/><path class="cls-1" d="M177.21,279.19c-2.37,2.18-3.53,4.77-2.59,5.79s3.61.06,6-2.12,3.52-4.77,2.59-5.79S179.58,277,177.21,279.19Z" transform="translate(-110.7 -97.14)"/><path class="cls-1" d="M139.72,199.62c-1.76-.66-4.42,2.14-5.94,6.25s-1.33,8,.43,8.62,4.42-2.15,5.94-6.26S141.48,200.27,139.72,199.62Z" transform="translate(-110.7 -97.14)"/><ellipse class="cls-1" cx="155.88" cy="219.73" rx="6.53" ry="3.39" transform="translate(-217.36 183.04) rotate(-67.61)"/><path class="cls-1" d="M179.07,230.08c.07-2.69-1.79-3.82-4.15-2.54a9.35,9.35,0,0,0-4.4,7.2c-.07,2.69,1.79,3.82,4.15,2.54A9.35,9.35,0,0,0,179.07,230.08Z" transform="translate(-110.7 -97.14)"/><path class="cls-1" d="M192.52,241.51c-2.66,2.25-4.29,5.68-3.63,7.66s3.34,1.76,6-.5,4.29-5.68,3.63-7.66S195.18,239.25,192.52,241.51Z" transform="translate(-110.7 -97.14)"/><path class="cls-1" d="M210.12,255.47c-3,3.22-4.24,6.87-2.86,8.14s4.9-.32,7.87-3.54,4.24-6.87,2.86-8.14S213.09,252.25,210.12,255.47Z" transform="translate(-110.7 -97.14)"/><path class="cls-1" d="M156,170.94c2-3.87,2.27-7.7.61-8.55S152,164,150,167.84s-2.26,7.7-.61,8.55S154.05,174.8,156,170.94Z" transform="translate(-110.7 -97.14)"/><path class="cls-1" d="M173.44,181.68c1.34-3.3,1-6-.81-6.13s-4.32,2.5-5.67,5.79-1,6,.81,6.13S172.1,185,173.44,181.68Z" transform="translate(-110.7 -97.14)"/><path class="cls-1" d="M188.61,188.71c-1.92.66-4,3.41-4.72,6.12s.3,4.38,2.22,3.72,4-3.42,4.73-6.13S190.53,188,188.61,188.71Z" transform="translate(-110.7 -97.14)"/><path class="cls-1" d="M204.59,201.86a9.32,9.32,0,0,0-3.78,6.47c0,2.14,1.59,2.72,3.64,1.29a9.31,9.31,0,0,0,3.79-6.46C208.28,201,206.64,200.44,204.59,201.86Z" transform="translate(-110.7 -97.14)"/><path class="cls-1" d="M220.57,215c-2.18,2.19-3.45,5.24-2.84,6.81s2.88,1.06,5.06-1.13,3.46-5.24,2.84-6.8S222.76,212.83,220.57,215Z" transform="translate(-110.7 -97.14)"/><path class="cls-1" d="M236.55,228.18c-2.31,2.95-3.16,6.15-1.9,7.14s4.17-.59,6.48-3.55,3.17-6.14,1.9-7.13S238.87,225.23,236.55,228.18Z" transform="translate(-110.7 -97.14)"/><path class="cls-1" d="M287.05,99.82c-.35-2.52-4.54-3-5.56-.72-8.7,19.47-35.36,13.1-50.6,23.8a32.61,32.61,0,0,0-4.46,3.78c-.65-1.07-1.34-2.12-2.09-3.14-11.77-15.9-31.14-22.23-49.66-26.32a3.06,3.06,0,0,0-2.34,5.57c11.85,7.44,15.82,20.1,19.57,33a75.93,75.93,0,0,0-12.39.75,71.08,71.08,0,0,0-47.73,28.72c-13.08,18-20.47,37.63-20.81,55.16,0,.77,0,1.71-.08,2.79-.47,15.76-1.71,57.62,18.36,72.16,7.57,5.49,17.06,7.49,26.78,7.49,18.76,0,38.41-7.47,47-11.86,12.57-6.44,35.67-20,49.1-38.55,17.08-23.57,17.49-54.32,3.63-78.57,8.46-1.83,16.25-5.71,22.42-13C292.6,143.92,289.87,120.24,287.05,99.82ZM184.64,106c10.81,3.08,21.22,7.48,29.57,15.29a39.92,39.92,0,0,1,8.06,10.53A34.66,34.66,0,0,0,218,141.1a74.54,74.54,0,0,0-21-5C193.89,125.46,191.19,114.51,184.64,106Zm32.18,62a3,3,0,0,0-1.1-1.21c-8.38-5.37-12.78-13.36-16-22.17a66.41,66.41,0,0,1,16.79,4.74,39.53,39.53,0,0,0,.56,9.51c.7,3.85,6.58,2.22,5.87-1.62a31.74,31.74,0,0,1-.46-4.94c1,.54,2,1.07,2.92,1.66a29.45,29.45,0,0,1-3.63,8.71c-2.07,3.35,3.2,6.41,5.26,3.08a34.85,34.85,0,0,0,3.7-8.13,67.31,67.31,0,0,1,12,11.64,137.76,137.76,0,0,1-23.28-2.09A3.1,3.1,0,0,0,216.82,168Zm6.7-24.37a29,29,0,0,1,1.63-4.49,31.68,31.68,0,0,1,1,5.85C225.28,144.49,224.4,144,223.52,143.6Zm22,104.08c-12.9,17.8-36.62,31.17-46.23,36.09-13.79,7.08-47.9,17.61-65.28,5-16.58-12-15.39-52.15-15-65.34,0-1.11.06-2.08.08-2.87.31-15.89,7.15-33.84,19.26-50.55a63,63,0,0,1,42.33-25.45,66.35,66.35,0,0,1,9.62-.7c1.36,0,2.7.08,4.05.16,3.44,11,7.92,21.33,18.29,28a2.63,2.63,0,0,0,3.33-.21,2.45,2.45,0,0,0,1.89,1.22c9.29,1.45,19.41,2.72,29.11,2.06C261,197.05,261.35,225.85,245.53,247.68Zm29.66-92.83c-5.84,8.1-14,12-22.91,13.53a75.72,75.72,0,0,0-17.83-18.19c-.7-.51-1.42-1-2.14-1.47a37.94,37.94,0,0,0-2.92-16.22c.39-.45.74-.93,1.16-1.35,7.29-7.47,17.59-8.77,27.29-10.71,9.11-1.82,18.23-4.74,24.34-11.36C284.08,124.72,284.71,141.64,275.19,154.85Z" transform="translate(-110.7 -97.14)"/></g></svg>