<svg xmlns="http://www.w3.org/2000/svg" viewBox="0 0 194.46 120.37"><defs><style>.cls-1{fill:#979797;}</style></defs><title>mexican-gray</title><g id="Logo_FIXED" data-name="Logo — FIXED"><path class="cls-1" d="M295.14,222.46c1.41-5.08,3-10.9,1.47-16.17s-6-8.31-7.74-13.26c-2.74-7.62-7.05-13.18-15.22-13.68a15.63,15.63,0,0,0-12.79-15.87,13.7,13.7,0,0,0-16-11.51,19,19,0,0,0-24.21-6.2,11.94,11.94,0,0,0-5.61-5c-5.86-2.54-10,.67-15.63,1.88-6,1.28-11.53-.7-17.35,2.22a19.4,19.4,0,0,0-8.1,7.6c-7.52-5.31-17.38-2.34-22,5.91-1.57,2.81-3,6.39-5.49,8.54-1.74,1.5-4.48,2.12-6.35,3.56a17.73,17.73,0,0,0-4.3,4.83,19,19,0,0,0-1.71,3.67,2.37,2.37,0,0,0-1.62.84,170.85,170.85,0,0,0-22.75,34c-5.1,10-9.84,22.49-4.91,33.49,3.14,7,10.47,13.05,18.43,12.86a15,15,0,0,0,9.55-3.69,2.57,2.57,0,0,0,1.37.38h138c7.81,1.55,15.41-2.27,19.3-9.54,3.74-7,3.7-15.41,2.22-23.33A2.18,2.18,0,0,0,295.14,222.46ZM108,233.57c2.06-16.68,14.19-33.84,25.16-47a20.31,20.31,0,0,0,.81,4.18,12.88,12.88,0,0,0-4,15.87c-6,3.58-8.83,11.16-6,17.59a8.64,8.64,0,0,0-5.67,6c-2.69,9,7.67,15.77,7.57,24.49,0,.08,0,.16,0,.24C114.41,259.24,106.87,243,108,233.57Zm22.7,18.24a17.48,17.48,0,0,0-1.53-5.42,47.67,47.67,0,0,0-2.83-5c-1.41-2.33-8.87-14.37,1-13,1.71.23,4.4-1.56,2.84-3.5-4-5-2.58-12.81,3.91-15,1.36-.45,2.5-2.1,1.5-3.49-3.13-4.37-2.36-9.88,2.58-12.7a2.35,2.35,0,0,0,1.16-2.68c-1.84-4.71-1.75-10,1.36-14.23,2.81-3.83,7.6-4.53,10.89-7.65,1.82-1.73,2.65-4,3.77-6.14,3.6-7,10.44-12.58,17.56-5,1.38,1.46,3.5.52,4.19-1,4.48-10.16,11.64-8.47,20.56-8.87,6.86-.31,15.38-8.49,19.52,1.73.53,1.33,2.29,2.42,3.67,1.43a13.84,13.84,0,0,1,20.61,4.67,2.57,2.57,0,0,0,2.83,1.1,8.72,8.72,0,0,1,11.7,8.49,2.5,2.5,0,0,0,2.5,2.39,10.83,10.83,0,0,1,10.09,12.61,79.8,79.8,0,0,0-23.55-14.41c-24.63-9.63-53.66-7.27-76.91,5.12-24.12,12.87-28.42,36.57-31.07,61.58C136.4,239.13,135.43,247.08,130.73,251.81Zm143.2.62a2.65,2.65,0,0,0-1.27-.32l-.51-.14a2.6,2.6,0,0,0-2,.14H136.63A28.19,28.19,0,0,0,139.9,245c3.4-11,2.64-23,5.16-34.3,3.44-15.45,11.31-27.74,25.49-35.32,25.67-13.74,59.28-14.57,84.37,1a75.13,75.13,0,0,1,28.77,32.39,64.77,64.77,0,0,1,5.63,20.45C290.23,238.59,286.6,255.06,273.93,252.43Zm17.77-36.6c-.09-.31-.18-.62-.28-.92a76.11,76.11,0,0,0-19-30.81,11.5,11.5,0,0,1,11.17,8.13c.78,2.2.68,4.5,1.83,6.61,1.82,3.35,5.12,4.66,6.33,8.71A16.83,16.83,0,0,1,291.7,215.83Z" transform="translate(-102.77 -139.82)"/><path class="cls-1" d="M226.86,182.5c2-2.47-1.69-5.63-3.65-3.25a453,453,0,0,1-59.64,59.89c-2.47,2.05,1.31,5.19,3.65,3.25A453,453,0,0,0,226.86,182.5Z" transform="translate(-102.77 -139.82)"/><path class="cls-1" d="M241.5,190.73c-14.44,15-28.3,32.63-45.46,44.62-2.63,1.84,0,5.9,2.53,4.11,17.56-12.27,31.7-30,46.47-45.37C247.27,191.77,243.63,188.5,241.5,190.73Z" transform="translate(-102.77 -139.82)"/><path class="cls-1" d="M255.19,203.62a326.83,326.83,0,0,0-23.87,29.65c-1.85,2.58,2.6,4.8,4.36,2.33a318,318,0,0,1,23.11-28.67C260.94,204.56,257.26,201.34,255.19,203.62Z" transform="translate(-102.77 -139.82)"/><path class="cls-1" d="M267.43,220.13l-14.18,15.06c-2.2,2.34,1.56,5.48,3.67,3.24q7.08-7.53,14.17-15.07C273.3,221,269.54,217.88,267.43,220.13Z" transform="translate(-102.77 -139.82)"/><path class="cls-1" d="M170.89,218.4q17.27-14.44,34.68-28.71c2.48-2-1.28-5.2-3.63-3.28q-17.41,14.26-34.69,28.72C164.79,217.19,168.55,220.36,170.89,218.4Z" transform="translate(-102.77 -139.82)"/></g></svg>