<svg xmlns="http://www.w3.org/2000/svg" viewBox="0 0 203.65 200.88"><defs><style>.cls-1{fill:#979797;}</style></defs><title>nutrition-gray</title><g id="Logo_FIXED" data-name="Logo — FIXED"><path class="cls-1" d="M244.31,194.45c.05-1.61-2.05-2-3-1.08a32.36,32.36,0,0,0-8.92,13q-3.63-5.47-6.81-11.21c-.76-1.37-2.77-.77-3.2.5a24.67,24.67,0,0,1-4.27,7.81,55.34,55.34,0,0,1-3.32-12.32c-.27-1.78-3-2.3-3.47-.33L203,225.15q-6.33-30.65-12.68-61.29c-.28-1.39-2.66-1.56-3.22-.29q-9.6,21.93-17.1,44.66a31.65,31.65,0,0,1-3.72-17.93c.14-1.8-2.52-2-3.3-.73l-10.51,17.09c-1.17,1.9,2,3.4,3.09,1.58l7.23-11.76a34.52,34.52,0,0,0,6.2,16.77,1.82,1.82,0,0,0,3.2-.5q7-21.67,15.86-42.63,6.57,31.77,13.15,63.55c.35,1.68,3,1.4,3.39-.12q4.14-17.25,8.29-34.5a58.54,58.54,0,0,0,2.93,8.09,1.81,1.81,0,0,0,3,.64A28.92,28.92,0,0,0,224.3,200q3.33,5.73,7.12,11.18a1.81,1.81,0,0,0,3.2-.5,29,29,0,0,1,6.28-12,31.4,31.4,0,0,0,1.84,8.19c.73,2,4.11,1.07,3.36-1A29.33,29.33,0,0,1,244.31,194.45Z" transform="translate(-98.18 -99.56)"/><path class="cls-1" d="M292.62,112.54C280.27,97,257.82,97.1,240.76,104s-33.15,20.7-40.2,37.69c-7.28-17-24.34-30.82-41.32-37.69s-39.51-7-51.86,8.54c-11.94,15-11.08,35.55-4.14,52.46,9.88,24,27.74,45.53,42.69,66.55q23.37,32.85,48,64.74a2.48,2.48,0,0,0,1,1.3c.43.56.86,1.13,1.3,1.69.79,1,2.7,1.66,3.73.64,1,1,2.94.39,3.73-.64.44-.56.87-1.13,1.3-1.69a2.48,2.48,0,0,0,1-1.3q24.63-31.91,48-64.74C269,210.53,286.88,189,296.76,165,303.7,148.09,304.56,127.54,292.62,112.54Zm2.67,42.05c-3.51,13.17-11,24.81-18.5,36-7.92,11.77-16,23.41-24.23,35q-24.28,34.3-50,67.56a6.57,6.57,0,0,0-2.57.32,6.57,6.57,0,0,0-2.57-.32q-25.67-33.28-50-67.56c-8.2-11.58-16.31-23.22-24.23-35-7.53-11.19-15-22.83-18.5-36-3.14-11.76-2.52-24.8,3.81-35.46,7.37-12.42,21.26-16.38,35-14.62,23.89,3,48.39,21.6,54.56,44.64l-.06.26a2.54,2.54,0,1,0,5.06,0c0-.09-.05-.17-.07-.26,6.13-23,29.5-41.59,53.39-44.64,13.78-1.76,27.67,2.2,35,14.62C297.81,129.79,298.43,142.83,295.29,154.59Z" transform="translate(-98.18 -99.56)"/></g></svg>