<svg xmlns="http://www.w3.org/2000/svg" viewBox="0 0 248.68 114.15"><defs><style>.cls-1{fill:#979797;}</style></defs><title>nuts-gray</title><g id="Logo_FIXED" data-name="Logo — FIXED"><path class="cls-1" d="M293.35,219.34a39.06,39.06,0,0,0,4.41-11.68,46.5,46.5,0,0,1,4.77,2.21c2.08,1.12,4-2,1.8-3.18a50.08,50.08,0,0,0-6.18-2.79,20.3,20.3,0,0,0-.28-4c-.4-2.26-4-1.26-3.63,1.06a15.87,15.87,0,0,1,.18,1.69,47.41,47.41,0,0,0-15.27-1.75c-.62-1.41-3.2-1.54-3.6.3a50.14,50.14,0,0,0-7.17,1.4c-2.37.64-1.18,4.07,1.13,3.44a47.76,47.76,0,0,1,5.18-1.09,51,51,0,0,1-3.85,10.36l-.69-.42a48.1,48.1,0,0,0-11.85-5.35c-10.2-3.08-21-3.32-31.63-4a54,54,0,0,0,4.15-8.63c1.8.31,3.15-2.32,1.22-3.38-.12-.07-.24-.12-.35-.19a1.8,1.8,0,0,0-1.78-.93,83.28,83.28,0,0,0-22.28-7.73,21.94,21.94,0,0,0,.35-2.51c.16-2.36-3.6-2.83-3.76-.52a18.05,18.05,0,0,1-.33,2.39,83.79,83.79,0,0,0-20.71-.42c-2.39.25-2.31,3.86.12,3.61a80.94,80.94,0,0,1,19.63.33,57,57,0,0,1-6.09,11.71c-1-.5-2.05-1-3.06-1.6-2.05-1.17-3.81,2-1.69,3.24.89.51,1.79,1,2.7,1.43-.47.7-.94,1.38-1.39,2-1.35,2-2.8,3.86-4.32,5.68a94,94,0,0,1-25.28-11.25c-1.92-1.26-4.58,1.35-2.55,2.69a95.55,95.55,0,0,0,25.31,11.41,62.71,62.71,0,0,1-9.4,8.24,1.78,1.78,0,0,0-.59.68,76.44,76.44,0,0,1-14.43-7.12c-2-1.26-3.94,1.84-1.87,3.14a77.66,77.66,0,0,0,31.79,11.48c2.35.3,3.4-3.18,1-3.5a76.62,76.62,0,0,1-12.46-2.66,66.61,66.61,0,0,0,9.92-9.12c6.93,1.92,14,3.42,21.07,4.9q-2.07,2.22-4.17,4.4c-1.69,1.76,1.32,4,2.93,2.27,1.84-1.91,3.67-3.84,5.44-5.8,1.88.4,3.76.79,5.63,1.2,12.58,2.76,25.21,5.3,37.9,7.44a29.81,29.81,0,0,1-5.47,2.76,1.81,1.81,0,1,0,1.24,3.4,33.32,33.32,0,0,0,9.3-5.34q8.28,1.32,16.62,2.35c.09,1.4,2.56,2.22,3.67.72l.18-.25q4.28.48,8.55.89c2.35.22,3.26-3.3.82-3.53s-4.62-.46-6.92-.71c1.4-1.95,2.81-4,4.14-6.13l.53.07c6.16,1.11,11.74,3.63,16,8.27,1.54,1.67,4.77-.29,3.14-2.05A32.06,32.06,0,0,0,293.35,219.34Zm-86.64-31.11a79,79,0,0,1,20.74,7.05,49.27,49.27,0,0,1-4.9,10c-7.65-.63-15.18-1.72-22.32-4.51A59.11,59.11,0,0,0,206.71,188.23ZM214.3,216c-7.12-1.41-14.32-2.89-21.36-4.79q2.42-3,4.55-6.24l.7-1.06c7.07,2.84,14.52,4,22.08,4.73C218.42,211.17,216.4,213.61,214.3,216Zm48.93,9.5c-12.12-2-24.17-4.32-36.18-6.9-2.84-.61-5.71-1.19-8.61-1.77A90.61,90.61,0,0,0,224.5,209c8.61.62,17.33.87,25.77,2.42a51.64,51.64,0,0,1,15.36,5.1c1.18.64,2.28,1.36,3.38,2.07A33.38,33.38,0,0,1,263.23,225.48Zm19.84,2.81q-7.69-.93-15.35-2.1a38.66,38.66,0,0,0,4.47-5.71,14.09,14.09,0,0,0,4.79,1.64c3.41.46,6.85.15,10.29.2C285.88,224.44,284.43,226.44,283.07,228.29Zm6.41-9.54c-.75-.08-1.51-.16-2.28-.2-2-.13-4,0-6-.06a17.48,17.48,0,0,1-7.05-1.4,54.67,54.67,0,0,0,4.57-12.53,43.37,43.37,0,0,1,15.56,1.85A35.34,35.34,0,0,1,289.48,218.75Zm34.46-9c-1.85-12-8.9-17.87-20.78-18.53a244.37,244.37,0,0,0-26.24.26c-9.28.49-19.59,3.17-27.75-2.63a45,45,0,0,1-4.79-4c7.77-5.24,9.37-16.09,7.66-24.84a33.86,33.86,0,0,0-18.9-23.89c-10.22-4.82-21.69-4.55-32.12-.51a72.7,72.7,0,0,0-16,9c-5.07,3.66-9.46,8.56-14.64,12-6.47,4.28-16.43-1.29-23.45-2.21a66.14,66.14,0,0,0-19.16.31A64.13,64.13,0,0,0,95.5,170c-13.66,12.12-30.56,40.44-10.88,54.88s49.1,8.68,66.51-6.51c3.81,6.55,10,12.19,15.71,15.83,6.89,4.42,14.65,5.59,22.69,5.8,12.46.32,24.95.5,37.35,1.88,12,1.34,23.68,5.13,35.8,4.67,10.84-.4,21.33-3.48,32.31-2.28,6.06.66,11.86,1.65,17.16-2.14C321.77,235.29,325.67,220.92,323.94,209.72ZM148.8,214.89a4.93,4.93,0,0,1-1.81,2.22,55.8,55.8,0,0,1-42.63,11.62,41.38,41.38,0,0,1-8.54-2.19c-5.7-2.18-10.75-5.77-13.47-11.13-4.38-8.6-1.54-19.21,3.38-27.51,12.77-21.54,40-34.06,64.61-28.78,4.25.91,8.43,2.28,12.77,2.48,7,.33,11.08-3.56,16-7.74,8.51-7.16,18-14.18,29-16.79,13.74-3.26,30.06,3.84,37.44,15.82,3.64,5.91,4.93,12.66,2.89,19.37-4.38,14.4-12.64,5.1-21.45-.75l7.51.65c1.26.11,2.9,0,3.25-1.24.47-1.61-1.85-2.45-3.53-2.49l-15.19-.37a36.17,36.17,0,0,0,.55-14.43c1.93-.51,4.37,1.8,5.69.3,1.12-1.27-.67-3.14-2.33-3.48s-3.73-.37-4.53-1.87c-.49-.9-.35-2.17-1.16-2.82-1.5-1.2-3.24,1.44-2.93,3.34a28.16,28.16,0,0,0-22.13,10.12c-6.17,7.5,5.81-.44,7.41-1.61a30.14,30.14,0,0,1,0,11.44,1.92,1.92,0,0,0,0,.47A83.37,83.37,0,0,0,183,174.24a1.6,1.6,0,0,0-1.33-1.29c-10.19-2.32-21.32,1.49-31,4.46-1.39.43-2.82,1-4.27,1.5a82.6,82.6,0,0,0-1.39-10,71,71,0,0,1,8.71.5c2.35.27,3.3-3.23.87-3.52a80.44,80.44,0,0,0-10.37-.54c-.16-.66-.32-1.33-.5-2-.59-2.22-4.14-.9-3.53,1.37.07.24.13.49.19.74a77.71,77.71,0,0,0-8.77,1,28.9,28.9,0,0,0-1.11-4.22c-.77-2.18-4.32-.85-3.53,1.38a23.32,23.32,0,0,1,1,3.6A77.11,77.11,0,0,0,104,177.22c-2.07,1.31,0,4.3,2,3a74,74,0,0,1,22.25-9.37,35.34,35.34,0,0,1-.65,8.18,26.94,26.94,0,0,1-3.12,7.69,25.46,25.46,0,0,1-10.39.12c-2.34-.51-3.39,3-1,3.49a26.05,26.05,0,0,0,9.46.24l-.21.46c-1.37,3.27-2.27,6.73-3.34,10.09-8.93,1.41-17.76,1.47-26.21-2.74-2.1-1-4.14,2-1.94,3.1,8.85,4.41,17.84,4.54,26.88,3.25-1.76,4.49-5.29,7.53-7.2,11.68-3.91-.3-7.86-2.19-11.66-3.57a2.51,2.51,0,0,0-1.42-.23c-1,.22-1.39,1.66-.89,2.59a4.68,4.68,0,0,0,2.49,1.87A33.28,33.28,0,0,0,130.3,214c-.18-1.68-2.61-1.7-4.24-1.23l-10.55,3.09c3.76-2.83,3.54-9.16,7.51-11.67a11.68,11.68,0,0,1,4.1-1.32l12.65-2.39c.34,1.65-1.18,3-2.16,4.39s-.93,4,.76,4.06a2.18,2.18,0,0,0,1.34-.5c1.9-1.41,2.41-4,3.41-6.11s3.42-4.17,5.52-3.09a19.6,19.6,0,0,0-.29,12.3A5.86,5.86,0,0,1,148.8,214.89Zm54.25-59.4a23.28,23.28,0,0,1,12.49-2.82c1.17,5.51,1.58,11.09-1.08,16.29a54.57,54.57,0,0,0-10.92.06A33.31,33.31,0,0,0,203.05,155.49Zm-71,14.6a73.76,73.76,0,0,1,9.17-1.07,78.34,78.34,0,0,1,1.56,11.33c-4.41,1.83-9,3.85-13.61,5.25a27.57,27.57,0,0,0,2.71-9.22A39.17,39.17,0,0,0,132,170.09ZM142.54,184l.35-.13a48,48,0,0,1-1.43,12.66c-6.08,1.13-12.25,2.76-18.39,4a73.24,73.24,0,0,1,3.72-10l.42-.86C132.39,188.16,137.42,185.82,142.54,184Zm8.23,11.33a1.36,1.36,0,0,0-.35,0c-1.65.11-3.32.31-5,.55a55.31,55.31,0,0,0,1.15-13.36c9.88-3.65,21.86-7.84,32-6.42-.95.41-1.88.84-2.81,1.27C166.84,181.46,156.15,186.54,150.77,195.29ZM312.2,237.17c-6.48,6.6-14.61,3.26-22.67,3.15-7.76-.11-15.35,1.7-23,2.44-18.55,1.77-35.25-7.08-53.32-6.42-11.88.43-23.83,1.74-35.49-1.27-8.53-2.2-19.2-10.19-23.92-19.4a1.82,1.82,0,0,0-.93-2,18.9,18.9,0,0,1-1.51-7.74c.49-14.18,17.07-21.4,28.16-26.3,12.17-5.39,25.61-9.08,38.94-6.42a37.79,37.79,0,0,1,16.89,8c12,10,18,15.25,34.69,14.5l26.63-1.2C321.3,193.39,328.8,220.29,312.2,237.17Z" transform="translate(-75.66 -132.48)"/></g></svg>