<svg xmlns="http://www.w3.org/2000/svg" viewBox="0 0 211.23 157.16"><defs><style>.cls-1{fill:#979797;}</style></defs><title>nuts-gray</title><g id="Logo_FIXED" data-name="Logo — FIXED"><path class="cls-1" d="M204.33,197.26l.11,0,.59,0a1.56,1.56,0,0,0,1.65-1c11.17-6,8.24-25.46,7-35.6-1.79-15-4.66-33.94-21.66-38.36-13.28-3.45-31.87,3.5-40.13,14.45-9,11.92-2.25,28,6.35,38a66.16,66.16,0,0,0,44.59,22.37A1.63,1.63,0,0,0,204.33,197.26Zm-41.56-22.95c-5.27-5.6-9.68-12.52-11-20.21-1.78-10.29,3.62-17.64,12.21-22.6,7.39-4.26,15.94-7.56,24.6-6.25,10.58,1.6,15.77,9.32,18.36,19.06a124.4,124.4,0,0,1,3.9,26.87c.28,7,1.17,19.33-7,22.46A62.64,62.64,0,0,1,162.77,174.31Z" transform="translate(-94.38 -121.42)"/><path class="cls-1" d="M188.74,177.83c-2.39,0-2,3.52.36,3.52S191.1,177.83,188.74,177.83Z" transform="translate(-94.38 -121.42)"/><path class="cls-1" d="M202.52,177.82c-2.39,0-2.26,3.54.12,3.54S204.9,177.82,202.52,177.82Z" transform="translate(-94.38 -121.42)"/><path class="cls-1" d="M193.71,182.79c-2.38,0-2,3.53.35,3.53S196.07,182.79,193.71,182.79Z" transform="translate(-94.38 -121.42)"/><path class="cls-1" d="M119.05,179.51c-14.88,1.21-22.37,16.91-24.12,30a66.17,66.17,0,0,0,13,48.18,1.71,1.71,0,0,0,.86,1.21l.1.05c.12.16.23.32.36.47a1.57,1.57,0,0,0,1.84.57c11.9,4.36,24.49-10.78,31.25-18.43,10-11.3,22.25-26.06,14.23-41.69C150.27,187.65,132.73,178.39,119.05,179.51Zm31,46.09a124.47,124.47,0,0,1-17.47,20.79c-5.06,4.89-13.65,13.73-21.41,9.72a62.62,62.62,0,0,1-12.89-43.52c.67-7.66,2.9-15.56,7.76-21.67,6.49-8.17,15.58-9,25-5.91,8.1,2.68,16.25,6.87,21,14.2C157.87,208.18,155.56,217.19,150,225.6Z" transform="translate(-94.38 -121.42)"/><path class="cls-1" d="M211.37,207.74c-13.72-.15-30.09,11.07-35.48,23.69-5.85,13.73,4.55,27.67,15.31,35.31a66.12,66.12,0,0,0,48.66,11,1.65,1.65,0,0,0,1.47-.19l.1-.07.58-.1a1.55,1.55,0,0,0,1.36-1.36c9.41-8.5,1.87-26.69-1.74-36.24C236.28,225.66,228.94,207.94,211.37,207.74ZM240,274.13a62.67,62.67,0,0,1-44.52-8.87c-6.47-4.17-12.41-9.82-15.55-17-4.21-9.55-.74-18,6.41-24.86,6.15-5.93,13.65-11.18,22.36-12,10.66-1,17.56,5.25,22.42,14.08a125,125,0,0,1,10.25,25.14C243.33,257.41,247.15,269.13,240,274.13Z" transform="translate(-94.38 -121.42)"/><path class="cls-1" d="M305.59,157.59c-.58-13.72-12.65-29.46-25.54-34.17-14-5.12-27.39,6-34.44,17.16a66.15,66.15,0,0,0-8.38,49.18,1.67,1.67,0,0,0,.27,1.46l.07.09c.05.19.08.39.13.58a1.55,1.55,0,0,0,1.43,1.28c9,8.94,26.76.45,36.1-3.67C289,183.42,306.33,175.14,305.59,157.59ZM288.9,178.24a125.15,125.15,0,0,1-24.55,11.58c-6.66,2.32-18.15,6.76-23.52-.12a62.62,62.62,0,0,1,6.48-44.93c3.82-6.68,9.15-12.91,16.11-16.43,9.32-4.71,17.93-1.7,25.18,5.07,6.24,5.83,11.89,13,13.16,21.7C303.32,165.7,297.46,172.92,288.9,178.24Z" transform="translate(-94.38 -121.42)"/></g></svg>