<svg xmlns="http://www.w3.org/2000/svg" viewBox="0 0 157.31 246.29"><defs><style>.cls-1{fill:#979797;}</style></defs><title>packaged-goods-gray</title><g id="Logo_FIXED" data-name="Logo — FIXED"><path class="cls-1" d="M279.5,107.49c0-.93-6.52-3.76-8-5.44a123.32,123.32,0,0,1-9.38-11.76c-1.52-2.27-4-10.68-6-11.87a3.7,3.7,0,0,0-2-.37c-35.25.18-70.51,0-105.76,0-3.59,0-7.06-1-10.47,3.85a260,260,0,0,0-14.51,22.91,6.45,6.45,0,0,0-1,2.63,7.67,7.67,0,0,0,.43,2.49c2.86,10.44.68,24.57.68,35.42V243.9c0,.1.09.89,0,1l-.54.38a2,2,0,0,0,.54,3.43v74a1.49,1.49,0,0,0,1.42,1.56,2.13,2.13,0,0,0,.53.07h152a1.89,1.89,0,0,0,1.41-3.16,1.67,1.67,0,0,0,.56-1.31ZM252,81.81h1.85a126.29,126.29,0,0,0,15.92,24.13q-9.45-.12-18.92-.18A154.6,154.6,0,0,0,252,81.81Zm-103.58,0h99.66a150.5,150.5,0,0,1-1.18,23.92q-49.25-.28-98.48,1Zm-5.6,1.62a1.58,1.58,0,0,0,.14-1.62h1.55v25q-9.13.25-18.27.56Q134.88,95.65,142.82,83.43ZM127.88,212.78a6.71,6.71,0,0,1,3.36-2.39c15.1-6.47,31.53-11.61,47.76-9.08,13.55,2.11,25.82,9.42,39.31,11.93,18.09,3.38,36.84-2.23,53-11,5.31-2.89,1.6-5-2.43-4-4.49,1.13-8.13,5.42-12.47,7.12a72.59,72.59,0,0,1-21.76,4.83c-14.37.92-26.64-3.29-39.72-8.61-21.88-8.9-47-3.87-67.49,6.69V111.08q59.58-2,119.21-1.63c.61,1.4,3,1.57,3.63,0q11.37.07,22.75.23l.45.52a1.65,1.65,0,0,0,2.08.37c-1.94,1,0,25.63,0,28.78v30.14q0,29.07.12,58.13c.06,13.63-30.21,20-40.55,21.18a80.56,80.56,0,0,1-31.87-2.74c-10.17-3-18.89-8.9-29.28-11.38a62.35,62.35,0,0,0-46.46,7.36l-.23-25.89a6.64,6.64,0,0,1,.55-3.34Zm-.43,107.78V246.75A59.29,59.29,0,0,1,167.76,237c14.35,1.82,26,10.74,39.83,14.26a79.07,79.07,0,0,0,68-14.75v83.25a1.94,1.94,0,0,0,.16.78Z" transform="translate(-122.19 -78)"/></g></svg>