<svg xmlns="http://www.w3.org/2000/svg" viewBox="0 0 134.75 210.96"><defs><style>.cls-1{fill:#979797;}</style></defs><title>packaged-goods-gray</title><g id="Logo_FIXED" data-name="Logo — FIXED"><path class="cls-1" d="M267.37,119.78c0-.8-5.58-3.22-6.83-4.66a105.19,105.19,0,0,1-8-10.08c-1.31-1.94-3.47-9.14-5.14-10.17a3.23,3.23,0,0,0-1.72-.31c-30.19.15-60.39,0-90.58,0-3.08,0-6.05-.82-9,3.31a223.65,223.65,0,0,0-12.43,19.62,5.67,5.67,0,0,0-.85,2.25,6.54,6.54,0,0,0,.37,2.13c2.45,9,.58,21,.58,30.34v84.39c0,.09.08.77,0,.82l-.46.33a1.67,1.67,0,0,0,.46,2.93v63.38a1.28,1.28,0,0,0,1.22,1.34,1.63,1.63,0,0,0,.45.06H265.69a1.61,1.61,0,0,0,1.2-2.71,1.41,1.41,0,0,0,.48-1.11Zm-23.55-22h1.58A107.82,107.82,0,0,0,259,118.45q-8.1-.11-16.21-.16A133.84,133.84,0,0,0,243.82,97.78Zm-88.73,0h85.37a128.66,128.66,0,0,1-1,20.49q-42.18-.26-84.36.85Zm-4.79,1.39a1.34,1.34,0,0,0,.12-1.39h1.33v21.43q-7.83.21-15.66.47Q143.5,109.64,150.3,99.17Zm108,98.3c-3.85,1-7,4.65-10.69,6.1A62.14,62.14,0,0,1,229,207.71c-12.31.79-22.81-2.82-34-7.37-18.74-7.63-40.23-3.32-57.81,5.73V122.85q51-1.69,102.11-1.39a1.75,1.75,0,0,0,3.11,0q9.75.07,19.49.2c.13.15.25.3.39.44a1.39,1.39,0,0,0,1.77.32c-1.66.86,0,21.95,0,24.65v25.83q0,24.89.1,49.78c.05,11.68-25.88,17.15-34.73,18.15a69.18,69.18,0,0,1-27.3-2.35c-8.71-2.59-16.18-7.62-25.09-9.75a53.41,53.41,0,0,0-39.79,6.31q-.1-11.09-.2-22.18a5.65,5.65,0,0,1,.48-2.86l0,0a5.66,5.66,0,0,1,2.88-2.05c12.93-5.54,27-9.95,40.91-7.78,11.61,1.81,22.12,8.07,33.67,10.22,15.5,2.89,31.56-1.91,45.4-9.46C264.91,198.43,261.74,196.61,258.29,197.47ZM137.13,302.28V239.06a50.85,50.85,0,0,1,34.53-8.33c12.29,1.56,22.27,9.2,34.12,12.22A67.73,67.73,0,0,0,264,230.31v71.31a1.69,1.69,0,0,0,.14.66Z" transform="translate(-132.63 -94.52)"/></g></svg>