<svg xmlns="http://www.w3.org/2000/svg" viewBox="0 0 194 156.35"><defs><style>.cls-1{fill:#979797;}</style></defs><title>pasta-gray</title><g id="Logo_FIXED" data-name="Logo — FIXED"><path class="cls-1" d="M294,208.77a9.69,9.69,0,0,1-2.11-3c-.93-2.47.67-4.73,2.21-6.92.48-.68.93-1.31,1.31-2,2.31-4,2.17-7.42-.43-10.92a19.7,19.7,0,0,0-1.48-1.7c-1.26-1.35-2.56-2.74-2.71-4.32s.68-2.78,1.53-4.16a9.75,9.75,0,0,0,1.66-3.76,5.58,5.58,0,0,0-1.57-4.73,9.33,9.33,0,0,0-1.56-1.27l-.4-.29c-2-1.46-2.13-3.19-1.63-6.07.82-4.82.63-8.3-2.78-11.79-7.85-8-22.33-6.57-32.34-2.88-12.29,4.52-22,13.59-30.71,22.72-.93,1-1.86,2.06-2.86,3.21-4.32,5-9.24,10.71-15.7,9.67-7.76-1.26-12.07-8.64-15.51-15.47-2.31-4.59-4.61-9.27-6.85-13.81l-1.2-2.44a1.76,1.76,0,0,0-.3-1.39c-.42-.62-.85-1.23-1.25-1.75l-.47-1a1.85,1.85,0,0,0-.94-.89,59.18,59.18,0,0,0-24.76-18.34c-5.32-2.06-21.49-8.35-26.07,2.15a19.83,19.83,0,0,0-1.11,3.84,15.45,15.45,0,0,1-1.35,4.3c-1.1,2-3,2.8-4.94,3.64a23,23,0,0,0-2.61,1.25c-4.19,2.44-4.07,6-4,9.84,0,.75,0,1.53,0,2.32,0,3.68-1.36,5.68-3.19,8.45-.31.46-.62.94-1,1.45a10.34,10.34,0,0,0-1.61,6.6,26,26,0,0,0,.54,3.55,18.29,18.29,0,0,1,.51,4.77c-.13,2.15-1.2,3.73-2.34,5.41A16.44,16.44,0,0,0,104,187a7.85,7.85,0,0,0-.1,5,27.53,27.53,0,0,0,1,2.71c1,2.44,1.74,4.37.08,7.22-2.9,5-2.34,7.52.71,12.14,2.77,4.2,1.62,7.15-.15,11.67a7.44,7.44,0,0,0-.24,6,9.23,9.23,0,0,0,3.26,3.39l.6.44c3.07,2.31,3.73,4.38,2.69,8.5-1.55,6.15-.43,10.54,3.35,13,11.42,7.56,44.31-5.29,51.78-10.95,4.26-3.22,7.28-7.5,10.2-11.64.73-1,1.46-2.08,2.22-3.11,3.52-4.8,10.57-12.39,18.24-9.2,5.18,2.15,7.31,8.16,9.19,13.47.22.61.43,1.22.65,1.8a76.16,76.16,0,0,0,8,16.16c7.3,11,17.55,19,28.87,22.41a50.36,50.36,0,0,0,13.5,2.14c5.68,0,11.53-1.45,14.3-6.66a11,11,0,0,0,1-4.81,22,22,0,0,1,.2-2.27c.37-2.4,2-3.19,4.07-4.18.51-.25,1.05-.5,1.58-.79,2.25-1.24,5.14-3.33,4.35-7.24a4.87,4.87,0,0,0-.5-1.26,3.55,3.55,0,0,1-.42-1.1c-.27-3.07,1.51-4.56,3.57-6.29a26.79,26.79,0,0,0,5.13-5.22,9.52,9.52,0,0,0,1.86-5.78,9.13,9.13,0,0,0-.62-2.7,14.52,14.52,0,0,1-.46-1.54c-.5-2.29.13-3.74,1.64-5.94l.08-.12c2.27-3.3,4.62-6.72,2.35-10.94A13.27,13.27,0,0,0,294,208.77Zm-5.9,20,.11.58c.11.57.24,1.1.37,1.61.42,1.64.75,2.94-.16,4.65a17.42,17.42,0,0,1-4.18,4.57c-.51.45-1.05.88-1.59,1.3-2.61,2.05-5.3,4.17-4.31,8.15.15.62.34,1.17.52,1.71.66,1.91,1.06,3.07-1,4.5a13.8,13.8,0,0,1-2.29,1.22,19.56,19.56,0,0,0-1.83.92,9.49,9.49,0,0,0-3.7,3.27,7.82,7.82,0,0,0-.73,4.59,7.71,7.71,0,0,1-.38,3.65c-2.47,5.59-11.64,5.23-16.88,4.52a44.35,44.35,0,0,1-19-7.48c-9.44-6.46-17-16.76-21.87-29.79l-.46-1.24c-2.83-7.64-6.34-17.14-16-17.65l-.88,0c-9.42,0-15.09,8-20.1,15.09-.67.94-1.32,1.86-2,2.75-6.87,9.35-18.18,15.32-35.59,18.79l-1.6.32c-5.82,1.22-14.62,3-18.56-1.71-2.09-2.53-1.35-5.26-.56-8.16.63-2.34,1.28-4.75.49-7.18a9,9,0,0,0-3.19-4.11,12.87,12.87,0,0,0-1.17-.81,9.34,9.34,0,0,1-1.39-1c-1.86-1.75-1.25-3.59-.48-5.91.1-.3.21-.61.3-.92,1.56-4.94,1.84-8.23-.9-12.51-.3-.47-.62-.89-.93-1.3-1.11-1.48-2-2.64-1.3-5.09a6.89,6.89,0,0,1,1-1.93,11.68,11.68,0,0,0,.76-1.21,8.46,8.46,0,0,0,1-6.82,23.35,23.35,0,0,0-1.07-2.91c-1-2.45-1.77-4.22.14-7.21.29-.44.59-.87.88-1.3a14.24,14.24,0,0,0,2.19-4c.79-2.59.34-5.16-.09-7.65l-.14-.77c0-.27-.09-.54-.14-.81a12.89,12.89,0,0,1-.32-3.89,7.21,7.21,0,0,1,1.91-3.75c.33-.43.68-.86,1-1.34a14.69,14.69,0,0,0,2.84-7.77,30.3,30.3,0,0,0,0-3.16c-.14-3.21-.26-6.24,2.85-8,.79-.45,1.53-.84,2.23-1.21,3.13-1.63,5.6-2.91,7-7.42.23-.75.41-1.51.59-2.24.69-2.86,1.29-5.33,4.3-6.51s6.43-.37,9.54.32l.41.09a55,55,0,0,1,32.22,21l2.46,5q3.14,6.34,6.27,12.66l.07.15c2.31,4.63,4.69,9.42,8.43,13.16s8,5.64,12.4,5.64h.06c4.44,0,8.71-2,12.37-5.72,1.9-1.93,3.79-3.94,5.62-5.88,6.89-7.29,14-14.83,22.88-20.08a45.91,45.91,0,0,1,18.24-6.42c7.91-.89,17.37.46,20.24,6.91.91,2,.3,3.93-.33,5.95-.68,2.17-1.39,4.4,0,6.7a6.67,6.67,0,0,0,2.47,2.21,7.46,7.46,0,0,1,1.73,1.32c1.89,2.15.95,3.68-.24,5.62a11,11,0,0,0-1.38,2.84c-1,3.73,1.12,6.26,3.16,8.71.27.33.55.66.82,1,3.12,3.88,1.53,6.34-.49,9.46a21.9,21.9,0,0,0-2.48,4.65c-1.31,3.75.33,6.51,2.29,8.94,2.75,3.42,2.9,5.47.64,8.77q-.35.51-.72,1a13.89,13.89,0,0,0-2.54,4.75A8.35,8.35,0,0,0,288.06,228.77Z" transform="translate(-103 -121.83)"/><path class="cls-1" d="M246,193.07h0c-5.06-2.85-11-3.06-18.06-.62-1.6.55-3.13,1.12-4.63,1.68-6.62,2.46-12.34,4.58-19.87,3.75-4.1-.46-8.8-1.14-12.6-3.54a34.7,34.7,0,0,1-5.52-4.68,48.82,48.82,0,0,0-4.13-3.72,34.24,34.24,0,0,0-18.29-6.82,1.72,1.72,0,0,0-1.93,1.6,1.87,1.87,0,0,0,1.74,2.05c9.48.8,15.83,5.61,21.27,10.68a28,28,0,0,0,9.27,5.89,70.8,70.8,0,0,0-10.73,2c-2.54.66-5.09,1.5-7.55,2.31-5.72,1.88-11.62,3.82-17.75,3.62a1.78,1.78,0,0,0-1.62.82,2,2,0,0,0-.06,1.9,1.82,1.82,0,0,0,1.57.94c6.4.21,12.37-1.72,18.15-3.59,1.64-.53,3.35-1.08,5-1.58,7.38-2.16,16.06-4.13,24.44-2.36,6,1.26,10.78,5.14,15.41,8.89,5.37,4.35,10.93,8.85,18.36,9.31h.14A1.71,1.71,0,0,0,240.4,220a1.85,1.85,0,0,0-1.77-2c-6.27-.39-11-4.42-15.67-8.33-1.11-.94-2.26-1.91-3.41-2.81a38.19,38.19,0,0,0-8.61-5.21,33.12,33.12,0,0,0,8.67-1.92c1.38-.5,2.81-1.09,4.2-1.66,6.67-2.74,13.56-5.58,20.19-1.84a1.94,1.94,0,0,0,2.66-.77A1.64,1.64,0,0,0,246,193.07Z" transform="translate(-103 -121.83)"/></g></svg>