<svg xmlns="http://www.w3.org/2000/svg" viewBox="0 0 170.68 170.68"><defs><style>.cls-1{fill:#979797;}</style></defs><title>pastry-gray</title><g id="Logo_FIXED" data-name="Logo — FIXED"><path class="cls-1" d="M231,163.78l-.49.06c-.42,0-.83.11-1.24.19l-.46.08c-.55.12-1.09.25-1.62.4l-.18.06c-.48.15-1,.31-1.43.49l-.48.19c-.39.16-.79.34-1.18.52l-.41.19c-.51.25-1,.51-1.52.8l-.27.16c-.42.24-.83.5-1.24.76l-.45.3c-.38.25-.76.51-1.13.79l-.35.24c-.47.36-.94.72-1.41,1.1l-.3.26c-.37.31-.74.62-1.1.94l-.41.37-1.08,1L214,173c-.43.43-.86.86-1.28,1.3l-.32.34-1,1-.37.41-1,1.18a2,2,0,0,1-.19.22c-.39.47-.77.94-1.14,1.42-.11.12-.21.25-.31.38l-.84,1.1-.31.41-1,1.34a.61.61,0,0,0-.07.1c-.34.48-.68,1-1,1.43l-.28.41-.72,1.07-.25.39c-.3.46-.6.92-.89,1.38l0,0c-.28.44-.55.88-.81,1.31l-.23.38-.61,1c-.06.1-.12.2-.17.3-.25.43-.49.84-.72,1.25l-.06.1-.25.44-.21-.49-.22.48-.28-.5v0l-.73-1.28-.15-.25-.64-1.07-.21-.34c-.54-.9-1.12-1.82-1.74-2.77l-.23-.35L195,184l-.24-.36c-.34-.48-.67-1-1-1.46l-.05-.07c-.33-.45-.66-.91-1-1.37l-.29-.39c-.28-.38-.57-.75-.87-1.12-.09-.13-.18-.25-.28-.37-.38-.48-.76-1-1.16-1.42l-.16-.2c-.34-.4-.69-.81-1-1.2l-.36-.41-1-1.06-.3-.32c-.43-.45-.86-.88-1.3-1.31l-.25-.25c-.36-.35-.72-.69-1.09-1l-.41-.37c-.36-.32-.73-.63-1.1-.94l-.3-.26c-.47-.38-.94-.74-1.41-1.1l-.34-.24c-.38-.28-.76-.54-1.14-.79l-.45-.3c-.41-.26-.82-.52-1.24-.76l-.27-.16c-.5-.28-1-.55-1.52-.8l-.41-.19c-.39-.18-.79-.36-1.18-.52l-.48-.19c-.47-.18-.95-.34-1.43-.49l-.18-.06c-.53-.15-1.07-.28-1.62-.4l-.46-.08c-.41-.08-.82-.14-1.24-.19l-.49-.06c-.56-.05-1.12-.09-1.69-.09H163.7v3.59c0,.57,0,1.13.08,1.69l.06.49c0,.42.11.83.19,1.24,0,.16.05.31.08.46.12.55.25,1.09.41,1.62a1.21,1.21,0,0,0,0,.18c.15.48.31,1,.49,1.43.06.16.13.32.19.47.16.4.34.8.52,1.19.07.14.12.28.19.41.25.51.52,1,.8,1.52l.16.26c.24.42.5.84.76,1.25l.3.45c.25.38.51.76.79,1.14l.24.34c.36.47.72.94,1.1,1.41l.26.3c.3.37.62.74.94,1.1l.37.41c.33.36.67.73,1,1.08l.25.27c.43.43.86.86,1.31,1.29l.32.3,1.06,1,.41.36,1.2,1,.2.16c.47.39.94.78,1.42,1.16l.38.29c.36.29.73.57,1.1.85l.41.31,1.36,1,.07.05,1.45,1,.39.26,1.09.73.38.25c.93.61,1.85,1.18,2.73,1.72l.39.23,1,.61.3.17,1.25.72.1.06.44.25-.49.21.48.22-.43.24-.1.06-1.25.72-.3.17-1,.61-.39.23c-.88.54-1.8,1.11-2.73,1.72l-.38.25L184,205l-.39.26-1.45,1-.07.05-1.36,1-.41.31c-.37.28-.74.56-1.1.85l-.38.29c-.48.38-1,.77-1.42,1.16l-.2.16-1.2,1-.41.36-1.06,1-.32.3c-.45.43-.88.86-1.31,1.29l-.25.27c-.35.35-.69.72-1,1.08l-.37.41c-.32.36-.64.73-.94,1.1l-.26.3c-.38.47-.74.94-1.1,1.41l-.24.34c-.28.38-.54.76-.79,1.14l-.3.45c-.26.41-.52.83-.76,1.25l-.16.26c-.28.5-.55,1-.8,1.52-.07.13-.12.27-.19.41-.18.39-.36.79-.52,1.19-.06.15-.13.31-.19.47-.18.47-.34.95-.49,1.43a1.21,1.21,0,0,0,0,.18c-.16.53-.29,1.07-.41,1.62,0,.15-.06.3-.08.46-.08.41-.14.82-.19,1.24l-.06.49c-.05.56-.08,1.12-.08,1.69v3.59h3.58c.57,0,1.13,0,1.69-.09l.49-.06c.42,0,.83-.11,1.24-.19l.46-.08c.55-.12,1.09-.25,1.62-.4l.18-.06c.48-.15,1-.31,1.43-.49l.48-.19c.39-.16.79-.34,1.18-.52l.41-.19c.51-.25,1-.52,1.52-.8l.27-.16c.42-.24.83-.5,1.24-.76l.45-.3c.38-.25.76-.51,1.14-.79l.34-.24c.47-.36.94-.72,1.41-1.1l.3-.26c.37-.31.74-.62,1.1-.94l.41-.37c.37-.33.73-.67,1.09-1l.25-.25c.44-.43.87-.86,1.3-1.31l.3-.32,1-1.06.36-.41c.35-.39.7-.8,1-1.2l.16-.2c.4-.47.78-.94,1.16-1.42.1-.12.19-.24.28-.37.3-.37.59-.74.87-1.12l.29-.39c.35-.46.68-.92,1-1.37l.05-.07c.35-.49.68-1,1-1.46L195,216l.75-1.12.23-.35c.62-1,1.2-1.87,1.74-2.77l.21-.34.64-1.07.15-.25.73-1.28v0l.29-.51.21.48.21-.48.25.44.06.1c.23.41.47.82.72,1.25,0,.1.11.2.17.3l.61,1,.23.38c.26.43.53.87.81,1.31l0,0c.29.46.59.92.89,1.38l.25.39.72,1.07.28.41c.32.47.66.95,1,1.43a.61.61,0,0,0,.07.1l1,1.34.31.41.84,1.1c.1.13.2.26.31.38.37.48.75,1,1.14,1.42a2,2,0,0,1,.19.22l1,1.18.37.41,1,1,.32.34c.42.44.85.87,1.28,1.3l.27.26,1.08,1,.41.37c.36.32.73.63,1.1.94l.3.26c.47.38.94.74,1.41,1.1l.35.24c.37.28.75.54,1.13.79l.45.3c.41.26.82.52,1.24.76l.27.16c.5.29,1,.55,1.52.8l.41.19c.39.18.79.36,1.18.52l.48.19c.47.18.95.34,1.43.49l.18.06c.53.15,1.07.28,1.62.4l.46.08c.41.08.82.14,1.24.19l.49.06c.56.05,1.12.09,1.69.09h3.58v-3.59c0-.57,0-1.13-.08-1.69l-.06-.49c0-.42-.11-.83-.19-1.24,0-.16-.05-.31-.08-.46-.12-.55-.25-1.09-.41-1.62a1.21,1.21,0,0,0,0-.18c-.15-.48-.31-1-.49-1.43-.07-.16-.13-.32-.19-.47-.16-.4-.34-.8-.52-1.19-.06-.14-.12-.28-.19-.41-.25-.51-.52-1-.8-1.52l-.16-.27c-.24-.41-.49-.83-.76-1.24l-.3-.45c-.25-.38-.51-.76-.78-1.13l-.25-.35c-.36-.47-.72-.94-1.1-1.41l-.26-.3c-.31-.37-.62-.74-.94-1.1l-.37-.41c-.33-.36-.67-.72-1-1.07l-.26-.28c-.43-.43-.86-.86-1.3-1.28l-.35-.32c-.34-.33-.69-.65-1-1l-.41-.37-1.19-1-.21-.17c-.47-.39-.94-.78-1.42-1.15l-.39-.31-1.08-.83-.43-.33-1.32-1-.11-.07-1.43-1-.41-.28-1.07-.71-.39-.26c-.93-.61-1.85-1.19-2.73-1.72l-.38-.23-1-.61-.3-.17-1.25-.73-.1,0-.44-.25.48-.21-.48-.21.44-.25.1,0,1.25-.73.3-.17,1-.61.38-.23c.88-.53,1.8-1.11,2.73-1.72l.39-.26,1.07-.71.41-.28,1.43-1,.11-.07,1.32-1,.43-.33,1.08-.83.39-.31c.48-.37,1-.76,1.42-1.15l.21-.17,1.19-1,.41-.37c.35-.31.7-.63,1-1l.35-.32c.44-.42.87-.85,1.3-1.28l.26-.28c.34-.35.68-.71,1-1.07l.37-.41c.32-.36.63-.73.94-1.1l.26-.3c.38-.47.74-.94,1.1-1.41l.25-.35c.27-.37.53-.75.78-1.13l.3-.45c.27-.41.52-.83.76-1.24l.16-.27c.28-.5.55-1,.8-1.52.07-.13.13-.27.19-.41.18-.39.36-.79.52-1.19.06-.15.12-.31.19-.47.18-.47.34-.95.49-1.43a1.21,1.21,0,0,0,0-.18c.16-.53.29-1.07.41-1.62,0-.15.06-.3.08-.46.08-.41.14-.82.19-1.24l.06-.49c.05-.56.08-1.12.08-1.69v-3.59h-3.58C232.15,163.69,231.59,163.73,231,163.78Zm-3.16,9c-.05.14-.11.27-.17.41q-.3.65-.66,1.29l0,0c-.23.42-.49.84-.76,1.26l-.29.42c-.19.29-.39.57-.59.85l-.37.48c-.2.26-.4.52-.61.77s-.27.33-.41.5l-.66.76-.42.46c-.26.29-.52.56-.79.84l-.35.36c-.4.4-.8.79-1.21,1.17l-.22.21-1,.94-.47.4-.85.73-.53.42-.84.68-.53.41-.89.68-.49.37-1.08.78-.32.23-1.41,1c-.09.06-.18.11-.27.18l-1.15.76-.43.27-1,.63-.18.11c0-.09.11-.18.17-.27.15-.25.31-.5.47-.74l.41-.65.56-.84c.12-.18.24-.37.37-.55q.45-.68.93-1.35l.36-.5.65-.9c.14-.19.29-.38.43-.58l.61-.8c.16-.2.31-.4.47-.59l.62-.78c.16-.19.31-.39.48-.58l.65-.78c.16-.17.31-.35.47-.53s.55-.62.83-.92c.1-.11.2-.23.31-.34.38-.41.76-.8,1.15-1.18.13-.14.28-.28.42-.41l.77-.74.5-.45.73-.64.52-.42.74-.59.51-.38.82-.58.45-.3c.4-.27.81-.52,1.22-.75l.06,0c.43-.24.85-.46,1.28-.66l.42-.18.89-.37.16-.05c0,.05,0,.11-.05.16C228.13,172.16,228,172.46,227.87,172.76Zm-18,36.76.6.38.94.62.45.3,1.38,1,.4.28,1,.73c.18.12.35.25.52.38l.87.67.54.42.84.67.53.43.85.73.46.39,1.06,1,.21.19c.41.39.82.78,1.21,1.18l.32.33c.29.29.56.58.83.87l.39.44c.24.26.47.53.7.79l.39.47c.21.27.42.53.62.8l.36.47c.21.29.41.57.6.86l.28.41c.27.43.54.85.78,1.28v0c.24.43.45.85.65,1.28l.18.41c.13.3.26.6.37.89,0,.06,0,.12.05.17l-.17-.06-.87-.36-.43-.18c-.43-.2-.85-.42-1.28-.66l0,0c-.43-.23-.84-.49-1.26-.76l-.42-.29-.85-.59-.48-.37-.78-.61-.48-.4-.78-.68-.45-.41c-.29-.26-.57-.53-.86-.81l-.34-.33c-.4-.4-.79-.8-1.17-1.21l-.22-.24c-.31-.34-.63-.68-.93-1-.14-.15-.27-.31-.4-.47s-.49-.56-.73-.85l-.43-.52-.67-.84-.42-.54c-.23-.29-.45-.59-.67-.88l-.38-.51-.76-1.05-.25-.34-1-1.4c-.07-.12-.15-.23-.23-.35l-.7-1.07-.31-.47-.59-.94a2.39,2.39,0,0,1-.13-.21l.26.17ZM190.4,210l-.27.42c-.26.4-.52.8-.79,1.2l-.14.21-1,1.44-.16.23-.84,1.17-.33.44-.72.95-.39.49c-.23.3-.47.59-.71.89l-.39.48-.78.91-.35.41-1,1.15-.11.12c-.4.42-.79.83-1.19,1.23l-.31.29-.9.86-.41.37-.82.71-.45.38-.82.64-.45.34-.89.63-.39.26a22.07,22.07,0,0,1-2.58,1.44l-.41.18c-.29.13-.59.26-.89.37a.85.85,0,0,0-.17.06.85.85,0,0,1,.06-.17c.11-.3.23-.59.36-.89l.18-.42c.2-.43.42-.85.66-1.28l0,0c.24-.43.49-.84.76-1.26l.28-.41c.2-.29.4-.58.61-.86s.23-.32.35-.47.41-.53.62-.79l.4-.48.68-.78.4-.45c.27-.29.55-.58.83-.86l.32-.34c.4-.4.8-.79,1.22-1.18l.2-.18c.35-.33.7-.65,1.06-1l.46-.4.86-.73.51-.42.86-.69.53-.41.89-.68.5-.37,1-.75.35-.26,1.39-1,.42-.28,1-.65.56-.36.83-.53.25-.15L191,209ZM190,190.43l-.51-.33-1-.68-.38-.25-1.39-1-.4-.29-1-.72-.54-.4-.84-.64-.57-.44-.8-.65-.56-.46-.81-.69c-.17-.14-.34-.28-.5-.43-.34-.29-.67-.59-1-.89l-.28-.25-1.19-1.16-.37-.39q-.41-.41-.78-.81l-.42-.48q-.34-.37-.66-.75l-.42-.5-.6-.76-.37-.5c-.2-.27-.4-.55-.59-.83s-.2-.29-.29-.43c-.27-.42-.53-.84-.76-1.26l0,0q-.36-.65-.66-1.29l-.18-.41c-.13-.3-.25-.6-.37-.9,0-.05,0-.11-.05-.16l.16.05.89.37.42.18c.43.2.85.42,1.28.66l.06,0c.41.23.82.49,1.23.75l.43.3c.28.19.56.38.83.58l.5.37.76.6.5.42.75.65.48.43.8.76.4.39c.39.39.77.79,1.15,1.19l.27.29c.3.32.59.65.88,1,.15.16.29.33.43.5l.7.81.44.55c.23.27.45.54.66.82s.29.36.43.55l.66.87.39.51.73,1,.28.38,1,1.39.25.38c.23.34.46.68.68,1,.11.18.22.36.34.53l.55.88.14.22-.22-.13Z" transform="translate(-114.66 -114.66)"/><path class="cls-1" d="M263.9,159.19a90.5,90.5,0,0,1-23.09-23.09,49.56,49.56,0,0,0-81.62,0,90.5,90.5,0,0,1-23.09,23.09,49.56,49.56,0,0,0,0,81.62,90.5,90.5,0,0,1,23.09,23.09,49.56,49.56,0,0,0,81.62,0,90.5,90.5,0,0,1,23.09-23.09,49.56,49.56,0,0,0,0-81.62Zm-4.07,75.72a97.26,97.26,0,0,0-24.92,24.92,42.4,42.4,0,0,1-69.82,0,97.26,97.26,0,0,0-24.92-24.92,42.4,42.4,0,0,1,0-69.82,97.42,97.42,0,0,0,24.92-24.92,42.4,42.4,0,0,1,69.82,0,97.26,97.26,0,0,0,24.92,24.92,42.4,42.4,0,0,1,0,69.82Z" transform="translate(-114.66 -114.66)"/></g></svg>