<svg xmlns="http://www.w3.org/2000/svg" viewBox="0 0 108.63 188.66"><defs><style>.cls-1{fill:#979797;}</style></defs><title>pickled-gray</title><g id="Logo_FIXED" data-name="Logo — FIXED"><path class="cls-1" d="M233,137.51a1.36,1.36,0,0,0-1.37,2.34c1.83,1.1,3.45,4.09,1,5.5-.79.45-1.81.48-2.24-.45-.27-.56-.19-1.6.47-1.84,1.63-.61.92-3.24-.72-2.63-4.41,1.65-2.67,8.57,2.05,7.89a5.19,5.19,0,0,0,4.35-4.32A6.68,6.68,0,0,0,233,137.51Z" transform="translate(-145.69 -105.67)"/><path class="cls-1" d="M244.19,107.87c-7.86-4.67-18.66-1.61-22.31,6.39a2.71,2.71,0,0,0-.8.59c-24,25.85-48.73,52.42-63.17,85.09-6.57,14.85-11,30.64-12,46.91-.75,12.79-.1,28.09,8.58,38.39,7.12,8.45,20.05,12.43,29.61,5.67,4.72-3.34,7.54-8.64,9.92-13.73,4.2-9,7.94-18.17,11.89-27.24,15.1-34.69,32.25-69.17,45.13-104.75C255.43,133.08,257.28,115.64,244.19,107.87Zm.4,39c-6.48,16.53-13.93,32.74-21,49q-10.8,24.82-21.62,49.64-5.4,12.41-10.81,24.82c-3.43,7.83-7.39,18.22-17.52,18.62-20.51.81-23-26.1-22.35-40.56C152,231,157.13,214,164.58,198.35c14-29.3,36.07-53.53,58-77.11,1.41.63,3.17.24,3.44-1.69A9.93,9.93,0,0,1,236.64,111c6,.44,9.91,5.71,11.54,11C250.78,130.37,247.65,139.08,244.59,146.88Z" transform="translate(-145.69 -105.67)"/><path class="cls-1" d="M168,272.4a12,12,0,0,1,1.48,3.09,2.89,2.89,0,0,0-4.47-1c-4,3.45.32,9.85,5,8.67a6.78,6.78,0,0,0,4.71-5.07c.7-3-.58-5.9-2.07-8.44C170.92,266.64,166.23,269.37,168,272.4Z" transform="translate(-145.69 -105.67)"/><path class="cls-1" d="M182.5,217.51c-1.74.12-1.75,2.84,0,2.72s3.59,2.63,2.1,4.07-4.18-.37-4-2.2-2.57-1.73-2.72,0c-.36,4.24,5.59,7.17,8.66,4.12S186.75,217.22,182.5,217.51Z" transform="translate(-145.69 -105.67)"/><path class="cls-1" d="M194.24,166.82c-1.57.77-.2,3.12,1.37,2.35,2.78-1.37,4.87,2.28,3.1,4.47-2.22,2.74-6,.85-7-1.93-.6-1.63-3.23-.93-2.62.72,1.94,5.26,9.25,7.55,12.39,1.95C204.11,169.69,199,164.51,194.24,166.82Z" transform="translate(-145.69 -105.67)"/><path class="cls-1" d="M210.53,198.93a1.35,1.35,0,0,0-1.76.09,3.94,3.94,0,0,0-1.1,3.6c.3,1.51,1.39,2.78,3,2.13a4.69,4.69,0,0,0,2.33-6.38C212.35,197.09,210.69,197.78,210.53,198.93Z" transform="translate(-145.69 -105.67)"/></g></svg>