<svg xmlns="http://www.w3.org/2000/svg" viewBox="0 0 166.56 167.83"><defs><style>.cls-1{fill:#979797;}</style></defs><title>pizza-gray</title><g id="Logo_FIXED" data-name="Logo — FIXED"><path class="cls-1" d="M254.79,145.43c-13.14-13.28-31.81-20.59-52.56-20.59s-40.1,7.46-54.4,21a71.58,71.58,0,0,0-22.35,52.56A76,76,0,0,0,148,252.55a77.2,77.2,0,0,0,54.32,22.61h.58c20.52,0,38.23-7.41,51.22-21.44,13.14-14.2,20.22-33.79,20.45-56.66C274.73,176.83,267.72,158.5,254.79,145.43ZM251.13,251c-12.21,13.19-28.9,20.16-48.28,20.16h-.56a73.22,73.22,0,0,1-51.52-21.44,72,72,0,0,1-21.29-51.31,67.62,67.62,0,0,1,21.1-49.65c13.55-12.85,31.9-19.92,51.65-19.92s37.33,6.89,49.72,19.41c12.17,12.3,18.77,29.62,18.57,48.77C270.29,218.88,263.59,237.54,251.13,251Z" transform="translate(-116.72 -116.08)"/><path class="cls-1" d="M163.13,212.45c6.25-4.67,4.93-13.51.44-18.87-5.1-6.1-12.8-6.46-17.44,0-2.09,2.93-4.54,5.69-4.23,9.52.28,3.5,2.57,6.47,5.33,8.47C150.28,215.74,159.26,215.34,163.13,212.45Zm-13-2.2a1.51,1.51,0,0,0-.6-.72l-.08-.05s0,0-.05-.08a1.3,1.3,0,0,0-1-.74c-2.22-1.85-4-4.71-3.31-7.65.4-1.83,1.9-3.43,3-4.9,1.84-2.55,4.2-5,7.73-4.32,3,.54,5.58,3.32,7,5.78,2.83,4.93,2.2,12.09-4.22,13.56C156.42,211.61,152.08,211.78,150.12,210.25Z" transform="translate(-116.72 -116.08)"/><path class="cls-1" d="M150.1,200.66a1.5,1.5,0,0,0,0,3A1.5,1.5,0,0,0,150.1,200.66Z" transform="translate(-116.72 -116.08)"/><path class="cls-1" d="M155.43,207.33a1.5,1.5,0,0,0,0,3A1.5,1.5,0,0,0,155.43,207.33Z" transform="translate(-116.72 -116.08)"/><path class="cls-1" d="M159.43,200.66a1.5,1.5,0,0,0,0,3A1.5,1.5,0,0,0,159.43,200.66Z" transform="translate(-116.72 -116.08)"/><path class="cls-1" d="M155.43,193.33a1.5,1.5,0,0,0,0,3A1.5,1.5,0,0,0,155.43,193.33Z" transform="translate(-116.72 -116.08)"/><path class="cls-1" d="M154.76,201.33a1.5,1.5,0,0,0,0,3A1.5,1.5,0,0,0,154.76,201.33Z" transform="translate(-116.72 -116.08)"/><path class="cls-1" d="M216.21,204.49c.62-5.11-1.24-8.06-4.66-11.45-3-3-5.75-6.41-10.17-7.21-9.19-1.67-15.76,4.3-17.54,12.95-1.68,8.12,3.34,17.71,12.35,17.88a1.37,1.37,0,0,0,1.24.67C206.57,217.25,215,214.88,216.21,204.49ZM198,214.32a1.32,1.32,0,0,0-1.24-.66c-17.35.45-10.3-32.3,6.27-24.1,4.92,2.43,10.78,9,10.16,14.5C212.24,212.48,205.22,214.18,198,214.32Z" transform="translate(-116.72 -116.08)"/><path class="cls-1" d="M204.1,202.33a1.5,1.5,0,0,0,0,3A1.5,1.5,0,0,0,204.1,202.33Z" transform="translate(-116.72 -116.08)"/><path class="cls-1" d="M199.43,196.66a1.5,1.5,0,0,0,0-3A1.5,1.5,0,0,0,199.43,196.66Z" transform="translate(-116.72 -116.08)"/><path class="cls-1" d="M191.43,202.33a1.5,1.5,0,0,0,0,3A1.5,1.5,0,0,0,191.43,202.33Z" transform="translate(-116.72 -116.08)"/><path class="cls-1" d="M200.1,207.66a1.5,1.5,0,0,0,0,3A1.5,1.5,0,0,0,200.1,207.66Z" transform="translate(-116.72 -116.08)"/><path class="cls-1" d="M197.43,199.66a1.5,1.5,0,0,0,0,3A1.5,1.5,0,0,0,197.43,199.66Z" transform="translate(-116.72 -116.08)"/><path class="cls-1" d="M210.1,200.33a1.5,1.5,0,0,0,0,3A1.5,1.5,0,0,0,210.1,200.33Z" transform="translate(-116.72 -116.08)"/><path class="cls-1" d="M261,139.27c-14.8-15-35.68-23.19-58.78-23.19s-44.49,8.32-60.43,23.42a80.28,80.28,0,0,0-25.08,58.91,84.63,84.63,0,0,0,25.05,60.34,85.92,85.92,0,0,0,60.44,25.17h.63c46.87,0,79.91-35.59,80.44-86.77C283.51,174.57,275.6,154,261,139.27ZM202.84,279.92h-.6c-45-.31-81.52-36.88-81.52-81.51,0-43.92,35.8-78.33,81.51-78.33,22,0,41.9,7.82,55.94,22,13.83,14,21.33,33.51,21.11,55C278.77,246,247.38,279.92,202.84,279.92Z" transform="translate(-116.72 -116.08)"/><path class="cls-1" d="M198.65,171.7c5.2,4.89,14.28,7.71,20.64,3,5.89-4.4,6.13-14.91,1.23-20.13-4.55-4.83-13.37-6-18.52-1.73-5.62,4.58-6.79,11.2-3.56,17.13A1.33,1.33,0,0,0,198.65,171.7Zm4.11-15.53c3.72-3.86,9.53-3.65,13.94-.9,4.81,3,5.63,12.59,1.44,16.43-4.36,4-11.07,2.45-15.52-.64a1.48,1.48,0,0,0-.27-.57C198.86,165.81,198.57,160.53,202.76,156.17Z" transform="translate(-116.72 -116.08)"/><path class="cls-1" d="M205.34,165.88a1.5,1.5,0,0,0,0-3A1.5,1.5,0,0,0,205.34,165.88Z" transform="translate(-116.72 -116.08)"/><path class="cls-1" d="M213,160.86a1.5,1.5,0,0,0,0-3A1.5,1.5,0,0,0,213,160.86Z" transform="translate(-116.72 -116.08)"/><path class="cls-1" d="M216,168.74a1.5,1.5,0,0,0,0-3A1.5,1.5,0,0,0,216,168.74Z" transform="translate(-116.72 -116.08)"/><path class="cls-1" d="M210.61,166.31a1.5,1.5,0,0,0,0-3A1.5,1.5,0,0,0,210.61,166.31Z" transform="translate(-116.72 -116.08)"/><path class="cls-1" d="M209,173.72a1.5,1.5,0,0,0,0-3A1.5,1.5,0,0,0,209,173.72Z" transform="translate(-116.72 -116.08)"/><path class="cls-1" d="M207,158.47a1.5,1.5,0,0,0,0-3A1.5,1.5,0,0,0,207,158.47Z" transform="translate(-116.72 -116.08)"/><path class="cls-1" d="M240,203.79c-5.62,4.58-6.79,11.2-3.56,17.13a1.33,1.33,0,0,0,.21,1.78c5.2,4.89,14.28,7.71,20.64,3,5.89-4.4,6.13-14.91,1.23-20.13C254,200.69,245.15,199.57,240,203.79Zm16.14,18.91c-4.36,4-11.07,2.45-15.52-.64a1.48,1.48,0,0,0-.27-.57c-3.49-4.68-3.78-10,.41-14.32,3.72-3.86,9.53-3.65,13.94-.9C259.51,209.28,260.33,218.86,256.14,222.7Z" transform="translate(-116.72 -116.08)"/><path class="cls-1" d="M243.34,213.88a1.5,1.5,0,0,0,0,3A1.5,1.5,0,0,0,243.34,213.88Z" transform="translate(-116.72 -116.08)"/><path class="cls-1" d="M251,208.86a1.5,1.5,0,0,0,0,3A1.5,1.5,0,0,0,251,208.86Z" transform="translate(-116.72 -116.08)"/><path class="cls-1" d="M254,216.74a1.5,1.5,0,0,0,0,3A1.5,1.5,0,0,0,254,216.74Z" transform="translate(-116.72 -116.08)"/><path class="cls-1" d="M248.61,214.31a1.5,1.5,0,0,0,0,3A1.5,1.5,0,0,0,248.61,214.31Z" transform="translate(-116.72 -116.08)"/><path class="cls-1" d="M247,221.72a1.5,1.5,0,0,0,0,3A1.5,1.5,0,0,0,247,221.72Z" transform="translate(-116.72 -116.08)"/><path class="cls-1" d="M245,206.47a1.5,1.5,0,0,0,0,3A1.5,1.5,0,0,0,245,206.47Z" transform="translate(-116.72 -116.08)"/><path class="cls-1" d="M213.1,235c-2.61,2.35-5.38,6.36-3.71,10,2,4.4,7.81,4.18,11.64,5.61l.14,0a11.29,11.29,0,0,0,6,6.87c2.38,1,4.32.15,4.93-2.43.39-1.63-.12-3.32-.3-4.93-.42-3.9,1-5.22,3.52-8,2.66-2.93,4-6.92,1.47-10.38C232,225.08,217.88,230.69,213.1,235Zm19.15,6c-2.45,2.76-3.92,4.54-3.57,8.43.08.83.32,1.63.41,2.46.23,2.1.83,3-1.41,2.22s-3.65-3.82-4.14-6a1.44,1.44,0,0,0-2.47-.62c-2.44-.68-6-.88-7.71-2.42-3.89-3.49,1.72-8.2,4.58-9.8a30.53,30.53,0,0,1,8.19-2.75c1.46-.33,3.42-1,4.92-.68C239,233.32,234.23,238.76,232.25,241Z" transform="translate(-116.72 -116.08)"/><path class="cls-1" d="M258.19,170.86c-6.11-3.46-19.4-5.11-24.15,1.65-2.15,3.06-.28,6.54,2.22,8.73,1.94,1.7,5.39,2.35,5.41,5.36,0,2.65-1.49,3.51.1,5.93a1.33,1.33,0,0,0,.26,1.69c2.07,2,6.51,3.78,9.19,1.84,1.36-1,1.91-3.28,2.27-4.79.23-1,.15-3,.54-3.65.68-1.23,2.42-1.47,3.56-1.92,2.69-1.06,6.06-2.13,6.66-5.38C265,176.46,261.22,172.58,258.19,170.86Zm2.78,8.91c-.82,3-4.64,2.78-7.06,4-4.24,2.1-3,14.41-9.41,8.67a1.27,1.27,0,0,0-.11-1.34c-1.31-2,1.08-4.95.25-7.19-.68-1.84-2.86-2.51-4.35-3.47-2.13-1.37-5.41-3.29-3.2-6.81.69-1.1,2.9-1.78,4.16-2.07a27.13,27.13,0,0,1,11.38.28C255.83,172.67,262.12,175.62,261,179.77Z" transform="translate(-116.72 -116.08)"/><path class="cls-1" d="M188.57,241.05c-2.7-2.19-3.53-2.56-3.06-6.18.4-3.08.68-7.05-2.56-8.73-3.42-1.77-8.12,0-11,2-5.31,3.87-13.52,16-8.34,22.74,2.27,3,6.41,2.12,9.33.69,1.46-.71,3-2.41,4.6-2.51s2.07,1.18,3.25,2c1.42,1,2.16,1.33,3.72,1.09a1.25,1.25,0,0,0,1.58.53c2.81-1,6.49-4.24,5.71-7.62C191.47,243.46,189.79,242,188.57,241.05Zm-3,8.66a1.49,1.49,0,0,0-1.46-.49c-1.4.27-4-3.12-5.55-3.41-1.84-.34-3,.72-4.5,1.62a24,24,0,0,1-2.62,1.58l-5.9-1c-.69-.76-.27-3.62-.05-4.61a28,28,0,0,1,4.66-9.3c2.45-3.24,7.4-7.41,11-4.1,2.61,2.39,1,4.06,1,7.12a4.94,4.94,0,0,0,1.12,3.71C185.33,243.24,192.78,247,185.59,249.71Z" transform="translate(-116.72 -116.08)"/><path class="cls-1" d="M170.43,167.66c.36,3.28,1,7.93,3.74,9.43a5,5,0,0,0,6.9-2.18c.82-1.61.73-3.39.87-5.13.3-3.92,1.68-4.83,4.39-7.09,3-2.49,4.22-5.51,1.69-8.9-2.69-3.62-7-3.91-11.11-3.25-5.38.86-12.32.78-16.72,4.55a6.85,6.85,0,0,0-1.78,8.62C160.67,167.52,166.28,167.66,170.43,167.66Zm-5.61-11.74a19.25,19.25,0,0,1,5.89-1.43c2.38-.3,4.64-.66,7-1.06,2.69-.45,5.95-.55,7.53,2.16,1.31.75,1.49,1.68.57,2.77a3.49,3.49,0,0,1-2.28,2.7c-2.2,1.7-4,3.32-4.49,6.19-.28,1.69.43,4.35-.52,5.86-3.22,5.08-5.16-6.08-5.26-7a1.85,1.85,0,0,0-.11-.42,1.38,1.38,0,0,0-1.39-1.08c-2.93,0-9.11.45-10.76-2.47S162.67,156.92,164.82,155.92Z" transform="translate(-116.72 -116.08)"/><path class="cls-1" d="M162.16,222.22c1.44-1.29-.69-3.4-2.13-2.12s-3.21,2.08-4.66,3.33.66,3.38,2.12,2.13S160.72,223.5,162.16,222.22Z" transform="translate(-116.72 -116.08)"/><path class="cls-1" d="M200.45,141.16a1.28,1.28,0,0,0,1.71-.27,7.16,7.16,0,0,0,1.85-4,2.89,2.89,0,0,0-2.89-3.19c-3.9-.21-3.53,4.19-3.52,6.8A1.52,1.52,0,0,0,200.45,141.16Zm.32-4.45.26,0a1.49,1.49,0,0,1,0,.18,5.39,5.39,0,0,1-.46,1.16,3.61,3.61,0,0,1,.12-1C200.68,136.9,200.79,136.75,200.77,136.71Z" transform="translate(-116.72 -116.08)"/><path class="cls-1" d="M226.32,193c.09.75.22,1.5.37,2.24.06.32.13.64.19.95,0,.08,0,.17.05.25v.08a2.44,2.44,0,0,0,4.33,0,19.84,19.84,0,0,0-.07-5.05c-.37-1.54-2-2.87-3.58-2.15C226.19,189.93,226.16,191.64,226.32,193Zm2.92-1.12a.79.79,0,0,1,0-.16C229.16,191.42,229.42,191.64,229.24,191.85Zm-1.07,0a1.9,1.9,0,0,1,0,.19C228.12,192,228.07,192,228.17,191.87Z" transform="translate(-116.72 -116.08)"/><path class="cls-1" d="M206.17,227.45a3.54,3.54,0,0,0-4.24-1.43c-2,.62-2.69,2.62-3.9,4.08a1.54,1.54,0,0,0-.21,1.64,1.33,1.33,0,0,0-.22.75,1.5,1.5,0,0,0,1.5,1.5c1.92-.24,3.09-1.72,4.83-2.39S207.22,229.45,206.17,227.45Z" transform="translate(-116.72 -116.08)"/><path class="cls-1" d="M207.1,255.66c-1.72-.12-3.64-1.33-5-2.25a1.52,1.52,0,0,0-2.06,2.06c1.2,1.86,3.11,4,5.36,4.47a1.53,1.53,0,0,0,1.84-1.28C209,258.67,209,255.79,207.1,255.66Z" transform="translate(-116.72 -116.08)"/><path class="cls-1" d="M243.07,156.48a1.49,1.49,0,0,0,.42-2.38,26,26,0,0,1-3-3.38,1.52,1.52,0,0,0-2.59,0c-1.42,2.92,1,5.44,2.8,7.5C241.87,159.55,243.74,157.88,243.07,156.48Z" transform="translate(-116.72 -116.08)"/><path class="cls-1" d="M146.43,174.66a6.65,6.65,0,0,1,2.84.32,20.39,20.39,0,0,0,1.86,1,3.1,3.1,0,0,0,4-1.6,3.57,3.57,0,0,0-.71-3.9,3.31,3.31,0,0,0-2-.92c-.62-.05-1.72.37-2.17-.09a1.51,1.51,0,0,0-2.13,2.13l.18.14c-.59,0-1.18,0-1.78,0A1.5,1.5,0,0,0,146.43,174.66Zm5.81-2.12c.11.09.22.48.1.59s-.76-.22-1.32-.54C151.39,172.52,152,172.37,152.24,172.54Z" transform="translate(-116.72 -116.08)"/><path class="cls-1" d="M175.8,186.4c-.42.7-1.18,1.46-1.69,2.34a2.81,2.81,0,0,0,.09,3.5c1.86,1.87,4.51-.85,5-2.68a1.4,1.4,0,0,0-.79-1.7A1.5,1.5,0,0,0,175.8,186.4Zm-.32,3.46c-.1.06-.07,0,0,0Zm1,.75h0Z" transform="translate(-116.72 -116.08)"/><path class="cls-1" d="M225.1,219.33a1.5,1.5,0,0,0,0-3A1.5,1.5,0,0,0,225.1,219.33Z" transform="translate(-116.72 -116.08)"/><path class="cls-1" d="M248.6,236.33l-.57.44a1.2,1.2,0,0,0-.43,1,1.5,1.5,0,0,0-1.26,2.71,3.45,3.45,0,0,0,3.66-.06,2.86,2.86,0,0,0,1-3.77A1.52,1.52,0,0,0,248.6,236.33Z" transform="translate(-116.72 -116.08)"/><path class="cls-1" d="M226.43,139.33a1.5,1.5,0,0,0,0-3A1.5,1.5,0,0,0,226.43,139.33Z" transform="translate(-116.72 -116.08)"/><path class="cls-1" d="M177.76,146.66a1.5,1.5,0,0,0,0-3A1.5,1.5,0,0,0,177.76,146.66Z" transform="translate(-116.72 -116.08)"/><path class="cls-1" d="M142.43,218.33a1.5,1.5,0,0,0,0,3A1.5,1.5,0,0,0,142.43,218.33Z" transform="translate(-116.72 -116.08)"/><path class="cls-1" d="M158.43,237.66a1.5,1.5,0,0,0,0,3A1.5,1.5,0,0,0,158.43,237.66Z" transform="translate(-116.72 -116.08)"/><path class="cls-1" d="M217.76,187.33a1.5,1.5,0,0,0,0-3A1.5,1.5,0,0,0,217.76,187.33Z" transform="translate(-116.72 -116.08)"/><path class="cls-1" d="M187.1,258.33a1.5,1.5,0,0,0,0,3A1.5,1.5,0,0,0,187.1,258.33Z" transform="translate(-116.72 -116.08)"/><path class="cls-1" d="M191.76,180a1.5,1.5,0,0,0,0-3A1.5,1.5,0,0,0,191.76,180Z" transform="translate(-116.72 -116.08)"/></g></svg>