<svg xmlns="http://www.w3.org/2000/svg" viewBox="0 0 226.99 129.9"><defs><style>.cls-1{fill:#979797;}</style></defs><title>prepared-food</title><g id="Logo_FIXED" data-name="Logo — FIXED"><path class="cls-1" d="M312.61,139.37a1.44,1.44,0,0,0-.74-1.29,1.79,1.79,0,0,0-1.69-1.05h-6.59a1.66,1.66,0,0,0-1.25-.51l-214.1-1.47a1.72,1.72,0,0,0-1.11,3.06,1.7,1.7,0,0,0-.57,1.3v124a1.4,1.4,0,0,0,1.36,1.46,2.42,2.42,0,0,0,.48.06H311.27a1.62,1.62,0,0,0,1.66-1.92,1.81,1.81,0,0,0,.13-.63Q314.11,200.89,312.61,139.37ZM90,138.48l210.32,1.44a1.78,1.78,0,0,0,1.3.51h7.39q1.45,60.54.44,121.1H90.14V139A1.81,1.81,0,0,0,90,138.48Z" transform="translate(-86.51 -135.05)"/><path class="cls-1" d="M165.84,216.94a1.45,1.45,0,0,0,.47.08H231a1.77,1.77,0,0,0,.41-.05,2.31,2.31,0,0,0,2-2.56V148.25a1.88,1.88,0,0,0-1-1.93,1.74,1.74,0,0,0-1.6-2.51,1.57,1.57,0,0,0-1.44.8H166a1.57,1.57,0,0,0-1.59,2,3.34,3.34,0,0,0-.11.83v67.26A2,2,0,0,0,165.84,216.94ZM167.92,148h62a3.5,3.5,0,0,0-.09.75v63.56H167.92Z" transform="translate(-86.51 -135.05)"/><path class="cls-1" d="M238.73,218.44a1.41,1.41,0,0,0,.52,2.31q31.5,14,62.15,29.83c2,1,3.9-1.87,1.83-2.94l-.26-.13V228.32h0V148.39a1.61,1.61,0,0,0-.88-1.48,1.66,1.66,0,0,0-1.71-1.9H242.06a1.74,1.74,0,0,0-.79.17c-.74-1.4-3.4-1.21-3.4.7V217A1.59,1.59,0,0,0,238.73,218.44Zm2.73-1.37V148.33a1.89,1.89,0,0,0,.6.1h57.32V245.7Q270.69,231,241.25,217.88A1.57,1.57,0,0,0,241.46,217.07Z" transform="translate(-86.51 -135.05)"/><path class="cls-1" d="M94.6,255.09a1.75,1.75,0,0,0,1.67,2.38H296.79c2.3,0,2.19-3.41-.11-3.41h-1.3a1.53,1.53,0,0,0-.86-.74c-21.83-8.6-40.79-22.76-62.11-32.39a1.81,1.81,0,0,0-2.5,1.17H165.67a1.57,1.57,0,0,0-1.63,1.27,2,2,0,0,0-.75.22,541.7,541.7,0,0,1-67.57,30.1A1.6,1.6,0,0,0,94.6,255.09Zm49.19-1a.45.45,0,0,0,0-.11,9.24,9.24,0,0,1,8.73-12.46c-2.54,4.77.22,10.76,5.5,12.57Zm18.24,0c1-.92.93-2.71-.75-2.82-1.85.24-3.15-.63-3.91-2.64q-5.73-3.79,1.85-8.45c1.95-.92,5.88-1,8.13-1.4,3.85-.65,7.67-1.42,11.5-2.19,8.74-1.76,17.52-3.61,26.44-4.2,15.19-1,40.55,2.25,44.18,20.71a1.8,1.8,0,0,0,.56,1Zm3.32-27.69a1.45,1.45,0,0,0,.77-.85h66.75a1.83,1.83,0,0,0,.81-.18c18.36,8.71,35.13,20.48,53.71,28.72H252.75a1.38,1.38,0,0,0,.31-1.24c-4.92-25-39.5-25.65-58.92-22.6-7.56,1.19-15,2.9-22.52,4.31-5.05.95-12.26.68-16.51,3.94a7.63,7.63,0,0,0-.67.59,1.73,1.73,0,0,0-1.58-1,12.7,12.7,0,0,0-12.78,16h-35.6A550.14,550.14,0,0,0,165.35,226.37Z" transform="translate(-86.51 -135.05)"/><path class="cls-1" d="M104.17,208.9a1.73,1.73,0,0,0,1.7-3c-2-1.13-3.86-4-1.82-6,1.66-1.63,3.89.54,2.41,1.94-1.1,1-.34,2.32.77,2.69a7.46,7.46,0,0,0,3.79,7.13,1.75,1.75,0,0,0,1.61,3c4-.92,7.87-4,8.5-8.25a6.78,6.78,0,0,0-6.2-7.68,7.44,7.44,0,0,0-4.59.93,5.31,5.31,0,0,0-6.83-3.46,6.35,6.35,0,0,0-3.92,6.12C99.74,205.21,101.76,207.52,104.17,208.9Zm10.73-6.74a3.37,3.37,0,0,1,2.46,4.64,6.62,6.62,0,0,1-2.59,3.2,1.59,1.59,0,0,0-1.16-1C109.39,208,110.16,201.14,114.9,202.16Z" transform="translate(-86.51 -135.05)"/><path class="cls-1" d="M120.69,211.87c.9,3.42,3.76,5.26,7,5.93a5.93,5.93,0,0,0-1.81,3.41,7.41,7.41,0,0,0,4.65,7.85,2,2,0,0,0,2.53-1.22h.14a6.27,6.27,0,0,0,5.43-6.37,5.4,5.4,0,0,0-2.09-4.22,6.56,6.56,0,0,0,1.7-6.11c-1.11-4.67-6.58-7.76-11.15-7.67A6.54,6.54,0,0,0,120.69,211.87Zm12.25,12.56a1.73,1.73,0,0,0-1.51,1.23c-2.46-1.56-3.1-5.81.52-6.36a2.47,2.47,0,0,1,3,2C135.12,222.57,134.32,224.26,132.94,224.43ZM126.11,207c2.24-.69,5.16.69,6.8,2.15a5.09,5.09,0,0,1,1.89,3.48,3.7,3.7,0,0,1-1.21,2.64,1.41,1.41,0,0,0-1.49-.67c-2.32.26-5.19.17-6.9-1.7S123.46,207.83,126.11,207Z" transform="translate(-86.51 -135.05)"/><path class="cls-1" d="M107.71,226a5.39,5.39,0,0,0,3.6-1.55,7.35,7.35,0,0,0,1.36,2.24,1.94,1.94,0,0,0,3.28-.91,5.82,5.82,0,0,0,6.58-2.59,5.21,5.21,0,0,0-2.43-7.47,6.49,6.49,0,0,0-7.84,1.56,5.93,5.93,0,0,0-5-3.29,7.1,7.1,0,0,0-7.16,5.94,1.63,1.63,0,0,0,1.5,1.89A6,6,0,0,0,107.71,226Zm10-7.48c1.11.26,2.3,1.22,1.93,2.49-.3,1-1.8,2.12-2.83,1.43a1.82,1.82,0,0,0-2.26.15C114.12,220.44,115,217.92,117.75,218.56ZM109.43,220a2.1,2.1,0,0,1-1.75,2.59,2.5,2.5,0,0,1-2.72-1.82,1.64,1.64,0,0,0-1-1.29C105.11,217,109,216.58,109.43,220Z" transform="translate(-86.51 -135.05)"/><path class="cls-1" d="M96.79,250.58q30.66-15.78,62.15-29.83a1.41,1.41,0,0,0,.52-2.31,1.6,1.6,0,0,0,.87-1.46v-71.1c0-1.91-2.67-2.1-3.41-.7a1.73,1.73,0,0,0-.78-.17H97.82a1.67,1.67,0,0,0-1.72,1.9,1.63,1.63,0,0,0-.88,1.48v79.92h0v19.19l-.26.13C92.89,248.71,94.81,251.6,96.79,250.58ZM148.7,218a4.27,4.27,0,0,1-5.35,1.7c-3.3-2.11-1.54-7.51,1.93-7.33a1.56,1.56,0,0,0,1.56.43l.1,0C148.84,213.81,149.93,216,148.7,218ZM137,191.16a2.1,2.1,0,0,0-.42.32,2.7,2.7,0,0,0-.52-.08,5.82,5.82,0,0,0-5.52,4.65,1.93,1.93,0,0,0-.41,0,5.82,5.82,0,0,0-.41-3.56,5.41,5.41,0,0,0-.55-.9,4.84,4.84,0,0,0,3.59-5.2,6.37,6.37,0,0,0,7.05.59,7.76,7.76,0,0,0,3.17-3.1,5.21,5.21,0,0,0,.31.56,5.17,5.17,0,0,0-2.14,3.54,1.63,1.63,0,0,0,.57,1.47,5.88,5.88,0,0,0,.75,1.88A5.37,5.37,0,0,0,137,191.16Zm3.91,6.75a4.54,4.54,0,0,1-4.26,2.28,2.64,2.64,0,0,1-2.72-2.74,2.5,2.5,0,0,1,2.32-2.64,1.52,1.52,0,0,0,1.36-.64A1.82,1.82,0,0,0,139,194a1.72,1.72,0,0,1,2.12.75A3.3,3.3,0,0,1,140.94,197.91Zm-10.36-27.56a5.22,5.22,0,0,0,.3.92,6.86,6.86,0,0,0-3.37,1.81,1.74,1.74,0,0,0-.19-.57c-1.27-2.32.25-5.78,3.28-4.92l.14,0A5.48,5.48,0,0,0,130.58,170.35Zm-1.12,5.79a3.61,3.61,0,0,1,2.4-1.64,3.3,3.3,0,0,1,3.43,1.68,3.57,3.57,0,0,0-.27.28,1.73,1.73,0,0,0-1,.16,5.56,5.56,0,0,0-2.09,1.69,1.7,1.7,0,0,0-2.58,0c-.21.24-.36-1-.36-1A2.73,2.73,0,0,1,129.46,176.14Zm8.66-16c-2.82,1-3.86-2.1-3.15-4.31a1.8,1.8,0,0,0,2,.17c1.07-.55,2.42.39,2.81,1.4A2.19,2.19,0,0,1,138.12,160.16Zm2.46,2.64a6,6,0,0,0,1.84-1.7,3.15,3.15,0,0,0,.22.29,6.46,6.46,0,0,0-2.24,3.48,5.94,5.94,0,0,0-1-1.13l-.39-.29A6.2,6.2,0,0,0,140.58,162.8Zm-4.87,4.71a1.89,1.89,0,0,0,1.17-1.31,2.26,2.26,0,0,1,.81,1.39,2.58,2.58,0,0,1-1.89,2.86,1.24,1.24,0,0,1-1.72-1.29A2,2,0,0,0,135.71,167.51Zm2,11.11s0,0,.06-.06a2.06,2.06,0,0,0,.82-.38,1.41,1.41,0,0,1,.68.15,2.76,2.76,0,0,1,1,2.56,4,4,0,0,1-3,3.46,2.25,2.25,0,0,1-2.81-1.56c-.31-.93-.26-2.49.77-3a2.18,2.18,0,0,0,.49-.32A1.86,1.86,0,0,0,137.74,178.62ZM145.56,202c4.06.28,4.3,5.54,1.2,7.2a7.72,7.72,0,0,0-1.5-.2,1.85,1.85,0,0,0-.6-.27C140.84,207.74,141.33,201.65,145.56,202Zm-46.75,26.2V148.43h57.32a1.89,1.89,0,0,0,.6-.1v68.74a1.57,1.57,0,0,0,.21.81l-5.71,2.58a6.89,6.89,0,0,0,.6-.82,6.8,6.8,0,0,0-1.66-8.8,7.7,7.7,0,0,0,2.35-6,7,7,0,0,0-6.94-6.27,8.77,8.77,0,0,0-1,.05,7,7,0,0,0,.49-2.78,5.47,5.47,0,0,0-.8-2.67,5.14,5.14,0,0,0,7.41-2.7,5.61,5.61,0,0,0,0-4.24,6.44,6.44,0,0,0,2.86-3.31,6.08,6.08,0,0,0-3.25-7.55,5.94,5.94,0,0,0-8,2.4c0-.09-.08-.19-.13-.28a5.09,5.09,0,0,0-4.5-2.64,6.67,6.67,0,0,0-1-1.42,6.13,6.13,0,0,0,.92-.47,6.19,6.19,0,0,0,2.71-4.27,1,1,0,0,0,.06.16c.58,1.23,1.79,2.83,3.21,3.11,3.13.64,6.29-2.91,6.5-5.74v-.06a1.65,1.65,0,0,0,1.06-.61c2.23-2.7,3.24-6.55,1.64-9.83a7.39,7.39,0,0,0-7.78-3.88,5.42,5.42,0,0,0-3.93,2.65,5.81,5.81,0,0,0-6.63-1.45,2.05,2.05,0,0,0-3,.18,7,7,0,0,0,.2,8.37,5.77,5.77,0,0,0,2.1,1.59,4.44,4.44,0,0,0-1.93,1.76,1.27,1.27,0,0,0-.66-.45,7.79,7.79,0,0,0-2.57-.29l.15-.31c1.36-3.36-.39-7.73-4-8.77a5,5,0,0,0-5.29,1.7,4.52,4.52,0,0,0-1.86-3.43c-2.09-1.59-4.87-1-6.79.55s-3.77,4.43-3.59,7.07a4.94,4.94,0,0,0,.24,1.18,7.66,7.66,0,0,0-4.25,1.86c-1.51,1.35-2.58,3.51-1.85,5.53a4,4,0,0,0,3.89,2.63,5.24,5.24,0,0,0-2.91,2.33,6.2,6.2,0,0,0,.4,6.91,1.4,1.4,0,0,0,.61,1.19,6.64,6.64,0,0,0,3.36,1.05,8.5,8.5,0,0,0-3.78,8.87,2,2,0,0,0,3,1.07,6.8,6.8,0,0,0,6.82,2.79,7.08,7.08,0,0,0,5-8.81,7.5,7.5,0,0,0-7.26-5,6.28,6.28,0,0,0,1.46-1.23,4.59,4.59,0,0,0,.33-.44,7.18,7.18,0,0,0,2.29,2.3,1.48,1.48,0,0,0,2-.29,7,7,0,0,0,1.22.27,11.54,11.54,0,0,0,6.07-1.14,1.7,1.7,0,0,0,0,.71A1.85,1.85,0,0,0,127,184c1.73-.21,3.06,3.08,1.68,4.13s-3.8-.61-3.68-2.27c.17-2.2-3.43-2.22-3.59,0a5.07,5.07,0,0,0,1.38,3.83,6.28,6.28,0,0,0-1.45.58c-3.33,1.95-3.32,6.3-.81,8.92,2.77,2.91,7,2.5,10.22.56,1.06,2.73,4.16,4.18,7.13,3.84.26,0,.52-.08.78-.13a6.37,6.37,0,0,0-.18.89,7.35,7.35,0,0,0,2.28,6,6.52,6.52,0,0,0-1.93,2.38,7.78,7.78,0,0,0,2.18,9.46,1.68,1.68,0,0,0,.59.47,2,2,0,0,0,.48.21,7.3,7.3,0,0,0,2.66.57q-13.47,6.21-26.79,12.73a7.05,7.05,0,0,0-.48-4.68c-1.75-3.66-6.25-4.82-9.95-3.87s-7.43,4.52-6.48,8.61c.77,3.37,4.88,5.34,7.86,3.45a1.73,1.73,0,0,0-1.86-2.92c-2,1.26-2.88-1.73-2.18-3.17A5.86,5.86,0,0,1,110,230.7a4.36,4.36,0,0,1,4.26,2.36,3.41,3.41,0,0,1-1.15,4.29,1.54,1.54,0,0,0-.82,1.57q-6.76,3.35-13.48,6.78Zm47.51-41.37a1.91,1.91,0,0,0,.65.24,6.92,6.92,0,0,0,1.11.09,1.69,1.69,0,0,1,.32,1.9c-.33,1-1.32,1.94-2.33,1.14a2.19,2.19,0,0,1-.49-3A2.36,2.36,0,0,1,146.32,186.78Zm3.11-8.52a2.9,2.9,0,0,1-.19,5.4,5.28,5.28,0,0,0-1.24-.38,5.73,5.73,0,0,0-1.31-.06,1.88,1.88,0,0,0-.24-.36C144.69,180.81,146.7,177.13,149.43,178.26ZM144.82,164a2.12,2.12,0,0,1,2.07.52c1.42,1.36,0,3.29-1.55,3.85a3.5,3.5,0,0,1-.87-3.73,2.1,2.1,0,0,0,.08-.47A1.24,1.24,0,0,1,144.82,164Zm-.16-6.93c.11-1.51,1.55-2.12,2.92-1.94,3.8.5,3.82,4.78,2.24,7.44a5.5,5.5,0,0,0-1.59-1.32,1.84,1.84,0,0,0-1.83-1.47C145.19,159.79,144.58,158.08,144.66,157.09Zm-34.94,29.28a4.14,4.14,0,0,1,5.12,1.48,3.68,3.68,0,0,1-1.51,5.07c-2.16.88-4.07-1.26-4-3.26a1.37,1.37,0,0,0-1.41-1.45A4.12,4.12,0,0,1,109.72,186.37Zm-2.28-6.08a1.82,1.82,0,0,0-.49-.52c-2.15-1.56-.55-5.8,2.2-4.13a2.42,2.42,0,0,1,.95,3.52A3.12,3.12,0,0,1,107.44,180.29Zm2.65-10.53c-1.58-.08-1.79-1.88-1.12-3a1.44,1.44,0,0,0,.18-1.29,2.54,2.54,0,0,1,2.59,1.92A1.73,1.73,0,0,1,110.09,169.76Zm9.35-10.27a4.81,4.81,0,0,0,.11.91,5.31,5.31,0,0,0-.5,1.82,4.16,4.16,0,0,1-2.87,1.44,1.73,1.73,0,0,0-1.64,1.32l-.2-.31c1.19-.94,0-3.29-1.94-2.88-1,.21-.63-1.84-.52-2.18a6.74,6.74,0,0,1,1.6-2.63c.54-.55,1.46-1.37,2.31-1.16.41.1,1.35.89,1,1.38C115.5,159,118.13,161.08,119.44,159.49Zm-4.16,7.39a1.69,1.69,0,0,0,.93.2,8.18,8.18,0,0,0,4-1.31,4.8,4.8,0,0,0,.73.69,5.28,5.28,0,0,0,3.08,1.07,6.66,6.66,0,0,0-.76,2.7,9.2,9.2,0,0,0-7.75.85,7.19,7.19,0,0,0-2.73,3.11,6.28,6.28,0,0,0-1.24-1.17.05.05,0,0,1,0,0A5.22,5.22,0,0,0,115.28,166.88Zm1.46,9a1.7,1.7,0,0,0,.64-1.9,5.17,5.17,0,0,1,6.6.74c2.21,2.53-.1,4.46-2.68,5-1.42.29-3.34.33-4.41-.81C116.21,178.15,115.78,176.61,116.74,175.89Zm6.71-11.9a1.53,1.53,0,0,1-.76-.87,7.82,7.82,0,0,0,.72-1.61,1.69,1.69,0,0,0,.07-.62,1.82,1.82,0,0,0-.22-2.21,1.7,1.7,0,0,1,2,0,3.42,3.42,0,0,1,1.07,3.78A2.27,2.27,0,0,1,123.45,164Zm1.64,33.71-.16.1a3.21,3.21,0,0,1-1.15-.45c-1.29-.83-2.27-3-.74-4.11C126.08,191.07,128.22,196.26,125.09,197.7Z" transform="translate(-86.51 -135.05)"/><path class="cls-1" d="M276.83,174.67a1.8,1.8,0,0,0-2.4-1.47l-11.07,4.63a1.78,1.78,0,0,0-.7.5c-1.09-.93-3.28-.41-3,1.32q.81,5.49,1.61,11c.24,1.65.14,4.43,1.61,5.69,1.71,1.45,4.37.48,6.24.14l10.09-1.85c1-.19,2.06-1.13,1.56-2.29A48.4,48.4,0,0,1,276.83,174.67Zm-4.39,17.72c-1.16.21-5.76,1.7-6.82,1.14s-1.06-5.07-1.25-6.31c-.29-2-.59-4.05-.89-6.08a1.69,1.69,0,0,0,1.09-.1l8.81-3.69a50.73,50.73,0,0,0,3.24,14.27Z" transform="translate(-86.51 -135.05)"/><path class="cls-1" d="M205.53,163.86a124.16,124.16,0,0,0-22.95,24c-1.35,1.86,1.47,3.94,2.77,2.15a120.65,120.65,0,0,1,22.28-23.42C209.43,165.17,207.28,162.46,205.53,163.86Z" transform="translate(-86.51 -135.05)"/><path class="cls-1" d="M203.05,176.49a44.35,44.35,0,0,0-7.49,7.51c-1.41,1.82,1.37,3.95,2.73,2.21a40.54,40.54,0,0,1,6.81-6.92C206.91,177.85,204.81,175.1,203.05,176.49Z" transform="translate(-86.51 -135.05)"/></g></svg>