<svg xmlns="http://www.w3.org/2000/svg" viewBox="0 0 188.66 129.41"><defs><style>.cls-1{fill:#979797;}</style></defs><title>salads-gray</title><g id="Logo_FIXED" data-name="Logo — FIXED"><path class="cls-1" d="M291.83,193.16h-1.27a7.33,7.33,0,0,0,1.19-7.42,6.46,6.46,0,0,0-7-3.91,15,15,0,0,0-.8-5.1c0,.07-.55-.62-.8-.78.29-.45,1-2.58.95-2.35a8.22,8.22,0,0,0-4.24-8.95,6.78,6.78,0,0,0-1.69-7.53c-3.13-2.94-6.73-1.65-10.46-1.79l-.62,0a30.65,30.65,0,0,0-3.73-10.16c-1.26-2.12-4-6.67-6.7-7.15-2.3-.41-5.12,2.14-6.64,3.47a22.92,22.92,0,0,0-5.29,6.73c-1.5-2.27-3.19-4.46-4.9-6.6a1.6,1.6,0,0,0-2.05-.5c-5.76,2.61-12.05,6.06-13.2,12.85v0a6.45,6.45,0,0,0-.76,0c1-8.28-8.27-13.42-15-8.93-3.42-8.37-15.81-6.92-17.41,1.4a6.53,6.53,0,0,0-6.42,0c-3.08,1.68-4.26,4.73-4.6,8-1-2.84-2.63-6.12-5.29-5.94a7.87,7.87,0,0,0-3,1,44.93,44.93,0,0,0-12.89-14,1.56,1.56,0,0,0-2,.54,85.5,85.5,0,0,0-6.83,12.18c0,.09-.06.17-.08.25a9.92,9.92,0,0,0-13.91-5.63,12.34,12.34,0,0,0-9.36-4.84c-6.19-.15-8.41,4.13-12.63,7.48-4,3.15-7.84,5.09-8.52,10.7a12,12,0,0,0,4.44,10.67,9.55,9.55,0,0,0,6.53,16.42,7.77,7.77,0,0,0,.65,7.14,8.77,8.77,0,0,0,6,3.94l-.13.15a4.68,4.68,0,0,0-.43,3.37,86.66,86.66,0,0,0,17.74,41.74c9,11.46,22.06,17.92,35.95,21.52a125.14,125.14,0,0,0,34.71,3.51,109.51,109.51,0,0,0,25.82-3.39c29.35-8,51.38-33.62,56.8-63.2.12-.67.3-1.34.41-2C294.58,194.06,293.69,193.15,291.83,193.16Zm-7.4-8.23c2.05-1.09,4.58.59,4.82,3.15a5.27,5.27,0,0,1-3,5.09H279.5C282.24,191.48,283.83,188.29,284.43,184.93Zm-15.52-26.51a26.25,26.25,0,0,1,2.76-.43c3.26,0,7.26,2.79,4.86,6.69a1.43,1.43,0,0,0,1,2.06,4.9,4.9,0,0,1,3.58,4.92c.07,1.55-1,2.48-1.09,3.86a3.07,3.07,0,0,0,.33,1.88c.11.3.56.35.71.6,1.18,1.94,1.08,2.9.64,4.95,0,.16-.07.34-.11.51s-.3.3-.44.47a1.41,1.41,0,0,0-.1,1.68c-.64,2.18-1.64,4.38-3.5,5.4a1.28,1.28,0,0,0-.19,2.18l-19.43,0c1-3,2.18-5.93,3.43-8.81l9.73-1.16c1.88-.23,1.93-3.08,0-2.85l-8.39,1a117.54,117.54,0,0,1,7.67-13.83c1-1.59-1.73-2.73-2.71-1.22a116.82,116.82,0,0,0-8,14.5,43.93,43.93,0,0,1-4.06-10.23c-.46-1.76-3.34-1-2.88.84a47.23,47.23,0,0,0,5.11,12.23,1.56,1.56,0,0,0,.38.42q-1.9,4.47-3.47,9.12h-4.86l-3.55-.34a1.75,1.75,0,0,0-.23-.35c-3.37-3.74-9.17-13.57-.57-15.26a1.43,1.43,0,0,0,.82-2.13c-2.87-4.66,0-9.66,5.43-9.64a1.49,1.49,0,0,0,1.4-1.1A10,10,0,0,1,255,160.9a1.58,1.58,0,0,0,.87-.94c2.56-2.3,6.34-2.55,10.18-1.69A8,8,0,0,0,268.91,158.42Zm-19-12.81c1.08-1.26,4.33-5,6.36-4.55,1.53.33,3.79,4.41,4.56,5.71a27,27,0,0,1,3.06,8.18,11.61,11.61,0,0,0-6.6.65,13.21,13.21,0,0,0-1.82,1,19.26,19.26,0,0,1,.5-5.94c.44-1.82-2.51-2.35-2.93-.57a21.5,21.5,0,0,0-.25,8.89,12.93,12.93,0,0,0-2.17,3.77c-.22,0-.43.06-.64.09a25.91,25.91,0,0,0-3.48-11.61A21,21,0,0,1,250,145.61Zm-22.5,9.06c.94-5.56,5.88-8.38,10.61-10.58a67.71,67.71,0,0,1,5.26,7.41,1.48,1.48,0,0,0,.72,1.27,22.7,22.7,0,0,1,3,10.91s0,0,0,.08a8.71,8.71,0,0,0-4,11.32,8.5,8.5,0,0,0-5,7.52c-.2,4,2,7.37,4.51,10.32a19.25,19.25,0,0,1-4.09.31h-.72a186.34,186.34,0,0,1,.17-33.32c.17-1.86-2.78-2.3-3-.48a190.79,190.79,0,0,0-.21,33.8h-2.5c2.77-9,.31-19-5.76-26.25h0c6.06-2.31,5.3-9.74.91-12.21C227.43,154.73,227.45,154.7,227.45,154.67Zm-4.94,23.94a7.66,7.66,0,0,0-6,3c-.22-1-.5-2-.81-2.93l5.83-5.49c1.4-1.32-1-3.07-2.29-1.82l-4.66,4.39a31.13,31.13,0,0,0-8.43-11.22c-1.4-1.18-3.52.85-2,2.09a28,28,0,0,1,10,23.71c-15.84,1.87-14.1-22.83-14.13-34.05,8.87,1.42,17.53,4.9,23.61,11.75a25.76,25.76,0,0,1,5.59,25.16h-2.78C231,190,230.41,178.58,222.51,178.61Zm-1.17,3c6.11-1.71,6.4,9.11,2.21,9.49a1.43,1.43,0,0,0-.81-.46C218.35,189.76,216,183.12,221.34,181.63Zm-.63,11.59h-6.64l.28,0a1.53,1.53,0,0,0,1.23-.88,1.58,1.58,0,0,0,1.47-1.4c0-.15,0-.3,0-.45a9,9,0,0,0,3.47,2.52A2,2,0,0,0,220.71,193.22Zm-45.87-41.68c2.16.32,4.39,8.57,4.92,10.41a21.16,21.16,0,0,1,.05,12.91c-.57,1.76,2.4,2.17,3,.46a23.58,23.58,0,0,0-.06-13.82,1.22,1.22,0,0,0,.71-1.3c-.25-2.33-.59-4.86.07-7.16.95-3.27,6-6.67,7.92-2.4.61,1.35,3.21,1.12,2.91-.59-1.52-8.67,10.65-11.2,12.12-2.36a1.52,1.52,0,0,0,2.62.82c5.55-5.82,13.63-.14,11.32,7.06-.36,1.1,1,2,2,1.62,5.55-2.07,8.09,5.9,2.18,7.42l-.14,0c-6.8-6.72-16.17-10.19-25.58-11.4a1.51,1.51,0,0,0-1.86,1.43c.3,10.76-1.75,36.61,13.3,38.53h-7a1.39,1.39,0,0,0-.53-.19c-3.58-.56-5.49-9.31-6.24-12.3A44.21,44.21,0,0,1,195.43,167c.12-1.84-2.88-1.76-3,.07a46.08,46.08,0,0,0,2.15,17.72c.82,2.46,1.83,6,3.63,8.44h-8.57a9.55,9.55,0,0,0,1.64-12c-3.4-5.58-11.37-6.91-15-.87a12.07,12.07,0,0,0-1.34,3.41,1.3,1.3,0,0,0-1.27.15,20.18,20.18,0,0,1-8.07,3.28h0a112.62,112.62,0,0,1,8.53-22c.87-1.7-1.89-2.78-2.72-1.16q-2.21,4.31-4,8.74a14.77,14.77,0,0,1-1.62-5.19c-.22-1.83-3.21-1.54-3,.29a17.87,17.87,0,0,0,3,8,1.35,1.35,0,0,0,.25.28c-1.3,3.47-2.45,7-3.42,10.6a1.11,1.11,0,0,0,.51,1.34,1.33,1.33,0,0,0,1.19,2.14,23.25,23.25,0,0,0,10.27-3.5,8.89,8.89,0,0,0,2.52,6.52H161.29a26.56,26.56,0,0,0-2.75-22.15,1.69,1.69,0,0,0,1.82-1.53c.17-4.64,2.44-8.46,5.71-11.61C167.31,156.71,173,151.26,174.84,151.54Zm3.09,32.59a8.8,8.8,0,0,1,1-2.36c2.71-4.49,8.22-2.46,10.19,1.59a6.54,6.54,0,0,1-3.74,9.08,5.17,5.17,0,0,1-1.75.26,1.3,1.3,0,0,0-1.24-.63A5.34,5.34,0,0,1,181,192a5.75,5.75,0,0,1-2.53-6.34A1.28,1.28,0,0,0,177.93,184.13ZM151.4,172.94l-1.14,7.26-2.49-3a1.34,1.34,0,0,0-.68-.82l-7-8.4c-1.18-1.41-3.32.57-2.1,2l5.17,6.22h-5.43a1.43,1.43,0,1,0,0,2.85h7.83l11.73,14.11H152a1.5,1.5,0,0,0-1-.29c-9.57.84-13.61-6.11-16.59-13.93l-7.62-20.06c8.88.43,20.6,3.81,26.58,10.12A23.55,23.55,0,0,1,159,190.65l-6.61-7.94a1.48,1.48,0,0,0,.7-1.05q.69-4.33,1.36-8.66C154.69,171.18,151.68,171.14,151.4,172.94Zm7.4-34.1a41.45,41.45,0,0,1,10.72,12.22,54.9,54.9,0,0,0-5.77,5.06,21.82,21.82,0,0,0-4.48,6.08l-.49-.2c.9-5.2-.71-11.85-5.64-12.92A85.06,85.06,0,0,1,158.8,138.84Zm-37.88,50.79c-2-2.14-2.8-5.25.2-7.36a1.44,1.44,0,0,0-1.34-2.52,6.72,6.72,0,0,1-6.4-11.8,1.39,1.39,0,0,0,.14-2.25c-4-2.65-6.17-7.5-4-12.08,1.6-3.32,4.63-3.73,7.13-5.84,2.07-1.74,2.83-4.3,5.33-5.7,4.65-2.61,9.76-.72,12.57,3.43a1.57,1.57,0,0,0,2.09.36c4.81-3,10.24-.43,11.11,5a1.51,1.51,0,0,0,2,1.23l4.51.83a6.44,6.44,0,0,1,2,5.3,15.27,15.27,0,0,1-.64,4.35,1.41,1.41,0,0,0,.8,1.56l1.84.72a18.93,18.93,0,0,0-.83,4.52,26.12,26.12,0,0,0-1.72-2.09c-7.17-7.73-21.1-11.3-31.31-11.27a1.45,1.45,0,0,0-1.23,2q2.86,7.5,5.71,15c1.79,4.73,3.24,9.93,5.74,14.35a16.15,16.15,0,0,0,5.58,5.84h-9a1.63,1.63,0,0,0-2-1.72C126.06,192.16,123.19,192,120.92,189.63Zm92.77,70.65a1.82,1.82,0,0,0-1.33.48c-20.81.53-45.89-2.72-62.08-16.64-13.75-11.83-20.34-29.58-23.79-47H290.08A74.73,74.73,0,0,1,213.69,260.28Z" transform="translate(-105.67 -135.3)"/></g></svg>