<svg xmlns="http://www.w3.org/2000/svg" viewBox="0 0 212.04 177.5"><defs><style>.cls-1{fill:#979797;}</style></defs><title>sandwiches-gray</title><g id="Logo_FIXED" data-name="Logo — FIXED"><path class="cls-1" d="M293.13,206.12a1.31,1.31,0,0,0,.36-.94v-22.1a1.46,1.46,0,0,0,.55-2.51,972.62,972.62,0,0,0-93.52-69,1.61,1.61,0,0,0-1.84,0L113.3,181.13c-1,.06-1.91.11-2.86.18a1.45,1.45,0,0,0-1,2.44,1.82,1.82,0,0,0,0,.41q1.25,11,2.47,22c-8.6,2.69-13.64,14.31-7.29,21.77a12,12,0,0,0,3.11,2.57,1.46,1.46,0,0,0-.39.29A48.94,48.94,0,0,0,94,261.56a1.51,1.51,0,0,0,2.64,1.13,22.9,22.9,0,0,1,5-4.63,1.51,1.51,0,0,0,1.48,1.06h14l-1.29,25a1.26,1.26,0,0,0,.43,1.05,1.43,1.43,0,0,0,1.33,2l172,1.59a1.36,1.36,0,0,0,1.37-.94,1.28,1.28,0,0,0,.09-.72,64.7,64.7,0,0,1,0-21.24c1,1,1.92,2,2.85,3.08a1.55,1.55,0,0,0,2.57-.26,62.47,62.47,0,0,0,2.93-38.1l-.06-.18a16.76,16.76,0,0,0,3.49-3C310.32,219,303.54,206.53,293.13,206.12Zm-93.47-91.65a972.68,972.68,0,0,1,88,64.6q-84.68-3.34-169.37,1.76Zm-86.84,70.77,1.63-1.33A1703.65,1703.65,0,0,1,290.52,182a.49.49,0,0,0,.17,0,1.38,1.38,0,0,0-.2.72v22.5a1.26,1.26,0,0,0,.69,1.17,1.42,1.42,0,0,0-.2,1.88H115.13a.27.27,0,0,0,0-.09c0-.2,0-.41-.07-.61a1.52,1.52,0,0,0-.14-1.27q-1.17-10.45-2.35-20.92A.92.92,0,0,0,112.82,185.24Zm175.57,78.62a66.74,66.74,0,0,0-.53,22l-169.07-1.56a1.08,1.08,0,0,0,0-.19l1.29-25a0,0,0,0,1,0,0h76c1.92,0,1.64-2.83-.26-2.83H104.61c5.66-2.94,12.31-4.21,18.51-5.6,11-2.47,22.15-5.53,33.35-7.24,12.42-1.9,22.75,2.09,33.25,8.39a192.15,192.15,0,0,1,26.64,19.44,1.56,1.56,0,0,0,2.11-.21c2.77-3.62,5.72-7.1,8.8-10.44h57.28a1.38,1.38,0,0,0,1-.39c1,1,2.05,2,3.07,3.05A1.41,1.41,0,0,0,288.39,263.86ZM230,257.78c1.23-1.26,2.49-2.51,3.77-3.73,5.18-4.9,14.19-14.83,22.05-14,4.19.43,8.13,3.47,11.51,5.69s6.56,4.52,9.67,7c2,1.61,4,3.31,5.92,5Zm64.67,7.53a136.55,136.55,0,0,0-17.78-16.38c-5.93-4.52-14.35-11.87-22.26-11.79-7.27.08-13.91,6.87-19,11.32-3.38,2.95-6.59,6.07-9.66,9.32a1.33,1.33,0,0,0-1.37,1.49c-2.59,2.83-5.09,5.77-7.46,8.8a191.37,191.37,0,0,0-28.07-20c-10.43-6-20.76-9.29-32.85-7.46-12.67,1.92-25.29,5.38-37.78,8.23-7.53,1.71-15.2,3.79-21,8.84a46.29,46.29,0,0,1,12.25-25.13,1.21,1.21,0,0,0,.37-1,15.13,15.13,0,0,0,15.89-4.5c4,8.8,16.68,11.91,24.21,5.49,4.36,3.77,10.6,8,16.39,5.33,3.71-1.68,5-6.31,8.82-7.71,5.68-2.07,11.49,2.7,15.62,5.9,5.26,4.08,10.84,7.38,17.71,5.74a17.38,17.38,0,0,0,11.55-9.12c4.74,5.54,12.71,11.77,19.13,5.22,3.7-3.78,3.61-8.9,9.75-10.15,5-1,10.45,1.14,12.56,5.92a1.55,1.55,0,0,0,1.57.86c9.38,0,23.62,1.87,33.44-2.62A59.94,59.94,0,0,1,294.62,265.31ZM292.86,230c-9.07,2.74-19.44,1.72-28.86,1.68-3.13-5.85-10.33-8.29-16.67-6.46a12.3,12.3,0,0,0-7.37,5.66c-1.06,1.81-1.57,4.26-3.34,5.58-2,1.44-4.84,1.38-7,.57-3.78-1.43-6.3-5-8.62-8.14a1.55,1.55,0,0,0-2.58.31c-2.13,6.65-9,11.46-16.13,9.94-6.9-1.47-11.33-8-17.66-10.76-4.27-1.83-9.36-2.29-13.22.69-3.28,2.53-4.37,6.5-9.22,6.7-4,.16-8.41-3.88-11.15-6.35a1.58,1.58,0,0,0-2.11.26c-6.4,6.86-19.42,2.86-21.06-6.31A1.53,1.53,0,0,0,125,223c-2.9,6.47-12.61,8.79-17.72,3.42-5.25-5.52-1.62-15,5-17.41a1.4,1.4,0,0,0,1.22,2.13h180a1.43,1.43,0,0,0,1.38-1.93c4.94,1.12,9,6,8.23,11.27S297.47,228.61,292.86,230Z" transform="translate(-93.98 -111.25)"/><path class="cls-1" d="M212.14,141Q193,150.68,174.7,162c-1.65,1,.21,3.25,1.78,2.27q17.93-11.13,36.77-20.61C215,142.8,213.84,140.17,212.14,141Z" transform="translate(-93.98 -111.25)"/><path class="cls-1" d="M220.94,147.37A102.88,102.88,0,0,1,196,157.59c-1.87.5-.74,3.14,1.07,2.66a106,106,0,0,0,25.62-10.58C224.37,148.7,222.54,146.45,220.94,147.37Z" transform="translate(-93.98 -111.25)"/></g></svg>