<svg xmlns="http://www.w3.org/2000/svg" viewBox="0 0 183.47 205.02"><defs><style>.cls-1{fill:#979797;}</style></defs><title>sauces-condiments-gray</title><g id="Logo_FIXED" data-name="Logo — FIXED"><path class="cls-1" d="M191.34,256.35c0-21.24.48-42.47.58-63.7.05-10.42,0-20.84-.21-31.25-.11-4.77,2.28-24.72-5-21.82a15.93,15.93,0,0,1-2.19.78c-2,.4-4.53,0-6.63,0a2.14,2.14,0,0,0,.22-.94v-19c0-1.66-1.66-2.21-2.93-1.77a2.26,2.26,0,0,0-1-.2H161.6a2.05,2.05,0,0,0-.1-1.49l-8-18.38c-.62-1.41-3.13-1.37-3.8,0-3.24,6.48-7.33,13-9.77,19.91H124.48a1.72,1.72,0,0,0-1.87,1.64,2.22,2.22,0,0,0-.09.6v19a2,2,0,0,0,.12.68c-3.4,0-8.13-1.45-11.37-.2-5.28,2-2,14.54-1.89,19.07,1.26,43.58,0,87.41,0,131,0,2.79-2,10.33,1.47,11.64,3.71,1.41,8.65,0,12.5-.27,6.4-.43,12.87-.42,19.28-.5q19.29-.24,38.57.52A17.19,17.19,0,0,0,188,301c7.37-2.82,2.64-13.65,2.68-19.35C190.77,273.21,191.34,264.79,191.34,256.35Zm-39.94-151c.91,1.18,5.22,13.06,6,13.06H144.58C146.23,114.17,148.33,108.66,151.4,105.35Zm-24.5,34v-16.8c15.63,0,31.26,0,46.89,0-1.78,1.61-1.76,17.75-1.47,17.75H126.65A2,2,0,0,0,126.9,139.36ZM187,297H114.3a2.14,2.14,0,0,0-.58.08q0-27.81.06-55.61a582.45,582.45,0,0,0,72-1.87,2.35,2.35,0,0,0,1.18-.44Zm0-61.31a2.14,2.14,0,0,0-1.28-.27,580.84,580.84,0,0,1-71.89,1.88q0-14,0-27.93L187,208.15ZM187,204l-73.14,1.26q0-30.37-.13-60.75c24.42.1,48.84,0,73.27,0Z" transform="translate(-108.26 -97.49)"/><path class="cls-1" d="M290.28,281.65c.06-8.44.62-16.86.62-25.3V149.11c0-2.76,1.7-8.52-1.81-9.88-2.18-.84-8.78,1.13-11.58,1.13a2.13,2.13,0,0,0,.21-.94v-19c0-1.66-1.65-2.21-2.92-1.77a2.29,2.29,0,0,0-1-.2H261.17a2.11,2.11,0,0,0-.1-1.49l-8-18.38c-.62-1.41-3.13-1.37-3.8,0-3.24,6.48-7.33,13-9.78,19.91H224.05a1.72,1.72,0,0,0-1.87,1.64,2.22,2.22,0,0,0-.09.6c0,6.57,0,13.13,0,19.7,0,0-10.14-.16-11.27-.18-3.13,0-1.93,109.54-1.92,119.6s0,20.32,0,30.48c0,2.79-2,10.33,1.46,11.64,3.72,1.41,8.66,0,12.51-.27,6.4-.43,12.87-.42,19.28-.5q19.29-.24,38.57.52a17.19,17.19,0,0,0,6.86-.64C295,298.18,290.24,287.35,290.28,281.65ZM251,105.35c.91,1.18,5.22,13.06,6,13.06H244.15C245.8,114.17,247.9,108.66,251,105.35Zm-24.5,34v-16.8c15.63,0,31.26,0,46.89,0-1.78,1.61-1.76,17.75-1.48,17.75H226.22A2,2,0,0,0,226.47,139.36Zm-13.22,5.17c0,.27,67-.24,73.08.08.69,4.87-1.07,58.82.18,59a2.4,2.4,0,0,0-.28,0q-18.59-.06-37.16.21c-11.24.17-24.57,2.5-35.53.55C211.42,184.75,213.63,164.21,213.25,144.53ZM286.51,297H213.87a2.14,2.14,0,0,0-.58.08q0-29.21.06-58.4h73.16Zm0-62.46H213.35q0-12.92,0-25.81,36.45-1.19,72.94-1.06h.19Z" transform="translate(-108.26 -97.49)"/></g></svg>