<svg xmlns="http://www.w3.org/2000/svg" viewBox="0 0 92.11 248.68"><defs><style>.cls-1{fill:#979797;}</style></defs><title>sauces-gray</title><g id="Logo_FIXED" data-name="Logo — FIXED"><path class="cls-1" d="M245.91,220.25c-.86-12-8-21.94-15.38-31.21l-.07-.06V105a4.68,4.68,0,0,0-.05-.55h2.14a3,3,0,0,0,3.2-2.78,3.19,3.19,0,0,0,.94-2.33V80.64a2.82,2.82,0,0,0-1-2.28,3.45,3.45,0,0,0-3.55-2.7L165.85,76.9a3.06,3.06,0,0,0-2.4,1,3.55,3.55,0,0,0-2.36,3.33V99.21a3,3,0,0,0,.2,1.07,3.41,3.41,0,0,0,3.42,4.18h4.94v86.29s0,.07,0,.1a55.69,55.69,0,0,0-15.49,34.37,3.4,3.4,0,0,0-.11.87v1.43c0,.78-.12,1.54-.12,2.32a3.39,3.39,0,0,0,.12.87v88.94a2.83,2.83,0,0,0,2,2.84,3.21,3.21,0,0,0,3.06,1.85h82.65a4,4,0,0,0,.89-.1,3.24,3.24,0,0,0,3.36-3.24V221.2A3.15,3.15,0,0,0,245.91,220.25ZM168.06,97.8V83.51l61.63-1.15V97.8Zm-7,129.76a48.84,48.84,0,0,1,14.12-32.62,3.06,3.06,0,0,0,1-2.32,3.11,3.11,0,0,0,.52-1.77V104.46h46.85a3.68,3.68,0,0,0-.06.59v35.11c0,15-4.5,39.05,1.86,52.59,1.58,3.37,4.09,6.19,6.21,9.25a45.33,45.33,0,0,1,7.4,32.49c-25.93-1.2-51.92-1.44-77.86-.55ZM238,240.73c1.42,1,.91,2.57,1,7.27.32,10.69,3.63,31.53-.36,41.11-3.12,7.5-23.58,3.92-32.48,3.91H181.59c-7.82,0-17.37,2.53-20.57-3.92-2.69-5.44-.41-19.11-.47-25.31-.09-8.33,0-16.67.67-25A457.83,457.83,0,0,1,209,238c7.35.21,16.77-.9,23.86,1C235.6,239.74,237.15,240.13,238,240.73Zm-75.58,75.52c-.52-.56-.59-1.72-1.35-4.79-.23-.94.16-13.73,0-13.73h77.72l.26,0v20c-2.79,4.07-40,0-45.19,0-8.07,0-19.07,1.88-26.89-.15C164,316.73,163,316.83,162.41,316.25Z" transform="translate(-153.94 -75.66)"/></g></svg>