<svg xmlns="http://www.w3.org/2000/svg" viewBox="0 0 242.32 198.68"><defs><style>.cls-1{fill:#979797;}</style></defs><title>soups-gray</title><g id="Logo_FIXED" data-name="Logo — FIXED"><path class="cls-1" d="M317,196.47h-1l-58.18.11H241.69l-157,0c-2.1,0-4.52.15-5.74,1.85-1,1.32-.82,3.13-.6,4.75a122.15,122.15,0,0,0,25,58.95c12.76,16.18,31.15,25.3,50.76,30.38,16,4.13,32.58,5.42,49,5,12.28-.33,24.6-1.56,36.45-4.78,41.46-11.27,72.56-47.49,80.21-89.25.17-.95.43-1.89.58-2.85C320.87,197.75,319.61,196.46,317,196.47ZM206.65,291.26a2.51,2.51,0,0,0-1.88.67c-29.38.74-64.8-3.84-87.66-23.49-19.43-16.71-28.73-41.78-33.6-66.32h231C306.4,254.75,260.08,293,206.65,291.26ZM164,157.13c-1.69,2.65-2.07,5.38.23,7.79,1.27,1.33,3.19,1.63,4.86,2.07,1.61.22,3.22.45,4.84.7q7.78.74,3.54,12c-3.06,1.87-.26,6.7,2.82,4.82,5.36-3.29,8.11-9.14,5.29-15.2a11.89,11.89,0,0,0-5.64-5.54c-3.25-1.61-10.86-1.14-8.91-5.48,2.66-5.92,17.65-9,15.68-17.54-.46-2-1.95-2.81-3.39-4.07-5.21-4.55-10.43-8.1-15-13.45-2.33-2.75-6.26,1.22-3.95,4a75.65,75.65,0,0,0,8.34,8.55c1.1,1,7.65,4.94,7.76,5.77C181.24,146.83,166.69,153,164,157.13Zm27.29-40.26c4.09,2.91,9.18,5.66,11.69,10.16,4.46,8,.3,14.65-5,20.61-2.58,2.9-7.73,6.48-6.33,11,.76,2.47,1.68,1.95,3.5,3.5,7,6,5.24,12.69,2.44,20.5-1.13,3.16,3,4.13,4.92,2.45,2.46-2.15,3.3-10.3,3.41-13.36.18-4.74-1.4-9.78-5.17-12.65-1-.78-2.33-1.68-2.18-3a3.24,3.24,0,0,1,.74-1.45c3.14-4.17,7.29-7.8,9.75-12.44,10.84-20.52-19.26-27.41-25.55-41.93-1.43-3.29-6.24-.44-4.83,2.82C181.36,109.2,186,113.1,191.33,116.87Zm25,35.1c-2.43,1.46-7,2.43-8.08,5.37-.95,2.5.38,4,1.81,5.79,4.66,5.77,9.89,7.67,7.51,16.68a2.79,2.79,0,0,0,2.75,3.47c2.41,0,2.65-2.14,3.09-4a18.08,18.08,0,0,0-2.78-13.85c-.41-.62-6.63-6-6.63-6,0-.74,8.53-4.81,9.48-5.51,4.27-3.11,8.64-7.28,10.84-12.17,2.56-5.69-2.35-8.68-6.19-12.47-2.56-2.53-6.51,1.42-4,3.95C232.07,141,223.44,147.67,216.31,152Z" transform="translate(-78.2 -98.82)"/></g></svg>