<svg xmlns="http://www.w3.org/2000/svg" viewBox="0 0 199.11 163.25"><defs><style>.cls-1{fill:#979797;}</style></defs><title>soups-gray</title><g id="Logo_FIXED" data-name="Logo — FIXED"><path class="cls-1" d="M296.66,198.61h-.81L248,198.7a400.63,400.63,0,0,0,46.06-42.16c1.51-1.62,2.67-4.81.57-5.5-1.2-.39-2.36.63-3.22,1.56a402.2,402.2,0,0,1-46,42.48,17.41,17.41,0,0,1-4.69,2.93,17.78,17.78,0,0,1-6,.68l-129,0c-1.71,0-3.7.13-4.71,1.52-.79,1.09-.67,2.57-.49,3.9a100.45,100.45,0,0,0,20.58,48.44c10.49,13.3,25.6,20.79,41.71,25a144.83,144.83,0,0,0,40.28,4.08,126.9,126.9,0,0,0,29.95-3.93c34.06-9.25,59.62-39,65.9-73.33.15-.78.36-1.56.48-2.34C299.84,199.66,298.81,198.6,296.66,198.61ZM206,276.5a2,2,0,0,0-1.54.55c-24.15.61-53.25-3.16-72-19.31-16-13.72-23.61-34.33-27.61-54.48H294.62A86.71,86.71,0,0,1,206,276.5Z" transform="translate(-100.45 -118.38)"/><path class="cls-1" d="M164,166.29c-1.39,2.17-1.7,4.42.18,6.39,1.05,1.1,2.62,1.35,4,1.71,1.32.17,2.65.37,4,.57q6.41.61,2.91,9.86c-2.51,1.54-.21,5.51,2.32,4,4.41-2.7,6.67-7.5,4.35-12.49a9.72,9.72,0,0,0-4.63-4.54c-2.67-1.33-8.93-.94-7.33-4.51,2.19-4.87,14.51-7.37,12.89-14.41-.38-1.67-1.6-2.32-2.79-3.35-4.28-3.74-8.56-6.65-12.3-11-1.91-2.26-5.14,1-3.24,3.24a61.46,61.46,0,0,0,6.85,7c.9.78,6.29,4.06,6.38,4.74C178.15,157.82,166.19,162.88,164,166.29Z" transform="translate(-100.45 -118.38)"/><path class="cls-1" d="M186.44,133.2c3.36,2.39,7.54,4.66,9.61,8.36,3.66,6.56.24,12-4.12,16.93-2.12,2.38-6.35,5.32-5.21,9,.63,2,1.39,1.6,2.88,2.88,5.75,4.92,4.31,10.43,2,16.84-.93,2.6,2.47,3.39,4,2,2-1.77,2.71-8.46,2.81-11,.14-3.89-1.16-8-4.25-10.39-.84-.64-1.92-1.38-1.79-2.43a2.54,2.54,0,0,1,.6-1.19c2.58-3.43,6-6.41,8-10.23,8.91-16.86-15.82-22.52-21-34.44-1.17-2.7-5.13-.37-4,2.31C178.25,126.9,182.07,130.1,186.44,133.2Z" transform="translate(-100.45 -118.38)"/><path class="cls-1" d="M207,162c-2,1.2-5.72,2-6.64,4.42-.78,2,.32,3.3,1.5,4.76,3.82,4.74,8.12,6.3,6.16,13.7a2.3,2.3,0,0,0,2.27,2.85c2,0,2.17-1.76,2.53-3.3a14.85,14.85,0,0,0-2.28-11.38c-.34-.51-5.45-4.93-5.44-5,0-.6,7-3.95,7.78-4.52,3.51-2.56,7.1-6,8.91-10,2.1-4.68-1.94-7.13-5.09-10.25-2.1-2.08-5.35,1.16-3.25,3.24C219.92,153,212.82,158.51,207,162Z" transform="translate(-100.45 -118.38)"/></g></svg>