<svg xmlns="http://www.w3.org/2000/svg" viewBox="0 0 224.87 246.49"><defs><style>.cls-1{fill:#979797;}</style></defs><title>spice-herb-gray</title><g id="Logo_FIXED" data-name="Logo — FIXED"><path class="cls-1" d="M199.79,205.73c-2.68-2.65-6.47-3.61-10.09-4.09-2-.26-3.94-.45-5.92-.62a76.78,76.78,0,0,0,8.73-3.8,1.55,1.55,0,0,0,2.12-.41l.68-1.09a85.47,85.47,0,0,0,10.27-6.82c7,3.36,15.15,5.48,22.82,3.83,6.77-1.47,13.09-6.7,13.68-14,.69-8.46-6.26-7.93-12.57-7.95-4,0-7.93-.08-11.38,2.31-4,2.78-7.43,6.75-11,10.09a1.13,1.13,0,0,0-.34,1c-.52.44-1,.88-1.57,1.31l-.47-.25c-1.38-.73-2.51,1-1.84,2.05q-2.35,1.77-4.81,3.38a53,53,0,0,0,5.05-16.59c.59-4.52,2.29-16.6-3.07-19.24-12.21-6-8,33.28-7.26,37.77a1.22,1.22,0,0,0,.43.77,3.21,3.21,0,0,0-.19.31,70.81,70.81,0,0,1-17,6.7q-1.54-.1-3.09-.24a1.58,1.58,0,0,0-1.69,1.21c-1.62.27-3.22.47-4.82.59,8.92-5.31,15.68-15.18,13.9-25.6-1.32-7.74-8.69.85-10.64,3.22a97.43,97.43,0,0,0-13.68,22.26,82.89,82.89,0,0,1-9.15-1.38c-8.18-1.69-16.24-3.66-24.57-2.55,4.83-8.43,8.86-17.41,12.86-26.22a22.21,22.21,0,0,0,4.73,12.7c3.52,4.22,9.88,7.62,15.37,5.22,6.17-2.69,3.71-8.92.22-12.81-4.62-5.15-11-8.08-17.41-10.57,0-.41,0-.82.08-1.23,1.78-4,3.55-8,5.35-12.06,2.53,5.48,6.07,10.78,11,14,4.52,2.92,11.4,3.47,15.08-1.19,4.25-5.4.3-12.27-4.36-15.8s-10.63-6.81-16.7-7.79c1.07-2.21,2.16-4.41,3.29-6.57a63.83,63.83,0,0,1,6.47-10.07c-.55,9.81,1.82,18,12.86,20,9.61,1.74,22.09-.63,23-12.33a1.43,1.43,0,0,0-.78-1.21c-9.42-6.21-21-6.53-31.18-10.87,4.94-4.73,11-8,18.36-8.2a1.33,1.33,0,0,0,1.37-1.19h0c12-8.73,12.1-26.16-.28-34.64a1.57,1.57,0,0,0-2.33.44c-5.4,10-10.25,23.58-1.39,32.72A29.25,29.25,0,0,0,162.31,117c.08-6.77-1-13.55-6.59-18.17-7.92-6.53-18.76-5.43-28.22-4.17a1.45,1.45,0,0,0-1.26,1.94l6.25,14.32c1.46,3.34,2.76,7,5.39,9.67,4.49,4.49,11.13,4.66,17.17,4.14a95.61,95.61,0,0,0-9.79,17.1,20.22,20.22,0,0,0-3.2.19c-5.58-13.64-21.12-21.81-35.68-18.31a1.44,1.44,0,0,0-1,1.79,34.28,34.28,0,0,0,36.46,24c-1.47,3.4-2.86,6.69-4.22,9.7-.34.74-.67,1.47-1,2.21a1.58,1.58,0,0,0-2.54-.31c-.45.51-.92,1-1.4,1.49l-.54-.2a1.2,1.2,0,0,0-1.1-1.25,35.47,35.47,0,0,0-3.54-.39,82.61,82.61,0,0,0-24.8-4.16,80.19,80.19,0,0,0-8.9.38c-1.51.15-4.11,0-5.36,1.16-2.13,1.9.09,5.27,1.29,7.15,4.44,6.95,12.83,10.87,21,10.82,8.66-.05,16.45-4.21,22.62-10a1.15,1.15,0,0,0,.57,1.57c-8.76,20-17.89,41.28-35.56,54.56-1.53,1.15.12,3.52,1.62,2.39,8.59-6.45,15.11-14.63,20.56-23.58a1.43,1.43,0,0,0,.41,0c10.13-1.87,19.78,1.36,29.66,3.07-4.27,9.74-10.52,26.56,0,34.7,8.89,6.88,14.67-11.4,15.39-17a19.7,19.7,0,0,0-4.23-14.86c-.43-.53-1-1.19-1.67-1.86a63.36,63.36,0,0,0,10.91-.7,1,1,0,0,0,0,.25c1.29,12.27,16.9,22.71,28.07,14.66C203.76,215.8,203.86,209.78,199.79,205.73Zm9.8-20.11,16.87,1.19c1.87.14,2.44-2.68.5-2.81l-14.43-1c1.29-1.21,2.53-2.46,3.75-3.73a1.57,1.57,0,0,0,1.59,1.53h8c1.92,0,1.58-2.83-.31-2.83h-8.08c.5-.53,1-1.06,1.49-1.6a1.58,1.58,0,0,0,.3-.5,12.34,12.34,0,0,1,5.23-2.11,64.31,64.31,0,0,1,8.89-.08c5.64.06,6.61,5.21,4.15,9.52-5.89,10.32-19.79,7.88-29.41,3.7C208.63,186.47,209.11,186,209.59,185.62Zm-15.26-13.3a79,79,0,0,1,.7-8.55c.34-2.39.11-4.89,3.07-4.55,2.64.31,2.15,1.78,2.36,4.27a49.29,49.29,0,0,1-5.09,26.07A93.8,93.8,0,0,1,194.33,172.32Zm-13.1-91.95a18.09,18.09,0,0,1,0,28.24,1.13,1.13,0,0,0,0-.37,27.34,27.34,0,0,1,.81-10.65c.51-1.8-2.45-2.27-2.94-.52a29.47,29.47,0,0,0-1.07,8.43C173.63,97.94,177.26,88.05,181.23,80.37Zm-19.81,43.52A82.5,82.5,0,0,0,174,127.72c3.81.93,17.48,2.92,16.89,7.91s-7.43,7.32-11.44,7.65c-3.84.32-8.9-.17-12.45-1.87C160.48,138.32,160.88,130,161.42,123.89Zm-8.2-8.37v6a1.36,1.36,0,0,0,.09.47c-.69,0-1.37.06-2.05.06a41,41,0,0,0-.91-12.09c-.41-1.78-3.32-1.11-2.91.72a37.51,37.51,0,0,1,.83,11.22c-4.3-.47-8.16-2.18-10.58-6.69-3.07-5.7-5.39-12-7.93-18,7.68-1,16.26-1.76,22.87,2.92s7,12.24,6.61,19.5l-.1,0a1.48,1.48,0,0,0-2,2l-1.07.11a1.43,1.43,0,0,0,.11-.56v-6C156.21,113.37,153.22,113.68,153.22,115.52Zm-6,29.34a31,31,0,0,1,10.55,3.86c4.66,2.54,15.2,9.4,8.87,15.61-8.51,8.35-17.67-6.67-21.43-15.15Q146.24,147,147.26,144.86Zm-3.3-.15c-.11.23-.21.46-.32.7a1.28,1.28,0,0,0-.53-.33l-.09-.31Zm-35.23-18.58c14-2.52,28.29,6.83,31.75,20.67A31.38,31.38,0,0,1,108.73,126.13Zm36.56,46.5c2.91,1.6,16.58,11.35,8.2,14.45-5.16,1.91-10.59-2.8-12.9-7a22.86,22.86,0,0,1-2.53-10.75A65.59,65.59,0,0,1,145.29,172.63Zm-51.94-7.38c-1.46-1.86-3.28-3.46-1-5.24.92-.72,4.26-.4,5.32-.46a80,80,0,0,1,13,.4,78,78,0,0,1,8.25,1.4,33.1,33.1,0,0,0-10,3.78c-1.69,1,0,3.35,1.57,2.42a29.61,29.61,0,0,1,16.4-4c1.15.39,2.3.79,3.44,1.22C119.72,173.82,103.24,177.8,93.35,165.25Zm67.52,63.33a39.34,39.34,0,0,1-2.08,4.64,14.23,14.23,0,0,1-1.87,2.82l-5.79-.91c-2.63-1.86-3.13-8-3.16-10.86a34.59,34.59,0,0,1,2.5-12.27,42.9,42.9,0,0,0-.55,7.53c.21,3.56,2.5,6.59,6.27,4.84,1.75-.82.17-3.24-1.51-2.46-2.34,1.09-1.16-9.78-1.09-10.61a45.92,45.92,0,0,1,.4-5.52,1.22,1.22,0,0,0,.38.13c-.43,1.65,2.07,2.73,2.72,1.1.08-.2.17-.4.25-.59.56.52,1,1.07,1.3,1.36C164.18,213.78,163.74,221.48,160.87,228.58Zm-1.22-26.49-.43,0a94.37,94.37,0,0,1,6.42-11.87,91.75,91.75,0,0,1,6.34-8.71c1.52-1.85,4.83-6.92,5.49-2.21.77,5.47-3.54,12.38-7.07,16.11A24.83,24.83,0,0,1,159.65,202.09ZM195.37,218c-9.49,4.08-20.41-4-21.43-13.65a1.44,1.44,0,0,0-.16-.52c.85-.16,1.69-.34,2.53-.54,4.28.31,8.57.59,12.81,1.16,3,.41,6.31,1.07,8.51,3.39C200.91,211.29,199.79,216.09,195.37,218Z" transform="translate(-87.56 -76.75)"/><path class="cls-1" d="M188.16,149.86c-1.84-.33-2.75,2.39-.84,2.73l6,1.08c1.84.33,2.75-2.4.84-2.74Z" transform="translate(-87.56 -76.75)"/><path class="cls-1" d="M296.74,230.66c-12-3.59-25.69-1-37.89-.25-7.5.49-17.19,3-22.2-4.08-4.35-6.12-7.79-13.15-11.59-19.62a1.52,1.52,0,0,0-1.7-.63l-4.15,1.72a1.51,1.51,0,0,0,0,2.81C218.7,217,220.34,223,221,229.25c.74,7.22-1,13.26-4.92,19.32-6.63,10.31-13.34,19-14.95,31.56-1.21,9.45-.6,22.4,7.71,28.68,7.94,6,19.9,5.19,29.11,3.59,12.44-2.15,24.26-7.38,35.54-12.86,10.89-5.29,21.65-11.68,29.35-21.23C314.37,264,318.93,237.3,296.74,230.66Zm-.54,50.64c.34-16.38-2-35.75-19.09-42.81-1.7-.71-3.22,1.77-1.43,2.51,17.08,7.06,18.05,27.28,17.44,43.15a83.63,83.63,0,0,1-12.9,9.08c4.07-11.69,1.75-24.52-5.22-34.69-7.57-11.05-19.58-18-32-22.26-1.75-.6-3.13,1.95-1.3,2.58,22,7.5,45.2,28.23,35.57,53.94a1.43,1.43,0,0,0,.6,1.76,173.14,173.14,0,0,1-27,11.47c-1.55.53-3.15,1.05-4.78,1.53a1.31,1.31,0,0,0-.72-.61c-12.8-4.94-15.29-21.53-15.64-33.51-.42-14,.38-28.19.67-42.23,0-1.84-2.95-1.55-3,.28-.33,16.07-1.87,32.66-.27,48.69,1,10.62,4.89,23.29,15,28.48a76.87,76.87,0,0,1-8.13,1.61,1.43,1.43,0,0,0-.95-.64,23.47,23.47,0,0,1-15.52-34.38c.9-1.68-1.84-2.83-2.71-1.22a26.25,26.25,0,0,0,12.62,36.75,36.3,36.3,0,0,1-11.5-1.59C202.76,305,202.31,288,204.73,276.63a49.8,49.8,0,0,1,7.47-17.39c3.26-4.88,7.11-9.42,9.57-14.79,5.2-11.35-.55-22.43.41-34.14a1.35,1.35,0,0,0-.09-.62l1-.43q4.06,6.93,8.14,13.87c2,3.49,4,7.44,7.71,9.41s8.27,1.47,12.38,1.21q9-.57,17.9-1.17c9.9-.64,21.59-2.39,30.76,2.44,11.81,6.23,11.32,21.56,6.36,32.17A49.11,49.11,0,0,1,296.2,281.3Z" transform="translate(-87.56 -76.75)"/><path class="cls-1" d="M184.62,265.52l.09.93a1.67,1.67,0,0,0-2.61-.73c-6.95,6-13.82,12.1-20.87,18a76.33,76.33,0,0,1-10.52,7.62c-3.34,1.94-6.92,2.9-10.41,4.41-11.65,5.07-5.84,21.14,3.4,25.46,11.81,5.52,29.33-.78,36.85-10.69,9.82-12.94,8.56-29.84,7.07-45.07C187.44,263.6,184.44,263.68,184.62,265.52Zm-3.82,39.13a27.12,27.12,0,0,1-14.73,13c-6.53,2.35-15.86,4-22.19.36-5.76-3.28-10.13-12.94-4.57-18.18,2.24-2.13,5.76-2.61,8.57-3.86a47.83,47.83,0,0,0,7.24-4c10.46-7,19.67-16.1,29.17-24.3a1.24,1.24,0,0,0,.46-.82C186,279.52,187,293.06,180.8,304.65Z" transform="translate(-87.56 -76.75)"/></g></svg>