<svg xmlns="http://www.w3.org/2000/svg" viewBox="0 0 228.72 241.95"><defs><style>.cls-1{fill:#979797;}</style></defs><title>spices-gray</title><g id="Logo_FIXED" data-name="Logo — FIXED"><path class="cls-1" d="M296,217.82c-6-.06-11.75-.2-16.88,3.31-6,4.08-11.08,9.91-16.36,14.83a1.69,1.69,0,0,0-.5,1.46c-.78.64-1.55,1.29-2.34,1.92l-.7-.37c-2-1.1-3.72,1.38-2.75,3-2.33,1.73-4.72,3.39-7.16,4.95A78.25,78.25,0,0,0,257,222.43c.92-6.69,3.56-24.56-4.35-28.53-18-9.05-12.26,49.2-11.15,55.86a1.9,1.9,0,0,0,.62,1.14c-.09.15-.18.3-.28.45a104.44,104.44,0,0,1-25.24,9.76c-1.53-.13-3.05-.25-4.57-.39a2.36,2.36,0,0,0-2.53,1.78c-2.39.37-4.77.66-7.14.82,13.27-7.77,23.38-22.32,20.85-37.76-1.87-11.49-12.88,1.16-15.78,4.65A144.3,144.3,0,0,0,186.88,263a125.42,125.42,0,0,1-13.53-2.14c-12.1-2.59-24-5.59-36.36-4,7.24-12.42,13.3-25.68,19.32-38.68.51,6.8,2.39,13.39,6.88,18.85,5.16,6.28,14.54,11.39,22.7,7.89,9.17-3.93,5.59-13.17.46-19-6.79-7.67-16.27-12.08-25.68-15.83,0-.61.08-1.22.13-1.83,2.68-5.93,5.34-11.87,8-17.8,3.7,8.15,8.88,16,16.14,20.8,6.65,4.38,16.84,5.27,22.33-1.6,6.36-8,.57-18.17-6.29-23.44s-15.67-10.2-24.64-11.72c1.61-3.26,3.24-6.5,4.94-9.7A94.61,94.61,0,0,1,191,150c-.91,14.51,2.51,26.69,18.84,29.77,14.21,2.68,32.72-.7,34.26-18A2.12,2.12,0,0,0,243,160c-13.88-9.3-31.06-9.89-46.06-16.43,7.36-6.94,16.35-11.72,27.27-12a2,2,0,0,0,2-1.75h0c17.9-12.8,18.19-38.61-.05-51.3a2.33,2.33,0,0,0-3.46.63c-8.1,14.71-15.42,34.81-2.4,48.44A43.41,43.41,0,0,0,197,137.45c.2-10-1.34-20.08-9.57-27-11.66-9.76-27.72-8.24-41.74-6.47a2.16,2.16,0,0,0-1.89,2.85q4.56,10.64,9.11,21.28c2.13,5,4,10.46,7.89,14.38,6.6,6.69,16.42,7,25.37,6.3-5.75,7.55-10.48,16.37-14.66,25.22a29,29,0,0,0-4.75.26c-8.12-20.26-31.06-32.53-52.66-27.5a2.13,2.13,0,0,0-1.47,2.64c6.57,23.07,30,38.67,53.73,35.95-2.2,5-4.29,9.87-6.34,14.32-.51,1.08-1,2.17-1.5,3.26a2.35,2.35,0,0,0-3.76-.49c-.67.75-1.37,1.48-2.1,2.2-.26-.11-.53-.2-.8-.3a1.75,1.75,0,0,0-1.61-1.87,52.1,52.1,0,0,0-5.23-.62,121.69,121.69,0,0,0-49.87-5.95c-2.24.21-6.08,0-8,1.67-3.17,2.79.08,7.8,1.84,10.6,6.5,10.34,18.88,16.24,30.91,16.25,12.82,0,24.41-6.08,33.6-14.61a1.72,1.72,0,0,0,.82,2.34c-13.18,29.5-26.91,60.93-53.22,80.42-2.29,1.69.14,5.21,2.37,3.56,12.79-9.47,22.52-21.52,30.7-34.7a2.57,2.57,0,0,0,.61,0c15-2.67,29.27,2.21,43.89,4.84-6.43,14.38-15.85,39.24-.39,51.39,13.08,10.29,21.85-16.73,23-25.08a29.21,29.21,0,0,0-6.11-22,33.68,33.68,0,0,0-2.47-2.77,94.07,94.07,0,0,0,16.17-.93,1.53,1.53,0,0,0,0,.37c1.79,18.19,24.79,33.81,41.41,22,7.07-5,7.28-13.94,1.28-20-3.93-4-9.53-5.42-14.88-6.16-2.91-.41-5.84-.71-8.77-1a114,114,0,0,0,13-5.54A2.3,2.3,0,0,0,244,256c.35-.53.67-1.07,1-1.6a127,127,0,0,0,15.29-10c10.32,5,22.38,8.28,33.75,5.9,10.05-2.09,19.46-9.78,20.41-20.55C315.61,217.21,305.31,217.93,296,217.82ZM225.41,83.39c13.14,11.07,13.39,30.81-.24,41.82a2.57,2.57,0,0,0,0-.56,39.85,39.85,0,0,1,1.32-15.74c.76-2.67-3.62-3.4-4.36-.81a43.39,43.39,0,0,0-1.67,12.47C214,109.34,219.45,94.72,225.41,83.39Zm-29.78,64.24a122.68,122.68,0,0,0,18.5,5.81c5.64,1.41,25.86,4.5,24.94,11.88-.91,7.2-11.08,10.76-17,11.21-5.69.43-13.17-.35-18.42-2.9C194.08,169,194.76,156.65,195.63,147.63Zm-12.06-12.49-.06,8.89a1.72,1.72,0,0,0,.12.7c-1,.05-2,.08-3,.07a60,60,0,0,0-1.22-17.91c-.58-2.65-4.9-1.68-4.3,1a56.08,56.08,0,0,1,1.1,16.63c-6.36-.75-12.06-3.31-15.6-10-4.48-8.49-7.85-17.79-11.55-26.69,11.38-1.4,24.1-2.43,33.83,4.56s10.24,18.2,9.6,29l-.15-.08a2.19,2.19,0,0,0-2.94,3l-1.59.16a2.19,2.19,0,0,0,.17-.83l.06-8.89C188,132,183.59,132.43,183.57,135.14Zm-9.14,43.39c5.44.77,10.55,3.05,15.58,5.84,6.88,3.81,22.41,14.08,13,23.2-12.7,12.28-26.1-10.06-31.58-22.66C172.41,182.78,173.41,180.65,174.43,178.53Zm-4.89-.25c-.16.34-.31.69-.47,1a2,2,0,0,0-.79-.49l-.12-.45C168.62,178.33,169.08,178.29,169.54,178.28Zm-52-27.88c20.77-3.58,41.82,10.42,46.8,30.94A46.45,46.45,0,0,1,117.57,150.4Zm53.66,69.25c4.28,2.39,24.43,17,12,21.49-7.66,2.77-15.65-4.27-19-10.54a34,34,0,0,1-3.65-15.94A94.43,94.43,0,0,1,171.23,219.65ZM94.38,208.17c-2.15-2.77-4.82-5.16-1.4-7.76,1.38-1.06,6.32-.56,7.89-.63a115.85,115.85,0,0,1,19.17.73,112.72,112.72,0,0,1,12.2,2.15,49.39,49.39,0,0,0-14.81,5.49c-2.5,1.41-.1,5,2.31,3.61a43.78,43.78,0,0,1,24.33-5.71c1.7.58,3.4,1.19,5.08,1.84C133.34,221.14,108.9,226.87,94.38,208.17Zm99.33,94.5a57,57,0,0,1-3.13,6.84,20.73,20.73,0,0,1-2.79,4.16l-8.56-1.41c-3.88-2.78-4.56-11.89-4.57-16.11,0-6.26,1.62-12.3,3.83-18.15a62.45,62.45,0,0,0-.89,11.15c.27,5.28,3.63,9.79,9.22,7.23,2.61-1.19.29-4.8-2.2-3.66-3.48,1.59-1.62-14.49-1.5-15.72s.16-6.44.65-8.17a1.89,1.89,0,0,0,.55.2c-.65,2.43,3,4.06,4,1.65.12-.3.26-.58.38-.88.82.79,1.51,1.61,1.91,2C198.76,280.78,198,292.18,193.71,302.67Zm-1.52-39.24-.65-.05a140.53,140.53,0,0,1,9.64-17.5A134.89,134.89,0,0,1,210.66,233c2.27-2.73,7.22-10.2,8.15-3.22,1.09,8.12-5.36,18.3-10.64,23.79A36.71,36.71,0,0,1,192.19,263.43Zm43.61,3.78c4.51.64,9.34,1.65,12.57,5.11,4.82,5.16,3.12,12.25-3.45,15-14.1,6-30.19-6.12-31.6-20.44a2.18,2.18,0,0,0-.23-.76c1.26-.24,2.51-.5,3.76-.79C223.18,265.86,229.53,266.32,235.8,267.21Zm8-47.51A119,119,0,0,1,245,207c.53-3.54.21-7.24,4.59-6.7,3.9.48,3.16,2.66,3.45,6.34a72.88,72.88,0,0,1-7.81,38.56A138.08,138.08,0,0,1,243.85,219.7Zm63.88,16.52c-8.83,15.23-29.39,11.48-43.59,5.17.74-.6,1.45-1.22,2.18-1.84l25,1.94c2.78.22,3.64-3.94.78-4.16l-21.37-1.66c1.92-1.78,3.78-3.61,5.6-5.48a2.32,2.32,0,0,0,2.34,2.28l11.85.08c2.84,0,2.37-4.18-.44-4.2l-11.85-.08h-.11c.74-.79,1.51-1.56,2.23-2.36a2.41,2.41,0,0,0,.44-.74,18.61,18.61,0,0,1,7.77-3.08c4.27-.52,8.87-.08,13.16,0C310,222.24,311.42,229.88,307.73,236.22Z" transform="translate(-85.87 -78.03)"/></g></svg>