<svg xmlns="http://www.w3.org/2000/svg" viewBox="0 0 239.5 241.17"><defs><style>.cls-1{fill:#979797;}</style></defs><title>spirits-gray</title><g id="Logo_FIXED" data-name="Logo — FIXED"><path class="cls-1" d="M317.64,91.32A579.43,579.43,0,0,0,82.15,93.25c-3.45.74-2.06,5.94,1.32,5.38l27.05,214.9a2.86,2.86,0,0,0,1.57,2.26,2.78,2.78,0,0,0,2.67,2.79q83.88,4.46,167.91,1.73a2.65,2.65,0,0,0,1.54-.51,2.58,2.58,0,0,0,3.09-1.91c19.58-72.35,11.61-148.72,30.16-221.24C320,96,320.68,91.92,317.64,91.32ZM282.36,314.75q-83.18,2.69-166.33-1.68L89,98.31a2.87,2.87,0,0,0-.19-.74A572.25,572.25,0,0,1,311.92,95.9C293.74,167.66,301.31,243.15,282.36,314.75Z" transform="translate(-80.15 -80.17)"/><path class="cls-1" d="M178.62,171a2.53,2.53,0,0,0-2.57-.62A129.57,129.57,0,0,1,150.66,175c-4.54.32-12.69-1.48-16.56.84-3.61,2.16-5.22,8.52-6.71,12.09-2.69,6.44-5,13-7,19.68a2.55,2.55,0,0,0,2,3.34,3.59,3.59,0,0,0,.23.75q5.75,13.22,11.5,26.43c1.7,3.91,3,9.6,7.37,11.42,4.78,2,15.09-.84,20.26-1.32s12.73.36,17.34-2.24c4.93-2.77,7.12-11.68,9.47-16.53,3.63-7.47,8.81-15.26,11.23-23.15,1.45-4.74.42-5.43-2.36-9.84-5.17-8.22-11-16.1-16.47-24.13A2.92,2.92,0,0,0,178.62,171Zm-47.41,22.14c.3-.74,3.63-10.64,5.09-11.68,2-1.41,7.12-.62,9.38-.69a133.87,133.87,0,0,0,28.93-4.26,99.9,99.9,0,0,1-15.1,26.89,2.32,2.32,0,0,0-3.11-1c-2.18-.49-4.19.55-6.59,1.21a95,95,0,0,1-23.58,3.82C127.74,202.63,129.36,197.86,131.21,193.16ZM158.37,243c-4.52.42-11.3,2.53-15.05.1-4-2.61-6.07-11.61-8-16q-3.06-7-6.13-14.09a79.54,79.54,0,0,0,9.49-.9,81.26,81.26,0,0,0,9.5-2.08c3.25-.93,4.8-2.52,7.53-.48,4.25,3.15,7.27,10.85,10.08,15.27q5.07,8,10.16,16C171.41,243.18,162.8,242.54,158.37,243Zm33.22-45.21c2.55,3.73,3.39,4.71,1.79,9-2.1,5.63-5.39,11.11-8,16.53-1.49,3.08-3.3,9-5.55,13.15l-11.14-17.57c-1.65-2.61-3.58-7-5.91-10.68a107.14,107.14,0,0,0,16.56-28.46q3.56,5.24,7.13,10.45Q189,194,191.59,197.74Z" transform="translate(-80.15 -80.17)"/><path class="cls-1" d="M196.22,258.75c1.95,5.63,9,10.76,13.36,14.5a124,124,0,0,0,18.64,13.18,2.63,2.63,0,0,0,3.7-1A2.32,2.32,0,0,0,234,284c5.61-11.43,26.49-2.11,33.43-10.91,3.09-3.91,3-15.17,3.87-20.12l4.2-25a3,3,0,0,0-4.25-3.19c0-1.7-1-3.3-2.53-5-7.59-8.77-19.4-15.89-28.39-23.25a2.85,2.85,0,0,0-3.37-.44q-13.35,8.94-25.71,19.15a2.6,2.6,0,0,0-.79,1.81,2.44,2.44,0,0,0-1.65,1.33,128.57,128.57,0,0,0-9.5,22.19C197.75,245.57,194.38,253.46,196.22,258.75Zm73.3-30.15c.13-.14.21-.28.33-.43q-2,11.67-3.92,23.34l-2.1,12.5c-.89,5.29-.17,5.46-5.21,6.75-6.56,1.68-15.81,1.09-22.53,4.07l2-9.3c1.17-5.47,1.56-12.66,3.8-17.81C246.49,237,262.24,236.6,269.52,228.6ZM238.22,202l22.31,18.27c6.27,5.14,3.83,5.22-2.11,8.62-4.7,2.69-9.44,5.32-14.1,8.06a24.84,24.84,0,0,0-2.86,1.92,2.89,2.89,0,0,0-.79-.66,77.52,77.52,0,0,1-23.62-20.49Q227.31,209.36,238.22,202Zm-25,19.88A83.54,83.54,0,0,0,237.86,243h0a27.07,27.07,0,0,0-2.16,6.81c-2.23,10.24-4.37,20.5-6.55,30.74-8.88-5.19-20.9-12.47-25.82-21.21C198,249.76,208.34,231,213.26,221.84Z" transform="translate(-80.15 -80.17)"/><path class="cls-1" d="M110.25,147.57a7.52,7.52,0,0,1-1.25-.17,2.72,2.72,0,0,0-3,1.31,2.41,2.41,0,0,0-1.48,2.43A841.85,841.85,0,0,0,124.29,303a2.5,2.5,0,0,0,3.49,1.8,2.81,2.81,0,0,0,2.68,2.9,1351.19,1351.19,0,0,0,141,.33,2.7,2.7,0,0,0,1.43-.46,2.35,2.35,0,0,0,2.08-2,1056.05,1056.05,0,0,0,21.84-160,2.34,2.34,0,0,0-1.33-2.38,2.69,2.69,0,0,0-2.65-3.26,2.14,2.14,0,0,1-.92,0,2.6,2.6,0,0,0-2.67,2.49,3,3,0,0,0-3.52,1c-11.71,15.43-34.11-10-46.59-12.37-14.73-2.78-25.46,9-37.06,15.82C173.15,163.88,137,122.45,110.25,147.57Zm124.42-11.38c10.53.27,18,8.57,26.72,13.23,9.65,5.15,22,6.25,29.17-3.19a3,3,0,0,0,.43-.85l.31.08,0,.15a1046.68,1046.68,0,0,1-21.3,157,1352.51,1352.51,0,0,1-139.51-.41,2.78,2.78,0,0,0-.72,0,3.13,3.13,0,0,0-.08-.66,832.49,832.49,0,0,1-19.48-148.47h.49a2.39,2.39,0,0,0,1.56,0,14.83,14.83,0,0,0,10.46-6.08,2.85,2.85,0,0,0,.37-.68c13.86-4.52,30.75,3.62,44,7.69,16.75,5.15,30.07,3.45,44.39-6.6C218.23,142.6,225.89,136,234.67,136.19Z" transform="translate(-80.15 -80.17)"/></g></svg>