<svg xmlns="http://www.w3.org/2000/svg" viewBox="0 0 105.49 192.58"><defs><style>.cls-1{fill:#979797;}</style></defs><title>spirits-gray</title><g id="Logo_FIXED" data-name="Logo — FIXED"><path class="cls-1" d="M242.57,176.54a213,213,0,0,1-23-19.06v-.09c-.22-5.58-.37-11.45-.5-18.44h2.63a1.87,1.87,0,0,0,0-3.73H219c-.13-10.14-.11-20,.07-29.38a1.7,1.7,0,0,0-.89-1.59,2,2,0,0,0-1.92,0H185.54a2,2,0,0,0-.49.06,2,2,0,0,0-1.89-.57,1.74,1.74,0,0,0-1.4,1.77l.18,29.69h-.34a1.87,1.87,0,0,0,0,3.73H182c0,1.52,0,3,0,4.55,0,4.44,0,9,.17,13.55,0,1-1.72,1.89-3,2.51-.44.22-.85.42-1.15.6-2.4,1.46-4.58,2.82-6.66,4.17-4.67,3-8.76,5.92-12.53,8.85-7.89,6.14-11.57,12.6-11.26,19.76a2.07,2.07,0,0,0,.11.55l.06,5.18,0,1.77a2,2,0,0,0-.49,1.47,1.75,1.75,0,0,0,.52,1.19c.43,29,1.61,58.3,3.51,87.08a1.81,1.81,0,0,0,0,1.75c1.95,3.77,6.28,4.36,10.45,4.36,1,0,2,0,2.93-.07s1.82-.06,2.62-.05c9.39.09,19.4.15,29.46-.17l28.91-.9c1.17,0,2.4,0,3.7,0,5.83.06,12.45.12,16.57-4.16a1.76,1.76,0,0,0,.51-1.14,1.45,1.45,0,0,0,.07-.35c3.4-31.41,5.49-63.35,6.22-94.89v-.1C253,187.33,249.76,181.64,242.57,176.54Zm-27.34-41.32H185.68L185.51,108h29.76C215.12,116.85,215.11,126,215.23,135.22Zm-63.78,63.21c0-1.74,0-3.48-.06-5.22a1.84,1.84,0,0,0-.11-.62c-.21-8.64,6.48-14.17,13.36-19.1,3.5-2.52,7.21-5,11-7.45.33-.21,1-.58,1.9-1,6-3.19,9.12-5.23,8.67-6.85a2.87,2.87,0,0,0-.21-.51,1.85,1.85,0,0,1-.13-.29,2.69,2.69,0,0,1-.08-.82q0-7.05-.08-14.12l0-3.45h29.53c-.14,1.5,0,5.29.58,15l0,.61c.08,1.14.15,2.31.31,3.47a5.14,5.14,0,0,0,2.16,3.47l.58.54c4.85,4.56,9,8.31,13.43,11.77.65.52,1.32,1,2,1.52,1,.75,2,1.48,3.05,2.2,6.13,4.32,11.92,8.4,11.64,16.81v.09l-.06,2.05,0,1c-31.18-2.13-61.34-.35-97.44,2.22Zm97.35,2.72c-.66,22.81-2.05,45.94-4.11,68.78H198.12c-2.91,0-5.84,0-8.77-.05-11.67-.1-23.72-.2-35.47,1.31-1.24-22.56-2-45.37-2.37-67.81C187.54,200.82,217.64,199,248.8,201.15Zm-93.75,89.69a1,1,0,0,0,0-.25c-.31-4.7-.62-9.84-1-15.69,11.83-1.59,24-1.45,35.88-1.32,3.32,0,6.64.08,9.95.08h44.42c-.54,5.74-1,10.54-1.5,15-2.5,2.24-6,2.34-9.28,2.43l-.93,0-7,.22-27.16.85c-8.5.26-16,.36-22.84.3L165,292.41h-.17c-.52,0-1.09,0-1.7,0C160.25,292.56,156.73,292.68,155.05,290.84Zm94.45-96.4Z" transform="translate(-147.25 -103.71)"/><path class="cls-1" d="M162.71,227a89,89,0,0,1,8.56,8c-2.78,3.91-5.5,7.48-8.3,10.9a2,2,0,0,0,.32,2.8,1.71,1.71,0,0,0,1.1.41,1.67,1.67,0,0,0,1.28-.64c2.75-3.36,5.49-6.93,8.15-10.63a87.83,87.83,0,0,1,5.59,7.26,1.93,1.93,0,0,0,2.73.46,1.65,1.65,0,0,0,.45-2.4,91.74,91.74,0,0,0-6.57-8.45c1.91-2.75,3.46-5.08,4.88-7.32a1.73,1.73,0,0,0-.58-2.46,1.86,1.86,0,0,0-2.62.54c-1.24,2-2.6,4-4.26,6.42a88.2,88.2,0,0,0-8.17-7.6,2,2,0,0,0-2.79.32A1.62,1.62,0,0,0,162.71,227Z" transform="translate(-147.25 -103.71)"/><path class="cls-1" d="M198.84,236.86c-2.06,2.06-3.83,3.75-5.58,5.29a1.67,1.67,0,0,0-.57,1.6,2,2,0,0,0,1.34,1.46,1.82,1.82,0,0,0,1.83-.38c1.67-1.48,3.38-3.1,5.36-5.07l1.19,1.43c1.6,1.92,3.26,3.91,4.79,5.86a1.64,1.64,0,0,0,1.28.67,1.69,1.69,0,0,0,1.05-.39,2,2,0,0,0,.39-2.82c-1.49-1.91-3.1-3.84-4.66-5.71l-1.42-1.71c2.8-3,5.44-6,7.83-9.08a2,2,0,0,0-.39-2.83,1.59,1.59,0,0,0-2.33.29c-2.3,2.94-4.82,5.87-7.49,8.71a71.25,71.25,0,0,1-6.9-10,1.71,1.71,0,0,0-1.48-.93,2,2,0,0,0-1.74,1,1.77,1.77,0,0,0,0,1.82A74.7,74.7,0,0,0,198.84,236.86Z" transform="translate(-147.25 -103.71)"/><path class="cls-1" d="M227.52,236.15c-2.3,2.75-4.5,5.22-6.7,7.53a1.8,1.8,0,0,0-.45,1.77,2,2,0,0,0,1.43,1.38,1.73,1.73,0,0,0,1.67-.53c2-2.09,4.05-4.39,6.26-7,2,2.9,3.82,5.53,5.44,8a1.81,1.81,0,0,0,1.54.85h.11a2,2,0,0,0,1.67-1.06,1.67,1.67,0,0,0-.13-1.72c-1.85-2.84-3.87-5.8-6.16-9,2.48-3.07,4.86-6.24,7.06-9.42a1.64,1.64,0,0,0,.18-1.67,2,2,0,0,0-1.64-1.1,1.85,1.85,0,0,0-1.72.82c-1.87,2.7-3.88,5.39-6.13,8.21-2.42-3.35-4.91-6.64-7.4-9.8a1.59,1.59,0,0,0-2.34-.28,2,2,0,0,0-.38,2.83C222.44,229.24,225,232.68,227.52,236.15Z" transform="translate(-147.25 -103.71)"/></g></svg>