<svg xmlns="http://www.w3.org/2000/svg" viewBox="0 0 196.68 180.89"><defs><style>.cls-1{fill:#979797;}</style></defs><title>supplements-gray</title><g id="Logo_FIXED" data-name="Logo — FIXED"><path class="cls-1" d="M239.18,201.94l-55.86,44.74a2.33,2.33,0,0,1-1.41,1.08c-9.8,9.15-11.21,25.67-1.65,35.63s26.28,9,35.66-.47a2.07,2.07,0,0,0,.34-.47l25.09-20.09a2.5,2.5,0,0,0,1.44-1.15l28-22.41a1.84,1.84,0,0,0,1.15-.53c.58-.54,1.13-1.12,1.65-1.71l.36-.29a2,2,0,0,0,.73-1.06c7.21-9.44,7.48-23.64-1.09-32.57C264.43,193.13,248.74,193.6,239.18,201.94Zm-25.53,77.44a2,2,0,0,0-.62.43c-7.74,7.81-21.77,9.22-29.81.84s-6.58-22.16,1.58-29.78a2,2,0,0,0,.52-.8,1.94,1.94,0,0,0,.65-.34L212.6,228.4s.06.11.1.16L237.87,260Zm55.88-44.75-28.34,22.7c-9.65-8.16-17.2-21.48-25.14-31.38a1.45,1.45,0,0,0-.17-.18l23.7-19a1.8,1.8,0,0,0,1.21-.56c7.73-7.82,21.76-9.23,29.81-.84C278.46,213.58,277.21,226.92,269.53,234.63Z" transform="translate(-101.66 -109.56)"/><path class="cls-1" d="M203.79,219.47c7.77-11.38,3.4-27.57-7.8-34.8a2.42,2.42,0,0,0-.52-.24L170.65,164a2.54,2.54,0,0,0-1.43-1.17l-27.68-22.77a1.89,1.89,0,0,0-.75-1,23.57,23.57,0,0,0-2-1.27l-.35-.29a2,2,0,0,0-1.19-.49c-10.72-5.11-24.67-2.46-31.65,7.77-7.43,10.88-3.74,26.14,6.38,33.78L167.23,224a2.12,2.12,0,0,0,.69.37,2,2,0,0,0,.66.79C179.55,232.9,196,230.88,203.79,219.47Zm-63.71-23-23.45-19.29a1.8,1.8,0,0,0-.8-1.06c-9.24-6-13.51-19.41-7-29,6.39-9.37,19.71-10.9,28.83-5l28,23.08-25.55,31A2.39,2.39,0,0,0,140.08,196.46Zm30.06,24.91a1.87,1.87,0,0,0-.47-.56l-26.35-21.68.12-.11c9.14-9.69,17.14-20.86,25.6-31.11a268,268,0,0,1,24.13,19.52l.17.15c8.23,7.36,14.1,19.39,7.16,29.56-6.55,9.59-20.34,11-29.47,4.58A1.91,1.91,0,0,0,170.14,221.37Z" transform="translate(-101.66 -109.56)"/><path class="cls-1" d="M274.65,118.06l-71.09-8.24a2.17,2.17,0,0,0-.78.06,2,2,0,0,0-1-.31c-13.39-.52-26.13,10.1-26.48,23.9s12.09,25,25.42,25a2,2,0,0,0,.57-.08l31.93,3.7a2.48,2.48,0,0,0,1.83.21l35.6,4.13a1.93,1.93,0,0,0,1.19.44c.79,0,1.59,0,2.38,0l.46.05a2,2,0,0,0,1.26-.23c11.78-1.52,22.06-11.31,22.38-23.69C298.67,129.81,287.3,119,274.65,118.06ZM232.47,158l-30.82-3.57a1.91,1.91,0,0,0-.74-.14c-11,0-21.87-9-21.57-20.6s11.13-20.26,22.28-19.82a1.93,1.93,0,0,0,.93-.19,2.2,2.2,0,0,0,.7.21l33.9,3.93a1.33,1.33,0,0,0-.05.19Zm49.14,2.56a29.34,29.34,0,0,1-8.85,2c-11.66,1-25.62-2.85-36.07-4.06l4.63-39.93a2.08,2.08,0,0,0,0-.25l30.17,3.49a1.76,1.76,0,0,0,1.24.46C294.24,122.25,302.78,151.81,281.61,160.51Z" transform="translate(-101.66 -109.56)"/></g></svg>