<?xml version="1.0" standalone="no"?>
<!DOCTYPE svg PUBLIC "-//W3C//DTD SVG 20010904//EN"
 "http://www.w3.org/TR/2001/REC-SVG-20010904/DTD/svg10.dtd">
<svg version="1.0" xmlns="http://www.w3.org/2000/svg"
 width="1024.000000pt" height="1024.000000pt" viewBox="0 0 1024.000000 1024.000000"
 preserveAspectRatio="xMidYMid meet">
<metadata>
Created by potrace 1.11, written by Peter Selinger 2001-2013
</metadata>
<g transform="translate(0.000000,1024.000000) scale(0.100000,-0.100000)"
fill="#000000" stroke="none">
<path d="M4848 10195 c-1 -2 -50 -6 -108 -10 -58 -3 -121 -8 -140 -11 -19 -2
-51 -7 -70 -9 -19 -3 -55 -7 -80 -10 -145 -17 -457 -78 -615 -122 -487 -135
-896 -308 -1310 -556 -88 -53 -349 -226 -393 -262 -350 -278 -391 -314 -591
-515 -284 -285 -530 -600 -738 -945 -312 -517 -542 -1113 -643 -1668 -11 -62
-22 -121 -24 -133 -2 -12 -7 -45 -11 -75 -3 -30 -8 -61 -10 -69 -2 -8 -7 -44
-11 -80 -3 -36 -8 -78 -10 -95 -20 -179 -27 -693 -12 -880 12 -146 46 -414 62
-491 2 -12 7 -39 10 -60 12 -71 66 -307 97 -419 230 -832 675 -1604 1275
-2211 115 -116 159 -158 294 -278 19 -18 80 -68 135 -111 55 -44 102 -82 105
-86 12 -13 232 -167 334 -233 403 -262 884 -481 1326 -607 152 -42 166 -46
260 -68 95 -22 109 -25 230 -47 47 -9 92 -17 100 -19 8 -2 40 -6 70 -10 30 -4
65 -8 76 -10 12 -2 48 -6 80 -10 33 -4 70 -9 84 -11 165 -26 781 -25 1000 1
19 2 60 6 90 10 78 8 126 14 200 26 36 6 79 13 95 16 81 13 362 77 455 103
734 208 1338 527 1929 1018 122 102 521 492 521 511 0 5 -25 30 -55 56 l-56
47 -125 -123 c-152 -149 -142 -140 -229 -214 -696 -594 -1515 -973 -2395
-1110 -36 -5 -167 -23 -217 -29 -227 -28 -865 -29 -1009 -2 -10 2 -48 7 -84
11 -83 9 -185 24 -325 51 -582 109 -1182 353 -1700 691 -167 110 -304 210
-490 359 -697 558 -1218 1310 -1504 2171 -52 156 -119 403 -136 501 -3 18 -12
63 -19 100 -16 75 -20 100 -36 222 -6 47 -13 101 -15 120 -5 33 -10 95 -20
228 -6 71 -6 501 0 562 2 25 6 79 10 120 3 41 8 91 10 110 3 19 7 58 10 85 7
58 9 69 30 190 23 136 24 142 51 260 107 472 322 994 571 1392 28 43 81 127
119 188 248 396 610 803 999 1126 547 453 1272 811 1955 964 189 43 390 76
541 90 35 4 75 8 89 11 140 23 778 23 900 -1 10 -2 50 -7 87 -10 37 -4 75 -9
84 -10 9 -2 40 -6 70 -10 30 -3 61 -8 69 -10 8 -2 35 -7 60 -10 24 -4 48 -9
52 -11 4 -2 26 -7 50 -10 77 -11 390 -92 538 -139 186 -60 390 -141 559 -221
74 -36 138 -61 142 -57 12 14 59 107 59 118 0 9 -245 134 -390 199 -255 114
-751 274 -963 311 -18 4 -50 10 -72 15 -38 8 -236 42 -318 54 -20 3 -79 10
-130 16 -50 5 -117 12 -147 16 -59 6 -676 15 -682 9z"/>
<path d="M4937 9144 c-1 -1 -45 -5 -97 -8 -162 -11 -352 -36 -490 -66 -25 -5
-57 -12 -71 -14 -51 -8 -301 -77 -406 -111 -266 -88 -576 -230 -808 -372 -11
-7 -27 -15 -35 -19 -62 -31 -332 -226 -480 -348 -89 -73 -397 -374 -419 -407
-11 -18 -5 -26 51 -79 l63 -59 102 103 c91 92 161 157 258 241 110 95 329 251
478 342 417 253 952 445 1407 507 238 32 337 39 560 39 206 0 333 -10 540 -39
133 -19 224 -37 375 -75 140 -35 138 -34 315 -95 1126 -389 2014 -1307 2375
-2454 29 -90 87 -312 99 -375 10 -50 36 -214 41 -255 3 -25 8 -61 10 -80 14
-104 20 -237 20 -425 0 -184 -10 -409 -20 -425 -1 -3 -6 -36 -10 -75 -4 -38
-8 -72 -10 -75 -1 -3 -6 -27 -10 -55 -9 -74 -53 -280 -76 -360 -54 -187 -115
-368 -149 -440 -5 -11 -21 -49 -36 -85 -33 -82 -122 -260 -182 -365 -256 -449
-623 -865 -1027 -1163 -60 -45 -121 -90 -135 -100 -14 -10 -74 -48 -135 -86
-60 -37 -117 -71 -125 -76 -74 -48 -349 -179 -485 -233 -196 -77 -500 -167
-646 -191 -19 -3 -43 -7 -54 -10 -11 -2 -55 -9 -98 -16 -43 -6 -88 -13 -100
-15 -25 -4 -96 -11 -207 -21 -41 -3 -135 -7 -207 -8 -73 -1 -135 -5 -138 -8
-7 -7 -14 -149 -8 -164 4 -11 337 -11 453 0 25 2 79 7 120 10 41 4 82 9 90 11
8 2 40 7 70 10 30 4 102 16 160 27 58 11 115 22 128 24 151 29 493 138 687
221 354 150 734 381 1000 607 121 103 143 123 285 266 505 505 856 1116 1039
1810 17 63 32 126 35 140 3 14 14 72 26 130 22 113 44 273 57 410 15 165 8
685 -11 788 -2 9 -7 44 -10 77 -4 33 -11 83 -16 110 -5 28 -12 66 -15 85 -93
571 -376 1215 -749 1705 -154 203 -379 443 -566 606 -460 401 -987 683 -1585
848 -119 33 -377 86 -465 96 -30 3 -62 8 -70 10 -15 4 -85 11 -200 21 -65 6
-488 12 -493 8z"/>
<path d="M5140 7947 c-3 -3 -36 -7 -75 -11 -160 -15 -390 -77 -536 -145 -67
-31 -223 -115 -242 -131 -7 -5 -44 -33 -84 -62 -250 -185 -432 -426 -541 -718
-35 -96 -87 -275 -96 -335 -3 -22 -8 -51 -10 -65 -8 -41 -25 -171 -32 -240 -4
-36 -8 -939 -9 -2007 l-1 -1943 401 0 402 0 0 1285 c0 707 3 1288 7 1293 4 4
409 8 899 9 491 2 908 4 927 7 19 2 45 4 58 5 l22 1 0 384 0 383 -955 -1 -955
-1 -1 30 c-5 174 2 449 15 550 18 135 56 283 96 372 125 275 410 486 715 529
22 3 339 7 705 8 l665 1 23 85 c61 222 182 684 182 693 0 2 -19 7 -42 11 -46
8 -1531 20 -1538 13z"/>
</g>
</svg>
