<?xml version="1.0" encoding="utf-8"?>
<!-- Generator: Adobe Illustrator 22.0.1, SVG Export Plug-In . SVG Version: 6.00 Build 0)  -->
<svg version="1.1" id="Layer_1" xmlns="http://www.w3.org/2000/svg" xmlns:xlink="http://www.w3.org/1999/xlink" x="0px" y="0px"
	 viewBox="0 0 400 400" style="enable-background:new 0 0 400 400;" xml:space="preserve">
<style type="text/css">
	.st0{fill:#7DBE00;}
	.st1{fill:#FFFFFF;}
</style>
<rect class="st0" width="400" height="400"/>
<path id="FoodUniverse_Symbol" class="st1" d="M320.5,293.6l-0.6,0.7c-26.8,29.9-65.1,47-105.2,47c-77.9,0-141.3-63.4-141.3-141.3
	S136.8,58.7,214.7,58.7c23.4,0,46.6,5.8,67.1,16.9l0.9,0.5l-1.9,3.6l-0.8-0.4c-18.4-9.2-39-14-59.7-14c-46.6,0-90.6,24.9-114.7,65
	C92.1,151.1,85,175.2,85,200c0,41.6,20.3,81,54.2,105.3c23.5,17.9,51.5,27.4,80.9,27.4c36.2,0,71.4-15,96.6-41.3l0.7-0.7
	L320.5,293.6z M214.7,88.1c-31.8,0-62.2,13.6-83.5,37.3l-0.6,0.7l3.7,3.3l0.6-0.7c20-21.4,48.2-33.7,77.4-33.7
	c58.4,0,105.9,47.5,105.9,105.9s-47.5,105.9-105.9,105.9h-2l-0.2,4.9h1c1.2,0,2.4,0.1,3.5,0.1c61.7,0,111.9-50.2,111.9-111.9
	C326.6,138.3,276.4,88.1,214.7,88.1z M195.9,156c2.4-3.9,5.6-7.1,9.6-9.4c3.9-2.3,8.1-3.4,12.4-3.4c3.9,0,35.6,0,35.6,0l5.8-22
	c0,0-2.8-0.4-6.8-0.5c-5-0.1-28.8-0.1-34.5-0.1c-1.5,0-3,0.1-4.5,0.2c-5.6,0.5-11,1.9-16.3,4.4c-6.7,3.1-12.2,7.3-16.7,12.6
	c-1.4,1.6-2.7,3.5-3.8,5.4c-5.1,8.5-7.7,19.8-7.7,33.9v102.5h22.6V207c0,0,43.1,0,47.2,0s6.6-0.5,6.6-0.5v-21.4h-53.8V176
	C191.7,167.3,193.2,160.7,195.9,156z"/>
</svg>
